<svg width="74" height="36" viewBox="0 0 74 36" fill="none" xmlns="http://www.w3.org/2000/svg">
<path d="M17.728 23V12.44H21.488C22.736 12.44 23.648 12.7013 24.224 13.224C24.8 13.7467 25.088 14.456 25.088 15.352C25.088 15.8853 24.9333 16.3707 24.624 16.808C24.3147 17.2347 23.8773 17.5067 23.312 17.624V17.64C23.9413 17.7573 24.4373 18.0453 24.8 18.504C25.1733 18.952 25.36 19.464 25.36 20.04C25.36 20.936 25.024 21.656 24.352 22.2C23.68 22.7333 22.72 23 21.472 23H17.728ZM19.008 17.08H21.504C22.9973 17.08 23.744 16.504 23.744 15.352C23.744 14.2107 22.9973 13.64 21.504 13.64H19.008V17.08ZM19.008 21.8H21.776C22.5333 21.8 23.0933 21.6453 23.456 21.336C23.8293 21.0267 24.016 20.5947 24.016 20.04C24.016 19.4747 23.8293 19.0427 23.456 18.744C23.0933 18.4347 22.5333 18.28 21.776 18.28H19.008V21.8ZM26.7129 23L30.8249 12.44H32.3449L36.4409 23H35.0809L33.9609 20.072H29.1769L28.0569 23H26.7129ZM31.0809 15.08L29.6409 18.872H33.4969L32.0729 15.128L31.5769 13.656H31.5449L31.0809 15.08ZM46.74 20.296C46.4093 21.2027 45.8653 21.9067 45.108 22.408C44.3507 22.9093 43.476 23.16 42.484 23.16C41.4813 23.16 40.612 22.9413 39.876 22.504C39.1507 22.056 38.5853 21.4267 38.18 20.616C37.7853 19.8053 37.588 18.84 37.588 17.72C37.588 16.6 37.7853 15.6347 38.18 14.824C38.5853 14.0133 39.1507 13.3893 39.876 12.952C40.612 12.504 41.4707 12.28 42.452 12.28C43.476 12.28 44.3293 12.4933 45.012 12.92C45.7053 13.336 46.2173 13.944 46.548 14.744L45.284 15.336C45.0493 14.728 44.708 14.2693 44.26 13.96C43.8227 13.64 43.252 13.48 42.548 13.48C41.8333 13.48 41.204 13.6507 40.66 13.992C40.116 14.3227 39.6893 14.8027 39.38 15.432C39.0813 16.0613 38.932 16.824 38.932 17.72C38.932 19.0427 39.2467 20.0827 39.876 20.84C40.516 21.5867 41.3853 21.96 42.484 21.96C43.188 21.96 43.8013 21.784 44.324 21.432C44.8467 21.0693 45.2253 20.5307 45.46 19.816L46.74 20.296ZM50.4768 12.44V17.88L55.7888 12.44H57.4688L53.2608 16.744L57.5168 23H55.9808L52.3648 17.688L50.4768 19.608V23H49.1968V12.44H50.4768Z" fill="#FFD22E"/>
<path d="M4 1H70V-1H4V1ZM73 4V32H75V4H73ZM70 35H4V37H70V35ZM1 32V4H-1V32H1ZM4 35C2.34315 35 1 33.6569 1 32H-1C-1 34.7614 1.23858 37 4 37V35ZM73 32C73 33.6569 71.6569 35 70 35V37C72.7614 37 75 34.7614 75 32H73ZM70 1C71.6569 1 73 2.34315 73 4H75C75 1.23858 72.7614 -1 70 -1V1ZM4 -1C1.23858 -1 -1 1.23858 -1 4H1C1 2.34315 2.34315 1 4 1V-1Z" fill="#FFD22E"/>
</svg>
