<svg width="80" height="36" viewBox="0 0 80 36" fill="none" xmlns="http://www.w3.org/2000/svg">
<path d="M19.008 12.44V17.048H24.736V12.44H26.016V23H24.736V18.248H19.008V23H17.728V12.44H19.008ZM33.734 12.28C34.7367 12.28 35.6007 12.504 36.326 12.952C37.062 13.3893 37.6273 14.0133 38.022 14.824C38.4273 15.6347 38.63 16.6 38.63 17.72C38.63 18.84 38.4273 19.8053 38.022 20.616C37.6273 21.4267 37.062 22.056 36.326 22.504C35.6007 22.9413 34.7367 23.16 33.734 23.16C32.7313 23.16 31.862 22.9413 31.126 22.504C30.4007 22.056 29.8353 21.4267 29.43 20.616C29.0353 19.8053 28.838 18.84 28.838 17.72C28.838 16.6 29.0353 15.6347 29.43 14.824C29.8353 14.0133 30.4007 13.3893 31.126 12.952C31.862 12.504 32.7313 12.28 33.734 12.28ZM33.734 13.48C32.6353 13.48 31.766 13.8533 31.126 14.6C30.4967 15.3467 30.182 16.3867 30.182 17.72C30.182 19.0427 30.4967 20.0827 31.126 20.84C31.766 21.5867 32.6353 21.96 33.734 21.96C34.8327 21.96 35.6967 21.5867 36.326 20.84C36.966 20.0827 37.286 19.0427 37.286 17.72C37.286 16.3867 36.966 15.3467 36.326 14.6C35.6967 13.8533 34.8327 13.48 33.734 13.48ZM51.6548 12.44V23H50.4388V16.36L50.5828 13.576H50.5668L47.0948 23H46.0068L42.5348 13.576H42.5188L42.6628 16.36V23H41.4468V12.44H43.4148L45.7348 18.856L46.5348 21.496H46.5668L47.3828 18.872L49.6868 12.44H51.6548ZM55.103 23V12.44H62.511V13.64H56.383V17.048H61.151V18.248H56.383V21.8H62.751V23H55.103Z" fill="#EF8620"/>
<rect x="0.5" y="0.5" width="79" height="35" rx="3.5" stroke="#EF8620"/>
</svg>
