<svg width="183" height="41" viewBox="0 0 183 41" fill="none" xmlns="http://www.w3.org/2000/svg">
<rect x="0.5" y="0.5" width="182" height="40" rx="4" fill="url(#paint0_linear)"/>
<path d="M25.0916 22.796C24.7609 23.7027 24.2169 24.4067 23.4596 24.908C22.7022 25.4093 21.8276 25.66 20.8356 25.66C19.8329 25.66 18.9636 25.4413 18.2276 25.004C17.5022 24.556 16.9369 23.9267 16.5316 23.116C16.1369 22.3053 15.9396 21.34 15.9396 20.22C15.9396 19.1 16.1369 18.1347 16.5316 17.324C16.9369 16.5133 17.5022 15.8893 18.2276 15.452C18.9636 15.004 19.8222 14.78 20.8036 14.78C21.8276 14.78 22.6809 14.9933 23.3636 15.42C24.0569 15.836 24.5689 16.444 24.8996 17.244L23.6356 17.836C23.4009 17.228 23.0596 16.7693 22.6116 16.46C22.1742 16.14 21.6036 15.98 20.8996 15.98C20.1849 15.98 19.5556 16.1507 19.0116 16.492C18.4676 16.8227 18.0409 17.3027 17.7316 17.932C17.4329 18.5613 17.2836 19.324 17.2836 20.22C17.2836 21.5427 17.5982 22.5827 18.2276 23.34C18.8676 24.0867 19.7369 24.46 20.8356 24.46C21.5396 24.46 22.1529 24.284 22.6756 23.932C23.1982 23.5693 23.5769 23.0307 23.8116 22.316L25.0916 22.796ZM31.8043 14.78C32.807 14.78 33.671 15.004 34.3963 15.452C35.1323 15.8893 35.6976 16.5133 36.0923 17.324C36.4976 18.1347 36.7003 19.1 36.7003 20.22C36.7003 21.34 36.4976 22.3053 36.0923 23.116C35.6976 23.9267 35.1323 24.556 34.3963 25.004C33.671 25.4413 32.807 25.66 31.8043 25.66C30.8016 25.66 29.9323 25.4413 29.1963 25.004C28.471 24.556 27.9056 23.9267 27.5003 23.116C27.1056 22.3053 26.9083 21.34 26.9083 20.22C26.9083 19.1 27.1056 18.1347 27.5003 17.324C27.9056 16.5133 28.471 15.8893 29.1963 15.452C29.9323 15.004 30.8016 14.78 31.8043 14.78ZM31.8043 15.98C30.7056 15.98 29.8363 16.3533 29.1963 17.1C28.567 17.8467 28.2523 18.8867 28.2523 20.22C28.2523 21.5427 28.567 22.5827 29.1963 23.34C29.8363 24.0867 30.7056 24.46 31.8043 24.46C32.903 24.46 33.767 24.0867 34.3963 23.34C35.0363 22.5827 35.3563 21.5427 35.3563 20.22C35.3563 18.8867 35.0363 17.8467 34.3963 17.1C33.767 16.3533 32.903 15.98 31.8043 15.98ZM47.8051 14.94V25.5H46.2211L41.8051 18.428L40.6851 16.444H40.6691L40.7331 18.044V25.5H39.5171V14.94H41.1011L45.5011 21.98L46.6371 24.012H46.6531L46.5891 22.396V14.94H47.8051ZM59.5551 14.94V25.5H57.9711L53.5551 18.428L52.4351 16.444H52.4191L52.4831 18.044V25.5H51.2671V14.94H52.8511L57.2511 21.98L58.3871 24.012H58.4031L58.3391 22.396V14.94H59.5551ZM63.0171 25.5V14.94H70.4251V16.14H64.2971V19.548H69.0651V20.748H64.2971V24.3H70.6651V25.5H63.0171ZM81.4978 22.796C81.1671 23.7027 80.6231 24.4067 79.8658 24.908C79.1085 25.4093 78.2338 25.66 77.2418 25.66C76.2391 25.66 75.3698 25.4413 74.6338 25.004C73.9085 24.556 73.3431 23.9267 72.9378 23.116C72.5431 22.3053 72.3458 21.34 72.3458 20.22C72.3458 19.1 72.5431 18.1347 72.9378 17.324C73.3431 16.5133 73.9085 15.8893 74.6338 15.452C75.3698 15.004 76.2285 14.78 77.2098 14.78C78.2338 14.78 79.0871 14.9933 79.7698 15.42C80.4631 15.836 80.9751 16.444 81.3058 17.244L80.0418 17.836C79.8071 17.228 79.4658 16.7693 79.0178 16.46C78.5805 16.14 78.0098 15.98 77.3058 15.98C76.5911 15.98 75.9618 16.1507 75.4178 16.492C74.8738 16.8227 74.4471 17.3027 74.1378 17.932C73.8391 18.5613 73.6898 19.324 73.6898 20.22C73.6898 21.5427 74.0045 22.5827 74.6338 23.34C75.2738 24.0867 76.1431 24.46 77.2418 24.46C77.9458 24.46 78.5591 24.284 79.0818 23.932C79.6045 23.5693 79.9831 23.0307 80.2178 22.316L81.4978 22.796ZM91.3786 14.94V16.14H87.6986V25.5H86.4186V16.14H82.7386V14.94H91.3786ZM105.613 14.94V16.14H101.933V25.5H100.653V16.14H96.9729V14.94H105.613ZM111.742 14.78C112.744 14.78 113.608 15.004 114.334 15.452C115.07 15.8893 115.635 16.5133 116.03 17.324C116.435 18.1347 116.638 19.1 116.638 20.22C116.638 21.34 116.435 22.3053 116.03 23.116C115.635 23.9267 115.07 24.556 114.334 25.004C113.608 25.4413 112.744 25.66 111.742 25.66C110.739 25.66 109.87 25.4413 109.134 25.004C108.408 24.556 107.843 23.9267 107.438 23.116C107.043 22.3053 106.846 21.34 106.846 20.22C106.846 19.1 107.043 18.1347 107.438 17.324C107.843 16.5133 108.408 15.8893 109.134 15.452C109.87 15.004 110.739 14.78 111.742 14.78ZM111.742 15.98C110.643 15.98 109.774 16.3533 109.134 17.1C108.504 17.8467 108.19 18.8867 108.19 20.22C108.19 21.5427 108.504 22.5827 109.134 23.34C109.774 24.0867 110.643 24.46 111.742 24.46C112.84 24.46 113.704 24.0867 114.334 23.34C114.974 22.5827 115.294 21.5427 115.294 20.22C115.294 18.8867 114.974 17.8467 114.334 17.1C113.704 16.3533 112.84 15.98 111.742 15.98ZM126.485 25.5L123.365 14.94H124.693L127.301 24.332L129.781 14.94H131.237L133.717 24.364L136.325 14.94H137.589L134.485 25.5H132.901L131.029 18.652L130.485 16.268H130.469L129.925 18.652L128.069 25.5H126.485ZM139.892 25.5V14.94H147.3V16.14H141.172V19.548H145.94V20.748H141.172V24.3H147.54V25.5H139.892ZM150.095 25.5V14.94H153.855C155.103 14.94 156.015 15.2013 156.591 15.724C157.167 16.2467 157.455 16.956 157.455 17.852C157.455 18.3853 157.301 18.8707 156.991 19.308C156.682 19.7347 156.245 20.0067 155.679 20.124V20.14C156.309 20.2573 156.805 20.5453 157.167 21.004C157.541 21.452 157.727 21.964 157.727 22.54C157.727 23.436 157.391 24.156 156.719 24.7C156.047 25.2333 155.087 25.5 153.839 25.5H150.095ZM151.375 19.58H153.871C155.365 19.58 156.111 19.004 156.111 17.852C156.111 16.7107 155.365 16.14 153.871 16.14H151.375V19.58ZM151.375 24.3H154.143C154.901 24.3 155.461 24.1453 155.823 23.836C156.197 23.5267 156.383 23.0947 156.383 22.54C156.383 21.9747 156.197 21.5427 155.823 21.244C155.461 20.9347 154.901 20.78 154.143 20.78H151.375V24.3ZM163.46 25.66C162.522 25.66 161.69 25.4413 160.964 25.004C160.25 24.556 159.764 23.9427 159.508 23.164L160.788 22.508C160.98 23.0947 161.284 23.5693 161.7 23.932C162.127 24.284 162.756 24.46 163.588 24.46C164.282 24.46 164.815 24.2787 165.188 23.916C165.572 23.5427 165.764 23.068 165.764 22.492C165.764 21.916 165.599 21.4893 165.268 21.212C164.948 20.924 164.41 20.78 163.652 20.78C163.418 20.78 163.146 20.796 162.836 20.828V19.548C162.932 19.5587 163.023 19.564 163.108 19.564C163.204 19.564 163.29 19.564 163.364 19.564C164.143 19.564 164.698 19.4147 165.028 19.116C165.359 18.8067 165.524 18.3267 165.524 17.676C165.524 17.1213 165.354 16.7 165.012 16.412C164.671 16.124 164.186 15.98 163.556 15.98C162.884 15.98 162.372 16.1293 162.02 16.428C161.668 16.716 161.391 17.1107 161.188 17.612L159.972 17.036C160.228 16.3747 160.671 15.8307 161.3 15.404C161.94 14.9773 162.703 14.764 163.588 14.764C164.324 14.764 164.932 14.892 165.412 15.148C165.892 15.3933 166.25 15.724 166.484 16.14C166.73 16.556 166.852 17.0147 166.852 17.516C166.852 18.2733 166.655 18.8813 166.26 19.34C165.866 19.788 165.402 20.0547 164.868 20.14V20.172C165.338 20.1827 165.738 20.3 166.068 20.524C166.399 20.7373 166.65 21.02 166.82 21.372C167.002 21.7133 167.092 22.0813 167.092 22.476C167.092 23.0947 166.938 23.644 166.628 24.124C166.33 24.604 165.908 24.9827 165.364 25.26C164.82 25.5267 164.186 25.66 163.46 25.66Z" fill="white"/>
<defs>
<linearGradient id="paint0_linear" x1="91.5" y1="0.5" x2="91.5" y2="40.5" gradientUnits="userSpaceOnUse">
<stop stop-color="#FFBF5B"/>
<stop offset="1" stop-color="#E97A1C"/>
</linearGradient>
</defs>
</svg>
