<svg width="36" height="36" viewBox="0 0 36 36" fill="none" xmlns="http://www.w3.org/2000/svg">
<rect width="36" height="36" rx="8" fill="#233345"/>
<path d="M18 7.19995C12.0357 7.19995 7.19995 12.0374 7.19995 18C7.19995 23.966 12.0357 28.8 18 28.8C23.9642 28.8 28.8 23.966 28.8 18C28.8 12.0374 23.9642 7.19995 18 7.19995ZM18 26.7096C13.1865 26.7096 9.29027 22.8151 9.29027 18C9.29027 13.1881 13.1866 9.29027 18 9.29027C22.8117 9.29027 26.7096 13.1866 26.7096 18C26.7096 22.8134 22.8151 26.7096 18 26.7096ZM22.6703 15.5961C22.6703 18.5161 19.5164 18.561 19.5164 19.6401V19.9161C19.5164 20.2047 19.2825 20.4387 18.9939 20.4387H17.006C16.7174 20.4387 16.4834 20.2047 16.4834 19.9161V19.539C16.4834 17.9824 17.6636 17.3601 18.5554 16.8601C19.3202 16.4313 19.7889 16.1397 19.7889 15.572C19.7889 14.8209 18.8309 14.3224 18.0563 14.3224C17.0465 14.3224 16.5803 14.8005 15.925 15.6275C15.7483 15.8505 15.4259 15.8919 15.1992 15.72L13.9875 14.8012C13.7651 14.6326 13.7153 14.3193 13.8724 14.0887C14.9013 12.5778 16.2119 11.729 18.2523 11.729C20.3892 11.729 22.6703 13.3971 22.6703 15.5961ZM19.829 22.8774C19.829 23.8859 19.0085 24.7064 18 24.7064C16.9914 24.7064 16.1709 23.8859 16.1709 22.8774C16.1709 21.8688 16.9914 21.0483 18 21.0483C19.0085 21.0483 19.829 21.8688 19.829 22.8774Z" fill="#FFD22E"/>
</svg>
