<svg width="80" height="55" viewBox="0 0 80 55" fill="none" xmlns="http://www.w3.org/2000/svg">
<path d="M5.42292 16.2088C4.60673 16.2088 3.94507 15.5472 3.94507 14.731V1.70691C3.94507 0.890718 4.60673 0.229062 5.42292 0.229062C6.23912 0.229062 6.90077 0.890718 6.90077 1.70691V4.76277C6.90077 5.86734 7.7962 6.76277 8.90077 6.76277H12.121C13.2256 6.76277 14.121 5.86734 14.121 4.76277V1.70691C14.121 0.890719 14.7826 0.229062 15.5988 0.229062C16.415 0.229062 17.0767 0.890718 17.0767 1.70691V14.731C17.0767 15.5472 16.415 16.2088 15.5988 16.2088C14.7826 16.2088 14.121 15.5472 14.121 14.731V11.097C14.121 9.99245 13.2255 9.09702 12.121 9.09702H8.90077C7.7962 9.09702 6.90077 9.99245 6.90077 11.097V14.731C6.90077 15.5472 6.23912 16.2088 5.42292 16.2088Z" fill="url(#paint0_linear)"/>
<path d="M24.166 12.5111C24.9586 13.5219 26.1292 14.0273 27.678 14.0273C29.2267 14.0273 30.3937 13.5255 31.179 12.522C31.9715 11.5113 32.3678 10.086 32.3678 8.24622C32.3678 6.38464 31.9715 4.94118 31.179 3.91586C30.3937 2.89054 29.2303 2.37788 27.6889 2.37788C26.1401 2.37788 24.9658 2.89417 24.166 3.92677C23.3735 4.95209 22.9772 6.39191 22.9772 8.24622C22.9772 10.0787 23.3735 11.5003 24.166 12.5111ZM27.667 16.4379C25.2603 16.4379 23.3589 15.7107 21.9629 14.2564C20.5741 12.7947 19.8797 10.7804 19.8797 8.21349C19.8797 5.63201 20.5777 3.61772 21.9738 2.17063C23.3698 0.723544 25.2712 0 27.678 0C30.0847 0 31.9825 0.72718 33.3712 2.18154C34.76 3.62863 35.4544 5.64291 35.4544 8.2244C35.4544 10.7768 34.7564 12.7838 33.3603 14.2454C31.9643 15.7071 30.0665 16.4379 27.667 16.4379Z" fill="url(#paint1_linear)"/>
<path d="M39.5989 16.2088C38.858 16.2088 38.2574 15.6082 38.2574 14.8673V2.22906C38.2574 1.12449 39.1528 0.229062 40.2574 0.229062H40.3033C40.9857 0.229062 41.6205 0.576367 41.9895 1.15034C42.6342 2.15334 43.5897 3.63511 44.8559 5.59565C46.5937 8.28621 47.6517 9.92236 48.0298 10.5041C48.1388 10.6714 48.3243 10.955 48.586 11.3549C48.7508 11.5954 49.1384 11.4723 49.1325 11.1808C49.0954 9.34878 49.0768 8.39242 49.0768 8.31166V1.57603C49.0768 0.832122 49.6799 0.229062 50.4238 0.229062C51.1677 0.229062 51.7708 0.832122 51.7708 1.57603V14.2088C51.7708 15.3134 50.8753 16.2088 49.7708 16.2088H49.679C48.9979 16.2088 48.3636 15.8622 47.9957 15.289L41.3767 4.97391C41.2349 4.74047 40.875 4.84712 40.8825 5.12016C40.9211 6.51205 40.9405 7.52499 40.9405 8.15895V14.8673C40.9405 15.6082 40.3398 16.2088 39.5989 16.2088Z" fill="url(#paint2_linear)"/>
<path d="M57.2064 16.2088C56.1018 16.2088 55.2064 15.3134 55.2064 14.2088V2.22906C55.2064 1.12449 56.1018 0.229062 57.2064 0.229062H63.6574C64.3285 0.229062 64.8627 0.791295 64.8284 1.46155C64.7965 2.08504 64.2817 2.57422 63.6574 2.57422H60.1621C59.0575 2.57422 58.1621 3.46965 58.1621 4.57422V4.69732C58.1621 5.80189 59.0575 6.69732 60.1621 6.69732H63.2717C63.9193 6.69732 64.4443 7.2223 64.4443 7.8699C64.4443 8.5175 63.9193 9.04248 63.2717 9.04248H60.1621C59.0575 9.04248 58.1621 9.93791 58.1621 11.0425V11.8528C58.1621 12.9573 59.0575 13.8528 60.1621 13.8528H63.7833C64.4532 13.8528 64.9882 14.4106 64.9603 15.0798C64.934 15.7108 64.4148 16.2088 63.7833 16.2088H57.2064Z" fill="url(#paint3_linear)"/>
<path d="M72.897 16.2088C72.0778 16.2088 71.4137 15.5447 71.4137 14.7255V10.4042C71.4137 10.0551 71.3223 9.71212 71.1486 9.40929L67.0723 2.30119C66.5433 1.3787 67.2092 0.229062 68.2727 0.229062C68.7771 0.229062 69.2417 0.503609 69.4849 0.945565L71.1498 3.97039C71.9088 5.34928 73.8894 5.35168 74.6517 3.97462L76.3355 0.932974C76.576 0.498618 77.0333 0.229062 77.5298 0.229062C78.5792 0.229062 79.2361 1.36401 78.7134 2.27401L74.646 9.35426C74.4719 9.6574 74.3803 10.0009 74.3803 10.3505V14.7255C74.3803 15.5447 73.7162 16.2088 72.897 16.2088Z" fill="url(#paint4_linear)"/>
<path d="M5.40575 37.2539C4.59904 37.2539 3.94507 36.5999 3.94507 35.7932V23.551C3.94507 22.4464 4.8405 21.551 5.94507 21.551H9.28449C10.5464 21.551 11.626 21.7113 12.5232 22.032C13.4203 22.3456 14.1279 22.8587 14.6458 23.5713C15.171 24.2839 15.4336 25.1783 15.4336 26.2544C15.4336 27.0026 15.3351 27.669 15.1382 28.2533C14.9412 28.8306 14.6166 29.3579 14.1644 29.8354C13.7121 30.3057 13.0739 30.6692 12.2496 30.9257C11.4327 31.1823 10.4443 31.3105 9.28449 31.3105C9.20731 31.3105 9.13126 31.3104 9.05634 31.31C7.87946 31.3046 6.86643 32.2405 6.86643 33.4174V35.7932C6.86643 36.5999 6.21246 37.2539 5.40575 37.2539ZM8.96719 29.2154C9.57261 29.2154 10.0978 29.1584 10.5428 29.0444C10.995 28.9303 11.3451 28.7842 11.5931 28.6061C11.8484 28.4279 12.049 28.207 12.1949 27.9433C12.3481 27.6797 12.4466 27.4267 12.4903 27.1844C12.5414 26.9349 12.5669 26.657 12.5669 26.3506C12.5669 25.4883 12.2824 24.8327 11.7135 24.3837C11.1445 23.9348 10.3422 23.7103 9.30637 23.7103H8.86643C7.76186 23.7103 6.86643 24.6057 6.86643 25.7103V27.4933C6.86643 28.4738 7.58579 29.2139 8.56629 29.2151C8.69289 29.2153 8.82652 29.2154 8.96719 29.2154Z" fill="url(#paint5_linear)"/>
<path d="M21.3091 33.6302C22.1042 34.6207 23.2786 35.116 24.8323 35.116C26.3859 35.116 27.5567 34.6243 28.3445 33.6409C29.1395 32.6503 29.5371 31.2535 29.5371 29.4506C29.5371 27.6262 29.1395 26.2116 28.3445 25.2068C27.5567 24.202 26.3896 23.6996 24.8432 23.6996C23.2895 23.6996 22.1115 24.2056 21.3091 25.2175C20.514 26.2223 20.1165 27.6333 20.1165 29.4506C20.1165 31.2464 20.514 32.6396 21.3091 33.6302ZM24.8213 37.4784C22.4069 37.4784 20.4995 36.7658 19.099 35.3405C17.7057 33.9081 17.0091 31.9341 17.0091 29.4185C17.0091 26.8886 17.7094 24.9146 19.1099 23.4965C20.5104 22.0783 22.4179 21.3693 24.8323 21.3693C27.2467 21.3693 29.1505 22.0819 30.5437 23.5072C31.9369 24.9253 32.6335 26.8993 32.6335 29.4292C32.6335 31.9305 31.9332 33.8974 30.5327 35.3298C29.1322 36.7622 27.2284 37.4784 24.8213 37.4784Z" fill="url(#paint6_linear)"/>
<path d="M39.7235 37.2539C38.9017 37.2539 38.2355 36.5877 38.2355 35.7659V25.9134C38.2355 24.8088 37.3401 23.9134 36.2355 23.9134H34.7233C34.0828 23.9134 33.5635 23.3941 33.5635 22.7536C33.5635 22.113 34.0828 21.5937 34.7233 21.5937H44.7019C45.3424 21.5937 45.8617 22.113 45.8617 22.7536C45.8617 23.3941 45.3424 23.9134 44.7019 23.9134H43.2116C42.107 23.9134 41.2116 24.8088 41.2116 25.9134V35.7659C41.2116 36.5877 40.5454 37.2539 39.7235 37.2539Z" fill="url(#paint7_linear)"/>
<path d="M71.6867 21.5337H59.4116C58.95 21.5337 58.5223 21.7757 58.2845 22.1713L50.8366 34.5633C50.6048 34.9489 50.5863 35.4262 50.7874 35.8286L57.2458 48.7505C57.4685 49.1961 57.9239 49.4776 58.4221 49.4776H71.6694C72.1545 49.4776 72.6002 49.2105 72.829 48.7827L79.7625 35.8172C79.974 35.4217 79.9694 34.9457 79.7502 34.5545L72.834 22.2061C72.6014 21.7908 72.1626 21.5337 71.6867 21.5337Z" fill="url(#paint8_linear)"/>
<path fill-rule="evenodd" clip-rule="evenodd" d="M58.214 22.1289C58.4666 21.7086 58.9211 21.4514 59.4115 21.4514H71.6866C72.1923 21.4514 72.6585 21.7247 72.9056 22.1659L79.8219 34.5143C80.0547 34.93 80.0596 35.4358 79.8349 35.8559L72.9014 48.8214C72.6583 49.276 72.1847 49.5598 71.6693 49.5598H58.422C57.8927 49.5598 57.4088 49.2607 57.1722 48.7872L50.7138 35.8654C50.5001 35.4378 50.5198 34.9306 50.7661 34.5209L58.214 22.1289ZM59.4115 21.6158C58.9788 21.6158 58.5778 21.8427 58.3548 22.2136L50.907 34.6056C50.6897 34.9671 50.6723 35.4146 50.8609 35.7919L57.3192 48.7137C57.528 49.1315 57.955 49.3954 58.422 49.3954H71.6693C72.1241 49.3954 72.542 49.145 72.7564 48.7439L79.69 35.7784C79.8882 35.4077 79.8839 34.9614 79.6784 34.5946L72.7622 22.2462C72.5442 21.8569 72.1328 21.6158 71.6866 21.6158H59.4115Z" fill="white"/>
<path d="M70.2324 24.5705L62.431 30.551C62.3568 30.6079 62.2767 30.6567 62.1921 30.6967L53.8028 34.6551C53.1335 34.9709 52.8565 35.7765 53.1901 36.4371L58.3407 46.6383C58.5643 47.0813 59.0183 47.3606 59.5146 47.3606H70.6481C71.1313 47.3606 71.5755 47.0957 71.8051 46.6707L77.6393 35.8712C77.8544 35.4731 77.8496 34.9924 77.6268 34.5986L72.177 24.9666C71.7836 24.2714 70.8664 24.0846 70.2324 24.5705Z" fill="url(#paint9_linear)"/>
<path fill-rule="evenodd" clip-rule="evenodd" d="M71.9624 25.088C71.6428 24.5231 70.8975 24.3714 70.3825 24.7662L62.5811 30.7467C62.4929 30.8143 62.3978 30.8722 62.2974 30.9196L53.908 34.8781C53.3643 35.1347 53.1392 35.7892 53.4102 36.326L58.5608 46.5272C58.7426 46.8871 59.1114 47.1141 59.5146 47.1141H70.6482C71.0407 47.1141 71.4017 46.8988 71.5883 46.5534L77.4224 35.754C77.5971 35.4305 77.5933 35.04 77.4123 34.72L71.9624 25.088ZM70.0824 24.3748C70.8353 23.7977 71.9245 24.0196 72.3916 24.8452L77.8415 34.4771C78.1061 34.9448 78.1117 35.5156 77.8563 35.9884L72.0221 46.7878C71.7494 47.2926 71.2219 47.6072 70.6482 47.6072H59.5146C58.9253 47.6072 58.3862 47.2755 58.1206 46.7494L52.97 36.5482C52.5739 35.7638 52.9029 34.8071 53.6976 34.4321L62.0869 30.4737C62.1557 30.4412 62.2207 30.4016 62.2811 30.3553L70.0824 24.3748Z" fill="url(#paint10_linear)"/>
<path d="M72.4 49.2356L50.8 34.8356L52 32.0713L74.8 44.6356L72.4 49.2356Z" fill="#F9F6F1" fill-opacity="0.4"/>
<path d="M75.6001 43.2713L53.6001 30.0713L56.0001 26.0713L76.8001 41.2713L75.6001 43.2713Z" fill="#F9F6F1" fill-opacity="0.4"/>
<path d="M78.2 38.4356L57.8 23.0356L58.6 21.6356H72.4L80 35.0356L78.2 38.4356Z" fill="#F9F6F1" fill-opacity="0.4"/>
<path d="M2.39378 47.9067C2.39378 48.0996 2.35666 48.2831 2.28244 48.4573C2.2144 48.6315 2.11852 48.7871 1.99481 48.9239C1.87729 49.0546 1.73812 49.1573 1.5773 49.2319C1.41647 49.3128 1.24637 49.3532 1.06699 49.3532C0.918543 49.3532 0.77937 49.3221 0.649475 49.2599C0.51958 49.2039 0.405148 49.1262 0.306181 49.0266C0.213399 48.9271 0.139173 48.812 0.0835039 48.6813C0.0278346 48.5444 0 48.4013 0 48.252C0 48.0653 0.0340201 47.888 0.10206 47.72C0.176286 47.5458 0.275254 47.3934 0.398963 47.2627C0.522672 47.1321 0.668031 47.0294 0.835039 46.9548C1.00205 46.8739 1.18143 46.8334 1.37317 46.8334C1.67626 46.8334 1.92059 46.9361 2.10615 47.1414C2.2979 47.3467 2.39378 47.6018 2.39378 47.9067Z" fill="#F08922"/>
<path d="M7.71947 48.8866C7.71947 48.588 7.78442 48.2831 7.91431 47.972C8.05039 47.6609 8.22049 47.3405 8.42461 47.0108C8.62873 46.681 8.85141 46.3481 9.09264 46.0122C9.33388 45.67 9.56274 45.3215 9.77923 44.9669C9.84109 44.8674 9.89057 44.774 9.92768 44.6869C9.9648 44.5936 9.98335 44.5003 9.98335 44.4069C9.98335 44.3074 9.95552 44.2265 9.89985 44.1643C9.84418 44.0959 9.76377 44.0616 9.65862 44.0616C9.40501 44.0616 9.16068 44.1176 8.92564 44.2296C8.69059 44.3354 8.46482 44.4785 8.24833 44.6589C8.03184 44.8331 7.82462 45.0353 7.62669 45.2655C7.43494 45.4958 7.25247 45.7353 7.07927 45.9842C6.91227 46.2268 6.75454 46.4695 6.60608 46.7121C6.45763 46.9548 6.32155 47.1756 6.19784 47.3747C6.0865 47.58 5.98444 47.804 5.89166 48.0467C5.79888 48.2893 5.69682 48.5133 5.58548 48.7186C5.48033 48.9239 5.35971 49.095 5.22363 49.2319C5.08755 49.375 4.91745 49.4466 4.71333 49.4466C4.49065 49.4466 4.31437 49.375 4.18447 49.2319C4.05458 49.0888 3.98963 48.9177 3.98963 48.7186C3.98963 48.6066 4.02984 48.4324 4.11025 48.196C4.19066 47.9596 4.29272 47.6858 4.41643 47.3747C4.54632 47.0574 4.69168 46.7214 4.8525 46.3668C5.01333 46.0122 5.17105 45.6606 5.32569 45.3122C5.48651 44.9638 5.63497 44.6372 5.77105 44.3323C5.91331 44.0212 6.03084 43.7568 6.12362 43.539C6.23496 43.2715 6.38031 43.0724 6.55969 42.9417C6.74526 42.8111 6.92773 42.7457 7.10711 42.7457C7.26174 42.7457 7.39782 42.8048 7.51535 42.9231C7.63906 43.035 7.70091 43.1999 7.70091 43.4177C7.70091 43.5795 7.6638 43.7568 7.58957 43.9496C7.75658 43.7941 7.93596 43.6261 8.12771 43.4457C8.31946 43.2653 8.52667 43.1004 8.74935 42.9511C8.97821 42.7955 9.23182 42.668 9.51016 42.5684C9.78851 42.4689 10.1009 42.4191 10.4473 42.4191C10.6205 42.4191 10.7844 42.4409 10.939 42.4844C11.0936 42.528 11.2297 42.5964 11.3472 42.6897C11.471 42.7831 11.5699 42.9044 11.6442 43.0537C11.7246 43.203 11.771 43.3835 11.7833 43.595C11.9256 43.4519 12.0802 43.3119 12.2472 43.175C12.4142 43.0319 12.5936 42.9044 12.7854 42.7924C12.9833 42.6804 13.1967 42.5902 13.4256 42.5218C13.6544 42.4533 13.908 42.4191 14.1864 42.4191C14.3905 42.4191 14.5853 42.4409 14.7709 42.4844C14.9565 42.528 15.1204 42.6026 15.2627 42.7084C15.4111 42.808 15.5255 42.9386 15.6059 43.1004C15.6925 43.2621 15.7358 43.4612 15.7358 43.6977C15.7358 44.071 15.6492 44.4256 15.4761 44.7616C15.309 45.0976 15.1111 45.4055 14.8822 45.6855C14.808 45.7788 14.7091 45.8971 14.5853 46.0402C14.4616 46.1833 14.341 46.3357 14.2235 46.4975C14.106 46.6592 14.0039 46.8272 13.9173 47.0014C13.8307 47.1694 13.7874 47.3281 13.7874 47.4774C13.7874 47.6143 13.8276 47.7014 13.908 47.7387C13.9946 47.776 14.106 47.7947 14.2421 47.7947C14.5018 47.7947 14.7833 47.7169 15.0864 47.5614C15.3895 47.4058 15.6833 47.2192 15.9678 47.0014C16.2585 46.7774 16.5276 46.5472 16.775 46.3108C17.0286 46.0682 17.2296 45.8659 17.3781 45.7042C17.4152 45.6606 17.4585 45.6295 17.508 45.6109C17.5575 45.5922 17.6069 45.5829 17.6564 45.5829C17.7678 45.5829 17.8667 45.6326 17.9533 45.7322C18.0461 45.8317 18.0925 45.9624 18.0925 46.1242C18.0925 46.2486 18.0554 46.3855 17.9812 46.5348C17.9069 46.6841 17.7801 46.8303 17.6008 46.9734C17.2667 47.297 16.9235 47.608 16.5709 47.9067C16.2245 48.1991 15.8719 48.4604 15.5132 48.6906C15.1606 48.9146 14.8049 49.095 14.4462 49.2319C14.0936 49.3688 13.741 49.4372 13.3885 49.4372C12.9307 49.4372 12.5596 49.3284 12.2751 49.1106C11.9967 48.8928 11.8576 48.5475 11.8576 48.0747C11.8576 47.7636 11.9163 47.4712 12.0338 47.1974C12.1514 46.9236 12.2967 46.6623 12.4699 46.4135C12.6431 46.1584 12.8256 45.9126 13.0173 45.6762C13.2091 45.4398 13.3761 45.2033 13.5183 44.9669C13.5802 44.8674 13.6297 44.774 13.6668 44.6869C13.7039 44.5936 13.7225 44.5003 13.7225 44.4069C13.7225 44.3074 13.6946 44.2265 13.639 44.1643C13.5833 44.0959 13.5029 44.0616 13.3977 44.0616C13.1441 44.0616 12.8998 44.1176 12.6648 44.2296C12.4297 44.3354 12.2039 44.4785 11.9874 44.6589C11.771 44.8331 11.5637 45.0353 11.3658 45.2655C11.1741 45.4958 10.9916 45.7353 10.8184 45.9842C10.6514 46.2268 10.4937 46.4695 10.3452 46.7121C10.1968 46.9548 10.0607 47.1756 9.93696 47.3747C9.82562 47.58 9.72356 47.804 9.63078 48.0467C9.538 48.2893 9.43594 48.5133 9.3246 48.7186C9.21945 48.9239 9.09883 49.095 8.96275 49.2319C8.82667 49.375 8.65657 49.4466 8.45245 49.4466C8.37822 49.4466 8.29781 49.431 8.21122 49.3999C8.12462 49.375 8.04421 49.3377 7.96998 49.2879C7.90194 49.2381 7.84318 49.179 7.79369 49.1106C7.7504 49.0422 7.72566 48.9675 7.71947 48.8866Z" fill="#F08922"/>
<path d="M20.5048 44.0616C20.2141 44.0616 19.9327 44.1363 19.6605 44.2856C19.3945 44.4287 19.1564 44.6216 18.9461 44.8642C18.742 45.1007 18.5781 45.3713 18.4544 45.6762C18.3306 45.9748 18.2688 46.2828 18.2688 46.6001C18.2688 46.7183 18.2781 46.849 18.2966 46.9921C18.3152 47.129 18.3523 47.2596 18.408 47.3841C18.4698 47.5023 18.5564 47.6018 18.6678 47.6827C18.7791 47.7636 18.9275 47.804 19.1131 47.804C19.3976 47.804 19.6729 47.7294 19.9389 47.58C20.211 47.4245 20.4523 47.2254 20.6626 46.9828C20.8729 46.7339 21.0399 46.4539 21.1636 46.1428C21.2873 45.8317 21.3492 45.5175 21.3492 45.2002C21.3492 45.0758 21.3399 44.9482 21.3213 44.8176C21.309 44.6807 21.2718 44.5563 21.21 44.4443C21.1543 44.3323 21.0708 44.2421 20.9595 44.1736C20.8481 44.099 20.6966 44.0616 20.5048 44.0616ZM20.9873 42.4191C21.2224 42.4191 21.4729 42.4502 21.7388 42.5124C22.011 42.5746 22.2615 42.6804 22.4904 42.8297C22.7192 42.9791 22.9079 43.1781 23.0563 43.427C23.211 43.6697 23.2883 43.9714 23.2883 44.3323C23.2883 44.5189 23.2636 44.7336 23.2141 44.9762C23.1646 45.2127 23.0904 45.4615 22.9914 45.7228C23.0533 45.7975 23.1244 45.8504 23.2048 45.8815C23.2852 45.9126 23.3718 45.9282 23.4646 45.9282C23.5945 45.9282 23.7367 45.8908 23.8914 45.8162C24.0522 45.7415 24.2161 45.6451 24.3831 45.5269C24.5501 45.4086 24.7171 45.2749 24.8842 45.1256C25.0512 44.9762 25.2089 44.8269 25.3573 44.6776C25.5058 44.5283 25.6388 44.3883 25.7563 44.2576C25.88 44.1207 25.9821 44.0056 26.0625 43.9123C26.1058 43.8688 26.1584 43.847 26.2202 43.847C26.3068 43.847 26.3841 43.8936 26.4522 43.987C26.5202 44.0741 26.5542 44.1985 26.5542 44.3603C26.5542 44.522 26.5047 44.7087 26.4058 44.9202C26.313 45.1318 26.1367 45.3527 25.8769 45.5829C25.7285 45.7446 25.5584 45.9313 25.3666 46.1428C25.1749 46.3544 24.9708 46.5535 24.7543 46.7401C24.5378 46.9268 24.312 47.0854 24.077 47.2161C23.8419 47.3467 23.6069 47.4121 23.3718 47.4121C23.211 47.4121 23.0533 47.3872 22.8986 47.3374C22.7502 47.2876 22.5986 47.2067 22.444 47.0947C22.2213 47.4432 21.9677 47.7605 21.6832 48.0467C21.3986 48.3329 21.0801 48.5786 20.7275 48.784C20.3811 48.9893 20.0038 49.1479 19.5956 49.2599C19.1935 49.3781 18.7636 49.4372 18.3059 49.4372C18.1327 49.4372 17.9317 49.403 17.7028 49.3346C17.474 49.2661 17.2544 49.1541 17.0441 48.9986C16.8399 48.8368 16.6668 48.6284 16.5245 48.3733C16.3822 48.1182 16.3111 47.8071 16.3111 47.4401C16.3111 47.1912 16.3513 46.8925 16.4317 46.5441C16.5121 46.1957 16.6327 45.8379 16.7936 45.4709C16.9606 45.0976 17.1678 44.7305 17.4152 44.3696C17.6688 44.0025 17.9688 43.6759 18.3152 43.3897C18.6616 43.0973 19.0574 42.8639 19.5028 42.6897C19.9481 42.5093 20.443 42.4191 20.9873 42.4191Z" fill="#F08922"/>
<path d="M26.3037 43.539C26.4274 43.2715 26.5821 43.0724 26.7676 42.9417C26.9532 42.8111 27.1357 42.7457 27.315 42.7457C27.4635 42.7457 27.5965 42.8017 27.714 42.9137C27.8315 43.0195 27.8903 43.1781 27.8903 43.3897C27.8903 43.4706 27.881 43.5577 27.8625 43.651C27.8439 43.7443 27.8099 43.8439 27.7604 43.9496C27.8965 43.7754 28.0913 43.5981 28.3449 43.4177C28.5985 43.231 28.8769 43.0662 29.18 42.9231C29.4892 42.7737 29.8047 42.6524 30.1263 42.5591C30.4542 42.4658 30.7634 42.4191 31.0542 42.4191C31.382 42.4191 31.6542 42.5 31.8706 42.6617C32.0933 42.8173 32.2047 43.0848 32.2047 43.4643C32.2047 43.6883 32.1706 43.9216 32.1026 44.1643C32.0346 44.4069 31.9449 44.6496 31.8335 44.8922C31.7284 45.1349 31.6078 45.3744 31.4717 45.6109C31.3418 45.8411 31.2119 46.0588 31.082 46.2641C30.9521 46.4695 30.8315 46.6592 30.7201 46.8334C30.615 47.0014 30.5315 47.1414 30.4696 47.2534C30.3892 47.3529 30.349 47.4681 30.349 47.5987C30.349 47.6485 30.3645 47.692 30.3954 47.7294C30.4263 47.7667 30.4758 47.7854 30.5439 47.7854C30.5872 47.7854 30.6366 47.7823 30.6923 47.776C30.748 47.7636 30.816 47.7294 30.8964 47.6734C31.2304 47.5489 31.5707 47.3934 31.917 47.2067C32.2696 47.0201 32.6067 46.8241 32.9284 46.6188C33.25 46.4072 33.5438 46.1988 33.8098 45.9935C34.082 45.782 34.3077 45.5922 34.4871 45.4242C34.5366 45.3807 34.5861 45.3495 34.6356 45.3309C34.685 45.3122 34.7314 45.3029 34.7747 45.3029C34.8799 45.3029 34.9603 45.3433 35.016 45.4242C35.0778 45.5051 35.1087 45.6077 35.1087 45.7322C35.1087 45.9251 35.0469 46.1397 34.9232 46.3761C34.8057 46.6126 34.617 46.8334 34.3572 47.0387C34.0046 47.2938 33.6799 47.5272 33.383 47.7387C33.0923 47.9502 32.7923 48.1493 32.483 48.336C32.1799 48.5164 31.8521 48.6875 31.4995 48.8493C31.1531 49.0048 30.7449 49.151 30.2748 49.2879C30.114 49.3377 29.9655 49.375 29.8294 49.3999C29.6995 49.4248 29.5789 49.4372 29.4676 49.4372C29.1398 49.4372 28.8985 49.347 28.7439 49.1666C28.5954 48.9799 28.5212 48.7217 28.5212 48.392C28.5212 48.3484 28.5212 48.308 28.5212 48.2707C28.5274 48.2271 28.5336 48.1804 28.5398 48.1307C28.5521 47.9378 28.6016 47.7263 28.6882 47.496C28.781 47.2658 28.8892 47.0294 29.013 46.7868C29.1429 46.5441 29.2789 46.3046 29.4212 46.0682C29.5635 45.8255 29.6934 45.5984 29.8109 45.3869C29.9346 45.1691 30.0367 44.9762 30.1171 44.8082C30.1975 44.6403 30.2377 44.5034 30.2377 44.3976C30.2377 44.3043 30.2098 44.2265 30.1542 44.1643C30.1047 44.0959 30.0274 44.0616 29.9222 44.0616C29.5264 44.0616 29.149 44.1799 28.7903 44.4163C28.4377 44.6527 28.1068 44.9451 27.7975 45.2935C27.4882 45.6357 27.2037 45.9997 26.9439 46.3855C26.6841 46.7712 26.4553 47.1165 26.2573 47.4214C26.1336 47.6267 26.0192 47.8476 25.914 48.084C25.8151 48.3142 25.7099 48.532 25.5986 48.7373C25.4872 48.9364 25.3604 49.1013 25.2182 49.2319C25.0821 49.3688 24.9089 49.4372 24.6986 49.4372C24.4821 49.4372 24.312 49.3688 24.1883 49.2319C24.0646 49.095 24.0027 48.9271 24.0027 48.728C24.0027 48.6222 24.046 48.4511 24.1326 48.2147C24.2192 47.9782 24.3306 47.7045 24.4666 47.3934C24.6027 47.0823 24.7543 46.7494 24.9213 46.3948C25.0945 46.0339 25.2646 45.6793 25.4316 45.3309C25.6048 44.9762 25.7687 44.6434 25.9233 44.3323C26.078 44.0212 26.2048 43.7568 26.3037 43.539Z" fill="#F08922"/>
<path d="M37.484 43.6977C37.453 43.6914 37.4252 43.6883 37.4005 43.6883C37.3757 43.6883 37.3479 43.6883 37.317 43.6883C37.0819 43.6883 36.8623 43.735 36.6582 43.8283C36.4541 43.9216 36.2654 44.0461 36.0922 44.2016C35.9252 44.3509 35.7737 44.522 35.6376 44.7149C35.5077 44.9078 35.3902 45.1007 35.285 45.2935C35.1799 45.4802 35.0902 45.6606 35.016 45.8348C34.9479 46.009 34.8953 46.1553 34.8582 46.2735C35.0747 46.1615 35.2974 46.0339 35.5263 45.8908C35.7613 45.7477 35.9809 45.6109 36.185 45.4802C36.3891 45.3495 36.5654 45.2313 36.7139 45.1256C36.8685 45.0198 36.9768 44.9482 37.0386 44.9109C37.317 44.7367 37.5087 44.5749 37.6139 44.4256C37.719 44.2701 37.7716 44.1363 37.7716 44.0243C37.7716 43.931 37.7407 43.8563 37.6788 43.8003C37.6231 43.7443 37.5582 43.7101 37.484 43.6977ZM37.818 42.4098C38.3314 42.4098 38.7149 42.5342 38.9685 42.7831C39.2221 43.0319 39.3489 43.3772 39.3489 43.819C39.3489 44.0803 39.2808 44.3541 39.1448 44.6403C39.0087 44.9265 38.7736 45.2189 38.4396 45.5175C38.1056 45.81 37.6572 46.1117 37.0943 46.4228C36.5376 46.7277 35.8386 47.0356 34.9974 47.3467C35.0283 47.5272 35.1242 47.6703 35.285 47.776C35.4459 47.8756 35.6592 47.9254 35.9252 47.9254C36.2098 47.9254 36.5128 47.8849 36.8345 47.804C37.1623 47.7169 37.484 47.608 37.7994 47.4774C38.1211 47.3467 38.4334 47.2067 38.7365 47.0574C39.0396 46.9019 39.3118 46.7557 39.553 46.6188C39.8004 46.4819 40.0045 46.3637 40.1654 46.2641C40.3324 46.1646 40.4437 46.1024 40.4994 46.0775C40.555 46.0402 40.6045 46.0184 40.6478 46.0122C40.6973 46.0059 40.7406 46.0028 40.7777 46.0028C40.852 46.0028 40.9138 46.0215 40.9633 46.0588C41.0128 46.0899 41.053 46.1304 41.0839 46.1801C41.121 46.2237 41.1458 46.2735 41.1581 46.3295C41.1705 46.3792 41.1767 46.4228 41.1767 46.4601C41.1767 46.5161 41.1705 46.5846 41.1581 46.6654C41.1458 46.7401 41.0994 46.8272 41.019 46.9268C40.988 46.9579 40.8829 47.0419 40.7035 47.1787C40.5303 47.3156 40.3045 47.4774 40.0262 47.664C39.7478 47.8507 39.4231 48.0498 39.052 48.2613C38.687 48.4666 38.2974 48.6564 37.8829 48.8306C37.4747 49.0048 37.0479 49.1479 36.6025 49.2599C36.1572 49.3781 35.718 49.4372 35.285 49.4372C34.9139 49.4372 34.583 49.3657 34.2923 49.2226C34.0077 49.0795 33.7634 48.8866 33.5593 48.644C33.3613 48.4013 33.2098 48.1213 33.1046 47.804C32.9995 47.4867 32.9469 47.1539 32.9469 46.8054C32.9469 46.5379 32.9995 46.2455 33.1046 45.9282C33.2098 45.6046 33.3613 45.2811 33.5593 44.9576C33.7572 44.634 33.9984 44.3198 34.283 44.015C34.5737 43.7039 34.8984 43.4301 35.2572 43.1937C35.616 42.9573 36.0087 42.7675 36.4355 42.6244C36.8685 42.4813 37.3293 42.4098 37.818 42.4098Z" fill="#F08922"/>
<path d="M45.788 43.287C45.9612 43.1501 46.1065 43.0475 46.224 42.9791C46.3477 42.9044 46.4529 42.8515 46.5395 42.8204C46.6261 42.7831 46.7034 42.7613 46.7715 42.7551C46.8457 42.7488 46.9199 42.7457 46.9941 42.7457C47.124 42.7457 47.2168 42.7955 47.2725 42.8951C47.3281 42.9884 47.356 43.0879 47.356 43.1937C47.356 43.2808 47.3405 43.3617 47.3096 43.4364L45.2313 47.7947C45.5282 47.5707 45.8684 47.3529 46.2519 47.1414C46.6416 46.9236 47.0127 46.7308 47.3653 46.5628C47.724 46.3886 48.0302 46.2486 48.2838 46.1428C48.5436 46.037 48.692 45.9842 48.7292 45.9842C48.8838 45.9842 49.0199 46.0433 49.1374 46.1615C49.2549 46.2797 49.3137 46.429 49.3137 46.6094C49.3137 46.7712 49.2518 46.9423 49.1281 47.1227C49.0106 47.3032 48.8003 47.4774 48.4972 47.6454C48.0642 47.888 47.6869 48.0964 47.3653 48.2707C47.0436 48.4386 46.7591 48.5911 46.5117 48.728C46.2642 48.8648 46.0447 48.9893 45.8529 49.1013C45.6612 49.2133 45.4787 49.3284 45.3055 49.4466C45.1385 49.5648 44.9715 49.6892 44.8045 49.8199C44.6436 49.9568 44.4674 50.1154 44.2756 50.2958C44.1333 50.6691 43.9911 51.0269 43.8488 51.3691C43.7127 51.7113 43.5859 52.013 43.4684 52.2744C43.3571 52.5357 43.2643 52.7472 43.1901 52.909C43.1158 53.0707 43.0756 53.1579 43.0694 53.1703C42.5684 54.2156 42.0179 54.7382 41.4179 54.7382C41.1705 54.7382 40.9695 54.6542 40.8148 54.4862C40.6602 54.3244 40.5829 54.1036 40.5829 53.8236C40.5829 53.5623 40.6138 53.301 40.6757 53.0396C40.7437 52.7845 40.8581 52.5015 41.019 52.1904C41.186 51.8793 41.4025 51.5309 41.6684 51.1451C41.9406 50.7656 42.2808 50.3176 42.689 49.8012L44.5447 46.0215C43.6169 47.129 42.7756 47.9751 42.021 48.56C41.2664 49.1448 40.5612 49.4372 39.9056 49.4372C39.6953 49.4372 39.5159 49.3875 39.3674 49.2879C39.219 49.1946 39.1448 49.0359 39.1448 48.812C39.1448 48.5009 39.219 48.1493 39.3674 47.7574C39.454 47.5458 39.5406 47.3529 39.6272 47.1787C39.7138 46.9983 39.8035 46.821 39.8963 46.6468C39.9891 46.4663 40.085 46.2735 40.1839 46.0682C40.2891 45.8628 40.4004 45.6326 40.5179 45.3775C40.6416 45.1162 40.7746 44.8176 40.9169 44.4816C41.0653 44.1394 41.2293 43.7412 41.4086 43.287C41.5324 43.0444 41.6932 42.8702 41.8911 42.7644C42.089 42.6524 42.2808 42.5964 42.4664 42.5964C42.6581 42.5964 42.8189 42.6431 42.9488 42.7364C43.0849 42.8235 43.1529 42.9417 43.1529 43.091C43.1529 43.1657 43.1406 43.231 43.1158 43.287L41.4179 46.8428C41.3313 47.0232 41.288 47.1663 41.288 47.2721C41.288 47.3654 41.3251 47.4121 41.3994 47.4121C41.4674 47.4121 41.554 47.3778 41.6592 47.3094C41.7643 47.241 41.8633 47.1632 41.9561 47.0761L45.788 43.287Z" fill="#F08922"/>
<defs>
<linearGradient id="paint0_linear" x1="41.9166" y1="0" x2="41.9166" y2="16.4379" gradientUnits="userSpaceOnUse">
<stop stop-color="#FEB950"/>
<stop offset="1" stop-color="#EF851F"/>
</linearGradient>
<linearGradient id="paint1_linear" x1="41.9166" y1="0" x2="41.9166" y2="16.4379" gradientUnits="userSpaceOnUse">
<stop stop-color="#FEB950"/>
<stop offset="1" stop-color="#EF851F"/>
</linearGradient>
<linearGradient id="paint2_linear" x1="41.9166" y1="0" x2="41.9166" y2="16.4379" gradientUnits="userSpaceOnUse">
<stop stop-color="#FEB950"/>
<stop offset="1" stop-color="#EF851F"/>
</linearGradient>
<linearGradient id="paint3_linear" x1="41.9166" y1="0" x2="41.9166" y2="16.4379" gradientUnits="userSpaceOnUse">
<stop stop-color="#FEB950"/>
<stop offset="1" stop-color="#EF851F"/>
</linearGradient>
<linearGradient id="paint4_linear" x1="41.9166" y1="0" x2="41.9166" y2="16.4379" gradientUnits="userSpaceOnUse">
<stop stop-color="#FEB950"/>
<stop offset="1" stop-color="#EF851F"/>
</linearGradient>
<linearGradient id="paint5_linear" x1="24.9034" y1="21.3693" x2="24.9034" y2="37.4784" gradientUnits="userSpaceOnUse">
<stop stop-color="#FEB84F"/>
<stop offset="1" stop-color="#EF8620"/>
</linearGradient>
<linearGradient id="paint6_linear" x1="24.9034" y1="21.3693" x2="24.9034" y2="37.4784" gradientUnits="userSpaceOnUse">
<stop stop-color="#FEB84F"/>
<stop offset="1" stop-color="#EF8620"/>
</linearGradient>
<linearGradient id="paint7_linear" x1="24.9034" y1="21.3693" x2="24.9034" y2="37.4784" gradientUnits="userSpaceOnUse">
<stop stop-color="#FEB84F"/>
<stop offset="1" stop-color="#EF8620"/>
</linearGradient>
<linearGradient id="paint8_linear" x1="61.4727" y1="21.5337" x2="65.2832" y2="44.8203" gradientUnits="userSpaceOnUse">
<stop stop-color="white"/>
<stop offset="0.0001" stop-color="#DCE9EB" stop-opacity="0.88"/>
<stop offset="1" stop-color="#C4D2D3" stop-opacity="0.73"/>
</linearGradient>
<linearGradient id="paint9_linear" x1="67.6118" y1="22.1688" x2="65.2831" y2="47.3606" gradientUnits="userSpaceOnUse">
<stop offset="0.383333" stop-color="#FEBF5A"/>
<stop offset="1" stop-color="#E67315"/>
</linearGradient>
<linearGradient id="paint10_linear" x1="65.2832" y1="23.6506" x2="65.2832" y2="47.3606" gradientUnits="userSpaceOnUse">
<stop stop-color="#FFEEB0"/>
<stop offset="1" stop-color="#FFD12D"/>
</linearGradient>
</defs>
</svg>
