<svg width="86" height="36" viewBox="0 0 86 36" fill="none" xmlns="http://www.w3.org/2000/svg">
<rect x="0.5" y="0.5" width="85" height="35" rx="3.5" fill="#FFFDF1"/>
<path d="M21.12 12.28C22.048 12.28 22.848 12.472 23.52 12.856C24.192 13.2293 24.752 13.784 25.2 14.52L24.128 15.352C23.7333 14.6693 23.2853 14.1893 22.784 13.912C22.2933 13.624 21.696 13.48 20.992 13.48C20.1387 13.48 19.5147 13.6507 19.12 13.992C18.7253 14.3333 18.528 14.7493 18.528 15.24C18.528 15.6133 18.6453 15.944 18.88 16.232C19.1147 16.5093 19.584 16.728 20.288 16.888L22.576 17.4C23.5893 17.624 24.2933 17.9653 24.688 18.424C25.0933 18.872 25.296 19.432 25.296 20.104C25.296 20.7013 25.1253 21.2347 24.784 21.704C24.4533 22.1627 23.984 22.52 23.376 22.776C22.768 23.032 22.0533 23.16 21.232 23.16C20.0907 23.16 19.1467 22.936 18.4 22.488C17.6533 22.0293 17.0827 21.4747 16.688 20.824L17.808 19.912C18.1173 20.52 18.5547 21.016 19.12 21.4C19.696 21.7733 20.4267 21.96 21.312 21.96C22.1333 21.96 22.7787 21.8107 23.248 21.512C23.728 21.2133 23.968 20.7813 23.968 20.216C23.968 19.8747 23.856 19.5707 23.632 19.304C23.408 19.0267 22.9867 18.8187 22.368 18.68L19.888 18.12C18.9067 17.9067 18.208 17.56 17.792 17.08C17.3867 16.6 17.184 16.0453 17.184 15.416C17.184 14.8507 17.3387 14.3333 17.648 13.864C17.968 13.384 18.4213 13 19.008 12.712C19.6053 12.424 20.3093 12.28 21.12 12.28ZM29.258 12.44V17.048H34.986V12.44H36.266V23H34.986V18.248H29.258V23H27.978V12.44H29.258ZM38.416 23L42.528 12.44H44.048L48.144 23H46.784L45.664 20.072H40.88L39.76 23H38.416ZM42.784 15.08L41.344 18.872H45.2L43.776 15.128L43.28 13.656H43.248L42.784 15.08ZM54.2905 12.44C55.3678 12.44 56.2318 12.7173 56.8825 13.272C57.5332 13.8267 57.8585 14.5787 57.8585 15.528C57.8585 16.2853 57.6452 16.9093 57.2185 17.4C56.7918 17.8907 56.2158 18.2267 55.4905 18.408L58.4985 23H56.9785L54.0985 18.616H51.5705V23H50.2905V12.44H54.2905ZM54.2745 17.416C55.7678 17.416 56.5145 16.7867 56.5145 15.528C56.5145 14.2693 55.7678 13.64 54.2745 13.64H51.5705V17.416H54.2745ZM60.9311 23V12.44H68.3391V13.64H62.2111V17.048H66.9791V18.248H62.2111V21.8H68.5791V23H60.9311Z" fill="#EF8620"/>
<rect x="0.5" y="0.5" width="85" height="35" rx="3.5" stroke="#EF8620"/>
</svg>
