<svg width="115" height="36" viewBox="0 0 115 36" fill="none" xmlns="http://www.w3.org/2000/svg">
<path d="M0 4C0 1.79086 1.79086 0 4 0H111C113.209 0 115 1.79086 115 4V32C115 34.2091 113.209 36 111 36H4C1.79086 36 0 34.2091 0 32V4Z" fill="#233345"/>
<path d="M25.152 12.44V13.64H21.472V23H20.192V13.64H16.512V12.44H25.152ZM31.3843 12.44C32.4616 12.44 33.3256 12.7173 33.9763 13.272C34.6269 13.8267 34.9523 14.5787 34.9523 15.528C34.9523 16.2853 34.7389 16.9093 34.3123 17.4C33.8856 17.8907 33.3096 18.2267 32.5843 18.408L35.5923 23H34.0723L31.1923 18.616H28.6643V23H27.3843V12.44H31.3843ZM31.3683 17.416C32.8616 17.416 33.6083 16.7867 33.6083 15.528C33.6083 14.2693 32.8616 13.64 31.3683 13.64H28.6643V17.416H31.3683ZM44.9295 12.44L41.1535 18.872V23H39.8735V18.872L36.0975 12.44H37.6175L39.6655 16.056L40.5135 17.56L41.3615 16.056L43.4095 12.44H44.9295ZM49.6504 23L53.7624 12.44H55.2824L59.3784 23H58.0184L56.8984 20.072H52.1144L50.9944 23H49.6504ZM54.0184 15.08L52.5784 18.872H56.4344L55.0104 15.128L54.5144 13.656H54.4824L54.0184 15.08ZM65.4215 23.16C64.4188 23.16 63.5495 22.9413 62.8135 22.504C62.0882 22.056 61.5228 21.4267 61.1175 20.616C60.7228 19.8053 60.5255 18.84 60.5255 17.72C60.5255 16.6 60.7335 15.6347 61.1495 14.824C61.5762 14.0133 62.1682 13.3893 62.9255 12.952C63.6828 12.504 64.5522 12.28 65.5335 12.28C66.5788 12.28 67.4268 12.4773 68.0775 12.872C68.7388 13.2667 69.2722 13.8747 69.6775 14.696L68.5095 15.336C68.2748 14.728 67.9015 14.2693 67.3895 13.96C66.8882 13.64 66.2695 13.48 65.5335 13.48C64.8188 13.48 64.1842 13.6507 63.6295 13.992C63.0855 14.3227 62.6535 14.808 62.3335 15.448C62.0242 16.0773 61.8695 16.8347 61.8695 17.72C61.8695 19.0427 62.1735 20.0827 62.7815 20.84C63.4002 21.5867 64.2962 21.96 65.4695 21.96C66.0562 21.96 66.5842 21.864 67.0535 21.672C67.5228 21.4693 67.8962 21.1653 68.1735 20.76C68.4508 20.3547 68.5895 19.848 68.5895 19.24V18.872H65.2295V17.672H69.7575V23H68.7495L68.7015 21.576C68.3815 22.088 67.9442 22.4827 67.3895 22.76C66.8455 23.0267 66.1895 23.16 65.4215 23.16ZM71.4316 23L75.5436 12.44H77.0636L81.1596 23H79.7996L78.6796 20.072H73.8956L72.7756 23H71.4316ZM75.7996 15.08L74.3596 18.872H78.2156L76.7916 15.128L76.2956 13.656H76.2636L75.7996 15.08ZM84.5861 12.44V23H83.3061V12.44H84.5861ZM96.3285 12.44V23H94.7445L90.3285 15.928L89.2085 13.944H89.1925L89.2565 15.544V23H88.0405V12.44H89.6245L94.0245 19.48L95.1605 21.512H95.1765L95.1125 19.896V12.44H96.3285Z" fill="#FFD22E"/>
<path d="M4 1H111V-1H4V1ZM114 4V32H116V4H114ZM111 35H4V37H111V35ZM1 32V4H-1V32H1ZM4 35C2.34314 35 1 33.6569 1 32H-1C-1 34.7614 1.23857 37 4 37V35ZM114 32C114 33.6569 112.657 35 111 35V37C113.761 37 116 34.7614 116 32H114ZM111 1C112.657 1 114 2.34315 114 4H116C116 1.23858 113.761 -1 111 -1V1ZM4 -1C1.23858 -1 -1 1.23858 -1 4H1C1 2.34315 2.34315 1 4 1V-1Z" fill="#FFD22E"/>
</svg>
