<svg id="eamgeqxxo1ho1" xmlns="http://www.w3.org/2000/svg" xmlns:xlink="http://www.w3.org/1999/xlink" viewBox="0 0 281 400" shape-rendering="geometricPrecision" text-rendering="geometricPrecision"><style><![CDATA[#eamgeqxxo1ho14 {animation: eamgeqxxo1ho14_c_o 3000ms linear infinite normal forwards}@keyframes eamgeqxxo1ho14_c_o { 0% {opacity: 1;animation-timing-function: cubic-bezier(0.420000,0,0.580000,1)} 16.666667% {opacity: 0.200000;animation-timing-function: cubic-bezier(0.420000,0,0.580000,1)} 100% {opacity: 1} }#eamgeqxxo1ho16 {animation: eamgeqxxo1ho16_c_o 3000ms linear infinite normal forwards}@keyframes eamgeqxxo1ho16_c_o { 0% {opacity: 1;animation-timing-function: cubic-bezier(0.420000,0,0.580000,1)} 33.333333% {opacity: 0.400000;animation-timing-function: cubic-bezier(0.420000,0,0.580000,1)} 100% {opacity: 1} }#eamgeqxxo1ho18 {animation: eamgeqxxo1ho18_c_o 3000ms linear infinite normal forwards}@keyframes eamgeqxxo1ho18_c_o { 0% {opacity: 1;animation-timing-function: cubic-bezier(0.420000,0,0.580000,1)} 66.666667% {opacity: 0.400000;animation-timing-function: cubic-bezier(0.420000,0,0.580000,1)} 100% {opacity: 1} }#eamgeqxxo1ho23 {animation: eamgeqxxo1ho23_c_o 3000ms linear infinite normal forwards}@keyframes eamgeqxxo1ho23_c_o { 0% {opacity: 1;animation-timing-function: cubic-bezier(0.420000,0,0.580000,1)} 50% {opacity: 0.500000;animation-timing-function: cubic-bezier(0.420000,0,0.580000,1)} 100% {opacity: 1} }#eamgeqxxo1ho24 {animation: eamgeqxxo1ho24_c_o 3000ms linear infinite normal forwards}@keyframes eamgeqxxo1ho24_c_o { 0% {opacity: 1;animation-timing-function: cubic-bezier(0.420000,0,0.580000,1)} 66.666667% {opacity: 0.600000;animation-timing-function: cubic-bezier(0.420000,0,0.580000,1)} 100% {opacity: 1} }#eamgeqxxo1ho25 {animation: eamgeqxxo1ho25_c_o 3000ms linear infinite normal forwards}@keyframes eamgeqxxo1ho25_c_o { 0% {opacity: 1;animation-timing-function: cubic-bezier(0.420000,0,0.580000,1)} 33.333333% {opacity: 0.600000;animation-timing-function: cubic-bezier(0.420000,0,0.580000,1)} 100% {opacity: 1} }]]></style><defs><linearGradient id="eamgeqxxo1ho21-fill" x1="220" y1="0" x2="220" y2="400" spreadMethod="pad" gradientUnits="userSpaceOnUse"><stop id="eamgeqxxo1ho21-fill-0" offset="0%" stop-color="rgb(96,49,86)"/><stop id="eamgeqxxo1ho21-fill-1" offset="100%" stop-color="rgb(53,47,92)"/></linearGradient><linearGradient id="eamgeqxxo1ho22-fill" x1="63.250000" y1="0.500000" x2="63.250000" y2="400" spreadMethod="pad" gradientUnits="userSpaceOnUse"><stop id="eamgeqxxo1ho22-fill-0" offset="0%" stop-color="rgb(96,49,86)"/><stop id="eamgeqxxo1ho22-fill-1" offset="100%" stop-color="rgb(53,47,92)"/></linearGradient></defs><rect id="eamgeqxxo1ho2" width="280" height="400" rx="0" ry="0" fill="rgb(255,215,172)" stroke="none" stroke-width="1"/><path id="eamgeqxxo1ho3" d="M280,0L280,44C268.500000,64,252,82.500000,204,82.500000C126.713000,82.500000,114.833000,23.500000,111,0L280,0Z" fill="rgb(181,105,73)" stroke="none" stroke-width="1"/><path id="eamgeqxxo1ho4" d="M169,0L169,44C157.500000,64,141,82.500000,93,82.500000C15.713200,82.500000,3.833330,23.500000,0,0L169,0Z" fill="rgb(181,105,73)" stroke="none" stroke-width="1"/><path id="eamgeqxxo1ho5" d="M179.500000,400L149,400L162,0L197,0L179.500000,400Z" fill="rgb(242,148,108)" stroke="none" stroke-width="1"/><path id="eamgeqxxo1ho6" d="M159.277000,270.963000L106,400L230.638000,400L182.249000,270.963000L159.277000,270.963000Z" fill="rgb(28,14,76)" stroke="none" stroke-width="1"/><path id="eamgeqxxo1ho7" d="M161.965000,267.053000L162.698000,271.207000L159.032000,273.162000L156.100000,268.763000L156.588000,266.075000L160.254000,264.853000L161.965000,267.053000Z" fill="rgb(28,14,76)" stroke="none" stroke-width="1"/><path id="eamgeqxxo1ho8" d="M179.561000,267.053000L178.828000,271.207000L182.494000,273.162000L185.426000,268.763000L184.937000,266.075000L181.272000,264.853000L179.561000,267.053000Z" fill="rgb(28,14,76)" stroke="none" stroke-width="1"/><path id="eamgeqxxo1ho9" d="M172.229000,276.339000L168.319000,276.339000L166.364000,282.693000L174.184000,282.693000L172.229000,276.339000Z" fill="rgb(26,46,117)" stroke="none" stroke-width="1"/><circle id="eamgeqxxo1ho10" r="0.977554" transform="matrix(1 0 0 1 176.38399999999999 277.31700000000001)" fill="rgb(0,243,243)" stroke="none" stroke-width="1"/><circle id="eamgeqxxo1ho11" r="0.977554" transform="matrix(1 0 0 1 164.16499999999999 277.31700000000001)" fill="rgb(0,243,243)" stroke="none" stroke-width="1"/><path id="eamgeqxxo1ho12" d="M172.963000,331.816000C175.053000,325.355000,187.626000,324.973000,187.626000,324.973000C187.626000,324.973000,180.909000,326.390000,178.584000,331.816000C174.604000,341.102000,176.629000,347.701000,176.629000,347.701000C176.629000,347.701000,170.274000,340.125000,172.963000,331.816000Z" fill="rgb(26,46,117)" stroke="none" stroke-width="1"/><path id="eamgeqxxo1ho13" d="M166.120000,331.816000C164.030000,325.355000,151.456000,324.973000,151.456000,324.973000C151.456000,324.973000,158.174000,326.390000,160.499000,331.816000C164.479000,341.102000,162.454000,347.701000,162.454000,347.701000C162.454000,347.701000,168.809000,340.125000,166.120000,331.816000Z" fill="rgb(26,46,117)" stroke="none" stroke-width="1"/><path id="eamgeqxxo1ho14" d="M280,181L51,0L61,0L280,169L280,181Z" fill="rgb(255,239,156)" fill-opacity="0.14" stroke="none" stroke-width="1"/><path id="eamgeqxxo1ho15" d="M62.500000,400L31,400L62.500000,0L95.500000,0L62.500000,400Z" fill="rgb(242,148,108)" stroke="none" stroke-width="1"/><path id="eamgeqxxo1ho16" d="M280.319000,291.500000L0,69L0,59L280.319000,281L280.319000,291.500000Z" fill="rgb(255,239,156)" fill-opacity="0.14" stroke="none" stroke-width="1"/><path id="eamgeqxxo1ho17" d="M137.500000,400L120,400L138.500000,0L155,0L137.500000,400Z" fill="rgb(221,117,110)" stroke="none" stroke-width="1"/><path id="eamgeqxxo1ho18" d="M151.500000,400L0,214.500000L0,195.500000L198,400L151.500000,400Z" fill="rgb(255,239,156)" fill-opacity="0.14" stroke="none" stroke-width="1"/><path id="eamgeqxxo1ho19" d="M123.500000,0.500000L85.500000,0.500000L78,399.500000L123.500000,399.500000L123.500000,0.500000Z" fill="rgb(138,65,82)" stroke="none" stroke-width="1"/><path id="eamgeqxxo1ho20" d="M217,0.500000L181,0.500000L206,399.500000L250.500000,399.500000L217,0.500000Z" fill="rgb(138,65,82)" stroke="none" stroke-width="1"/><path id="eamgeqxxo1ho21" d="M280,400L194.500000,400C204.667000,388.333000,226.400000,358.400000,232,334C237.600000,309.600000,236.667000,243.500000,235.500000,213.500000L176.500000,158L160,123L163.500000,114.500000L184.500000,139.500000L235.500000,169.500000L225,0L280,0L280,400Z" transform="matrix(1 0 0 1 1 0)" fill="url(#eamgeqxxo1ho21-fill)" stroke="none" stroke-width="1"/><path id="eamgeqxxo1ho22" d="M92.500000,0.500000L0,0.500000L0,400L126.500000,400C119.667000,388.500000,73.794700,351.855000,69.500000,333.500000C33,177.500000,35,50.500000,92.500000,0.500000Z" fill="url(#eamgeqxxo1ho22-fill)" stroke="none" stroke-width="1"/><path id="eamgeqxxo1ho23" d="M212.602000,400L0,128L0,95L280,343.500000L280,400L212.602000,400Z" fill="rgb(255,239,156)" fill-opacity="0.14" stroke="none" stroke-width="1"/><path id="eamgeqxxo1ho24" d="M280,247.500000L0,31L0,10L280,222L280,247.500000Z" fill="rgb(255,239,156)" fill-opacity="0.14" stroke="none" stroke-width="1"/><path id="eamgeqxxo1ho25" d="M280,126L113.500000,0.500000L127.500000,0.500000L280,103L280,126Z" fill="rgb(255,239,156)" fill-opacity="0.14" stroke="none" stroke-width="1"/><path id="eamgeqxxo1ho26" d="M0,49.500000L0,0L157,0C157,46,69.500000,91,0,49.500000Z" fill="rgb(67,96,108)" stroke="none" stroke-width="1"/><path id="eamgeqxxo1ho27" d="M280,31.500000L280,0L101,0C101,31.500000,204,78,280,31.500000Z" transform="matrix(1 0 0 1 1 0)" fill="rgb(67,96,108)" stroke="none" stroke-width="1"/></svg>