<svg id="e2t11co42uz21" xmlns="http://www.w3.org/2000/svg" xmlns:xlink="http://www.w3.org/1999/xlink" viewBox="0 0 480 600" shape-rendering="geometricPrecision" text-rendering="geometricPrecision"><style><![CDATA[#e2t11co42uz210 {animation: e2t11co42uz210_c_o 3000ms linear infinite normal forwards}@keyframes e2t11co42uz210_c_o { 0% {opacity: 1;animation-timing-function: cubic-bezier(0.420000,0,0.580000,1)} 50% {opacity: 0;animation-timing-function: cubic-bezier(0.420000,0,0.580000,1)} 100% {opacity: 1} }#e2t11co42uz211 {animation: e2t11co42uz211_c_o 3000ms linear infinite normal forwards}@keyframes e2t11co42uz211_c_o { 0% {opacity: 1;animation-timing-function: cubic-bezier(0.420000,0,0.580000,1)} 50% {opacity: 0;animation-timing-function: cubic-bezier(0.420000,0,0.580000,1)} 100% {opacity: 1} }#e2t11co42uz214 {animation: e2t11co42uz214_c_o 3000ms linear infinite normal forwards}@keyframes e2t11co42uz214_c_o { 0% {opacity: 1;animation-timing-function: cubic-bezier(0.420000,0,1,1)} 33.333333% {opacity: 0.400000} 100% {opacity: 1} }#e2t11co42uz216 {animation: e2t11co42uz216_c_o 3000ms linear infinite normal forwards}@keyframes e2t11co42uz216_c_o { 0% {opacity: 1;animation-timing-function: cubic-bezier(0.420000,0,1,1)} 50% {opacity: 0.500000;animation-timing-function: cubic-bezier(0.420000,0,1,1)} 100% {opacity: 1} }#e2t11co42uz222 {animation: e2t11co42uz222_c_o 3000ms linear infinite normal forwards}@keyframes e2t11co42uz222_c_o { 0% {opacity: 1;animation-timing-function: cubic-bezier(0.420000,0,1,1)} 50% {opacity: 0.500000;animation-timing-function: cubic-bezier(0.420000,0,1,1)} 100% {opacity: 1} }#e2t11co42uz223 {animation: e2t11co42uz223_c_o 3000ms linear infinite normal forwards}@keyframes e2t11co42uz223_c_o { 0% {opacity: 1;animation-timing-function: cubic-bezier(0.420000,0,1,1)} 60% {opacity: 0.560000;animation-timing-function: cubic-bezier(0.420000,0,1,1)} 100% {opacity: 1} }#e2t11co42uz224 {animation: e2t11co42uz224_c_o 3000ms linear infinite normal forwards}@keyframes e2t11co42uz224_c_o { 0% {opacity: 1;animation-timing-function: cubic-bezier(0.420000,0,1,1)} 43.333333% {opacity: 0.600000;animation-timing-function: cubic-bezier(0.420000,0,1,1)} 100% {opacity: 1} }]]></style><defs><radialGradient id="e2t11co42uz22-fill" cx="0" cy="0" r="1" spreadMethod="pad" gradientUnits="userSpaceOnUse" gradientTransform="matrix(0.00000000000002 245 -244.49100000000001 0.00000000000001 239.50095299999998 0)"><stop id="e2t11co42uz22-fill-0" offset="0%" stop-color="rgb(37,108,118)"/><stop id="e2t11co42uz22-fill-1" offset="100%" stop-color="rgb(31,51,103)"/></radialGradient><linearGradient id="e2t11co42uz220-fill" x1="383.580000" y1="0" x2="383.580000" y2="600" spreadMethod="pad" gradientUnits="userSpaceOnUse"><stop id="e2t11co42uz220-fill-0" offset="0%" stop-color="rgb(96,49,86)"/><stop id="e2t11co42uz220-fill-1" offset="100%" stop-color="rgb(53,47,92)"/></linearGradient><linearGradient id="e2t11co42uz221-fill" x1="94.303500" y1="1" x2="94.303500" y2="600" spreadMethod="pad" gradientUnits="userSpaceOnUse"><stop id="e2t11co42uz221-fill-0" offset="0%" stop-color="rgb(96,49,86)"/><stop id="e2t11co42uz221-fill-1" offset="100%" stop-color="rgb(53,47,92)"/></linearGradient></defs><rect id="e2t11co42uz22" width="479.002000" height="600" rx="0" ry="0" transform="matrix(1 0 0 1 0.99804700000001 0)" fill="url(#e2t11co42uz22-fill)" stroke="none" stroke-width="1"/><path id="e2t11co42uz23" d="M480,0L480,65.600000C462.752000,95.418200,436.009000,123,364.017000,123C248.099000,123,230.282000,35.036400,224.532000,0L480,0Z" fill="rgb(71,85,159)" stroke="none" stroke-width="1"/><path id="e2t11co42uz24" d="M253.472000,0L253.472000,65.600000C236.224000,95.418200,211.477000,123,139.485000,123C23.567200,123,5.749360,35.036400,0,0L253.472000,0Z" fill="rgb(71,85,159)" stroke="none" stroke-width="1"/><path id="e2t11co42uz25" d="M311.102000,600L257.464000,600L284.907000,0L337.298000,0L311.102000,600Z" fill="rgb(119,108,242)" stroke="none" stroke-width="1"/><path id="e2t11co42uz26" d="M279.972000,353.178000L178.628000,599.147000L415.718000,599.147000L323.671000,353.178000L279.972000,353.178000Z" fill="rgb(28,14,76)" stroke="none" stroke-width="1"/><path id="e2t11co42uz27" d="M285.086000,345.724000L286.481000,353.643000L279.507000,357.370000L273.929000,348.985000L274.858000,343.861000L281.832000,341.531000L285.086000,345.724000Z" fill="rgb(28,14,76)" stroke="none" stroke-width="1"/><path id="e2t11co42uz28" d="M318.557000,345.724000L317.163000,353.643000L324.136000,357.370000L329.714000,348.985000L328.785000,343.861000L321.811000,341.531000L318.557000,345.724000Z" fill="rgb(28,14,76)" stroke="none" stroke-width="1"/><path id="e2t11co42uz29" d="M304.611000,363.426000L297.173000,363.426000L293.454000,375.538000L308.330000,375.538000L304.611000,363.426000Z" fill="rgb(26,46,117)" stroke="none" stroke-width="1"/><ellipse id="e2t11co42uz210" rx="1.859530" ry="1.863400" transform="matrix(1 0 0 1 312.51400000000001 365.29000000000002)" fill="rgb(0,243,243)" stroke="none" stroke-width="1"/><ellipse id="e2t11co42uz211" rx="1.859530" ry="1.863400" transform="matrix(1 0 0 1 289.26999999999998 365.29000000000002)" fill="rgb(0,243,243)" stroke="none" stroke-width="1"/><path id="e2t11co42uz212" d="M306.006000,469.174000C309.982000,456.859000,333.899000,456.130000,333.899000,456.130000C333.899000,456.130000,321.122000,458.832000,316.698000,469.174000C309.128000,486.877000,312.980000,499.454000,312.980000,499.454000C312.980000,499.454000,300.892000,485.013000,306.006000,469.174000Z" fill="rgb(26,46,117)" stroke="none" stroke-width="1"/><path id="e2t11co42uz213" d="M292.990000,469.174000C289.014000,456.859000,265.096000,456.130000,265.096000,456.130000C265.096000,456.130000,277.874000,458.832000,282.297000,469.174000C289.868000,486.877000,286.016000,499.454000,286.016000,499.454000C286.016000,499.454000,298.104000,485.013000,292.990000,469.174000Z" fill="rgb(26,46,117)" stroke="none" stroke-width="1"/><path id="e2t11co42uz214" d="M480,253L83.825200,0L103.784000,0L480,231L480,253Z" fill="rgb(156,231,255)" fill-opacity="0.14" stroke="none" stroke-width="1"/><path id="e2t11co42uz215" d="M99.165700,600L51.892100,600L99.165700,0L148.690000,0L99.165700,600Z" fill="rgb(119,108,242)" stroke="none" stroke-width="1"/><path id="e2t11co42uz216" d="M480,436L0,81L0,59L480,415L480,436Z" fill="rgb(156,231,255)" fill-opacity="0.14" stroke="none" stroke-width="1"/><path id="e2t11co42uz217" d="M244.491000,600L205.572000,600L238.503000,0L268.441000,0L244.491000,600Z" fill="rgb(59,64,176)" stroke="none" stroke-width="1"/><path id="e2t11co42uz218" d="M203.576000,1L146.903000,1L135.717000,600L203.576000,600L203.576000,1Z" fill="rgb(93,65,138)" stroke="none" stroke-width="1"/><path id="e2t11co42uz219" d="M378.083000,1L324.324000,1L361.657000,599L428.108000,599L378.083000,1Z" fill="rgb(93,65,138)" stroke="none" stroke-width="1"/><path id="e2t11co42uz220" d="M480,600L352.943000,600C368.140000,582.507000,400.627000,537.376000,408.997000,500.791000C417.368000,464.206000,415.973000,365.098000,414.229000,320.116000L326.036000,236.901000L287.159000,175.745000L292.391000,163L337.995000,209.163000L414.229000,254.144000L398.534000,0L480,0L480,600Z" fill="url(#e2t11co42uz220-fill)" stroke="none" stroke-width="1"/><path id="e2t11co42uz221" d="M137.914000,1L0,1L0,600L188.607000,600C178.419000,582.757000,110.025000,527.813000,103.622000,500.292000C49.201800,266.389000,52.183800,75.968700,137.914000,1Z" fill="url(#e2t11co42uz221-fill)" stroke="none" stroke-width="1"/><path id="e2t11co42uz222" d="M480,168L203.576000,0L235.509000,0L480,127L480,168Z" fill="rgb(156,231,255)" fill-opacity="0.14" stroke="none" stroke-width="1"/><path id="e2t11co42uz223" d="M480,361.500000L0.998047,31L0.998047,3L480,320L480,361.500000Z" fill="rgb(156,231,255)" fill-opacity="0.14" stroke="none" stroke-width="1"/><path id="e2t11co42uz224" d="M411.426000,600L0,170L0,125L480,482L480,600L411.426000,600Z" fill="rgb(156,231,255)" fill-opacity="0.14" stroke="none" stroke-width="1"/><path id="e2t11co42uz225" d="M0,74.370800L0,0L235.509000,0C235.509000,69.112300,104.254000,136.722000,0,74.370800Z" fill="rgb(67,96,108)" stroke="none" stroke-width="1"/><path id="e2t11co42uz226" d="M480,47.411800L480,0L211.559000,0C211.559000,47.411800,366.025000,117.401000,480,47.411800Z" fill="rgb(67,96,108)" stroke="none" stroke-width="1"/></svg>