<svg id="e4m2u4nvfe8s1" xmlns="http://www.w3.org/2000/svg" xmlns:xlink="http://www.w3.org/1999/xlink" viewBox="0 0 280 400" shape-rendering="geometricPrecision" text-rendering="geometricPrecision"><style><![CDATA[#e4m2u4nvfe8s32 {animation: e4m2u4nvfe8s32_c_o 3000ms linear infinite normal forwards}@keyframes e4m2u4nvfe8s32_c_o { 0% {opacity: 1;animation-timing-function: cubic-bezier(0.420000,0,0.580000,1)} 50% {opacity: 0.600000;animation-timing-function: cubic-bezier(0.420000,0,0.580000,1)} 100% {opacity: 1} }]]></style><defs><radialGradient id="e4m2u4nvfe8s2-fill" cx="0" cy="0" r="1" spreadMethod="pad" gradientUnits="userSpaceOnUse" gradientTransform="matrix(0.00000000000001 199.94399999999999 -139.75000000000000 0.00000000000001 139.75000000000000 0)"><stop id="e4m2u4nvfe8s2-fill-0" offset="0%" stop-color="rgb(37,108,118)"/><stop id="e4m2u4nvfe8s2-fill-1" offset="100%" stop-color="rgb(31,51,103)"/></radialGradient><linearGradient id="e4m2u4nvfe8s13-fill" x1="219.857000" y1="0" x2="219.857000" y2="399.888000" spreadMethod="pad" gradientUnits="userSpaceOnUse"><stop id="e4m2u4nvfe8s13-fill-0" offset="0%" stop-color="rgb(96,49,86)"/><stop id="e4m2u4nvfe8s13-fill-1" offset="100%" stop-color="rgb(53,47,92)"/></linearGradient><linearGradient id="e4m2u4nvfe8s15-fill" x1="214.355000" y1="280.859000" x2="214.355000" y2="400" spreadMethod="pad" gradientUnits="userSpaceOnUse"><stop id="e4m2u4nvfe8s15-fill-0" offset="0%" stop-color="rgb(154,103,33)"/><stop id="e4m2u4nvfe8s15-fill-1" offset="100%" stop-color="rgb(111,19,79)"/></linearGradient><linearGradient id="e4m2u4nvfe8s31-fill" x1="63.137300" y1="0.500000" x2="63.137300" y2="399.888000" spreadMethod="pad" gradientUnits="userSpaceOnUse"><stop id="e4m2u4nvfe8s31-fill-0" offset="0%" stop-color="rgb(96,49,86)"/><stop id="e4m2u4nvfe8s31-fill-1" offset="100%" stop-color="rgb(53,47,92)"/></linearGradient></defs><rect id="e4m2u4nvfe8s2" width="279.501000" height="399.888000" rx="0" ry="0" fill="url(#e4m2u4nvfe8s2-fill)" stroke="none" stroke-width="1"/><path id="e4m2u4nvfe8s3" d="M279.501000,0L279.501000,43.987700C268.021000,63.982100,251.551000,82.476900,203.636000,82.476900C126.487000,82.476900,114.629000,23.493400,110.802000,0L279.501000,0Z" fill="rgb(71,85,159)" stroke="none" stroke-width="1"/><path id="e4m2u4nvfe8s4" d="M168.699000,0L168.699000,43.987700C157.219000,63.982100,140.749000,82.476900,92.834200,82.476900C15.685200,82.476900,3.826500,23.493400,0,0L168.699000,0Z" fill="rgb(71,85,159)" stroke="none" stroke-width="1"/><path id="e4m2u4nvfe8s5" d="M179.180000,399.888000L148.734000,399.888000L161.711000,0L196.649000,0L179.180000,399.888000Z" fill="rgb(119,108,242)" stroke="none" stroke-width="1"/><path id="e4m2u4nvfe8s6" d="M279.501000,180.949000L50.909200,0L60.891400,0L279.501000,168.953000L279.501000,180.949000Z" fill="rgb(156,231,255)" fill-opacity="0.14" stroke="none" stroke-width="1"/><path id="e4m2u4nvfe8s7" d="M62.388700,399.888000L30.944800,399.888000L62.388700,0L95.329800,0L62.388700,399.888000Z" fill="rgb(119,108,242)" stroke="none" stroke-width="1"/><path id="e4m2u4nvfe8s8" d="M279.819000,291.418000L0,68.980600L0,58.983400L279.819000,280.921000L279.819000,291.418000Z" fill="rgb(156,231,255)" fill-opacity="0.14" stroke="none" stroke-width="1"/><path id="e4m2u4nvfe8s9" d="M137.255000,399.888000L119.786000,399.888000L138.253000,0L154.724000,0L137.255000,399.888000Z" fill="rgb(59,64,176)" stroke="none" stroke-width="1"/><path id="e4m2u4nvfe8s10" d="M151.230000,398.888000L0,214.440000L0,195.445000L197.647000,398.888000L151.230000,398.888000Z" fill="rgb(156,231,255)" fill-opacity="0.14" stroke="none" stroke-width="1"/><path id="e4m2u4nvfe8s11" d="M123.280000,0.500000L85.347500,0.500000L77.860800,399.388000L123.280000,399.388000L123.280000,0.500000Z" fill="rgb(93,65,138)" stroke="none" stroke-width="1"/><path id="e4m2u4nvfe8s12" d="M216.613000,0.500000L180.677000,0.500000L205.633000,399.388000L250.053000,399.388000L216.613000,0.500000Z" fill="rgb(93,65,138)" stroke="none" stroke-width="1"/><path id="e4m2u4nvfe8s13" d="M280,399.888000L194.153000,399.388000C204.302000,387.725000,225.996000,358.300000,231.587000,333.907000C237.177000,309.513000,236.245000,243.432000,235.080000,213.440000L176.185000,157.956000L159.715000,122.966000L163.209000,114.468000L184.171000,139.461000L235.080000,169.453000L224.599000,0L279.002000,0L280,399.888000Z" fill="url(#e4m2u4nvfe8s13-fill)" stroke="none" stroke-width="1"/><path id="e4m2u4nvfe8s14" d="M182.480000,279.359000C184.616000,278.137000,186.446000,279.359000,187.666000,281.802000C186.446000,281.558000,183.395000,283.330000,181.260000,285.468000C180.345000,282.719000,179.654000,280.976000,182.480000,279.359000Z" fill="rgb(154,103,33)" stroke="none" stroke-width="1"/><path id="e4m2u4nvfe8s15" d="M273.986000,400L154.724000,400C155.036000,398.069000,155.316000,396.110000,155.600000,394.115000C157.126000,383.404000,158.799000,371.664000,166.571000,357.839000C164.373000,356.751000,162.578000,354.507000,161.434000,350.841000C159.909000,345.953000,164.121000,341.093000,168.450000,336.789000C172.612000,332.649000,176.385000,328.021000,181.823000,319.522000C180.547000,310.821000,176.190000,304.256000,174.245000,301.658000C167.611000,292.800000,188.886000,274.165000,197.426000,283.330000C198.171000,284.129000,199.380000,285.631000,200.989000,287.629000C207.425000,295.622000,220.248000,311.549000,235.249000,322.125000C273.376000,349.008000,273.986000,378.006000,273.986000,400Z" clip-rule="evenodd" fill="url(#e4m2u4nvfe8s15-fill)" fill-rule="evenodd" stroke="none" stroke-width="1"/><path id="e4m2u4nvfe8s16" d="M214.543000,326.874000C211.281000,326.075000,207.545000,325.791000,204.100000,326.900000C199.774000,328.292000,196.549000,333.073000,196.012000,337.994000C195.742000,340.458000,196.146000,342.967000,197.429000,345.113000C198.713000,347.260000,200.874000,349.035000,204.101000,350.038000C206.700000,350.846000,212.957000,352.374000,219.440000,353.738000C225.920000,355.102000,232.640000,356.305000,236.159000,356.459000C243.054000,356.759000,248.361000,354.080000,251.020000,349.883000C253.680000,345.683000,253.671000,339.991000,249.990000,334.308000L249.790000,334.438000C253.429000,340.057000,253.420000,345.647000,250.818000,349.755000C248.215000,353.864000,242.999000,356.517000,236.169000,356.220000C232.673000,356.068000,225.972000,354.869000,219.489000,353.505000C213.007000,352.141000,206.759000,350.614000,204.172000,349.810000C200.995000,348.822000,198.885000,347.082000,197.634000,344.990000C196.382000,342.896000,195.984000,340.442000,196.249000,338.020000C196.779000,333.167000,199.959000,328.484000,204.173000,327.127000C207.561000,326.037000,211.248000,326.313000,214.487000,327.106000C217.725000,327.900000,220.505000,329.209000,222.071000,330.170000L222.195000,329.966000C220.609000,328.993000,217.807000,327.674000,214.543000,326.874000Z" clip-rule="evenodd" fill="rgb(0,0,0)" fill-rule="evenodd" stroke="none" stroke-width="1"/><path id="e4m2u4nvfe8s17" d="M200.477000,279.664000C200.477000,284.730000,199.562000,282.414000,198.646000,287.301000C197.121000,283.941000,192.241000,282.108000,191.021000,283.025000C189.191000,281.192000,188.886000,278.931000,190.106000,275.999000C191.631000,272.333000,200.477000,274.598000,200.477000,279.664000Z" fill="rgb(154,103,33)" stroke="none" stroke-width="1"/><path id="e4m2u4nvfe8s18" d="M180.955000,290.356000L175.770000,290.356000L173.635000,293.716000L175.770000,295.549000L180.955000,290.356000Z" fill="rgb(0,0,0)" stroke="none" stroke-width="1"/><path id="e4m2u4nvfe8s19" d="M176.348000,297.387000C176.520000,297.848000,176.704000,298.298000,176.883000,298.657000C177.246000,299.383000,177.909000,299.821000,178.721000,300.032000C179.532000,300.243000,180.498000,300.232000,181.491000,300.058000C183.473000,299.711000,185.594000,298.709000,186.835000,297.466000L186.666000,297.297000C185.467000,298.498000,183.394000,299.482000,181.449000,299.823000C180.478000,299.993000,179.548000,300,178.781000,299.801000C178.016000,299.602000,177.420000,299.199000,177.097000,298.550000C176.614000,297.584000,176.088000,295.923000,175.885000,295.211000L175.654000,295.271000C175.672000,295.347000,175.691000,295.429000,175.712000,295.518000C175.934000,296.443000,176.307000,298.004000,176.261000,299.287000C176.236000,299.991000,176.085000,300.584000,175.741000,300.946000C175.406000,301.298000,174.860000,301.460000,173.969000,301.237000L173.911000,301.469000C174.850000,301.704000,175.498000,301.548000,175.914000,301.111000C176.319000,300.684000,176.473000,300.016000,176.499000,299.295000C176.521000,298.687000,176.451000,298.019000,176.348000,297.387000Z" clip-rule="evenodd" fill="rgb(0,0,0)" fill-rule="evenodd" stroke="none" stroke-width="1"/><path id="e4m2u4nvfe8s20" d="M180.650000,290.356000L184.006000,283.357000C184.006000,283.357000,181.870000,284.250000,179.735000,286.412000C177.600000,288.575000,176.075000,290.356000,176.075000,290.356000L180.650000,290.356000Z" fill="rgb(198,135,49)" stroke="none" stroke-width="1"/><path id="e4m2u4nvfe8s21" d="M184.921000,284.552000C184.921000,285.058000,185.330000,285.469000,185.836000,285.469000C186.341000,285.469000,186.751000,285.058000,186.751000,284.552000C186.751000,284.046000,186.341000,283.635000,185.836000,283.635000C185.330000,283.635000,184.921000,284.046000,184.921000,284.552000Z" fill="rgb(0,0,0)" stroke="none" stroke-width="1"/><path id="e4m2u4nvfe8s22" d="M165.478000,340.239000C171.012000,335.412000,177.395000,326.801000,181.974000,318.853000L181.767000,318.733000C177.195000,326.670000,170.828000,335.256000,165.321000,340.059000C160.547000,344.223000,160.391000,349.707000,162.511000,353.722000C164.626000,357.728000,169.029000,360.298000,173.374000,358.589000C181.933000,355.221000,188.351000,350.323000,193.848000,345.123000C195.347000,343.706000,195.968000,341.409000,195.798000,339.021000C195.627000,336.630000,194.663000,334.126000,192.961000,332.277000C191.257000,330.426000,188.815000,329.233000,185.702000,329.470000C182.593000,329.708000,178.829000,331.371000,174.471000,335.199000L174.629000,335.379000C178.964000,331.570000,182.681000,329.941000,185.720000,329.709000C188.755000,329.477000,191.127000,330.637000,192.786000,332.439000C194.447000,334.244000,195.393000,336.695000,195.560000,339.038000C195.727000,341.383000,195.113000,343.598000,193.684000,344.950000C188.201000,350.136000,181.808000,355.014000,173.286000,358.366000C169.091000,360.017000,164.801000,357.547000,162.722000,353.610000C160.648000,349.683000,160.796000,344.323000,165.478000,340.239000Z" clip-rule="evenodd" fill="rgb(0,0,0)" fill-rule="evenodd" stroke="none" stroke-width="1"/><path id="e4m2u4nvfe8s23" d="M258.536000,399.662000C255.785000,394.355000,247.538000,382.405000,236.538000,374.571000L236.400000,374.765000C247.242000,382.487000,255.406000,394.231000,258.233000,399.598000L196.020000,399.598000L196.020000,387.804000C196.020000,386.242000,196.819000,384.648000,198.285000,383.251000C199.751000,381.854000,201.878000,380.659000,204.513000,379.900000C209.782000,378.381000,217.073000,378.606000,225.132000,382.413000L225.234000,382.197000C217.127000,378.368000,209.777000,378.134000,204.447000,379.670000C201.782000,380.438000,199.620000,381.649000,198.121000,383.078000C196.623000,384.506000,195.782000,386.158000,195.782000,387.804000L195.782000,399.837000L258.626000,399.837000L258.536000,399.662000Z" clip-rule="evenodd" fill="rgb(0,0,0)" fill-rule="evenodd" stroke="none" stroke-width="1"/><path id="e4m2u4nvfe8s24" d="M195.546000,356.032000C196.457000,353.601000,198.565000,351.348000,202.360000,349.448000L202.254000,349.234000C198.423000,351.152000,196.261000,353.443000,195.323000,355.948000C194.385000,358.452000,194.678000,361.147000,195.714000,363.856000C197.783000,369.267000,202.834000,374.782000,207.103000,379.057000L207.271000,378.888000C203,374.610000,197.985000,369.127000,195.937000,363.770000C194.914000,361.095000,194.635000,358.463000,195.546000,356.032000Z" clip-rule="evenodd" fill="rgb(0,0,0)" fill-rule="evenodd" stroke="none" stroke-width="1"/><path id="e4m2u4nvfe8s25" d="M193.959000,350.049000C192.766000,349.013000,191.367000,348.305000,190.106000,348.305000L190.106000,348.544000C191.285000,348.544000,192.631000,349.211000,193.802000,350.230000C194.972000,351.246000,195.949000,352.597000,196.398000,353.934000L196.624000,353.857000C196.159000,352.473000,195.153000,351.088000,193.959000,350.049000Z" clip-rule="evenodd" fill="rgb(0,0,0)" fill-rule="evenodd" stroke="none" stroke-width="1"/><path id="e4m2u4nvfe8s26" d="M190.382000,376.873000C195.126000,376.490000,199.989000,377.394000,205.929000,379.363000L206.004000,379.137000C200.049000,377.162000,195.152000,376.248000,190.363000,376.635000C185.574000,377.022000,180.905000,378.711000,175.405000,381.924000C170.948000,384.527000,169.556000,385.934000,168.557000,386.943000C168.491000,387.009000,168.428000,387.073000,168.365000,387.136000L168.534000,387.305000C168.597000,387.242000,168.661000,387.177000,168.726000,387.111000C169.715000,386.112000,171.094000,384.719000,175.525000,382.130000C181.006000,378.928000,185.640000,377.257000,190.382000,376.873000Z" clip-rule="evenodd" fill="rgb(0,0,0)" fill-rule="evenodd" stroke="none" stroke-width="1"/><path id="e4m2u4nvfe8s27" d="M200.071000,370.965000L196.106000,377.074000L196.306000,377.205000L200.271000,371.095000L200.071000,370.965000Z" clip-rule="evenodd" fill="rgb(0,0,0)" fill-rule="evenodd" stroke="none" stroke-width="1"/><path id="e4m2u4nvfe8s28" d="M193.156000,280.887000C194.317000,281.263000,196.105000,282.720000,196.816000,283.636000C196.816000,281.803000,198.646000,279.693000,195.291000,277.554000C191.564000,275.179000,190.411000,279.998000,193.156000,280.887000Z" fill="rgb(251,171,126)" stroke="none" stroke-width="1"/><path id="e4m2u4nvfe8s29" d="M197.130000,275.094000C199.168000,276.228000,200.801000,278.254000,200.653000,280.480000C200.525000,282.410000,199.645000,284.719000,199.143000,285.624000L199.351000,285.740000C199.866000,284.811000,200.760000,282.468000,200.891000,280.496000C201.048000,278.140000,199.326000,276.042000,197.246000,274.885000C196.203000,274.305000,195.060000,273.955000,193.998000,273.925000C192.936000,273.896000,191.948000,274.189000,191.232000,274.905000C188.995000,277.146000,189.168000,280.163000,189.691000,281.420000L189.911000,281.328000C189.417000,280.141000,189.246000,277.233000,191.401000,275.074000C192.058000,274.416000,192.976000,274.136000,193.992000,274.164000C195.008000,274.192000,196.114000,274.529000,197.130000,275.094000Z" clip-rule="evenodd" fill="rgb(17,17,17)" fill-rule="evenodd" stroke="none" stroke-width="1"/><path id="e4m2u4nvfe8s30" d="M184.958000,279.314000C185.838000,279.592000,186.671000,280.261000,187.254000,281.428000L187.468000,281.321000C186.859000,280.102000,185.977000,279.386000,185.029000,279.086000C184.083000,278.787000,183.081000,278.907000,182.235000,279.344000C181.388000,279.780000,180.695000,280.534000,180.368000,281.508000C180.041000,282.483000,180.085000,283.668000,180.696000,284.962000L180.912000,284.860000C180.324000,283.615000,180.289000,282.494000,180.594000,281.584000C180.900000,280.673000,181.549000,279.966000,182.344000,279.556000C183.138000,279.146000,184.076000,279.036000,184.958000,279.314000Z" clip-rule="evenodd" fill="rgb(0,0,0)" fill-rule="evenodd" stroke="none" stroke-width="1"/><path id="e4m2u4nvfe8s31" d="M92.335100,0.500000L0,0.500000L0,399.888000L126.275000,399.888000C119.453000,388.391000,73.663100,351.757000,69.376100,333.407000C32.941200,177.450000,34.937600,50.486000,92.335100,0.500000Z" fill="url(#e4m2u4nvfe8s31-fill)" stroke="none" stroke-width="1"/><g id="e4m2u4nvfe8s32"><path id="e4m2u4nvfe8s33" d="M212.223000,399.888000L0,127.964000L0,94.973400L279.819000,343.404000L279.819000,399.888000L212.223000,399.888000Z" fill="rgb(156,231,255)" fill-opacity="0.14" stroke="none" stroke-width="1"/><path id="e4m2u4nvfe8s34" d="M279.501000,247.431000L0,30.991400L0,9.997310L279.501000,221.938000L279.501000,247.431000Z" fill="rgb(156,231,255)" fill-opacity="0.14" stroke="none" stroke-width="1"/><path id="e4m2u4nvfe8s35" d="M279.501000,125.965000L113.298000,0.500000L127.273000,0.500000L279.501000,102.971000L279.501000,125.965000Z" fill="rgb(156,231,255)" fill-opacity="0.14" stroke="none" stroke-width="1"/></g><g id="e4m2u4nvfe8s36"><path id="e4m2u4nvfe8s37" d="M0,49.486100L0,0L156.720000,0C156.720000,45.987100,69.376100,90.974500,0,49.486100Z" fill="rgb(67,96,108)" stroke="none" stroke-width="1"/><path id="e4m2u4nvfe8s38" d="M279.501000,31.491200L279.501000,0L100.820000,0C100.820000,31.491200,203.636000,77.978200,279.501000,31.491200Z" fill="rgb(67,96,108)" stroke="none" stroke-width="1"/></g></svg>