<svg id="ezrqnfneihh1" xmlns="http://www.w3.org/2000/svg" xmlns:xlink="http://www.w3.org/1999/xlink" viewBox="0 0 280 401" shape-rendering="geometricPrecision" text-rendering="geometricPrecision"><style><![CDATA[#ezrqnfneihh23_to {animation: ezrqnfneihh23_to__to 3000ms linear infinite normal forwards}@keyframes ezrqnfneihh23_to__to { 0% {transform: translate(151.815521px,255.467720px);animation-timing-function: cubic-bezier(0.420000,0,0.580000,1)} 50% {transform: translate(151.815521px,247.733849px);animation-timing-function: cubic-bezier(0.420000,0,0.580000,1)} 100% {transform: translate(151.815521px,255.467720px)} }#ezrqnfneihh54_tr {animation: ezrqnfneihh54_tr__tr 3000ms linear infinite normal forwards}@keyframes ezrqnfneihh54_tr__tr { 0% {transform: translate(130.792000px,342.672409px) rotate(0deg);animation-timing-function: cubic-bezier(0.420000,0,0.580000,1)} 50% {transform: translate(130.792000px,342.672409px) rotate(3.121212deg);animation-timing-function: cubic-bezier(0.420000,0,0.580000,1)} 100% {transform: translate(130.792000px,342.672409px) rotate(0deg)} }#ezrqnfneihh55_tr {animation: ezrqnfneihh55_tr__tr 3000ms linear infinite normal forwards}@keyframes ezrqnfneihh55_tr__tr { 0% {transform: translate(183.603043px,342.426422px) rotate(0.066790deg);animation-timing-function: cubic-bezier(0.420000,0,0.580000,1)} 50% {transform: translate(183.603043px,342.426422px) rotate(-2.156506deg);animation-timing-function: cubic-bezier(0.420000,0,0.580000,1)} 100% {transform: translate(183.603043px,342.426422px) rotate(0.066790deg)} }#ezrqnfneihh56 {animation: ezrqnfneihh56_c_o 3000ms linear infinite normal forwards}@keyframes ezrqnfneihh56_c_o { 0% {opacity: 1;animation-timing-function: cubic-bezier(0.420000,0,1,1)} 50% {opacity: 0.600000;animation-timing-function: cubic-bezier(0.420000,0,1,1)} 100% {opacity: 1} }]]></style><defs><linearGradient id="ezrqnfneihh12-fill" x1="156.933000" y1="0.499375" x2="156.933000" y2="399.500000" spreadMethod="pad" gradientUnits="userSpaceOnUse"><stop id="ezrqnfneihh12-fill-0" offset="0%" stop-color="rgb(91,49,87)"/><stop id="ezrqnfneihh12-fill-1" offset="100%" stop-color="rgb(54,48,93)"/></linearGradient><radialGradient id="ezrqnfneihh19-fill" cx="0" cy="0" r="1" spreadMethod="pad" gradientUnits="userSpaceOnUse" gradientTransform="matrix(0 45 -44.94880000000000 0 152.82599999999999 257)"><stop id="ezrqnfneihh19-fill-0" offset="0%" stop-color="rgba(67,96,108,0.65)"/><stop id="ezrqnfneihh19-fill-1" offset="100%" stop-color="rgba(67,96,108,0)"/></radialGradient><linearGradient id="ezrqnfneihh39-fill" x1="86.230500" y1="282.970000" x2="86.230500" y2="399.926000" spreadMethod="pad" gradientUnits="userSpaceOnUse"><stop id="ezrqnfneihh39-fill-0" offset="0%" stop-color="rgb(154,103,33)"/><stop id="ezrqnfneihh39-fill-1" offset="100%" stop-color="rgb(130,45,14)"/></linearGradient></defs><path id="ezrqnfneihh2" d="M0,0L279.681000,0L279.681000,400L0,400L0,0Z" fill="rgb(255,215,172)" stroke="none" stroke-width="1"/><path id="ezrqnfneihh3" d="M279.177000,0L279.177000,32C277.682000,52,268.193000,70.474700,222.245000,62C184.293000,55,168.808000,14,178.297000,0L279.177000,0Z" fill="rgb(181,105,73)" stroke="none" stroke-width="1"/><path id="ezrqnfneihh4" d="M116.367000,1L116.367000,10C113.870000,36.500000,89.109300,62.213900,47.445800,57C7.491380,52,0.998779,25,0.998779,1L116.367000,1Z" fill="rgb(181,105,73)" stroke="none" stroke-width="1"/><path id="ezrqnfneihh5" d="M248.717000,0L210.760000,0L215.754000,400L248.717000,400L248.717000,0Z" fill="rgb(242,148,108)" stroke="none" stroke-width="1"/><path id="ezrqnfneihh6" d="M279.681000,201L20.976100,0L49.943100,0L279.681000,170L279.681000,201Z" fill="rgb(255,239,156)" fill-opacity="0.14" stroke="none" stroke-width="1"/><path id="ezrqnfneihh7" d="M67.922600,0L50.941900,0L26.969200,400L59.931700,400L67.922600,0Z" fill="rgb(242,148,108)" stroke="none" stroke-width="1"/><path id="ezrqnfneihh8" d="M110.374000,399.500000L0,186.500000L0,155L154.824000,399.500000L110.374000,399.500000Z" fill="rgb(255,239,156)" fill-opacity="0.14" stroke="none" stroke-width="1"/><path id="ezrqnfneihh9" d="M103.382000,400L70.919200,400L81.407200,0L117.866000,0L103.382000,400Z" fill="rgb(221,117,110)" stroke="none" stroke-width="1"/><path id="ezrqnfneihh10" d="M15.482400,400.500000L0,400.500000L0,0L36.458400,0L15.482400,400.500000Z" fill="rgb(138,65,82)" stroke="none" stroke-width="1"/><path id="ezrqnfneihh11" d="M279.681000,400L254.710000,400L262.201000,0L279.681000,0L279.681000,400Z" fill="rgb(221,117,110)" stroke="none" stroke-width="1"/><path id="ezrqnfneihh12" d="M238.229000,400L76.912300,400C86.068600,355.833000,101.884000,257.016000,101.884000,213C101.884000,182.595000,96.390500,145.590000,89.447400,108.329000L0,52L0,37L45.947600,66L83.042700,75.522400C81.437900,67.578300,79.821100,59.709100,78.232700,51.978200L78.231600,51.972900C74.452600,33.580100,70.834600,15.970700,67.922600,0L106.254000,0L144.585000,0L182.917000,0L202.769000,0L202.701000,0.682331C200.583000,22.064500,198.471000,43.389900,196.893000,65.188200L213.257000,54L242.723000,0.500000L256.707000,0.500000L226.742000,68L194.554000,111.598000C193.907000,137.089000,194.399000,163.640000,196.776000,192C200.321000,234.298000,224.411000,349.833000,238.229000,400Z" clip-rule="evenodd" fill="url(#ezrqnfneihh12-fill)" fill-rule="evenodd" stroke="none" stroke-width="1"/><path id="ezrqnfneihh13" d="M176.794000,144.106000L145.722000,127.579000C144.984000,127.186000,144.079000,127.297000,143.454000,127.857000L115.907000,152.526000C115.482000,152.906000,115.239000,153.451000,115.239000,154.021000L115.239000,185.206000C115.239000,185.950000,115.650000,186.631000,116.307000,186.975000L151.265000,205.285000C152.004000,205.672000,152.907000,205.557000,153.528000,204.996000L180.965000,180.221000C181.446000,179.786000,181.688000,179.146000,181.614000,178.502000L177.838000,145.641000C177.763000,144.988000,177.373000,144.414000,176.794000,144.106000Z" fill="rgb(47,30,58)" stroke="none" stroke-width="1"/><path id="ezrqnfneihh14" d="M279.681000,287L0,24L0,3L279.681000,261.500000L279.681000,287Z" fill="rgb(255,239,156)" fill-opacity="0.14" stroke="none" stroke-width="1"/><path id="ezrqnfneihh15" d="M253.711000,173.500000L253.711000,45L255.709000,45L255.709000,173.500000L253.711000,173.500000Z" clip-rule="evenodd" fill="rgb(77,81,62)" fill-rule="evenodd" stroke="none" stroke-width="1"/><path id="ezrqnfneihh16" d="M22.367000,79.175300C31.373700,97.085300,46.704300,111.765000,70.949200,112.500000C92.442400,113.153000,108.197000,106.732000,118.628000,92.831200C129.109000,78.862000,134.347000,57.171200,134.347000,27L136.344000,27C136.344000,57.328800,131.094000,79.547200,120.225000,94.032400C109.305000,108.586000,92.846200,115.166000,70.888700,114.500000C45.689700,113.735000,29.805600,98.414700,20.582700,80.074700C11.377100,61.769200,8.727110,40.328800,9.991600,26.906100L11.980500,27.093900C10.748500,40.171200,13.343000,61.230900,22.367000,79.175300Z" clip-rule="evenodd" fill="rgb(77,86,59)" fill-rule="evenodd" stroke="none" stroke-width="1"/><path id="ezrqnfneihh17" d="M185.830000,62.505000C175.324000,53.086900,169.587000,39.776000,171.299000,24.108700L169.313000,23.891200C167.529000,40.224000,173.529000,54.163000,184.498000,63.995000C195.448000,73.810700,211.306000,79.500000,229.239000,79.500000C247.290000,79.500000,259.692000,71.779100,267.367000,61.951600C275.008000,52.166500,277.965000,40.290600,277.180000,31.906600L275.191000,32.093300C275.926000,39.937800,273.140000,51.311900,265.793000,60.719700C258.479000,70.085100,246.647000,77.500000,229.239000,77.500000C211.712000,77.500000,196.355000,71.939200,185.830000,62.505000Z" clip-rule="evenodd" fill="rgb(77,86,59)" fill-rule="evenodd" stroke="none" stroke-width="1"/><path id="ezrqnfneihh18" d="M25.470900,24C25.471100,44.891100,44.443100,65.500000,72.417400,65.500000C84.040200,65.500000,94.781400,59.188600,102.652000,50.754800C110.540000,42.302700,115.368000,31.909900,115.368000,24L117.366000,24C117.366000,32.590100,112.206000,43.447400,104.112000,52.120200C96.000900,60.811400,84.767200,67.500000,72.417400,67.500000C43.456500,67.500000,23.473400,46.109000,23.473100,24L25.470900,24Z" clip-rule="evenodd" fill="rgb(77,86,59)" fill-rule="evenodd" stroke="none" stroke-width="1"/><path id="ezrqnfneihh19" d="M197.774000,257C197.774000,281.853000,177.650000,302,152.826000,302C128.001000,302,107.877000,281.853000,107.877000,257C107.877000,232.147000,128.001000,212,152.826000,212C177.650000,212,197.774000,232.147000,197.774000,257Z" fill="url(#ezrqnfneihh19-fill)" stroke="none" stroke-width="1"/><path id="ezrqnfneihh20" d="M279.681000,49.580600L279.681000,0L174.801000,0C174.801000,41.500000,235.731000,65,279.681000,49.580600Z" fill="rgb(67,96,108)" stroke="none" stroke-width="1"/><path id="ezrqnfneihh21" d="M0,22L0,0L114.869000,0C114.869000,27.500000,31.464100,48.500000,0,22Z" fill="rgb(67,96,108)" stroke="none" stroke-width="1"/><path id="ezrqnfneihh22" d="M85.402600,0L202.769000,0C202.769000,11.500000,183.291000,32.500000,144.335000,32.500000C105.380000,32.500000,85.402600,12.500000,85.402600,0Z" fill="rgb(67,96,108)" stroke="none" stroke-width="1"/><g id="ezrqnfneihh23_to" transform="translate(151.815521,255.467720)"><path id="ezrqnfneihh23" d="M134.225000,257.604000L143.795000,229.097000C144.271000,227.681000,146.073000,227.268000,147.117000,228.336000L168.941000,250.678000C169.471000,251.221000,169.648000,252.018000,169.399000,252.735000L159.256000,281.859000C158.760000,283.283000,156.928000,283.667000,155.905000,282.560000L134.654000,259.600000C134.157000,259.063000,133.992000,258.298000,134.225000,257.604000Z" transform="translate(-151.815521,-255.467720)" fill="rgb(217,230,232)" stroke="none" stroke-width="1"/></g><path id="ezrqnfneihh24" d="M202.689000,278.693000L201.458000,282.534000L197.256000,282.534000L196.844000,277.356000L198.547000,275.282000L202.273000,275.987000L202.689000,278.693000Z" fill="rgb(28,14,76)" stroke="none" stroke-width="1"/><path id="ezrqnfneihh25" d="M215.747000,278.282000L216.293000,282.391000L220.303000,283.133000L221.741000,278.142000L220.486000,275.770000L216.694000,275.714000L215.747000,278.282000Z" fill="rgb(28,14,76)" stroke="none" stroke-width="1"/><path id="ezrqnfneihh26" d="M197.141000,282.164000L175.076000,399.815000L268.131000,400L219.685000,282.164000L197.141000,282.164000Z" fill="rgb(28,14,76)" stroke="none" stroke-width="1"/><path id="ezrqnfneihh27" d="M204.575000,288.406000L202.417000,288.406000L199.539000,294.409000L204.575000,294.409000L204.575000,288.406000Z" fill="rgb(26,46,117)" stroke="none" stroke-width="1"/><path id="ezrqnfneihh28" d="M176.515000,329.705000L193.303000,305.934000L193.303000,340.029000L188.746000,352.995000L170.759000,355.636000L157.328000,340.029000L176.515000,329.705000Z" fill="rgb(28,14,76)" stroke="none" stroke-width="1"/><path id="ezrqnfneihh29" d="M216.806000,328.744000L216.806000,309.536000L223.042000,332.106000L198.579000,337.868000L205.774000,351.794000L198.579000,351.794000L192.823000,335.467000L216.806000,328.744000Z" fill="rgb(26,46,117)" stroke="none" stroke-width="1"/><path id="ezrqnfneihh30" d="M208.652000,287.686000C208.652000,288.084000,208.330000,288.406000,207.933000,288.406000C207.535000,288.406000,207.213000,288.084000,207.213000,287.686000C207.213000,287.288000,207.535000,286.966000,207.933000,286.966000C208.330000,286.966000,208.652000,287.288000,208.652000,287.686000Z" fill="rgb(0,243,243)" stroke="none" stroke-width="1"/><path id="ezrqnfneihh31" d="M200.978000,287.686000C200.978000,288.084000,200.655000,288.406000,200.258000,288.406000C199.861000,288.406000,199.539000,288.084000,199.539000,287.686000C199.539000,287.288000,199.861000,286.966000,200.258000,286.966000C200.655000,286.966000,200.978000,287.288000,200.978000,287.686000Z" fill="rgb(0,243,243)" stroke="none" stroke-width="1"/><path id="ezrqnfneihh32" d="M139.581000,372.443000L183.470000,358.757000L190.665000,399.815000L153.011000,399.815000L139.581000,372.443000Z" fill="rgb(28,14,76)" stroke="none" stroke-width="1"/><path id="ezrqnfneihh33" d="M208.892000,399.815000L201.937000,399.815000L194.982000,375.325000L215.847000,363.319000L199.539000,376.525000L208.892000,399.815000Z" fill="rgb(26,46,117)" stroke="none" stroke-width="1"/><path id="ezrqnfneihh34" d="M150.166000,338.681000C148.514000,334.149000,143.854000,330.540000,137.877000,331.719000C131.028000,333.069000,121.142000,334.665000,109.922000,334.673000C107.278000,337.840000,104.161000,341.997000,103.094000,345.530000C102.557000,347.307000,102.551000,348.886000,103.337000,350.101000C104.123000,351.316000,105.736000,352.222000,108.568000,352.566000C115.382000,353.396000,122.097000,353.948000,128.234000,353.833000C134.372000,353.719000,139.920000,352.936000,144.404000,351.104000C147.444000,349.862000,149.290000,347.883000,150.176000,345.660000C151.063000,343.434000,150.992000,340.947000,150.166000,338.681000ZM150.518000,345.797000C149.592000,348.122000,147.667000,350.169000,144.544000,351.445000C140,353.302000,134.401000,354.087000,128.241000,354.202000C122.079000,354.318000,115.345000,353.763000,108.524000,352.933000C105.644000,352.582000,103.900000,351.650000,103.028000,350.302000C102.156000,348.954000,102.191000,347.245000,102.741000,345.423000C103.840000,341.784000,107.043000,337.540000,109.694000,334.370000L109.750000,334.304000L109.836000,334.304000C121.058000,334.304000,130.951000,332.708000,137.805000,331.357000C143.988000,330.137000,148.808000,333.879000,150.512000,338.555000C151.365000,340.894000,151.443000,343.476000,150.518000,345.797000Z" clip-rule="evenodd" fill="rgb(17,17,17)" fill-rule="evenodd" stroke="none" stroke-width="1"/><path id="ezrqnfneihh35" d="M104.189000,283.166000C103.268000,277.447000,114.139000,280.030000,113.217000,289.622000C112.480000,293.311000,104.189000,287.224000,104.189000,283.166000Z" fill="rgb(154,103,33)" stroke="none" stroke-width="1"/><path id="ezrqnfneihh36" d="M105.517000,283.863000C104.885000,280.084000,112.337000,281.791000,111.705000,288.130000C111.200000,290.567000,105.517000,286.545000,105.517000,283.863000Z" fill="rgb(251,171,126)" stroke="none" stroke-width="1"/><path id="ezrqnfneihh37" d="M97.372700,283.350000C93.319300,272.836000,81.343200,285.010000,90.187000,289.437000C93.503400,290.728000,98.478200,286.855000,97.372700,283.350000Z" fill="rgb(154,103,33)" stroke="none" stroke-width="1"/><path id="ezrqnfneihh38" d="M95.430500,283.769000C92.875800,277.124000,85.327800,284.819000,90.901700,287.616000C92.991900,288.432000,96.127300,285.984000,95.430500,283.769000Z" fill="rgb(251,171,126)" stroke="none" stroke-width="1"/><path id="ezrqnfneihh39" d="M23.150400,399.926000L139.380000,399.926000C143.065000,384.063000,132.592000,369.626000,123.351000,356.948000C122.584000,355.897000,121.855000,354.877000,121.161000,353.889000C130.093000,354.339000,138.281000,353.805000,144.474000,351.274000C156.799000,346.238000,150.001000,329.140000,137.841000,331.538000C135.872000,331.926000,133.652000,332.334000,131.222000,332.720000C129.439000,325.872000,121.485000,321.039000,109.833000,325.684000C110.203000,323.889000,110.904000,322.235000,111.854000,320.610000C123.264000,301.098000,117.568000,294.209000,112.461000,288.033000L112.458000,288.029000C112.255000,287.784000,112.054000,287.540000,111.854000,287.297000C106.621000,280.914000,92.833400,282.177000,91.003300,287.297000C89.666100,291.037000,87.867800,293.987000,85.452100,297.948000C84.561800,299.408000,83.587600,301.006000,82.521700,302.832000C76.736600,311.756000,57.575100,337.396000,37.109700,352.968000C19.015600,367.514000,20.264300,390.334000,23.150400,399.926000Z" clip-rule="evenodd" fill="url(#ezrqnfneihh39-fill)" fill-rule="evenodd" stroke="none" stroke-width="1"/><path id="ezrqnfneihh40" d="M58.236000,335.626000C60.282700,331.114000,63.673100,326.204000,68.363100,321.221000L68.631300,321.475000C63.961800,326.435000,60.597600,331.312000,58.571500,335.778000C56.544600,340.246000,55.863100,344.289000,56.536900,347.589000C57.208800,350.879000,59.231600,353.451000,62.662000,354.987000C66.100800,356.527000,70.962600,357.028000,77.301300,356.143000C81.028800,355.623000,84.541700,355.442000,88.230900,355.252000C96.477700,354.827000,105.605000,354.357000,119.981000,349.947000C128.552000,347.317000,132.136000,339.888000,131.092000,333.681000C130.570000,330.578000,128.893000,327.782000,126.103000,326.031000C123.314000,324.281000,119.393000,323.565000,114.362000,324.664000C100.473000,327.698000,88.339600,332.492000,81.950700,335.017000C80.858200,335.448000,79.933700,335.814000,79.197100,336.093000L79.066800,335.747000C79.799900,335.470000,80.721400,335.106000,81.811300,334.675000C88.196700,332.152000,100.362000,327.344000,114.284000,324.304000C119.386000,323.189000,123.411000,323.907000,126.299000,325.719000C129.187000,327.531000,130.918000,330.424000,131.455000,333.620000C132.530000,340.011000,128.836000,347.616000,120.089000,350.299000C105.670000,354.723000,96.466700,355.198000,88.202500,355.625000C84.525300,355.814000,81.034100,355.995000,77.352200,356.509000C70.976300,357.399000,66.037200,356.902000,62.511600,355.324000C58.977700,353.741000,56.872600,351.075000,56.175900,347.663000C55.481100,344.260000,56.190300,340.135000,58.236000,335.626000Z" clip-rule="evenodd" fill="rgb(0,0,0)" fill-rule="evenodd" stroke="none" stroke-width="1"/><path id="ezrqnfneihh41" d="M94.680100,356.748000C85.474200,355.678000,65.302700,354.800000,47.370800,368.794000L47.144300,368.504000C65.192100,354.419000,85.485900,355.307000,94.722600,356.381000C101.673000,357.190000,107.416000,361.992000,109.886000,368.248000C112.359000,374.511000,111.552000,382.228000,105.419000,388.856000L105.148000,388.605000C111.185000,382.082000,111.965000,374.516000,109.544000,368.384000C107.120000,362.244000,101.486000,357.539000,94.680100,356.748000ZM85.122400,382.294000C81.471000,385.498000,71.420500,393.538000,60.403100,400.085000L60.215000,399.767000C71.208700,393.235000,81.240900,385.209000,84.879500,382.016000L85.122400,382.294000Z" clip-rule="evenodd" fill="rgb(0,0,0)" fill-rule="evenodd" stroke="none" stroke-width="1"/><path id="ezrqnfneihh42" d="M106.111000,388.500000C103.904000,389.412000,101.633000,390.350000,99.280700,391.248000L99.149400,390.903000C101.479000,390.014000,103.739000,389.080000,105.942000,388.170000C110.079000,386.461000,114.011000,384.836000,117.814000,383.751000C123.654000,382.085000,129.233000,381.678000,134.863000,384.181000C136.750000,385.019000,138.025000,386.137000,138.863000,387.421000C139.701000,388.703000,140.094000,390.141000,140.236000,391.611000C140.378000,393.080000,140.270000,394.587000,140.098000,396.013000C140.019000,396.663000,139.929000,397.290000,139.842000,397.889000C139.737000,398.616000,139.638000,399.303000,139.573000,399.945000L139.206000,399.908000C139.271000,399.267000,139.373000,398.561000,139.479000,397.821000C139.566000,397.220000,139.656000,396.596000,139.732000,395.968000C139.903000,394.552000,140.008000,393.076000,139.870000,391.647000C139.732000,390.218000,139.351000,388.842000,138.555000,387.622000C137.760000,386.404000,136.543000,385.331000,134.713000,384.518000C129.193000,382.064000,123.710000,382.453000,117.915000,384.106000C114.131000,385.185000,110.233000,386.796000,106.111000,388.500000Z" clip-rule="evenodd" fill="rgb(0,0,0)" fill-rule="evenodd" stroke="none" stroke-width="1"/><path id="ezrqnfneihh43" d="M82.124500,334.509000C83.219500,333.230000,84.869200,330.662000,86.531300,328.073000L86.841300,328.273000L86.831500,328.288000C85.180400,330.859000,83.518000,333.448000,82.404300,334.749000L82.124500,334.509000Z" clip-rule="evenodd" fill="rgb(0,0,0)" fill-rule="evenodd" stroke="none" stroke-width="1"/><path id="ezrqnfneihh44" d="M93.327400,279.061000C94.965100,279.344000,96.515800,280.615000,97.544500,283.284000L97.200700,283.417000C96.202700,280.828000,94.736400,279.679000,93.264900,279.425000C91.783400,279.170000,90.238800,279.811000,89.070400,280.924000C87.902200,282.038000,87.137600,283.598000,87.192800,285.133000C87.247600,286.656000,88.109300,288.191000,90.269400,289.272000L90.104600,289.602000C87.842700,288.470000,86.884900,286.824000,86.824600,285.147000C86.764700,283.483000,87.589300,281.827000,88.816300,280.657000C90.043000,279.488000,91.699700,278.781000,93.327400,279.061000Z" clip-rule="evenodd" fill="rgb(0,0,0)" fill-rule="evenodd" stroke="none" stroke-width="1"/><path id="ezrqnfneihh45" d="M105.331000,280.251000C104.362000,280.779000,103.816000,281.891000,104.006000,283.555000L104.372000,283.514000C104.194000,281.950000,104.708000,281.010000,105.507000,280.575000C106.322000,280.131000,107.495000,280.177000,108.696000,280.728000C111.086000,281.824000,113.487000,284.884000,113.034000,289.604000L113.401000,289.639000C113.869000,284.768000,111.387000,281.556000,108.849000,280.392000C107.586000,279.813000,106.283000,279.732000,105.331000,280.251000Z" clip-rule="evenodd" fill="rgb(0,0,0)" fill-rule="evenodd" stroke="none" stroke-width="1"/><path id="ezrqnfneihh46" d="M113.217000,296.262000L117.639000,294.971000C117.639000,294.971000,116.626000,292.204000,114.876000,289.990000C113.125000,287.777000,109.348000,285.010000,109.348000,285.010000L113.217000,296.262000Z" fill="rgb(198,135,49)" stroke="none" stroke-width="1"/><path id="ezrqnfneihh47" d="M106.216000,289.253000C106.216000,289.864000,105.721000,290.359000,105.110000,290.359000C104.500000,290.359000,104.005000,289.864000,104.005000,289.253000C104.005000,288.641000,104.500000,288.146000,105.110000,288.146000C105.721000,288.146000,106.216000,288.641000,106.216000,289.253000Z" fill="rgb(17,17,17)" stroke="none" stroke-width="1"/><path id="ezrqnfneihh48" d="M77.620700,310.208000C69.330700,321.151000,54.183700,339.676000,42.763400,348.425000C32.191500,356.524000,26.323000,364.749000,23.642500,373.236000C20.961500,381.724000,21.462700,390.495000,23.669100,399.699000L23.310800,399.785000C21.095300,390.543000,20.583000,381.699000,23.291200,373.124000C25.999800,364.549000,31.923100,356.265000,42.539500,348.132000C53.915100,339.417000,69.035000,320.930000,77.327100,309.985000L77.620700,310.208000Z" clip-rule="evenodd" fill="rgb(0,0,0)" fill-rule="evenodd" stroke="none" stroke-width="1"/><path id="ezrqnfneihh49" d="M105.242000,357.601000C104.626000,359.314000,105.003000,361.329000,107.085000,363.459000L106.822000,363.717000C104.667000,361.512000,104.220000,359.354000,104.895000,357.476000C105.563000,355.617000,107.314000,354.083000,109.448000,353.069000C111.585000,352.053000,114.135000,351.544000,116.446000,351.758000C118.757000,351.972000,120.853000,352.912000,122.034000,354.822000C122.673000,355.855000,123.664000,357.267000,124.864000,358.977000C125.268000,359.553000,125.696000,360.163000,126.142000,360.803000C127.910000,363.341000,129.959000,366.353000,131.936000,369.632000C135.885000,376.182000,139.561000,383.818000,140.117000,390.873000L139.750000,390.902000C139.201000,383.938000,135.564000,376.364000,131.620000,369.822000C129.650000,366.554000,127.606000,363.550000,125.840000,361.014000C125.397000,360.379000,124.972000,359.772000,124.569000,359.198000C123.366000,357.484000,122.366000,356.059000,121.721000,355.016000C120.621000,353.236000,118.652000,352.332000,116.412000,352.125000C114.173000,351.918000,111.689000,352.412000,109.606000,353.402000C107.519000,354.394000,105.864000,355.869000,105.242000,357.601000Z" clip-rule="evenodd" fill="rgb(0,0,0)" fill-rule="evenodd" stroke="none" stroke-width="1"/><path id="ezrqnfneihh50" d="M109.362000,384.081000C109.236000,383.802000,109.072000,383.596000,108.885000,383.483000L109.075000,383.167000C109.348000,383.331000,109.553000,383.609000,109.698000,383.929000C109.843000,384.251000,109.934000,384.629000,109.970000,385.014000C110.041000,385.775000,109.903000,386.615000,109.492000,387.129000L109.205000,386.899000C109.531000,386.491000,109.670000,385.764000,109.603000,385.049000C109.570000,384.696000,109.487000,384.359000,109.362000,384.081000Z" clip-rule="evenodd" fill="rgb(0,0,0)" fill-rule="evenodd" stroke="none" stroke-width="1"/><path id="ezrqnfneihh51" d="M117.271000,294.971000L112.849000,296.262000L117.271000,299.582000C118.192000,299.582000,119.187000,299.287000,118.744000,297.369000C118.302000,295.450000,117.578000,294.971000,117.271000,294.971000Z" fill="rgb(0,0,0)" stroke="none" stroke-width="1"/><path id="ezrqnfneihh52" d="M112.078000,304.918000C111.107000,304.567000,109.987000,303.934000,108.692000,303.055000L108.899000,302.750000C110.184000,303.623000,111.275000,304.235000,112.203000,304.571000C113.132000,304.906000,113.879000,304.957000,114.491000,304.735000C115.100000,304.514000,115.611000,304.010000,116.041000,303.156000C116.473000,302.301000,116.814000,301.111000,117.089000,299.550000L117.452000,299.614000C116.916000,302.655000,116.877000,304.607000,117.094000,305.583000C117.148000,305.825000,117.216000,305.995000,117.286000,306.103000C117.356000,306.211000,117.417000,306.241000,117.459000,306.248000C117.503000,306.255000,117.575000,306.243000,117.680000,306.163000C117.785000,306.084000,117.907000,305.950000,118.039000,305.751000L118.345000,305.956000C118.201000,306.173000,118.053000,306.344000,117.902000,306.458000C117.752000,306.571000,117.581000,306.640000,117.403000,306.612000C117.223000,306.584000,117.082000,306.465000,116.978000,306.305000C116.874000,306.145000,116.794000,305.928000,116.735000,305.663000C116.591000,305.020000,116.555000,304.017000,116.671000,302.639000C116.576000,302.885000,116.476000,303.113000,116.370000,303.323000C115.914000,304.227000,115.343000,304.818000,114.616000,305.082000C113.892000,305.344000,113.050000,305.268000,112.078000,304.918000Z" clip-rule="evenodd" fill="rgb(0,0,0)" fill-rule="evenodd" stroke="none" stroke-width="1"/><path id="ezrqnfneihh53" d="M108.400000,334.303000C110.248000,339.244000,115.317000,344.909000,123.641000,348.950000L123.654000,348.956000L123.654000,348.956000C137.556000,355.225000,148.305000,357.532000,156.883000,357.414000C165.471000,357.295000,171.852000,354.745000,177.010000,351.355000C180.486000,349.071000,183.414000,346.397000,186.073000,343.854000C187.502000,344.890000,188.979000,346.119000,190.475000,347.445000C192.122000,348.904000,193.771000,350.462000,195.394000,351.995000C196.314000,352.864000,197.225000,353.724000,198.123000,354.555000C200.587000,356.834000,202.946000,358.883000,205.015000,360.139000C206.050000,360.767000,207.044000,361.217000,207.967000,361.385000C208.902000,361.556000,209.788000,361.442000,210.547000,360.910000C211.267000,360.405000,211.898000,359.549000,212.428000,358.499000C212.963000,357.441000,213.416000,356.144000,213.758000,354.710000C214.442000,351.842000,214.696000,348.374000,214.250000,345.058000C213.805000,341.748000,212.654000,338.540000,210.481000,336.249000C208.289000,333.940000,205.106000,332.615000,200.726000,333.002000C196.295000,333.393000,192.719000,336.198000,189.045000,339.626000C188.249000,340.369000,187.448000,341.141000,186.630000,341.930000C186.413000,342.139000,186.195000,342.349000,185.976000,342.560000C185.144000,341.987000,184.325000,341.480000,183.524000,341.057000L183.059000,341.942000C183.767000,342.316000,184.496000,342.762000,185.239000,343.267000C182.635000,345.754000,179.816000,348.315000,176.462000,350.519000C171.444000,353.817000,165.246000,356.298000,156.869000,356.414000C148.483000,356.530000,137.884000,354.275000,124.071000,348.047000C115.917000,344.087000,111.071000,338.592000,109.335000,333.953000C108.466000,331.630000,108.391000,329.567000,109.003000,328.015000C109.605000,326.489000,110.902000,325.382000,112.964000,324.991000L112.779000,324.008000C110.418000,324.455000,108.816000,325.767000,108.074000,327.648000C107.342000,329.503000,107.476000,331.835000,108.400000,334.303000ZM186.805000,343.150000C186.991000,342.972000,187.175000,342.794000,187.358000,342.617000C188.166000,341.838000,188.953000,341.079000,189.726000,340.358000C193.402000,336.927000,196.755000,334.357000,200.814000,333.998000C204.924000,333.635000,207.797000,334.873000,209.757000,336.938000C211.735000,339.023000,212.831000,342.002000,213.260000,345.192000C213.689000,348.376000,213.444000,351.720000,212.786000,354.478000C212.458000,355.856000,212.028000,357.075000,211.537000,358.048000C211.041000,359.029000,210.502000,359.720000,209.974000,360.090000C209.485000,360.433000,208.888000,360.537000,208.147000,360.402000C207.394000,360.264000,206.519000,359.882000,205.533000,359.283000C203.560000,358.086000,201.268000,356.103000,198.801000,353.820000C197.919000,353.005000,197.016000,352.151000,196.099000,351.286000C194.466000,349.744000,192.794000,348.164000,191.137000,346.696000C189.685000,345.409000,188.231000,344.195000,186.805000,343.150000Z" clip-rule="evenodd" fill="rgb(255,209,45)" fill-rule="evenodd" stroke="none" stroke-width="1"/><g id="ezrqnfneihh54_tr" transform="translate(130.792000,342.672409) rotate(0)"><path id="ezrqnfneihh54" d="M175.458000,274.526000C186.229000,278.120000,191.801000,290.393000,190.278000,301.071000C187.275000,322.115000,165.036000,346.030000,130.792000,341.997000L130.909000,341.003000C164.588000,344.970000,186.359000,321.463000,189.289000,300.929000C190.762000,290.607000,185.347000,278.880000,175.142000,275.474000L175.458000,274.526000Z" transform="translate(-130.792000,-342.672409)" clip-rule="evenodd" fill="rgb(255,209,45)" fill-rule="evenodd" stroke="none" stroke-width="1"/></g><g id="ezrqnfneihh55_tr" transform="translate(183.603043,342.426422) rotate(0.066790)"><path id="ezrqnfneihh55" d="M126.629000,299.054000C126.537000,292.778000,128.379000,286.768000,132.495000,282.646000L133.202000,283.354000C129.327000,287.232000,127.538000,292.951000,127.628000,299.039000C127.717000,305.125000,129.686000,311.528000,133.259000,316.716000C138.153000,323.819000,147.454000,328.152000,157.237000,331.591000C160.375000,332.694000,163.539000,333.697000,166.610000,334.671000C168.320000,335.214000,170.001000,335.747000,171.632000,336.283000C176.175000,337.775000,180.325000,339.287000,183.533000,341.062000L183.050000,341.938000C179.932000,340.213000,175.862000,338.725000,171.321000,337.233000C169.710000,336.704000,168.038000,336.173000,166.332000,335.632000C163.250000,334.655000,160.056000,333.642000,156.906000,332.534000C147.128000,329.098000,137.533000,324.681000,132.437000,317.284000C128.749000,311.930000,126.721000,305.333000,126.629000,299.054000Z" transform="translate(-183.602684,-342.424119)" clip-rule="evenodd" fill="rgb(255,209,45)" fill-rule="evenodd" stroke="none" stroke-width="1"/></g><path id="ezrqnfneihh56" d="M224.744000,400L0,93L0,69L280,343.500000L280,400L224.744000,400Z" fill="rgb(255,239,156)" fill-opacity="0.14" stroke="none" stroke-width="1"/></svg>