<svg id="edgmbk35wazf1" xmlns="http://www.w3.org/2000/svg" xmlns:xlink="http://www.w3.org/1999/xlink" viewBox="0 0 480 600" shape-rendering="geometricPrecision" text-rendering="geometricPrecision"><style><![CDATA[#edgmbk35wazf19_to {animation: edgmbk35wazf19_to__to 3000ms linear infinite normal forwards}@keyframes edgmbk35wazf19_to__to { 0% {transform: translate(269.500000px,378px);animation-timing-function: cubic-bezier(0.420000,0,0.580000,1)} 50% {transform: translate(269.500000px,368px);animation-timing-function: cubic-bezier(0.420000,0,0.580000,1)} 100% {transform: translate(269.500000px,378px)} }#edgmbk35wazf24_to {animation: edgmbk35wazf24_to__to 3000ms linear infinite normal forwards}@keyframes edgmbk35wazf24_to__to { 0% {transform: translate(265.988632px,382.968018px);animation-timing-function: cubic-bezier(0.420000,0,0.580000,1)} 50% {transform: translate(265.988632px,373.248566px);animation-timing-function: cubic-bezier(0.420000,0,0.580000,1)} 100% {transform: translate(265.988632px,382.968018px)} }#edgmbk35wazf55_tr {animation: edgmbk35wazf55_tr__tr 3000ms linear infinite normal forwards}@keyframes edgmbk35wazf55_tr__tr { 0% {transform: translate(235.826000px,513.250595px) rotate(0deg);animation-timing-function: cubic-bezier(0.420000,0,0.580000,1)} 50% {transform: translate(235.826000px,513.250595px) rotate(2.926859deg);animation-timing-function: cubic-bezier(0.420000,0,0.580000,1)} 100% {transform: translate(235.826000px,513.250595px) rotate(0deg)} }#edgmbk35wazf56_tr {animation: edgmbk35wazf56_tr__tr 3000ms linear infinite normal forwards}@keyframes edgmbk35wazf56_tr__tr { 0% {transform: translate(314.826000px,511.437658px) rotate(0deg);animation-timing-function: cubic-bezier(0.420000,0,0.580000,1)} 50% {transform: translate(314.826000px,511.437658px) rotate(-4.441241deg);animation-timing-function: cubic-bezier(0.420000,0,0.580000,1)} 100% {transform: translate(314.826000px,511.437658px) rotate(0deg)} }#edgmbk35wazf57 {animation: edgmbk35wazf57_c_o 3000ms linear infinite normal forwards}@keyframes edgmbk35wazf57_c_o { 0% {opacity: 1;animation-timing-function: cubic-bezier(0.420000,0,0.580000,1)} 50% {opacity: 0.600000;animation-timing-function: cubic-bezier(0.420000,0,0.580000,1)} 100% {opacity: 1} }]]></style><defs><radialGradient id="edgmbk35wazf2-fill" cx="0" cy="0" r="1" spreadMethod="pad" gradientUnits="userSpaceOnUse" gradientTransform="matrix(0.00000000000002 245 -245 0.00000000000002 240 0)"><stop id="edgmbk35wazf2-fill-0" offset="0%" stop-color="rgb(37,108,118)"/><stop id="edgmbk35wazf2-fill-1" offset="100%" stop-color="rgb(31,51,103)"/></radialGradient><linearGradient id="edgmbk35wazf14-fill" x1="258.213000" y1="0.748210" x2="258.213000" y2="598.568000" spreadMethod="pad" gradientUnits="userSpaceOnUse"><stop id="edgmbk35wazf14-fill-0" offset="0%" stop-color="rgb(91,49,87)"/><stop id="edgmbk35wazf14-fill-1" offset="100%" stop-color="rgb(54,48,93)"/></linearGradient><radialGradient id="edgmbk35wazf19-fill" cx="0" cy="0" r="1" spreadMethod="pad" gradientUnits="userSpaceOnUse" gradientTransform="matrix(0 67 -67.50000000000000 0 0 0)"><stop id="edgmbk35wazf19-fill-0" offset="0%" stop-color="rgba(67,96,108,0.65)"/><stop id="edgmbk35wazf19-fill-1" offset="100%" stop-color="rgba(67,96,108,0)"/></radialGradient><linearGradient id="edgmbk35wazf40-fill" x1="169.172000" y1="423.799000" x2="169.172000" y2="599.033000" spreadMethod="pad" gradientUnits="userSpaceOnUse"><stop id="edgmbk35wazf40-fill-0" offset="0%" stop-color="rgb(154,103,33)"/><stop id="edgmbk35wazf40-fill-1" offset="100%" stop-color="rgb(111,19,79)"/></linearGradient></defs><rect id="edgmbk35wazf2" width="480" height="600" rx="0" ry="0" fill="url(#edgmbk35wazf2-fill)" stroke="none" stroke-width="1"/><path id="edgmbk35wazf3" d="M419,0L419,47.917200C416.750000,77.865500,402.461000,105.530000,333.275000,92.839600C276.127000,82.357700,252.809000,20.963800,267.098000,0L419,0Z" fill="rgb(71,85,159)" stroke="none" stroke-width="1"/><path id="edgmbk35wazf4" d="M175,1L175,14.497200C171.234000,54.238900,133.889000,92.801600,71.051900,84.982500C10.792200,77.484000,1,36.992500,1,1L175,1Z" fill="rgb(71,85,159)" stroke="none" stroke-width="1"/><path id="edgmbk35wazf5" d="M411,0L354,0L361.500000,599L411,599L411,0Z" fill="rgb(119,108,242)" stroke="none" stroke-width="1"/><path id="edgmbk35wazf6" d="M478.987000,346.423000L72.943800,1L116.500000,1L478.987000,300L478.987000,346.423000Z" fill="rgb(156,231,255)" fill-opacity="0.14" stroke="none" stroke-width="1"/><path id="edgmbk35wazf7" d="M478.991000,227.423000L229.444000,0.500000L273,0.500000L478.991000,181L478.991000,227.423000Z" fill="rgb(156,231,255)" fill-opacity="0.14" stroke="none" stroke-width="1"/><path id="edgmbk35wazf8" d="M128,0L79,0L57,599L121,599L128,0Z" fill="rgb(119,108,242)" stroke="none" stroke-width="1"/><path id="edgmbk35wazf9" d="M480,450.750000L0,35.500000L0,4L480,383L480,450.750000Z" fill="rgb(156,231,255)" fill-opacity="0.14" stroke="none" stroke-width="1"/><path id="edgmbk35wazf10" d="M165.394000,599L0,279.282000L0,232L232,599L165.394000,599Z" fill="rgb(156,231,255)" fill-opacity="0.14" stroke="none" stroke-width="1"/><path id="edgmbk35wazf11" d="M180.096000,599L131,599L146.862000,0L202,0L180.096000,599Z" fill="rgb(59,64,176)" stroke="none" stroke-width="1"/><path id="edgmbk35wazf12" d="M43,599L0,599L0,0L66,0L43,599Z" fill="rgb(93,65,138)" stroke="none" stroke-width="1"/><path id="edgmbk35wazf13" d="M480,599L420,599L431.400000,0L480,0L480,599Z" fill="rgb(59,64,176)" stroke="none" stroke-width="1"/><path id="edgmbk35wazf14" d="M394.343000,598.568000L152.369000,598.568000C166.103000,532.393000,189.826000,385.086000,189.826000,319.136000C189.826000,273.544000,181.573000,218.048000,171.146000,162.176000L0.500000,50.974400L0.500000,28.500000L105.921000,98.887300L161.564000,113.155000C159.156000,101.249000,156.731000,89.456200,154.347000,77.870600C148.679000,50.312700,143.252000,23.928700,138.884000,0L196.381000,0L253.878000,0L311.375000,0L341.153000,0L341.052000,1.022120C337.875000,33.058900,334.706000,65.010600,332.339000,97.671000L356.885000,80.907800L401.085000,0.749146L422.061000,0.749146L377.112000,101.884000L328.830000,167.207000C327.861000,205.399000,328.598000,245.180000,332.164000,287.672000C337.482000,351.048000,373.616000,523.404000,394.343000,598.568000Z" clip-rule="evenodd" fill="url(#edgmbk35wazf14-fill)" fill-rule="evenodd" stroke="none" stroke-width="1"/><path id="edgmbk35wazf15" d="M419,67L419,260" fill="none" stroke="rgb(77,81,62)" stroke-width="2"/><path id="edgmbk35wazf16" d="M203,40C203,130.877000,171.532000,171.912000,106.348000,169.932000C32.173000,167.679000,12.692500,79.805700,16.437700,40" fill="none" stroke="rgb(77,86,59)" stroke-width="2"/><path id="edgmbk35wazf17" d="M255.456000,36C250.227000,84.146800,290.566000,118,343.604000,118C396.642000,118,416.097000,72.453800,413.823000,48.036700" fill="none" stroke="rgb(77,86,59)" stroke-width="2"/><path id="edgmbk35wazf18" d="M177,26.500000C177,51.347100,145,100,109,100C66.250000,100,37.000300,68.376500,37,36" fill="none" stroke="rgb(77,86,59)" stroke-width="2"/><g id="edgmbk35wazf19_to" transform="translate(269.500000,378)"><ellipse id="edgmbk35wazf19" rx="67.500000" ry="67" transform="translate(0,0)" fill="url(#edgmbk35wazf19-fill)" stroke="none" stroke-width="1"/></g><path id="edgmbk35wazf20" d="M304.356000,227.303000L256.675000,201.970000C255.936000,201.577000,255.029000,201.688000,254.404000,202.248000L212.232000,239.971000C211.806000,240.352000,211.562000,240.896000,211.562000,241.467000L211.562000,289.241000C211.562000,289.984000,211.974000,290.665000,212.632000,291.009000L266.215000,319.043000C266.955000,319.430000,267.859000,319.315000,268.480000,318.754000L310.534000,280.823000C311.015000,280.389000,311.257000,279.748000,311.183000,279.105000L305.401000,228.838000C305.326000,228.185000,304.936000,227.611000,304.356000,227.303000Z" fill="rgb(47,30,58)" stroke="none" stroke-width="1"/><path id="edgmbk35wazf21" d="M480,73.906200L480,0L322,0C322,61.861100,413.790000,96.890900,480,73.906200Z" fill="rgb(67,96,108)" stroke="none" stroke-width="1"/><path id="edgmbk35wazf22" d="M0,37.317100L0,0L196,0C196,46.646400,53.687000,82.267300,0,37.317100Z" fill="rgb(67,96,108)" stroke="none" stroke-width="1"/><path id="edgmbk35wazf23" d="M159,0L346,0C346,18.753800,314.966000,53,252.898000,53C190.830000,53,159,20.384600,159,0Z" fill="rgb(67,96,108)" stroke="none" stroke-width="1"/><g id="edgmbk35wazf24_to" transform="translate(265.988632,382.968018)"><path id="edgmbk35wazf24" d="M239.382000,386.686000L254.459000,342.080000C254.936000,340.668000,256.735000,340.255000,257.780000,341.318000L292.126000,376.242000C292.661000,376.786000,292.840000,377.586000,292.588000,378.306000L276.609000,423.878000C276.111000,425.297000,274.284000,425.680000,273.259000,424.579000L239.814000,388.690000C239.312000,388.152000,239.147000,387.383000,239.382000,386.686000Z" transform="translate(-265.988632,-382.968018)" fill="rgb(217,230,232)" stroke="none" stroke-width="1"/></g><path id="edgmbk35wazf25" d="M343.860000,417.564000L342.013000,423.318000L335.710000,423.318000L335.092000,415.560000L337.647000,412.454000L343.236000,413.509000L343.860000,417.564000Z" fill="rgb(28,14,76)" stroke="none" stroke-width="1"/><path id="edgmbk35wazf26" d="M363.446000,416.948000L364.266000,423.104000L370.280000,424.216000L372.437000,416.739000L370.555000,413.184000L364.868000,413.101000L363.446000,416.948000Z" fill="rgb(28,14,76)" stroke="none" stroke-width="1"/><path id="edgmbk35wazf27" d="M335.537000,422.764000L302.440000,599.040000L442.022000,599.040000L369.353000,422.764000L335.537000,422.764000Z" fill="rgb(28,14,76)" stroke="none" stroke-width="1"/><path id="edgmbk35wazf28" d="M304.598000,493.994000L329.781000,458.379000L329.781000,509.463000L322.945000,528.890000L295.964000,532.847000L275.818000,509.463000L304.598000,493.994000Z" fill="rgb(28,14,76)" stroke="none" stroke-width="1"/><path id="edgmbk35wazf29" d="M365.036000,492.555000L365.036000,463.775000L374.389000,497.591000L337.695000,506.225000L348.487000,527.091000L337.695000,527.091000L329.061000,502.628000L365.036000,492.555000Z" fill="rgb(26,46,117)" stroke="none" stroke-width="1"/><circle id="edgmbk35wazf30" r="1.079250" transform="matrix(1 0 0 1 351.72500000000002 431.03800000000001)" fill="rgb(0,243,243)" stroke="none" stroke-width="1"/><path id="edgmbk35wazf31" d="M346.689000,432.117000L343.451000,432.117000L339.134000,441.111000L346.689000,441.111000L346.689000,432.117000Z" fill="rgb(26,46,117)" stroke="none" stroke-width="1"/><circle id="edgmbk35wazf32" r="1.079250" transform="matrix(1 0 0 1 340.21400000000000 431.03800000000001)" fill="rgb(0,243,243)" stroke="none" stroke-width="1"/><path id="edgmbk35wazf33" d="M249.197000,558.029000L315.031000,537.523000L325.824000,599.040000L269.343000,599.040000L249.197000,558.029000Z" fill="rgb(28,14,76)" stroke="none" stroke-width="1"/><path id="edgmbk35wazf34" d="M353.165000,599.040000L342.732000,599.040000L332.299000,562.346000L363.597000,544.359000L339.135000,564.145000L353.165000,599.040000Z" fill="rgb(26,46,117)" stroke="none" stroke-width="1"/><path id="edgmbk35wazf35" d="M265.075000,507.271000C262.597000,500.479000,255.607000,495.072000,246.641000,496.838000C236.369000,498.862000,221.539000,501.253000,204.709000,501.265000C200.744000,506.010000,196.068000,512.239000,194.467000,517.532000C193.662000,520.194000,193.652000,522.561000,194.831000,524.381000C196.010000,526.202000,198.431000,527.558000,202.679000,528.075000C212.899000,529.318000,222.972000,530.145000,232.177000,529.973000C241.385000,529.801000,249.706000,528.628000,256.433000,525.883000C260.991000,524.022000,263.761000,521.058000,265.090000,517.727000C266.420000,514.392000,266.314000,510.665000,265.075000,507.271000ZM265.603000,517.932000C264.214000,521.415000,261.326000,524.482000,256.641000,526.394000C249.826000,529.176000,241.427000,530.353000,232.187000,530.526000C222.945000,530.699000,212.843000,529.868000,202.612000,528.623000C198.292000,528.098000,195.676000,526.701000,194.367000,524.682000C193.060000,522.663000,193.112000,520.102000,193.938000,517.372000C195.587000,511.920000,200.391000,505.561000,204.368000,500.811000L204.451000,500.712000L204.580000,500.712000C221.413000,500.712000,236.253000,498.321000,246.534000,496.296000C255.809000,494.469000,263.037000,500.075000,265.595000,507.081000C266.874000,510.586000,266.991000,514.454000,265.603000,517.932000Z" clip-rule="evenodd" fill="rgb(17,17,17)" fill-rule="evenodd" stroke="none" stroke-width="1"/><path id="edgmbk35wazf36" d="M196.110000,424.092000C194.728000,415.524000,211.034000,419.394000,209.652000,433.765000C208.547000,439.292000,196.110000,430.172000,196.110000,424.092000Z" fill="rgb(154,103,33)" stroke="none" stroke-width="1"/><path id="edgmbk35wazf37" d="M198.101000,425.137000C197.154000,419.475000,208.331000,422.032000,207.384000,431.529000C206.626000,435.182000,198.101000,429.155000,198.101000,425.137000Z" fill="rgb(251,171,126)" stroke="none" stroke-width="1"/><path id="edgmbk35wazf38" d="M185.885000,424.369000C179.805000,408.616000,161.841000,426.856000,175.107000,433.489000C180.081000,435.423000,187.544000,429.620000,185.885000,424.369000Z" fill="rgb(154,103,33)" stroke="none" stroke-width="1"/><path id="edgmbk35wazf39" d="M182.972000,424.997000C179.140000,415.041000,167.818000,426.569000,176.179000,430.761000C179.314000,431.983000,184.017000,428.315000,182.972000,424.997000Z" fill="rgb(251,171,126)" stroke="none" stroke-width="1"/><path id="edgmbk35wazf40" d="M74.551800,599.033000L248.896000,599.033000C254.424000,575.265000,238.714000,553.635000,224.852000,534.639000C223.703000,533.064000,222.608000,531.537000,221.567000,530.056000C234.966000,530.731000,247.247000,529.931000,256.537000,526.139000C275.024000,518.593000,264.828000,492.975000,246.588000,496.567000C243.635000,497.149000,240.305000,497.761000,236.659000,498.338000C233.984000,488.079000,222.053000,480.838000,204.576000,487.797000C205.130000,485.107000,206.182000,482.629000,207.607000,480.195000C224.723000,450.960000,216.178000,440.638000,208.517000,431.384000L208.517000,431.383000C208.211000,431.015000,207.908000,430.648000,207.607000,430.281000C199.758000,420.718000,179.076000,422.611000,176.331000,430.281000C174.325000,435.886000,171.628000,440.305000,168.004000,446.241000C166.669000,448.428000,165.208000,450.822000,163.609000,453.557000C154.931000,466.929000,126.189000,505.344000,95.490800,528.676000C68.349600,550.471000,70.222700,584.662000,74.551800,599.033000Z" clip-rule="evenodd" fill="url(#edgmbk35wazf40-fill)" fill-rule="evenodd" stroke="none" stroke-width="1"/><path id="edgmbk35wazf41" d="M127.181000,502.693000C130.251000,495.933000,135.336000,488.576000,142.371000,481.111000L142.774000,481.490000C135.769000,488.922000,130.723000,496.230000,127.684000,502.921000C124.644000,509.616000,123.621000,515.673000,124.632000,520.617000C125.640000,525.547000,128.674000,529.400000,133.820000,531.701000C138.978000,534.008000,146.271000,534.760000,155.779000,533.434000C161.370000,532.654000,166.639000,532.383000,172.173000,532.098000C184.543000,531.462000,198.235000,530.757000,219.797000,524.150000C232.655000,520.209000,238.030000,509.079000,236.464000,499.779000C235.682000,495.130000,233.165000,490.940000,228.981000,488.317000C224.798000,485.695000,218.916000,484.622000,211.370000,486.269000C190.537000,490.814000,172.336000,497.998000,162.753000,501.780000C161.114000,502.427000,159.727000,502.974000,158.622000,503.392000L158.427000,502.875000C159.527000,502.459000,160.909000,501.914000,162.544000,501.268000C172.122000,497.488000,190.370000,490.285000,211.252000,485.729000C218.906000,484.059000,224.943000,485.134000,229.275000,487.849000C233.606000,490.564000,236.203000,494.899000,237.009000,499.688000C238.622000,509.263000,233.080000,520.657000,219.959000,524.678000C198.332000,531.306000,184.527000,532.017000,172.130000,532.657000C166.615000,532.941000,161.378000,533.211000,155.855000,533.981000C146.291000,535.315000,138.882000,534.571000,133.594000,532.206000C128.293000,529.835000,125.136000,525.840000,124.091000,520.728000C123.048000,515.629000,124.112000,509.449000,127.181000,502.693000Z" clip-rule="evenodd" fill="rgb(0,0,0)" fill-rule="evenodd" stroke="none" stroke-width="1"/><path id="edgmbk35wazf42" d="M181.847000,534.340000C168.038000,532.736000,137.781000,531.422000,110.883000,552.389000L110.543000,551.953000C137.615000,530.850000,168.055000,532.182000,181.910000,533.791000C192.337000,535.001000,200.951000,542.197000,204.656000,551.570000C208.366000,560.955000,207.155000,572.516000,197.955000,582.446000L197.549000,582.071000C206.604000,572.297000,207.774000,560.961000,204.142000,551.773000C200.506000,542.575000,192.056000,535.525000,181.847000,534.340000ZM167.510000,572.615000C162.033000,577.416000,146.957000,589.462000,130.431000,599.271000L130.149000,598.796000C146.640000,589.008000,161.688000,576.983000,167.146000,572.199000L167.510000,572.615000Z" clip-rule="evenodd" fill="rgb(0,0,0)" fill-rule="evenodd" stroke="none" stroke-width="1"/><path id="edgmbk35wazf43" d="M198.994000,581.913000C195.683000,583.279000,192.276000,584.686000,188.748000,586.031000L188.551000,585.514000C192.045000,584.182000,195.436000,582.783000,198.740000,581.419000C204.945000,578.858000,210.844000,576.424000,216.547000,574.799000C225.308000,572.303000,233.677000,571.693000,242.121000,575.442000C244.951000,576.699000,246.864000,578.373000,248.122000,580.296000C249.377000,582.218000,249.968000,584.372000,250.181000,586.575000C250.394000,588.776000,250.231000,591.034000,249.973000,593.170000C249.855000,594.145000,249.719000,595.084000,249.590000,595.981000C249.432000,597.071000,249.283000,598.100000,249.186000,599.061000L248.636000,599.005000C248.733000,598.046000,248.886000,596.988000,249.046000,595.879000C249.176000,594.978000,249.311000,594.044000,249.424000,593.103000C249.681000,590.982000,249.838000,588.770000,249.631000,586.628000C249.424000,584.488000,248.853000,582.426000,247.659000,580.599000C246.466000,578.774000,244.641000,577.166000,241.896000,575.947000C233.616000,572.270000,225.392000,572.854000,216.699000,575.330000C211.023000,576.947000,205.177000,579.361000,198.994000,581.913000Z" clip-rule="evenodd" fill="rgb(0,0,0)" fill-rule="evenodd" stroke="none" stroke-width="1"/><path id="edgmbk35wazf44" d="M163.013000,501.019000C164.655000,499.103000,167.130000,495.255000,169.623000,491.376000L170.088000,491.675000L170.073000,491.698000C167.596000,495.551000,165.103000,499.430000,163.432000,501.379000L163.013000,501.019000Z" clip-rule="evenodd" fill="rgb(0,0,0)" fill-rule="evenodd" stroke="none" stroke-width="1"/><path id="edgmbk35wazf45" d="M179.817000,417.943000C182.274000,418.366000,184.600000,420.271000,186.143000,424.269000L185.627000,424.468000C184.130000,420.589000,181.931000,418.867000,179.724000,418.487000C177.501000,418.105000,175.185000,419.066000,173.432000,420.734000C171.680000,422.402000,170.533000,424.739000,170.616000,427.040000C170.698000,429.321000,171.990000,431.621000,175.230000,433.241000L174.983000,433.736000C171.590000,432.039000,170.154000,429.573000,170.063000,427.060000C169.973000,424.568000,171.210000,422.086000,173.051000,420.334000C174.891000,418.582000,177.376000,417.522000,179.817000,417.943000Z" clip-rule="evenodd" fill="rgb(0,0,0)" fill-rule="evenodd" stroke="none" stroke-width="1"/><path id="edgmbk35wazf46" d="M197.822000,419.725000C196.369000,420.516000,195.551000,422.182000,195.836000,424.676000L196.385000,424.613000C196.117000,422.270000,196.888000,420.862000,198.086000,420.211000C199.309000,419.546000,201.068000,419.614000,202.870000,420.439000C206.456000,422.081000,210.057000,426.666000,209.377000,433.738000L209.927000,433.791000C210.629000,426.492000,206.907000,421.680000,203.100000,419.937000C201.205000,419.069000,199.251000,418.948000,197.822000,419.725000Z" clip-rule="evenodd" fill="rgb(0,0,0)" fill-rule="evenodd" stroke="none" stroke-width="1"/><path id="edgmbk35wazf47" d="M209.652000,443.714000L216.285000,441.780000C216.285000,441.780000,214.765000,437.634000,212.139000,434.318000C209.514000,431.001000,203.848000,426.856000,203.848000,426.856000L209.652000,443.714000Z" fill="rgb(198,135,49)" stroke="none" stroke-width="1"/><path id="edgmbk35wazf48" d="M199.150000,433.212000C199.150000,434.128000,198.408000,434.870000,197.492000,434.870000C196.576000,434.870000,195.833000,434.128000,195.833000,433.212000C195.833000,432.296000,196.576000,431.554000,197.492000,431.554000C198.408000,431.554000,199.150000,432.296000,199.150000,433.212000Z" fill="rgb(17,17,17)" stroke="none" stroke-width="1"/><path id="edgmbk35wazf49" d="M156.257000,464.609000C143.822000,481.004000,121.102000,508.761000,103.971000,521.869000C88.113400,534.004000,79.310700,546.328000,75.289900,559.043000C71.268500,571.761000,72.020200,584.902000,75.329800,598.692000L74.792300,598.821000C71.469100,584.974000,70.700600,571.723000,74.762900,558.876000C78.825900,546.028000,87.710800,533.616000,103.635000,521.430000C120.699000,508.373000,143.379000,480.675000,155.817000,464.275000L156.257000,464.609000Z" clip-rule="evenodd" fill="rgb(0,0,0)" fill-rule="evenodd" stroke="none" stroke-width="1"/><path id="edgmbk35wazf50" d="M197.688000,535.618000C196.765000,538.185000,197.330000,541.204000,200.454000,544.395000L200.059000,544.782000C196.826000,541.478000,196.156000,538.244000,197.168000,535.431000C198.171000,532.645000,200.797000,530.347000,203.997000,528.828000C207.203000,527.306000,211.028000,526.543000,214.495000,526.863000C217.961000,527.183000,221.106000,528.592000,222.877000,531.453000C223.836000,533.002000,225.322000,535.117000,227.122000,537.679000C227.728000,538.542000,228.370000,539.456000,229.039000,540.415000C231.691000,544.218000,234.764000,548.732000,237.729000,553.643000C243.654000,563.458000,249.167000,574.899000,250.002000,585.469000L249.451000,585.512000C248.627000,575.078000,243.172000,563.730000,237.256000,553.929000C234.301000,549.033000,231.235000,544.531000,228.586000,540.732000C227.922000,539.780000,227.283000,538.871000,226.679000,538.011000C224.875000,535.443000,223.375000,533.308000,222.407000,531.744000C220.757000,529.079000,217.803000,527.724000,214.444000,527.414000C211.086000,527.103000,207.359000,527.843000,204.234000,529.327000C201.104000,530.813000,198.622000,533.023000,197.688000,535.618000Z" clip-rule="evenodd" fill="rgb(0,0,0)" fill-rule="evenodd" stroke="none" stroke-width="1"/><path id="edgmbk35wazf51" d="M203.869000,575.293000C203.680000,574.874000,203.435000,574.566000,203.154000,574.397000L203.438000,573.923000C203.848000,574.169000,204.156000,574.586000,204.373000,575.065000C204.591000,575.547000,204.726000,576.114000,204.780000,576.691000C204.887000,577.830000,204.681000,579.090000,204.065000,579.860000L203.633000,579.515000C204.122000,578.903000,204.330000,577.814000,204.230000,576.742000C204.180000,576.214000,204.057000,575.709000,203.869000,575.293000Z" clip-rule="evenodd" fill="rgb(0,0,0)" fill-rule="evenodd" stroke="none" stroke-width="1"/><path id="edgmbk35wazf52" d="M215.731000,441.780000L209.099000,443.714000L215.731000,448.689000C217.113000,448.689000,218.606000,448.247000,217.942000,445.372000C217.279000,442.498000,216.192000,441.780000,215.731000,441.780000Z" fill="rgb(0,0,0)" stroke="none" stroke-width="1"/><path id="edgmbk35wazf53" d="M207.944000,456.683000C206.486000,456.157000,204.806000,455.210000,202.864000,453.892000L203.175000,453.435000C205.102000,454.742000,206.738000,455.660000,208.131000,456.163000C209.524000,456.665000,210.644000,456.741000,211.562000,456.409000C212.475000,456.078000,213.242000,455.323000,213.888000,454.044000C214.535000,452.762000,215.048000,450.979000,215.460000,448.641000L216.005000,448.737000C215.201000,453.293000,215.141000,456.217000,215.468000,457.680000C215.549000,458.043000,215.650000,458.297000,215.756000,458.459000C215.860000,458.620000,215.952000,458.666000,216.015000,458.676000C216.081000,458.686000,216.188000,458.668000,216.346000,458.549000C216.504000,458.430000,216.686000,458.229000,216.884000,457.932000L217.344000,458.238000C217.128000,458.563000,216.905000,458.820000,216.679000,458.990000C216.453000,459.160000,216.197000,459.264000,215.930000,459.222000C215.660000,459.180000,215.449000,459.001000,215.292000,458.761000C215.137000,458.521000,215.017000,458.197000,214.928000,457.800000C214.713000,456.836000,214.659000,455.333000,214.833000,453.268000C214.691000,453.637000,214.540000,453.978000,214.381000,454.293000C213.697000,455.648000,212.840000,456.534000,211.750000,456.929000C210.664000,457.322000,209.400000,457.208000,207.944000,456.683000Z" clip-rule="evenodd" fill="rgb(0,0,0)" fill-rule="evenodd" stroke="none" stroke-width="1"/><path id="edgmbk35wazf54" d="M314.746000,511.645000C328.997000,519.188000,347.750000,545.587000,355.250000,540.307000C362.749000,535.028000,366.498000,497.314000,340.997000,499.577000C315.496000,501.840000,308.746000,559.918000,225.489000,522.205000C200.736000,510.136000,195.701000,488.528000,208.987000,486" fill="none" stroke="rgb(255,209,45)" stroke-width="1"/><g id="edgmbk35wazf55_tr" transform="translate(235.826000,513.250595) rotate(0)"><path id="edgmbk35wazf55" d="M235.826000,511.335000C286.903000,517.310000,319.999000,481.891000,324.460000,450.838000C326.714000,435.153000,318.451000,417.228000,302.677000,412" transform="translate(-235.826000,-513.250595)" fill="none" stroke="rgb(255,209,45)" stroke-width="1"/></g><g id="edgmbk35wazf56_tr" transform="translate(314.826000,511.437658) rotate(0)"><path id="edgmbk35wazf56" d="M239.386000,424C227.435000,436.034000,228.524000,459.287000,239.386000,475.145000C254.325000,496.957000,295.904000,501.470000,314.826000,512" transform="translate(-314.826000,-511.437658)" fill="none" stroke="rgb(255,209,45)" stroke-width="1"/></g><path id="edgmbk35wazf57" d="M391.500000,599L0,138.964000L0,103L480,514.335000L480,599L391.500000,599Z" fill="rgb(156,231,255)" fill-opacity="0.14" stroke="none" stroke-width="1"/></svg>