<svg id="e25ks7x1me951" xmlns="http://www.w3.org/2000/svg" xmlns:xlink="http://www.w3.org/1999/xlink" viewBox="0 0 280 401" shape-rendering="geometricPrecision" text-rendering="geometricPrecision"><style><![CDATA[#e25ks7x1me9518_to {animation: e25ks7x1me9518_to__to 3000ms linear infinite normal forwards}@keyframes e25ks7x1me9518_to__to { 0% {transform: translate(153px,257px);animation-timing-function: cubic-bezier(0.420000,0,0.580000,1)} 50% {transform: translate(153px,250px);animation-timing-function: cubic-bezier(0.420000,0,0.580000,1)} 100% {transform: translate(153px,257px)} }#e25ks7x1me9523_to {animation: e25ks7x1me9523_to__to 3000ms linear infinite normal forwards}@keyframes e25ks7x1me9523_to__to { 0% {transform: translate(151.988625px,255.468025px);animation-timing-function: cubic-bezier(0.420000,0,0.580000,1)} 50% {transform: translate(151.988625px,249.734108px);animation-timing-function: cubic-bezier(0.420000,0,0.580000,1)} 100% {transform: translate(151.988625px,255.468025px)} }#e25ks7x1me9554_tr {animation: e25ks7x1me9554_tr__tr 3000ms linear infinite normal forwards}@keyframes e25ks7x1me9554_tr__tr { 0% {transform: translate(130.941000px,342.672409px) rotate(0deg);animation-timing-function: cubic-bezier(0.420000,0,0.580000,1)} 50% {transform: translate(130.941000px,342.672409px) rotate(4.557010deg);animation-timing-function: cubic-bezier(0.420000,0,0.580000,1)} 100% {transform: translate(130.941000px,342.672409px) rotate(0deg)} }#e25ks7x1me9555_tr {animation: e25ks7x1me9555_tr__tr 3000ms linear infinite normal forwards}@keyframes e25ks7x1me9555_tr__tr { 0% {transform: translate(183.742000px,342.733279px) rotate(0deg);animation-timing-function: cubic-bezier(0.420000,0,0.580000,1)} 50% {transform: translate(183.742000px,342.733279px) rotate(-3.387052deg);animation-timing-function: cubic-bezier(0.420000,0,0.580000,1)} 100% {transform: translate(183.742000px,342.733279px) rotate(0deg)} }#e25ks7x1me9556 {animation: e25ks7x1me9556_c_o 3000ms linear infinite normal forwards}@keyframes e25ks7x1me9556_c_o { 0% {opacity: 1;animation-timing-function: cubic-bezier(0.420000,0,1,1)} 50% {opacity: 0.500000;animation-timing-function: cubic-bezier(0,0,0.580000,1)} 100% {opacity: 1} }]]></style><defs><radialGradient id="e25ks7x1me952-fill" cx="0" cy="0" r="1" spreadMethod="pad" gradientUnits="userSpaceOnUse" gradientTransform="matrix(0.00000000000001 200 -140 0.00000000000001 140 0)"><stop id="e25ks7x1me952-fill-0" offset="0%" stop-color="rgb(37,108,118)"/><stop id="e25ks7x1me952-fill-1" offset="100%" stop-color="rgb(31,51,103)"/></radialGradient><linearGradient id="e25ks7x1me9513-fill" x1="157.112000" y1="0.499375" x2="157.112000" y2="399.500000" spreadMethod="pad" gradientUnits="userSpaceOnUse"><stop id="e25ks7x1me9513-fill-0" offset="0%" stop-color="rgb(91,49,87)"/><stop id="e25ks7x1me9513-fill-1" offset="100%" stop-color="rgb(54,48,93)"/></linearGradient><radialGradient id="e25ks7x1me9518-fill" cx="0" cy="0" r="1" spreadMethod="pad" gradientUnits="userSpaceOnUse" gradientTransform="matrix(0 45 -45 0 153 257)"><stop id="e25ks7x1me9518-fill-0" offset="0%" stop-color="rgba(67,96,108,0.65)"/><stop id="e25ks7x1me9518-fill-1" offset="100%" stop-color="rgba(67,96,108,0)"/></radialGradient><linearGradient id="e25ks7x1me9539-fill" x1="86.328700" y1="282.970000" x2="86.328700" y2="399.926000" spreadMethod="pad" gradientUnits="userSpaceOnUse"><stop id="e25ks7x1me9539-fill-0" offset="0%" stop-color="rgb(154,103,33)"/><stop id="e25ks7x1me9539-fill-1" offset="100%" stop-color="rgb(111,19,79)"/></linearGradient></defs><rect id="e25ks7x1me952" width="280" height="400" rx="0" ry="0" fill="url(#e25ks7x1me952-fill)" stroke="none" stroke-width="1"/><path id="e25ks7x1me953" d="M279.495000,0L279.495000,32C277.999000,52,268.499000,70.474700,222.499000,62C184.503000,55,169,14,178.500000,0L279.495000,0Z" fill="rgb(71,85,159)" stroke="none" stroke-width="1"/><path id="e25ks7x1me954" d="M116.500000,1L116.500000,10C114,36.500000,89.210900,62.213900,47.500000,57C7.500000,52,1,25,1,1L116.500000,1Z" fill="rgb(71,85,159)" stroke="none" stroke-width="1"/><path id="e25ks7x1me955" d="M249,0L211,0L216,400L249,400L249,0Z" fill="rgb(119,108,242)" stroke="none" stroke-width="1"/><path id="e25ks7x1me956" d="M280,201L21,0L50,0L280,170L280,201Z" fill="rgb(156,231,255)" fill-opacity="0.14" stroke="none" stroke-width="1"/><path id="e25ks7x1me957" d="M62.500000,0L40.500000,0L32,400L65,400L62.500000,0Z" fill="rgb(119,108,242)" stroke="none" stroke-width="1"/><path id="e25ks7x1me958" d="M110.500000,399.500000L0,186.500000L0,155L155,399.500000L110.500000,399.500000Z" fill="rgb(156,231,255)" fill-opacity="0.14" stroke="none" stroke-width="1"/><path id="e25ks7x1me959" d="M103.500000,400L71,400L81.500000,0L118,0L103.500000,400Z" fill="rgb(59,64,176)" stroke="none" stroke-width="1"/><path id="e25ks7x1me9510" d="M15.500000,400L0,400L0,0L36.500000,0L15.500000,400Z" fill="rgb(93,65,138)" stroke="none" stroke-width="1"/><path id="e25ks7x1me9511" d="M280,297L0,34L0,13L280,271.500000L280,297Z" fill="rgb(156,231,255)" fill-opacity="0.14" stroke="none" stroke-width="1"/><path id="e25ks7x1me9512" d="M280,400L255,400L262.500000,0L280,0L280,400Z" fill="rgb(59,64,176)" stroke="none" stroke-width="1"/><path id="e25ks7x1me9513" d="M238.500000,399.500000L77,399.500000C86.166700,355.333000,102,257.016000,102,213C102,182.595000,96.500400,145.590000,89.549400,108.329000L0,52L0,37L46,66L83.137400,75.522400C81.530800,67.578300,79.912100,59.709100,78.321900,51.978200L78.320800,51.972900C74.537500,33.580100,70.915300,15.970700,68,0L106.375000,0L144.750000,0L183.125000,0L203,0L202.932000,0.682331L202.932000,0.682409L202.932000,0.682487C200.812000,22.064600,198.697000,43.389900,197.117000,65.188200L213.500000,54L243,0.500000L257,0.500000L227,68L194.775000,111.598000C194.128000,137.089000,194.620000,163.640000,197,192C200.550000,234.298000,224.667000,349.333000,238.500000,399.500000Z" clip-rule="evenodd" fill="url(#e25ks7x1me9513-fill)" fill-rule="evenodd" stroke="none" stroke-width="1"/><path id="e25ks7x1me9514" d="M254,173.500000L254,45L256,45L256,173.500000L254,173.500000Z" clip-rule="evenodd" fill="rgb(77,81,62)" fill-rule="evenodd" stroke="none" stroke-width="1"/><path id="e25ks7x1me9515" d="M22.392400,79.175500C31.409400,97.085400,46.757400,111.765000,71.030000,112.501000C92.547700,113.153000,108.320000,106.732000,118.763000,92.831400C129.256000,78.862100,134.500000,57.171300,134.500000,27.000100L136.500000,27.000100C136.500000,57.329000,131.243000,79.547300,120.362000,94.032600C109.429000,108.586000,92.952000,115.166000,70.969500,114.500000C45.741700,113.735000,29.839500,98.414800,20.606100,80.074800C11.390000,61.769300,8.737000,40.328900,10.002900,26.906200L11.994100,27.094000C10.760700,40.171400,13.358200,61.231000,22.392400,79.175500Z" clip-rule="evenodd" fill="rgb(77,86,59)" fill-rule="evenodd" stroke="none" stroke-width="1"/><path id="e25ks7x1me9516" d="M186.042000,62.504800C175.523000,53.086800,169.781000,39.775800,171.494000,24.108600L169.506000,23.891100C167.720000,40.223800,173.727000,54.162900,184.708000,63.994900C195.671000,73.810600,211.547000,79.499800,229.500000,79.499800C247.572000,79.499800,259.988000,71.778900,267.671000,61.951400C275.321000,52.166400,278.282000,40.290500,277.495000,31.906500L275.504000,32.093200C276.240000,39.937700,273.451000,51.311800,266.096000,60.719600C258.773000,70.085000,246.928000,77.499800,229.500000,77.499800C211.953000,77.499800,196.579000,71.939100,186.042000,62.504800Z" clip-rule="evenodd" fill="rgb(77,86,59)" fill-rule="evenodd" stroke="none" stroke-width="1"/><path id="e25ks7x1me9517" d="M25.500000,24C25.500200,44.891100,44.493900,65.500000,72.500000,65.500000C84.136100,65.500000,94.889500,59.188600,102.769000,50.754800C110.666000,42.302700,115.500000,31.909900,115.500000,24L117.500000,24C117.500000,32.590100,112.334000,43.447400,104.231000,52.120200C96.110500,60.811400,84.863900,67.500000,72.500000,67.500000C43.506100,67.500000,23.500200,46.109000,23.500000,24L25.500000,24Z" clip-rule="evenodd" fill="rgb(77,86,59)" fill-rule="evenodd" stroke="none" stroke-width="1"/><g id="e25ks7x1me9518_to" transform="translate(153,257)"><path id="e25ks7x1me9518" d="M198,257C198,281.853000,177.853000,302,153,302C128.147000,302,108,281.853000,108,257C108,232.147000,128.147000,212,153,212C177.853000,212,198,232.147000,198,257Z" transform="translate(-153,-257)" fill="url(#e25ks7x1me9518-fill)" stroke="none" stroke-width="1"/></g><path id="e25ks7x1me9519" d="M178.133000,151.545000L147.026000,135.018000C146.287000,134.625000,145.381000,134.736000,144.755000,135.295000L117.177000,159.964000C116.751000,160.345000,116.508000,160.889000,116.508000,161.460000L116.508000,192.645000C116.508000,193.388000,116.920000,194.069000,117.577000,194.413000L152.575000,212.723000C153.315000,213.111000,154.219000,212.995000,154.840000,212.434000L182.308000,187.659000C182.790000,187.225000,183.032000,186.584000,182.958000,185.941000L179.178000,153.079000C179.103000,152.426000,178.713000,151.853000,178.133000,151.545000Z" fill="rgb(47,30,58)" stroke="none" stroke-width="1"/><path id="e25ks7x1me9520" d="M280,49.580600L280,0L175,0C175,41.500000,236,65,280,49.580600Z" fill="rgb(67,96,108)" stroke="none" stroke-width="1"/><path id="e25ks7x1me9521" d="M0,22L0,0L115,0C115,27.500000,31.500000,48.500000,0,22Z" fill="rgb(67,96,108)" stroke="none" stroke-width="1"/><path id="e25ks7x1me9522" d="M85.500000,0L203,0C203,11.500000,183.500000,32.500000,144.500000,32.500000C105.500000,32.500000,85.500000,12.500000,85.500000,0Z" fill="rgb(67,96,108)" stroke="none" stroke-width="1"/><g id="e25ks7x1me9523_to" transform="translate(151.988625,255.468025)"><path id="e25ks7x1me9523" d="M134.378000,257.604000L143.959000,229.098000C144.435000,227.681000,146.240000,227.268000,147.285000,228.336000L169.133000,250.679000C169.664000,251.221000,169.842000,252.018000,169.592000,252.735000L159.438000,281.860000C158.941000,283.284000,157.107000,283.667000,156.082000,282.561000L134.807000,259.600000C134.309000,259.064000,134.145000,258.298000,134.378000,257.604000Z" transform="translate(-151.988625,-255.468025)" fill="rgb(217,230,232)" stroke="none" stroke-width="1"/></g><path id="e25ks7x1me9524" d="M202.920000,278.693000L201.687000,282.534000L197.481000,282.534000L197.068000,277.356000L198.773000,275.282000L202.504000,275.987000L202.920000,278.693000Z" fill="rgb(28,14,76)" stroke="none" stroke-width="1"/><path id="e25ks7x1me9525" d="M215.993000,278.282000L216.540000,282.391000L220.554000,283.133000L221.994000,278.142000L220.737000,275.770000L216.941000,275.714000L215.993000,278.282000Z" fill="rgb(28,14,76)" stroke="none" stroke-width="1"/><path id="e25ks7x1me9526" d="M197.365000,282.164000L175.276000,399.815000L268.437000,399.815000L219.935000,282.164000L197.365000,282.164000Z" fill="rgb(28,14,76)" stroke="none" stroke-width="1"/><path id="e25ks7x1me9527" d="M204.808000,288.406000L202.647000,288.406000L199.766000,294.409000L204.808000,294.409000L204.808000,288.406000Z" fill="rgb(26,46,117)" stroke="none" stroke-width="1"/><path id="e25ks7x1me9528" d="M176.716000,329.705000L193.523000,305.934000L193.523000,340.029000L188.961000,352.995000L170.953000,355.636000L157.507000,340.029000L176.716000,329.705000Z" fill="rgb(28,14,76)" stroke="none" stroke-width="1"/><path id="e25ks7x1me9529" d="M217.054000,328.744000L217.054000,309.536000L223.296000,332.106000L198.806000,337.868000L206.009000,351.794000L198.806000,351.794000L193.043000,335.467000L217.054000,328.744000Z" fill="rgb(26,46,117)" stroke="none" stroke-width="1"/><path id="e25ks7x1me9530" d="M208.890000,287.686000C208.890000,288.084000,208.567000,288.406000,208.170000,288.406000C207.772000,288.406000,207.449000,288.084000,207.449000,287.686000C207.449000,287.288000,207.772000,286.966000,208.170000,286.966000C208.567000,286.966000,208.890000,287.288000,208.890000,287.686000Z" fill="rgb(0,243,243)" stroke="none" stroke-width="1"/><path id="e25ks7x1me9531" d="M201.207000,287.686000C201.207000,288.084000,200.884000,288.406000,200.486000,288.406000C200.089000,288.406000,199.766000,288.084000,199.766000,287.686000C199.766000,287.288000,200.089000,286.966000,200.486000,286.966000C200.884000,286.966000,201.207000,287.288000,201.207000,287.686000Z" fill="rgb(0,243,243)" stroke="none" stroke-width="1"/><path id="e25ks7x1me9532" d="M139.740000,372.443000L183.679000,358.757000L190.882000,399.815000L153.186000,399.815000L139.740000,372.443000Z" fill="rgb(28,14,76)" stroke="none" stroke-width="1"/><path id="e25ks7x1me9533" d="M209.130000,399.815000L202.167000,399.815000L195.204000,375.325000L216.093000,363.319000L199.766000,376.525000L209.130000,399.815000Z" fill="rgb(26,46,117)" stroke="none" stroke-width="1"/><path id="e25ks7x1me9534" d="M150.337000,338.681000C148.683000,334.149000,144.018000,330.540000,138.034000,331.719000C131.178000,333.069000,121.280000,334.665000,110.047000,334.673000C107.401000,337.840000,104.280000,341.997000,103.211000,345.530000C102.674000,347.307000,102.667000,348.886000,103.455000,350.101000C104.242000,351.316000,105.857000,352.222000,108.692000,352.566000C115.513000,353.396000,122.236000,353.948000,128.380000,353.833000C134.525000,353.718000,140.080000,352.936000,144.569000,351.104000C147.612000,349.862000,149.460000,347.883000,150.347000,345.660000C151.235000,343.434000,151.164000,340.947000,150.337000,338.681000ZM150.690000,345.797000C149.762000,348.121000,147.835000,350.169000,144.708000,351.445000C140.159000,353.302000,134.554000,354.087000,128.387000,354.202000C122.218000,354.318000,115.476000,353.763000,108.647000,352.933000C105.764000,352.582000,104.018000,351.650000,103.145000,350.302000C102.272000,348.954000,102.307000,347.245000,102.858000,345.423000C103.959000,341.784000,107.165000,337.540000,109.820000,334.370000L109.875000,334.304000L109.961000,334.304000C121.196000,334.304000,131.101000,332.708000,137.963000,331.357000C144.152000,330.137000,148.977000,333.879000,150.684000,338.555000C151.538000,340.894000,151.616000,343.476000,150.690000,345.797000Z" clip-rule="evenodd" fill="rgb(17,17,17)" fill-rule="evenodd" stroke="none" stroke-width="1"/><path id="e25ks7x1me9535" d="M104.308000,283.166000C103.386000,277.447000,114.269000,280.030000,113.346000,289.622000C112.608000,293.311000,104.308000,287.224000,104.308000,283.166000Z" fill="rgb(154,103,33)" stroke="none" stroke-width="1"/><path id="e25ks7x1me9536" d="M105.637000,283.863000C105.005000,280.084000,112.465000,281.791000,111.833000,288.130000C111.327000,290.568000,105.637000,286.545000,105.637000,283.863000Z" fill="rgb(251,171,126)" stroke="none" stroke-width="1"/><path id="e25ks7x1me9537" d="M97.483600,283.350000C93.425600,272.836000,81.435900,285.010000,90.289800,289.437000C93.609900,290.728000,98.590400,286.855000,97.483600,283.350000Z" fill="rgb(154,103,33)" stroke="none" stroke-width="1"/><path id="e25ks7x1me9538" d="M95.539300,283.769000C92.981700,277.125000,85.425000,284.819000,91.005300,287.616000C93.097900,288.433000,96.236900,285.984000,95.539300,283.769000Z" fill="rgb(251,171,126)" stroke="none" stroke-width="1"/><path id="e25ks7x1me9539" d="M23.176800,399.926000L139.539000,399.926000C143.228000,384.063000,132.743000,369.626000,123.491000,356.948000C122.724000,355.897000,121.994000,354.878000,121.299000,353.889000C130.241000,354.339000,138.438000,353.805000,144.639000,351.274000C156.977000,346.238000,150.172000,329.140000,137.998000,331.538000C136.027000,331.926000,133.804000,332.335000,131.371000,332.720000C129.586000,325.872000,121.623000,321.039000,109.958000,325.684000C110.328000,323.889000,111.030000,322.235000,111.981000,320.610000C123.405000,301.098000,117.702000,294.209000,112.589000,288.033000L112.586000,288.029000C112.383000,287.784000,112.181000,287.540000,111.981000,287.297000C106.743000,280.914000,92.939100,282.177000,91.107000,287.297000C89.768200,291.038000,87.967900,293.987000,85.549400,297.948000C84.658100,299.408000,83.682800,301.006000,82.615700,302.832000C76.824000,311.756000,57.640600,337.396000,37.152000,352.968000C19.037300,367.514000,20.287400,390.334000,23.176800,399.926000Z" clip-rule="evenodd" fill="url(#e25ks7x1me9539-fill)" fill-rule="evenodd" stroke="none" stroke-width="1"/><path id="e25ks7x1me9540" d="M58.302400,335.626000C60.351400,331.114000,63.745700,326.204000,68.441000,321.221000L68.709500,321.474000C64.034700,326.435000,60.666600,331.312000,58.638300,335.778000C56.609000,340.246000,55.926800,344.289000,56.601400,347.589000C57.274000,350.879000,59.299100,353.451000,62.733500,354.987000C66.176200,356.527000,71.043500,357.028000,77.389400,356.143000C81.121100,355.623000,84.638000,355.442000,88.331400,355.252000C96.587600,354.827000,105.726000,354.357000,120.117000,349.947000C128.699000,347.317000,132.286000,339.888000,131.241000,333.681000C130.719000,330.578000,129.039000,327.782000,126.247000,326.031000C123.455000,324.281000,119.529000,323.565000,114.493000,324.664000C100.588000,327.698000,88.440300,332.492000,82.044100,335.017000C80.950300,335.448000,80.024800,335.814000,79.287400,336.092000L79.156900,335.747000C79.890900,335.470000,80.813400,335.106000,81.904600,334.675000C88.297300,332.152000,100.477000,327.344000,114.414000,324.303000C119.523000,323.189000,123.551000,323.907000,126.443000,325.719000C129.334000,327.531000,131.067000,330.424000,131.605000,333.620000C132.681000,340.011000,128.983000,347.616000,120.225000,350.299000C105.791000,354.723000,96.576700,355.198000,88.303000,355.624000C84.621700,355.814000,81.126500,355.994000,77.440400,356.509000C71.057200,357.399000,66.112400,356.902000,62.582800,355.324000C59.044900,353.741000,56.937400,351.075000,56.239900,347.663000C55.544300,344.260000,56.254300,340.135000,58.302400,335.626000Z" clip-rule="evenodd" fill="rgb(0,0,0)" fill-rule="evenodd" stroke="none" stroke-width="1"/><path id="e25ks7x1me9541" d="M94.788000,356.748000C85.571600,355.678000,65.377100,354.801000,47.424800,368.795000L47.198000,368.504000C65.266400,354.419000,85.583300,355.308000,94.830600,356.382000C101.789000,357.190000,107.538000,361.992000,110.012000,368.248000C112.487000,374.511000,111.679000,382.228000,105.539000,388.856000L105.268000,388.605000C111.312000,382.082000,112.092000,374.516000,109.668000,368.384000C107.242000,362.245000,101.602000,357.539000,94.788000,356.748000ZM85.219400,382.294000C81.563900,385.498000,71.501900,393.538000,60.471900,400.085000L60.283600,399.768000C71.289800,393.235000,81.333500,385.210000,84.976200,382.016000L85.219400,382.294000Z" clip-rule="evenodd" fill="rgb(0,0,0)" fill-rule="evenodd" stroke="none" stroke-width="1"/><path id="e25ks7x1me9542" d="M106.232000,388.499000C104.023000,389.411000,101.749000,390.350000,99.393900,391.248000L99.262500,390.903000C101.595000,390.014000,103.858000,389.080000,106.063000,388.170000C110.204000,386.461000,114.141000,384.836000,117.948000,383.751000C123.795000,382.085000,129.381000,381.678000,135.016000,384.181000C136.906000,385.019000,138.182000,386.137000,139.022000,387.421000C139.860000,388.703000,140.254000,390.141000,140.396000,391.611000C140.538000,393.080000,140.430000,394.587000,140.257000,396.013000C140.179000,396.663000,140.088000,397.290000,140.001000,397.889000C139.896000,398.616000,139.797000,399.303000,139.732000,399.945000L139.365000,399.908000C139.430000,399.267000,139.532000,398.561000,139.638000,397.821000C139.725000,397.220000,139.815000,396.596000,139.891000,395.968000C140.062000,394.552000,140.167000,393.076000,140.029000,391.647000C139.891000,390.218000,139.510000,388.842000,138.713000,387.622000C137.917000,386.404000,136.698000,385.331000,134.867000,384.518000C129.340000,382.064000,123.851000,382.453000,118.049000,384.106000C114.261000,385.185000,110.359000,386.796000,106.232000,388.499000Z" clip-rule="evenodd" fill="rgb(0,0,0)" fill-rule="evenodd" stroke="none" stroke-width="1"/><path id="e25ks7x1me9543" d="M82.218000,334.509000C83.314300,333.230000,84.965800,330.662000,86.629800,328.073000L86.940200,328.273000L86.930300,328.288000C85.277400,330.859000,83.613100,333.448000,82.498100,334.749000L82.218000,334.509000Z" clip-rule="evenodd" fill="rgb(0,0,0)" fill-rule="evenodd" stroke="none" stroke-width="1"/><path id="e25ks7x1me9544" d="M93.433700,279.061000C95.073200,279.344000,96.625700,280.615000,97.655600,283.284000L97.311400,283.417000C96.312300,280.828000,94.844300,279.679000,93.371100,279.425000C91.887900,279.170000,90.341600,279.811000,89.171800,280.924000C88.002300,282.038000,87.236800,283.598000,87.292100,285.133000C87.347000,286.656000,88.209600,288.191000,90.372200,289.272000L90.207200,289.602000C87.942800,288.470000,86.983900,286.824000,86.923500,285.147000C86.863500,283.483000,87.689000,281.827000,88.917400,280.657000C90.145600,279.488000,91.804200,278.781000,93.433700,279.061000Z" clip-rule="evenodd" fill="rgb(0,0,0)" fill-rule="evenodd" stroke="none" stroke-width="1"/><path id="e25ks7x1me9545" d="M105.451000,280.251000C104.481000,280.779000,103.935000,281.891000,104.125000,283.555000L104.492000,283.513000C104.313000,281.950000,104.827000,281.010000,105.627000,280.575000C106.443000,280.131000,107.617000,280.177000,108.820000,280.728000C111.213000,281.824000,113.617000,284.884000,113.163000,289.604000L113.530000,289.639000C113.999000,284.767000,111.514000,281.556000,108.973000,280.392000C107.709000,279.813000,106.404000,279.732000,105.451000,280.251000Z" clip-rule="evenodd" fill="rgb(0,0,0)" fill-rule="evenodd" stroke="none" stroke-width="1"/><path id="e25ks7x1me9546" d="M113.346000,296.262000L117.773000,294.971000C117.773000,294.971000,116.759000,292.204000,115.006000,289.991000C113.254000,287.777000,109.473000,285.010000,109.473000,285.010000L113.346000,296.262000Z" fill="rgb(198,135,49)" stroke="none" stroke-width="1"/><path id="e25ks7x1me9547" d="M106.337000,289.253000C106.337000,289.864000,105.842000,290.359000,105.230000,290.359000C104.619000,290.359000,104.124000,289.864000,104.124000,289.253000C104.124000,288.641000,104.619000,288.146000,105.230000,288.146000C105.842000,288.146000,106.337000,288.641000,106.337000,289.253000Z" fill="rgb(17,17,17)" stroke="none" stroke-width="1"/><path id="e25ks7x1me9548" d="M77.709200,310.208000C69.409700,321.151000,54.245400,339.676000,42.812100,348.425000C32.228100,356.524000,26.353000,364.749000,23.669400,373.236000C20.985400,381.724000,21.487100,390.495000,23.696000,399.699000L23.337300,399.785000C21.119300,390.543000,20.606400,381.698000,23.317700,373.124000C26.029400,364.549000,31.959400,356.265000,42.587900,348.132000C53.976500,339.417000,69.113700,320.930000,77.415200,309.985000L77.709200,310.208000Z" clip-rule="evenodd" fill="rgb(0,0,0)" fill-rule="evenodd" stroke="none" stroke-width="1"/><path id="e25ks7x1me9549" d="M105.362000,357.601000C104.745000,359.314000,105.123000,361.329000,107.207000,363.459000L106.944000,363.717000C104.786000,361.512000,104.339000,359.354000,105.015000,357.476000C105.684000,355.617000,107.436000,354.083000,109.572000,353.069000C111.712000,352.053000,114.265000,351.544000,116.579000,351.758000C118.892000,351.972000,120.991000,352.912000,122.173000,354.822000C122.813000,355.855000,123.805000,357.267000,125.006000,358.977000C125.411000,359.553000,125.839000,360.163000,126.286000,360.803000C128.056000,363.341000,130.107000,366.353000,132.086000,369.632000C136.040000,376.182000,139.720000,383.818000,140.277000,390.873000L139.909000,390.902000C139.359000,383.938000,135.719000,376.364000,131.770000,369.822000C129.798000,366.554000,127.752000,363.550000,125.983000,361.014000C125.540000,360.379000,125.114000,359.772000,124.711000,359.198000C123.507000,357.484000,122.506000,356.059000,121.860000,355.016000C120.758000,353.236000,118.787000,352.332000,116.545000,352.125000C114.303000,351.918000,111.816000,352.412000,109.730000,353.402000C107.641000,354.394000,105.985000,355.869000,105.362000,357.601000Z" clip-rule="evenodd" fill="rgb(0,0,0)" fill-rule="evenodd" stroke="none" stroke-width="1"/><path id="e25ks7x1me9550" d="M109.487000,384.081000C109.360000,383.802000,109.197000,383.596000,109.009000,383.483000L109.199000,383.167000C109.473000,383.331000,109.678000,383.609000,109.823000,383.929000C109.968000,384.251000,110.059000,384.629000,110.095000,385.014000C110.166000,385.775000,110.029000,386.615000,109.617000,387.130000L109.329000,386.899000C109.655000,386.491000,109.795000,385.764000,109.728000,385.049000C109.694000,384.696000,109.612000,384.359000,109.487000,384.081000Z" clip-rule="evenodd" fill="rgb(0,0,0)" fill-rule="evenodd" stroke="none" stroke-width="1"/><path id="e25ks7x1me9551" d="M117.404000,294.971000L112.977000,296.262000L117.404000,299.582000C118.327000,299.582000,119.323000,299.287000,118.880000,297.369000C118.437000,295.450000,117.712000,294.971000,117.404000,294.971000Z" fill="rgb(0,0,0)" stroke="none" stroke-width="1"/><path id="e25ks7x1me9552" d="M112.206000,304.918000C111.233000,304.567000,110.112000,303.934000,108.816000,303.055000L109.023000,302.750000C110.309000,303.623000,111.401000,304.235000,112.331000,304.570000C113.261000,304.906000,114.009000,304.957000,114.621000,304.735000C115.231000,304.514000,115.742000,304.010000,116.173000,303.156000C116.605000,302.301000,116.947000,301.111000,117.223000,299.550000L117.586000,299.614000C117.049000,302.655000,117.010000,304.607000,117.228000,305.583000C117.282000,305.825000,117.349000,305.995000,117.420000,306.103000C117.490000,306.211000,117.551000,306.241000,117.593000,306.248000C117.637000,306.255000,117.709000,306.243000,117.814000,306.163000C117.920000,306.084000,118.041000,305.949000,118.173000,305.751000L118.480000,305.956000C118.336000,306.173000,118.187000,306.344000,118.036000,306.458000C117.886000,306.571000,117.715000,306.640000,117.536000,306.612000C117.356000,306.584000,117.215000,306.465000,117.111000,306.304000C117.007000,306.145000,116.927000,305.928000,116.868000,305.663000C116.724000,305.020000,116.688000,304.017000,116.804000,302.639000C116.709000,302.885000,116.609000,303.113000,116.503000,303.323000C116.046000,304.227000,115.474000,304.818000,114.747000,305.082000C114.022000,305.344000,113.178000,305.268000,112.206000,304.918000Z" clip-rule="evenodd" fill="rgb(0,0,0)" fill-rule="evenodd" stroke="none" stroke-width="1"/><path id="e25ks7x1me9553" d="M108.523000,334.303000C110.374000,339.244000,115.449000,344.909000,123.782000,348.949000L123.795000,348.956000L123.795000,348.955000C137.713000,355.225000,148.474000,357.532000,157.062000,357.414000C165.660000,357.295000,172.048000,354.745000,177.212000,351.355000C180.692000,349.071000,183.623000,346.397000,186.285000,343.853000C187.716000,344.890000,189.195000,346.119000,190.692000,347.445000C192.341000,348.904000,193.992000,350.462000,195.617000,351.995000C196.538000,352.864000,197.450000,353.724000,198.348000,354.555000C200.816000,356.834000,203.177000,358.883000,205.249000,360.138000C206.285000,360.766000,207.280000,361.216000,208.204000,361.385000C209.140000,361.556000,210.027000,361.442000,210.787000,360.909000C211.508000,360.405000,212.140000,359.548000,212.670000,358.499000C213.206000,357.441000,213.659000,356.144000,214.001000,354.710000C214.686000,351.842000,214.941000,348.373000,214.494000,345.058000C214.049000,341.748000,212.896000,338.540000,210.721000,336.249000C208.526000,333.940000,205.340000,332.615000,200.955000,333.002000C196.519000,333.393000,192.939000,336.197000,189.260000,339.626000C188.464000,340.368000,187.662000,341.141000,186.843000,341.930000C186.626000,342.139000,186.407000,342.349000,186.188000,342.560000C185.355000,341.987000,184.535000,341.479000,183.733000,341.057000L183.267000,341.942000C183.977000,342.316000,184.706000,342.762000,185.450000,343.267000C182.843000,345.754000,180.020000,348.315000,176.663000,350.519000C171.639000,353.817000,165.434000,356.298000,157.048000,356.414000C148.652000,356.530000,138.041000,354.275000,124.212000,348.047000C116.049000,344.087000,111.198000,338.592000,109.460000,333.952000C108.590000,331.630000,108.514000,329.567000,109.127000,328.015000C109.730000,326.489000,111.028000,325.382000,113.093000,324.991000L112.907000,324.008000C110.544000,324.455000,108.940000,325.767000,108.197000,327.648000C107.464000,329.503000,107.599000,331.835000,108.523000,334.303000ZM187.018000,343.150000C187.204000,342.972000,187.388000,342.794000,187.572000,342.617000C188.381000,341.838000,189.168000,341.079000,189.942000,340.358000C193.622000,336.927000,196.980000,334.356000,201.043000,333.998000C205.158000,333.635000,208.033000,334.873000,209.996000,336.938000C211.976000,339.023000,213.074000,342.002000,213.503000,345.192000C213.932000,348.376000,213.687000,351.720000,213.029000,354.477000C212.700000,355.855000,212.270000,357.075000,211.778000,358.048000C211.282000,359.029000,210.742000,359.720000,210.213000,360.090000C209.724000,360.433000,209.126000,360.537000,208.384000,360.402000C207.630000,360.264000,206.755000,359.882000,205.767000,359.283000C203.792000,358.086000,201.497000,356.103000,199.027000,353.820000C198.145000,353.005000,197.240000,352.151000,196.322000,351.286000C194.688000,349.744000,193.013000,348.164000,191.355000,346.696000C189.901000,345.409000,188.445000,344.195000,187.018000,343.150000Z" clip-rule="evenodd" fill="rgb(255,209,45)" fill-rule="evenodd" stroke="none" stroke-width="1"/><g id="e25ks7x1me9554_tr" transform="translate(130.941000,342.672409) rotate(0)"><path id="e25ks7x1me9554" d="M175.658000,274.526000C186.442000,278.120000,192.020000,290.393000,190.495000,301.071000C187.488000,322.115000,165.224000,346.030000,130.941000,341.997000L131.058000,341.003000C164.776000,344.970000,186.571000,321.463000,189.505000,300.929000C190.980000,290.607000,185.558000,278.880000,175.342000,275.474000L175.658000,274.526000Z" transform="translate(-130.941000,-342.672409)" clip-rule="evenodd" fill="rgb(255,209,45)" fill-rule="evenodd" stroke="none" stroke-width="1"/></g><g id="e25ks7x1me9555_tr" transform="translate(183.742000,342.733279) rotate(0)"><path id="e25ks7x1me9555" d="M126.773000,299.054000C126.681000,292.778000,128.525000,286.768000,132.646000,282.646000L133.354000,283.354000C129.475000,287.232000,127.684000,292.951000,127.773000,299.039000C127.863000,305.125000,129.833000,311.528000,133.411000,316.716000C138.310000,323.819000,147.622000,328.152000,157.416000,331.591000C160.558000,332.694000,163.725000,333.697000,166.800000,334.671000C168.512000,335.214000,170.194000,335.747000,171.828000,336.283000C176.376000,337.775000,180.530000,339.287000,183.742000,341.062000L183.258000,341.938000C180.137000,340.213000,176.062000,338.725000,171.516000,337.233000C169.903000,336.704000,168.230000,336.173000,166.522000,335.632000C163.436000,334.655000,160.239000,333.642000,157.084000,332.534000C147.295000,329.098000,137.690000,324.681000,132.588000,317.284000C128.895000,311.930000,126.866000,305.333000,126.773000,299.054000Z" transform="translate(-183.742000,-342.733279)" clip-rule="evenodd" fill="rgb(255,209,45)" fill-rule="evenodd" stroke="none" stroke-width="1"/></g><path id="e25ks7x1me9556" d="M225,400L0,93L0,69L280,343.500000L280,400L225,400Z" fill="rgb(156,231,255)" fill-opacity="0.14" stroke="none" stroke-width="1"/></svg>