<svg id="ehmtu2u4e4ee1" xmlns="http://www.w3.org/2000/svg" xmlns:xlink="http://www.w3.org/1999/xlink" viewBox="0 0 480 600" shape-rendering="geometricPrecision" text-rendering="geometricPrecision"><style><![CDATA[#ehmtu2u4e4ee8 {animation: ehmtu2u4e4ee8_c_o 3000ms linear infinite normal forwards}@keyframes ehmtu2u4e4ee8_c_o { 0% {opacity: 1;animation-timing-function: cubic-bezier(0.420000,0,0.580000,1)} 50% {opacity: 0.200000;animation-timing-function: cubic-bezier(0.420000,0,0.580000,1)} 100% {opacity: 1} }#ehmtu2u4e4ee12 {
           animation-name: ehmtu2u4e4ee12__m, ehmtu2u4e4ee12_c_o;
           animation-duration: 3000ms;
           animation-fill-mode: forwards;
           animation-timing-function: linear;
           animation-direction: normal;
           animation-iteration-count: infinite;  
        }@keyframes ehmtu2u4e4ee12__m { 0% {d: path('M480,552.875000L0,145.008000L0,120.965000L480,518.528000L480,552.875000Z');animation-timing-function: cubic-bezier(0.420000,0,0.580000,1)} 66.666667% {d: path('M480,547.875000L0,140.008000L0,126.965000L480,523.528000L480,547.875000Z');animation-timing-function: cubic-bezier(0.420000,0,0.580000,1)} 100% {d: path('M480,552.875000L0,145.008000L0,120.965000L480,518.528000L480,552.875000Z')} }@keyframes ehmtu2u4e4ee12_c_o { 0% {opacity: 1;animation-timing-function: cubic-bezier(0.420000,0,0.580000,1)} 66.666667% {opacity: 0.160000;animation-timing-function: cubic-bezier(0.420000,0,0.580000,1)} 100% {opacity: 1} }#ehmtu2u4e4ee13 {
           animation-name: ehmtu2u4e4ee13__m, ehmtu2u4e4ee13_c_o;
           animation-duration: 3000ms;
           animation-fill-mode: forwards;
           animation-timing-function: linear;
           animation-direction: normal;
           animation-iteration-count: infinite;  
        }@keyframes ehmtu2u4e4ee13__m { 0% {d: path('M480,379.265000L0,14.997400L0,2.500000L480,344.928000L480,379.265000Z');animation-timing-function: cubic-bezier(0.420000,0,0.580000,1)} 50% {d: path('M480,373.265000L0,11.997400L0,5.500000L480,354.928000L480,373.265000Z');animation-timing-function: cubic-bezier(0.420000,0,0.580000,1)} 100% {d: path('M480,379.265000L0,14.997400L0,2.500000L480,344.928000L480,379.265000Z')} }@keyframes ehmtu2u4e4ee13_c_o { 0% {opacity: 1} 50% {opacity: 0.200000} 100% {opacity: 1} }#ehmtu2u4e4ee19 {animation: ehmtu2u4e4ee19_c_o 3000ms linear infinite normal forwards}@keyframes ehmtu2u4e4ee19_c_o { 0% {opacity: 1;animation-timing-function: cubic-bezier(0.420000,0,0.580000,1)} 33.333333% {opacity: 0.160000;animation-timing-function: cubic-bezier(0.420000,0,0.580000,1)} 100% {opacity: 1} }#ehmtu2u4e4ee28 {animation: ehmtu2u4e4ee28_c_o 3000ms linear infinite normal forwards}@keyframes ehmtu2u4e4ee28_c_o { 0% {opacity: 1;animation-timing-function: cubic-bezier(0.420000,0,0.580000,1)} 66.666667% {opacity: 0.160000;animation-timing-function: cubic-bezier(0.420000,0,0.580000,1)} 100% {opacity: 1} }#ehmtu2u4e4ee36 {
           animation-name: ehmtu2u4e4ee36__m, ehmtu2u4e4ee36_c_o;
           animation-duration: 3000ms;
           animation-fill-mode: forwards;
           animation-timing-function: linear;
           animation-direction: normal;
           animation-iteration-count: infinite;  
        }@keyframes ehmtu2u4e4ee36__m { 0% {d: path('M479.500000,487.990000L0,99.036100L0,50.989300L479.500000,409.914000L479.500000,487.990000Z');animation-timing-function: cubic-bezier(0.420000,0,0.580000,1)} 33.333333% {d: path('M479.500000,473.990000L0,89.036100L0,60.989300L479.500000,419.914000L479.500000,473.990000Z');animation-timing-function: cubic-bezier(0.420000,0,0.580000,1)} 100% {d: path('M479.500000,487.990000L0,99.036100L0,50.989300L479.500000,409.914000L479.500000,487.990000Z')} }@keyframes ehmtu2u4e4ee36_c_o { 0% {opacity: 1;animation-timing-function: cubic-bezier(0.420000,0,0.580000,1)} 33.333333% {opacity: 0.400000;animation-timing-function: cubic-bezier(0.420000,0,0.580000,1)} 100% {opacity: 1} }#ehmtu2u4e4ee37 {
           animation-name: ehmtu2u4e4ee37__m, ehmtu2u4e4ee37_c_o;
           animation-duration: 3000ms;
           animation-fill-mode: forwards;
           animation-timing-function: linear;
           animation-direction: normal;
           animation-iteration-count: infinite;  
        }@keyframes ehmtu2u4e4ee37__m { 0% {d: path('M480,290.940000L88,8.248900L111.802000,3C111.802000,3,480,257.947000,480,257.947000L480,290.940000Z');animation-timing-function: cubic-bezier(0.420000,0,0.580000,1)} 66.666667% {d: path('M480,290.940000L89,1.248900L111.802000,3C111.802000,3,480,270.947000,480,270.947000L480,290.940000Z');animation-timing-function: cubic-bezier(0.420000,0,0.580000,1)} 100% {d: path('M480,290.940000L88,8.248900L111.802000,3C111.802000,3,480,257.947000,480,257.947000L480,290.940000Z')} }@keyframes ehmtu2u4e4ee37_c_o { 0% {opacity: 1;animation-timing-function: cubic-bezier(0.420000,0,0.580000,1)} 66.666667% {opacity: 0.220000;animation-timing-function: cubic-bezier(0.420000,0,0.580000,1)} 100% {opacity: 1} }#ehmtu2u4e4ee38 {
           animation-name: ehmtu2u4e4ee38__m, ehmtu2u4e4ee38_c_o;
           animation-duration: 3000ms;
           animation-fill-mode: forwards;
           animation-timing-function: linear;
           animation-direction: normal;
           animation-iteration-count: infinite;  
        }@keyframes ehmtu2u4e4ee38__m { 0% {d: path('M480,128.474000L225.681000,0L248.001000,0L480,95.480600L480,128.474000Z');animation-timing-function: cubic-bezier(0.420000,0,0.580000,1)} 33.333333% {d: path('M480,118.474000L228.681000,0L243.001000,0L480,104.480600L480,118.474000Z');animation-timing-function: cubic-bezier(0.420000,0,0.580000,1)} 100% {d: path('M480,128.474000L225.681000,0L248.001000,0L480,95.480600L480,128.474000Z')} }@keyframes ehmtu2u4e4ee38_c_o { 0% {opacity: 1;animation-timing-function: cubic-bezier(0.420000,0,0.580000,1)} 33.333333% {opacity: 0.200000;animation-timing-function: cubic-bezier(0.420000,0,0.580000,1)} 100% {opacity: 1} }#ehmtu2u4e4ee39 {
           animation-name: ehmtu2u4e4ee39__m, ehmtu2u4e4ee39_c_o;
           animation-duration: 3000ms;
           animation-fill-mode: forwards;
           animation-timing-function: linear;
           animation-direction: normal;
           animation-iteration-count: infinite;  
        }@keyframes ehmtu2u4e4ee39__m { 0% {d: path('M330,599.874000L0,231.112000L0,159.966000L480,564.881000L480,599.874000L330,599.874000Z');animation-timing-function: cubic-bezier(0.420000,0,0.580000,1)} 50% {d: path('M380,599.874000L0,204.936212L0,176.966000L480,578.881000L480,599.874000L380,599.874000Z');animation-timing-function: cubic-bezier(0.420000,0,0.580000,1)} 100% {d: path('M330,599.874000L0,231.112000L0,159.966000L480,564.881000L480,599.874000L330,599.874000Z')} }@keyframes ehmtu2u4e4ee39_c_o { 0% {opacity: 1;animation-timing-function: cubic-bezier(0.420000,0,0.580000,1)} 50% {opacity: 0.400000;animation-timing-function: cubic-bezier(0.420000,0,0.580000,1)} 100% {opacity: 1} }]]></style><defs><radialGradient id="ehmtu2u4e4ee2-fill" cx="0" cy="0" r="1" spreadMethod="pad" gradientUnits="userSpaceOnUse" gradientTransform="matrix(0.00000000000002 245 -245 0.00000000000002 240 0)"><stop id="ehmtu2u4e4ee2-fill-0" offset="0%" stop-color="rgb(37,108,118)"/><stop id="ehmtu2u4e4ee2-fill-1" offset="100%" stop-color="rgb(31,51,103)"/></radialGradient><linearGradient id="ehmtu2u4e4ee33-fill" x1="133.172000" y1="-72.333400" x2="-63.797100" y2="615.437000" spreadMethod="pad" gradientUnits="userSpaceOnUse"><stop id="ehmtu2u4e4ee33-fill-0" offset="0%" stop-color="rgb(110,49,84)"/><stop id="ehmtu2u4e4ee33-fill-1" offset="99.228600%" stop-color="rgb(48,46,92)"/></linearGradient><linearGradient id="ehmtu2u4e4ee34-fill" x1="348.426000" y1="-63.356000" x2="542.537000" y2="615.370000" spreadMethod="pad" gradientUnits="userSpaceOnUse"><stop id="ehmtu2u4e4ee34-fill-0" offset="0%" stop-color="rgb(110,49,84)"/><stop id="ehmtu2u4e4ee34-fill-1" offset="99.228600%" stop-color="rgb(48,46,92)"/></linearGradient></defs><rect id="ehmtu2u4e4ee2" width="480" height="600" rx="0" ry="0" fill="url(#ehmtu2u4e4ee2-fill)" stroke="none" stroke-width="1"/><path id="ehmtu2u4e4ee3" d="M366,37.991900L388,599.874000L300.615000,599.874000L287,37.991900L366,37.991900Z" fill="rgb(59,64,176)" stroke="none" stroke-width="1"/><path id="ehmtu2u4e4ee4" d="M331.017000,292.923000L295.047000,308.657000L291.823000,428.530000L287.783000,599.848000L465,599.848000L465,502.271000L465,428.530000L331.017000,292.923000Z" fill="rgb(28,14,77)" stroke="none" stroke-width="1"/><path id="ehmtu2u4e4ee5" d="M298.780000,300.773000C302.046000,301.548000,303.919000,308.029000,303.919000,308.029000L296.263000,315.517000C296.263000,315.517000,290.396000,313.285000,289.790000,310.424000C289.183000,307.562000,289.495000,305.502000,291.681000,303.650000C293.866000,301.797000,295.514000,299.998000,298.780000,300.773000Z" fill="rgb(28,14,76)" stroke="none" stroke-width="1"/><path id="ehmtu2u4e4ee6" d="M324.533000,318.807000L331.900000,321.780000L313.041000,328.832000L315.567000,322.583000L324.533000,318.807000Z" fill="rgb(48,29,112)" stroke="none" stroke-width="1"/><path id="ehmtu2u4e4ee7" d="M322.717000,291.631000C321.352000,293.994000,324.291000,300.823000,324.291000,300.823000L333.957000,300.298000C333.957000,300.298000,335.513000,293.206000,334.631000,291.631000C333.749000,290.055000,332.816000,288.479000,329.011000,288.216000C325.207000,287.954000,324.083000,289.267000,322.717000,291.631000Z" fill="rgb(28,14,76)" stroke="none" stroke-width="1"/><g id="ehmtu2u4e4ee8"><ellipse id="ehmtu2u4e4ee9" rx="1.568290" ry="2.370480" transform="matrix(1 0 0 1 306.67399999999998 318.99400000000003)" fill="rgb(0,243,243)" stroke="none" stroke-width="1"/><ellipse id="ehmtu2u4e4ee10" rx="2.352440" ry="1.580320" transform="matrix(1 0 0 1 327.84500000000003 310.30300000000000)" fill="rgb(0,243,243)" stroke="none" stroke-width="1"/></g><path id="ehmtu2u4e4ee11" d="M140.892000,40.991500L91,597.875000L148.123000,597.875000L185,40.991500L140.892000,40.991500Z" fill="rgb(59,64,176)" stroke="none" stroke-width="1"/><path id="ehmtu2u4e4ee12" d="M480,552.875000L0,145.008000L0,120.965000L480,518.528000L480,552.875000Z" fill="rgb(156,231,255)" fill-opacity="0.14" stroke="none" stroke-width="1"/><path id="ehmtu2u4e4ee13" d="M480,379.265000L0,14.997400L0,2.500000L480,344.928000L480,379.265000Z" fill="rgb(156,231,255)" fill-opacity="0.14" stroke="none" stroke-width="1"/><path id="ehmtu2u4e4ee14" d="M82.315800,64.986300L51,599.874000L87.842100,599.874000L121,64.986300L82.315800,64.986300Z" fill="rgb(119,108,242)" stroke="none" stroke-width="1"/><path id="ehmtu2u4e4ee15" d="M101.291000,312.665000L50.545500,416.263000L39,600L236.133000,600L177.125000,396.287000L135.415000,313.826000L101.291000,312.665000Z" fill="rgb(28,14,76)" stroke="none" stroke-width="1"/><path id="ehmtu2u4e4ee16" d="M116.278000,336.358000L110.514000,341.004000L129.189000,342.165000L125.270000,337.287000L116.278000,336.358000Z" fill="rgb(48,29,112)" stroke="none" stroke-width="1"/><path id="ehmtu2u4e4ee17" d="M128.729000,308.253000L126.192000,318.706000L132.879000,323.119000L142.793000,313.595000L137.721000,306.395000L128.729000,308.253000Z" fill="rgb(28,14,76)" stroke="none" stroke-width="1"/><path id="ehmtu2u4e4ee18" d="M107.517000,307.322000L110.053000,317.775000L103.366000,322.188000L93.452100,312.665000L98.524500,305.464000L107.517000,307.322000Z" fill="rgb(28,14,76)" stroke="none" stroke-width="1"/><g id="ehmtu2u4e4ee19"><ellipse id="ehmtu2u4e4ee20" rx="1.846460" ry="1.856730" transform="matrix(0.92805700000000 0.37243800000000 -0.36769200000000 0.92994800000000 108.45300000000000 330.39299999999997)" fill="rgb(0,243,243)" stroke="none" stroke-width="1"/><ellipse id="ehmtu2u4e4ee21" rx="1.846460" ry="1.856730" transform="matrix(0.92805700000000 0.37243800000000 -0.36769200000000 0.92994800000000 129.17500000000001 330.70800000000003)" fill="rgb(0,243,243)" stroke="none" stroke-width="1"/></g><path id="ehmtu2u4e4ee22" d="M390.761000,63.986600L366,599.874000L406.783000,599.874000L433,63.986600L390.761000,63.986600Z" fill="rgb(119,108,242)" stroke="none" stroke-width="1"/><path id="ehmtu2u4e4ee23" d="M169.506000,445.514000C167.376000,466.362000,140.212000,570.472000,119.572000,599.874000L327.595000,599.874000C303.627000,528.373000,274,404.706000,274,355.925000C274,332.252000,279.780000,36.509700,282,7.998410L231.770000,7.998440L174,7.998290C172.003000,61.011500,171.637000,424.665000,169.506000,445.514000Z" fill="rgb(93,65,138)" stroke="none" stroke-width="1"/><path id="ehmtu2u4e4ee24" d="M209.039000,371.851000L115,599.615000L335,599.615000L249.588000,371.851000L209.039000,371.851000Z" fill="rgb(28,14,76)" stroke="none" stroke-width="1"/><path id="ehmtu2u4e4ee25" d="M213.785000,364.949000L215.079000,372.282000L208.608000,375.733000L203.432000,367.968000L204.294000,363.223000L210.765000,361.066000L213.785000,364.949000Z" fill="rgb(28,14,76)" stroke="none" stroke-width="1"/><path id="ehmtu2u4e4ee26" d="M244.843000,364.949000L243.549000,372.282000L250.020000,375.733000L255.196000,367.968000L254.334000,363.223000L247.863000,361.066000L244.843000,364.949000Z" fill="rgb(28,14,76)" stroke="none" stroke-width="1"/><path id="ehmtu2u4e4ee27" d="M231.903000,381.341000L225.001000,381.341000L221.550000,392.557000L235.354000,392.557000L231.903000,381.341000Z" fill="rgb(26,46,117)" stroke="none" stroke-width="1"/><g id="ehmtu2u4e4ee28"><circle id="ehmtu2u4e4ee29" r="1.725490" transform="matrix(1 0 0 1 239.23500000000001 383.06599999999997)" fill="rgb(0,243,243)" stroke="none" stroke-width="1"/><circle id="ehmtu2u4e4ee30" r="1.725490" transform="matrix(1 0 0 1 217.66700000000000 383.06599999999997)" fill="rgb(0,243,243)" stroke="none" stroke-width="1"/></g><path id="ehmtu2u4e4ee31" d="M233.196000,479.263000C236.885000,467.859000,259.079000,467.184000,259.079000,467.184000C259.079000,467.184000,247.222000,469.686000,243.118000,479.263000C236.093000,495.655000,239.667000,507.302000,239.667000,507.302000C239.667000,507.302000,228.451000,493.929000,233.196000,479.263000Z" fill="rgb(26,46,117)" stroke="none" stroke-width="1"/><path id="ehmtu2u4e4ee32" d="M221.120000,479.263000C217.430000,467.859000,195.237000,467.184000,195.237000,467.184000C195.237000,467.184000,207.093000,469.686000,211.197000,479.263000C218.223000,495.655000,214.648000,507.302000,214.648000,507.302000C214.648000,507.302000,225.865000,493.929000,221.120000,479.263000Z" fill="rgb(26,46,117)" stroke="none" stroke-width="1"/><path id="ehmtu2u4e4ee33" d="M54.228600,480.099000L86.914300,599.874000L0,599.874000L0,381.285000L0,193.388000L0,1L98.800000,1L104,60.887400L54.228600,111.792000L54.228600,480.099000Z" fill="url(#ehmtu2u4e4ee33-fill)" stroke="none" stroke-width="1"/><path id="ehmtu2u4e4ee34" d="M417.494000,344.062000L351.560000,599.874000L480,599.874000L480,384.204000L480,198.817000L480,8.998050L320,18.599800L349.358000,73.994400L432.294000,90.243500L417.494000,344.062000Z" fill="url(#ehmtu2u4e4ee34-fill)" stroke="none" stroke-width="1"/><path id="ehmtu2u4e4ee35" d="M423.772000,340.002000L445.108000,321.257000L473.953000,338.880000L472.140000,367.762000L440.363000,387.273000L421.386000,369.933000L423.772000,340.002000Z" fill="rgb(47,30,58)" stroke="none" stroke-width="1"/><path id="ehmtu2u4e4ee36" d="M479.500000,487.990000L0,99.036100L0,50.989300L479.500000,409.914000L479.500000,487.990000Z" fill="rgb(156,231,255)" fill-opacity="0.14" stroke="none" stroke-width="1"/><path id="ehmtu2u4e4ee37" d="M480,290.940000L88,8.248900L111.802000,3C111.802000,3,480,257.947000,480,257.947000L480,290.940000Z" fill="rgb(156,231,255)" fill-opacity="0.14" stroke="none" stroke-width="1"/><path id="ehmtu2u4e4ee38" d="M480,128.474000L225.681000,0L248.001000,0L480,95.480600L480,128.474000Z" fill="rgb(156,231,255)" fill-opacity="0.14" stroke="none" stroke-width="1"/><path id="ehmtu2u4e4ee39" d="M330,599.874000L0,231.112000L0,159.966000L480,564.881000L480,599.874000L330,599.874000Z" fill="rgb(156,231,255)" fill-opacity="0.14" stroke="none" stroke-width="1"/><path id="ehmtu2u4e4ee40" d="M337.161000,74.984300C415.005000,74.984300,459.594000,42.083000,480,22.954400L480,0L152,0C190.040000,25.249800,259.318000,74.984300,337.161000,74.984300Z" fill="rgb(67,96,108)" stroke="none" stroke-width="1"/><path id="ehmtu2u4e4ee41" d="M133.174000,68.418600C64.844000,71.909300,22.312000,58.644500,0,46.077800L0,0L304,0C268.905000,23.038900,201.505000,64.927800,133.174000,68.418600Z" fill="rgb(67,96,108)" stroke="none" stroke-width="1"/></svg>