<svg width="280" height="400" viewBox="0 0 280 400" fill="none" xmlns="http://www.w3.org/2000/svg">
<rect width="280" height="400" fill="url(#paint0_radial)"/>
<path d="M211.237 12.9839L222.139 398.003H176.92L167.504 12.9839H211.237Z" fill="#3B40B0"/>
<path d="M195.323 201.748L172.59 211.694L170.552 287.469L168 395.764H279.999V334.083V287.469L195.323 201.748Z" fill="#1C0E4D"/>
<path d="M174.95 206.71C177.014 207.2 178.197 211.297 178.197 211.297L173.359 216.03C173.359 216.03 169.651 214.619 169.267 212.811C168.884 211.002 169.082 209.699 170.463 208.528C171.844 207.358 172.885 206.22 174.95 206.71Z" fill="#1C0E4C"/>
<path d="M191.225 218.11L195.881 219.989L183.962 224.447L185.558 220.497L191.225 218.11Z" fill="#301D70"/>
<path d="M190.078 200.931C189.215 202.425 191.073 206.742 191.073 206.742L197.181 206.41C197.181 206.41 198.165 201.927 197.607 200.931C197.05 199.935 196.46 198.939 194.056 198.773C191.651 198.607 190.941 199.437 190.078 200.931Z" fill="#1C0E4C"/>
<ellipse cx="179.938" cy="218.227" rx="0.99115" ry="1.49813" fill="#00F3F3"/>
<ellipse cx="193.318" cy="212.734" rx="1.48673" ry="0.998751" fill="#00F3F3"/>
<path d="M85.2391 15.9802L51.0444 398.003H90.1949L115.469 15.9802H85.2391Z" fill="#3B40B0"/>
<path d="M279.504 352.06L0.495605 114.857V100.874L279.504 332.085V352.06Z" fill="#9CE7FF" fill-opacity="0.14"/>
<path d="M279.504 244.195L0.495605 6.99188V0.5L279.504 224.22V244.195Z" fill="#9CE7FF" fill-opacity="0.14"/>
<path d="M50.0532 31.7654L33.2036 399.001H53.0266L70.8673 31.7654H50.0532Z" fill="#776CF2"/>
<path d="M54.5691 216.326L22.2258 282.37L14.8672 399.501H140.512L102.903 269.635L76.3182 217.066L54.5691 216.326Z" fill="#1C0E4C"/>
<path d="M64.1211 231.43L60.4473 234.392L72.3505 235.132L69.8523 232.022L64.1211 231.43Z" fill="#301D70"/>
<path d="M72.0564 213.513L70.4399 220.177L74.7016 222.99L81.0205 216.919L77.7876 212.328L72.0564 213.513Z" fill="#1C0E4C"/>
<path d="M58.5368 212.92L60.1533 219.584L55.8917 222.397L49.5727 216.326L52.8057 211.735L58.5368 212.92Z" fill="#1C0E4C"/>
<ellipse rx="1.17686" ry="1.18341" transform="matrix(0.92803 0.372505 -0.367625 0.929974 59.1342 227.628)" fill="#00F3F3"/>
<ellipse rx="1.17686" ry="1.18341" transform="matrix(0.92803 0.372505 -0.367625 0.929974 72.3417 227.828)" fill="#00F3F3"/>
<path d="M224 31.7654L207.15 399.001H234.903L252.743 31.7654H224Z" fill="#776CF2"/>
<path d="M101.59 293.702C100.131 307.991 81.531 379.347 67.3982 399.499H194.761C178.349 350.493 163.54 265.644 163.54 232.21C163.54 215.985 162.02 19.5415 163.54 0.000102154H137.77L104.668 0C103.3 36.3348 103.049 279.412 101.59 293.702Z" fill="#5D418A"/>
<path d="M122.996 264L67 399.624H198L147.141 264H122.996Z" fill="#1C0E4C"/>
<path d="M125.821 259.414L126.592 263.78L122.739 265.835L119.657 261.212L120.17 258.386L124.023 257.102L125.821 259.414Z" fill="#1C0E4C"/>
<path d="M144.316 259.414L143.545 263.78L147.398 265.835L150.48 261.212L149.967 258.386L146.114 257.102L144.316 259.414Z" fill="#1C0E4C"/>
<path d="M136.61 269.174H132.5L130.445 275.853H138.665L136.61 269.174Z" fill="#1A2E75"/>
<circle cx="140.976" cy="270.202" r="1.02745" fill="#00F3F3"/>
<circle cx="128.133" cy="270.202" r="1.02745" fill="#00F3F3"/>
<path d="M137.381 327.482C139.578 320.692 152.793 320.29 152.793 320.29C152.793 320.29 145.733 321.78 143.289 327.482C139.106 337.243 141.234 344.178 141.234 344.178C141.234 344.178 134.555 336.216 137.381 327.482Z" fill="#1A2E75"/>
<path d="M130.189 327.482C127.992 320.692 114.777 320.29 114.777 320.29C114.777 320.29 121.837 321.78 124.281 327.482C128.464 337.243 126.335 344.178 126.335 344.178C126.335 344.178 133.014 336.216 130.189 327.482Z" fill="#1A2E75"/>
<path d="M237.794 226.542L193.274 399.5H280V253.683V128.34V0L171.965 6.49188L191.788 43.9451L247.788 54.9313L237.794 226.542Z" fill="url(#paint1_linear)"/>
<path d="M242.699 218.364L255.94 206.73L273.841 217.667L272.716 235.591L252.995 247.699L241.218 236.938L242.699 218.364Z" fill="#2F1E3A"/>
<path d="M36.1771 319.6L57.9824 399.5H8.39233e-05V253.683V128.34V0H65.9116L69.3806 39.9501L36.1771 73.9076V319.6Z" fill="url(#paint2_linear)"/>
<path d="M280 313.608L0.495605 64.919V32.959L280 261.673V313.608Z" fill="#9CE7FF" fill-opacity="0.14"/>
<path d="M280 168.789L58.9736 4.49441L74.832 0.998779L280 146.816V168.789Z" fill="#9CE7FF" fill-opacity="0.14"/>
<path d="M280 78.9014L155.611 0.998779H170.478L280 56.9288V78.9014Z" fill="#9CE7FF" fill-opacity="0.14"/>
<path d="M213.097 400L0.495605 180.774V133.333L280 385.019V400H213.097Z" fill="#9CE7FF" fill-opacity="0.14"/>
<path d="M185.841 48.9388C236.885 48.9388 266.619 27.4657 280 14.9813V0H64.4248C89.3688 16.4794 134.796 48.9388 185.841 48.9388Z" fill="#43606C"/>
<path d="M94.6549 48.9388C46.0885 51.4357 15.8584 41.9476 0 32.9588V0H216.071C191.127 16.4794 143.221 46.4419 94.6549 48.9388Z" fill="#43606C"/>
<defs>
<radialGradient id="paint0_radial" cx="0" cy="0" r="1" gradientUnits="userSpaceOnUse" gradientTransform="translate(140) rotate(90) scale(200 140)">
<stop stop-color="#256C76"/>
<stop offset="1" stop-color="#1F3367"/>
</radialGradient>
<linearGradient id="paint1_linear" x1="191.158" y1="-48.9197" x2="322.548" y2="409.886" gradientUnits="userSpaceOnUse">
<stop stop-color="#6E3154"/>
<stop offset="0.992286" stop-color="#302E5C"/>
</linearGradient>
<linearGradient id="paint2_linear" x1="88.8419" y1="-48.9197" x2="-42.5476" y2="409.886" gradientUnits="userSpaceOnUse">
<stop stop-color="#6E3154"/>
<stop offset="0.992286" stop-color="#302E5C"/>
</linearGradient>
</defs>
</svg>
