<svg id="ej5q9x3fijyl1" xmlns="http://www.w3.org/2000/svg" xmlns:xlink="http://www.w3.org/1999/xlink" viewBox="0 0 480 600" shape-rendering="geometricPrecision" text-rendering="geometricPrecision"><style><![CDATA[#ej5q9x3fijyl8 {animation: ej5q9x3fijyl8_c_o 3000ms linear infinite normal forwards}@keyframes ej5q9x3fijyl8_c_o { 0% {opacity: 0.200000} 50% {opacity: 1} 100% {opacity: 0.200000} }#ej5q9x3fijyl13 {
           animation-name: ej5q9x3fijyl13__m, ej5q9x3fijyl13_c_o;
           animation-duration: 3000ms;
           animation-fill-mode: forwards;
           animation-timing-function: linear;
           animation-direction: normal;
           animation-iteration-count: infinite;  
        }@keyframes ej5q9x3fijyl13__m { 0% {d: path('M480,379.265000L0,14.997400L0,2.500000L480,344.928000L480,379.265000Z');animation-timing-function: cubic-bezier(0.420000,0,0.580000,1)} 66.666667% {d: path('M480,369.265000L0,9.997400L0,2.500000L480,355.928000L480,369.265000Z');animation-timing-function: cubic-bezier(0.420000,0,0.580000,1)} 100% {d: path('M480,379.265000L0,14.997400L0,2.500000L480,344.928000L480,379.265000Z')} }@keyframes ej5q9x3fijyl13_c_o { 0% {opacity: 1;animation-timing-function: cubic-bezier(0.420000,0,0.580000,1)} 66.666667% {opacity: 0.400000;animation-timing-function: cubic-bezier(0.420000,0,0.580000,1)} 100% {opacity: 1} }#ej5q9x3fijyl19 {animation: ej5q9x3fijyl19_c_o 3000ms linear infinite normal forwards}@keyframes ej5q9x3fijyl19_c_o { 0% {opacity: 0.400000;animation-timing-function: cubic-bezier(0.420000,0,0.580000,1)} 33.333333% {opacity: 1;animation-timing-function: cubic-bezier(0.420000,0,0.580000,1)} 100% {opacity: 0.400000} }#ej5q9x3fijyl60 {
           animation-name: ej5q9x3fijyl60__m, ej5q9x3fijyl60_c_o;
           animation-duration: 3000ms;
           animation-fill-mode: forwards;
           animation-timing-function: linear;
           animation-direction: normal;
           animation-iteration-count: infinite;  
        }@keyframes ej5q9x3fijyl60__m { 0% {d: path('M480,487.990000L0,99.036200L0,50.989300L480,409.914000L480,487.990000Z');animation-timing-function: cubic-bezier(0.420000,0,0.580000,1)} 33.333333% {d: path('M480,472.990000L0,89.036200L0,65.989300L480,424.914000L480,472.990000Z');animation-timing-function: cubic-bezier(0.420000,0,0.580000,1)} 100% {d: path('M480,487.990000L0,99.036200L0,50.989300L480,409.914000L480,487.990000Z')} }@keyframes ej5q9x3fijyl60_c_o { 0% {opacity: 1;animation-timing-function: cubic-bezier(0.420000,0,0.580000,1)} 33.333333% {opacity: 0.400000;animation-timing-function: cubic-bezier(0.420000,0,0.580000,1)} 100% {opacity: 1} }#ej5q9x3fijyl61 {
           animation-name: ej5q9x3fijyl61__m, ej5q9x3fijyl61_c_o;
           animation-duration: 3000ms;
           animation-fill-mode: forwards;
           animation-timing-function: linear;
           animation-direction: normal;
           animation-iteration-count: infinite;  
        }@keyframes ej5q9x3fijyl61__m { 0% {d: path('M480,290.940000L88,8.248900L111.802000,3L480,257.947000L480,290.940000Z');animation-timing-function: cubic-bezier(0.420000,0,0.580000,1)} 66.666667% {d: path('M480,290.940000L93,3.248900L106.802000,3L480,267.947000L480,290.940000Z');animation-timing-function: cubic-bezier(0.420000,0,0.580000,1)} 100% {d: path('M480,290.940000L88,8.248900L111.802000,3L480,257.947000L480,290.940000Z')} }@keyframes ej5q9x3fijyl61_c_o { 0% {opacity: 1;animation-timing-function: cubic-bezier(0.420000,0,0.580000,1)} 66.666667% {opacity: 0.300000;animation-timing-function: cubic-bezier(0.420000,0,0.580000,1)} 100% {opacity: 1} }#ej5q9x3fijyl62 {
           animation-name: ej5q9x3fijyl62__m, ej5q9x3fijyl62_c_o;
           animation-duration: 3000ms;
           animation-fill-mode: forwards;
           animation-timing-function: linear;
           animation-direction: normal;
           animation-iteration-count: infinite;  
        }@keyframes ej5q9x3fijyl62__m { 0% {d: path('M480,128.474000L233,3L255.320000,3L480,95.480600L480,128.474000Z');animation-timing-function: cubic-bezier(0.420000,0,0.580000,1)} 50% {d: path('M480,128.474000L238,3L250.320000,3L480,105.480600L480,128.474000Z');animation-timing-function: cubic-bezier(0.420000,0,0.580000,1)} 100% {d: path('M480,128.474000L233,3L255.320000,3L480,95.480600L480,128.474000Z')} }@keyframes ej5q9x3fijyl62_c_o { 0% {opacity: 1;animation-timing-function: cubic-bezier(0.420000,0,0.580000,1)} 50% {opacity: 0.400000;animation-timing-function: cubic-bezier(0.420000,0,0.580000,1)} 100% {opacity: 1} }#ej5q9x3fijyl63 {
           animation-name: ej5q9x3fijyl63__m, ej5q9x3fijyl63_c_o;
           animation-duration: 3000ms;
           animation-fill-mode: forwards;
           animation-timing-function: linear;
           animation-direction: normal;
           animation-iteration-count: infinite;  
        }@keyframes ej5q9x3fijyl63__m { 0% {d: path('M330,599.874000L0,231.113000L0,159.966000L480,564.881000L480,599.874000L330,599.874000Z');animation-timing-function: cubic-bezier(0.420000,0,0.580000,1)} 50% {d: path('M360,599.874000L0,221.113000L0,169.966000L480,584.881000L480,599.874000L360,599.874000Z');animation-timing-function: cubic-bezier(0.420000,0,0.580000,1)} 100% {d: path('M330,599.874000L0,231.113000L0,159.966000L480,564.881000L480,599.874000L330,599.874000Z')} }@keyframes ej5q9x3fijyl63_c_o { 0% {opacity: 1;animation-timing-function: cubic-bezier(0.420000,0,0.580000,1)} 50% {opacity: 0.200000;animation-timing-function: cubic-bezier(0.420000,0,0.580000,1)} 100% {opacity: 1} }]]></style><defs><linearGradient id="ej5q9x3fijyl29-fill" x1="231.990000" y1="362.273000" x2="231.990000" y2="597.687000" spreadMethod="pad" gradientUnits="userSpaceOnUse"><stop id="ej5q9x3fijyl29-fill-0" offset="0%" stop-color="rgb(181,122,41)"/><stop id="ej5q9x3fijyl29-fill-1" offset="58.645800%" stop-color="rgb(128,78,10)"/><stop id="ej5q9x3fijyl29-fill-2" offset="100%" stop-color="rgb(125,38,10)"/></linearGradient><linearGradient id="ej5q9x3fijyl34-fill" x1="226.077000" y1="392.521000" x2="226.077000" y2="406.918000" spreadMethod="pad" gradientUnits="userSpaceOnUse"><stop id="ej5q9x3fijyl34-fill-0" offset="0%" stop-color="rgb(253,182,70)"/><stop id="ej5q9x3fijyl34-fill-1" offset="100%" stop-color="rgb(250,169,41)"/></linearGradient><linearGradient id="ej5q9x3fijyl48-fill" x1="222.519000" y1="411.543000" x2="226.105000" y2="433.294000" spreadMethod="pad" gradientUnits="userSpaceOnUse"><stop id="ej5q9x3fijyl48-fill-0" offset="0%" stop-color="rgb(255,255,255)"/><stop id="ej5q9x3fijyl48-fill-1" offset="0.010000%" stop-color="rgba(220,233,235,0.88)"/><stop id="ej5q9x3fijyl48-fill-2" offset="100%" stop-color="rgba(196,210,211,0.73)"/></linearGradient><linearGradient id="ej5q9x3fijyl50-fill" x1="228.213000" y1="412.136000" x2="226.021000" y2="435.673000" spreadMethod="pad" gradientUnits="userSpaceOnUse"><stop id="ej5q9x3fijyl50-fill-0" offset="38.333300%" stop-color="rgb(254,191,90)"/><stop id="ej5q9x3fijyl50-fill-1" offset="100%" stop-color="rgb(230,115,21)"/></linearGradient><linearGradient id="ej5q9x3fijyl51-fill" x1="226.053000" y1="413.521000" x2="226.053000" y2="435.676000" spreadMethod="pad" gradientUnits="userSpaceOnUse"><stop id="ej5q9x3fijyl51-fill-0" offset="0%" stop-color="rgb(255,238,176)"/><stop id="ej5q9x3fijyl51-fill-1" offset="100%" stop-color="rgb(255,209,45)"/></linearGradient><linearGradient id="ej5q9x3fijyl58-fill" x1="133.172000" y1="-72.333400" x2="-63.797100" y2="615.437000" spreadMethod="pad" gradientUnits="userSpaceOnUse"><stop id="ej5q9x3fijyl58-fill-0" offset="0%" stop-color="rgb(110,49,84)"/><stop id="ej5q9x3fijyl58-fill-1" offset="99.228600%" stop-color="rgb(48,46,92)"/></linearGradient><linearGradient id="ej5q9x3fijyl59-fill" x1="348.426000" y1="-63.356000" x2="542.537000" y2="615.370000" spreadMethod="pad" gradientUnits="userSpaceOnUse"><stop id="ej5q9x3fijyl59-fill-0" offset="0%" stop-color="rgb(110,49,84)"/><stop id="ej5q9x3fijyl59-fill-1" offset="99.228600%" stop-color="rgb(48,46,92)"/></linearGradient></defs><rect id="ej5q9x3fijyl2" width="480" height="599.874000" rx="0" ry="0" fill="rgb(255,215,172)" stroke="none" stroke-width="1"/><path id="ej5q9x3fijyl3" d="M366,37.992000L388,599.874000L300.615000,599.874000L287,37.992000L366,37.992000Z" fill="rgb(221,117,110)" stroke="none" stroke-width="1"/><path id="ej5q9x3fijyl4" d="M331.017000,292.923000L295.047000,308.657000L291.823000,428.530000L287.783000,599.848000L465,599.848000L465,502.271000L465,428.530000L331.017000,292.923000Z" fill="rgb(28,14,77)" stroke="none" stroke-width="1"/><path id="ej5q9x3fijyl5" d="M298.780000,300.773000C302.046000,301.548000,303.919000,308.029000,303.919000,308.029000L296.263000,315.517000C296.263000,315.517000,290.396000,313.285000,289.790000,310.424000C289.183000,307.562000,289.495000,305.502000,291.681000,303.650000C293.866000,301.798000,295.514000,299.998000,298.780000,300.773000Z" fill="rgb(28,14,76)" stroke="none" stroke-width="1"/><path id="ej5q9x3fijyl6" d="M324.533000,318.807000L331.900000,321.780000L313.041000,328.832000L315.567000,322.583000L324.533000,318.807000Z" fill="rgb(48,29,112)" stroke="none" stroke-width="1"/><path id="ej5q9x3fijyl7" d="M322.717000,291.631000C321.352000,293.994000,324.291000,300.823000,324.291000,300.823000L333.957000,300.298000C333.957000,300.298000,335.513000,293.207000,334.631000,291.631000C333.749000,290.055000,332.816000,288.479000,329.011000,288.216000C325.207000,287.954000,324.083000,289.267000,322.717000,291.631000Z" fill="rgb(28,14,76)" stroke="none" stroke-width="1"/><g id="ej5q9x3fijyl8" opacity="0.2"><ellipse id="ej5q9x3fijyl9" rx="1.568290" ry="2.370480" transform="matrix(1 0 0 1 306.67399999999998 318.99400000000003)" fill="rgb(0,243,243)" stroke="none" stroke-width="1"/><ellipse id="ej5q9x3fijyl10" rx="2.352440" ry="1.580320" transform="matrix(1 0 0 1 327.84500000000003 310.30300000000000)" fill="rgb(0,243,243)" stroke="none" stroke-width="1"/></g><path id="ej5q9x3fijyl11" d="M140.892000,40.991400L91,597.875000L148.123000,597.875000L185,40.991400L140.892000,40.991400Z" fill="rgb(221,117,110)" stroke="none" stroke-width="1"/><path id="ej5q9x3fijyl12" d="M480,597.875000L0,190.008000L0,165.965000L480,563.528000L480,597.875000Z" fill="rgb(255,239,156)" fill-opacity="0.14" stroke="none" stroke-width="1"/><path id="ej5q9x3fijyl13" d="M480,379.265000L0,14.997400L0,2.500000L480,344.928000L480,379.265000Z" fill="rgb(255,239,156)" fill-opacity="0.14" stroke="none" stroke-width="1"/><path id="ej5q9x3fijyl14" d="M82.315800,64.986400L51,599.874000L87.842100,599.874000L121,64.986400L82.315800,64.986400Z" fill="rgb(242,148,108)" stroke="none" stroke-width="1"/><path id="ej5q9x3fijyl15" d="M101.291000,312.664000L50.545500,416.263000L39,600L236.133000,600L177.125000,396.287000L135.415000,313.826000L101.291000,312.664000Z" fill="rgb(28,14,76)" stroke="none" stroke-width="1"/><path id="ej5q9x3fijyl16" d="M116.278000,336.358000L110.514000,341.003000L129.189000,342.165000L125.270000,337.287000L116.278000,336.358000Z" fill="rgb(48,29,112)" stroke="none" stroke-width="1"/><path id="ej5q9x3fijyl17" d="M128.729000,308.252000L126.192000,318.705000L132.879000,323.119000L142.793000,313.595000L137.721000,306.394000L128.729000,308.252000Z" fill="rgb(28,14,76)" stroke="none" stroke-width="1"/><path id="ej5q9x3fijyl18" d="M107.517000,307.322000L110.053000,317.775000L103.366000,322.188000L93.452100,312.665000L98.524500,305.464000L107.517000,307.322000Z" fill="rgb(28,14,76)" stroke="none" stroke-width="1"/><g id="ej5q9x3fijyl19" opacity="0.4"><ellipse id="ej5q9x3fijyl20" rx="1.846460" ry="1.856730" transform="matrix(0.92805700000000 0.37243800000000 -0.36769200000000 0.92994800000000 108.45300000000000 330.39299999999997)" fill="rgb(0,243,243)" stroke="none" stroke-width="1"/><ellipse id="ej5q9x3fijyl21" rx="1.846460" ry="1.856730" transform="matrix(0.92805700000000 0.37243800000000 -0.36769200000000 0.92994800000000 129.17500000000001 330.70800000000003)" fill="rgb(0,243,243)" stroke="none" stroke-width="1"/></g><path id="ej5q9x3fijyl22" d="M390.761000,63.986600L366,599.874000L406.783000,599.874000L433,63.986600L390.761000,63.986600Z" fill="rgb(242,148,108)" stroke="none" stroke-width="1"/><path id="ej5q9x3fijyl23" d="M179.506000,445.513000C177.376000,466.362000,150.212000,570.472000,129.572000,599.874000L337.595000,599.874000C313.627000,528.373000,284,404.706000,284,355.925000C284,332.252000,289.780000,36.509600,292,7.998320L241.770000,7.998350L184,7.998200C182.003000,61.011400,181.637000,424.665000,179.506000,445.513000Z" fill="rgb(138,65,82)" stroke="none" stroke-width="1"/><path id="ej5q9x3fijyl24" d="M204.186000,365.855000C202.639000,366.668000,201.472000,367.624000,200.785000,368.722000C199.386000,370.957000,198.862000,373.564000,198.297000,377.208000C198.221000,377.700000,198.144000,378.209000,198.065000,378.739000C197.553000,382.131000,196.918000,386.339000,195.557000,391.760000C192.410000,404.295000,185.381000,423.304000,167.015000,453.780000C148.673000,484.214000,138.631000,520.190000,134.567000,548.558000C132.535000,562.742000,131.998000,575.016000,132.663000,583.738000C132.995000,588.101000,133.627000,591.563000,134.516000,593.928000C134.961000,595.111000,135.465000,596.007000,136.018000,596.604000C136.569000,597.198000,137.159000,597.489000,137.787000,597.489000L331.563000,597.489000C331.561000,597.470000,331.559000,597.451000,331.557000,597.430000C331.537000,597.246000,331.507000,596.972000,331.465000,596.612000C331.383000,595.893000,331.257000,594.830000,331.084000,593.458000C330.737000,590.714000,330.199000,586.733000,329.437000,581.787000C327.913000,571.894000,325.490000,558.138000,321.896000,542.690000C314.706000,511.787000,302.834000,474.133000,284.104000,447.064000C265.344000,419.952000,257.725000,402.525000,254.134000,390.830000C252.482000,385.451000,251.684000,381.286000,251.046000,377.960000C250.990000,377.670000,250.936000,377.387000,250.883000,377.111000C250.213000,373.642000,249.665000,371.159000,248.364000,369.119000C247.727000,368.121000,246.603000,367.213000,245.090000,366.411000C243.580000,365.611000,241.696000,364.923000,239.557000,364.357000C235.281000,363.224000,230.008000,362.582000,224.718000,362.484000C219.428000,362.385000,214.131000,362.829000,209.807000,363.863000C207.645000,364.380000,205.732000,365.043000,204.186000,365.855000ZM331.782000,597.687000C331.977000,597.666000,331.977000,597.666000,331.977000,597.665000L331.977000,597.662000L331.970000,597.596000C331.965000,597.549000,331.957000,597.479000,331.947000,597.387000C331.927000,597.202000,331.897000,596.927000,331.856000,596.567000C331.773000,595.846000,331.647000,594.782000,331.473000,593.408000C331.126000,590.661000,330.588000,586.677000,329.825000,581.726000C328.300000,571.825000,325.875000,558.060000,322.278000,542.599000C315.086000,511.685000,303.200000,473.971000,284.426000,446.838000C265.683000,419.749000,258.085000,402.360000,254.509000,390.713000C252.864000,385.355000,252.069000,381.209000,251.431000,377.884000C251.376000,377.595000,251.322000,377.312000,251.268000,377.035000C250.601000,373.580000,250.043000,371.019000,248.694000,368.905000C248.006000,367.826000,246.816000,366.879000,245.273000,366.061000C243.728000,365.242000,241.814000,364.545000,239.657000,363.974000C235.343000,362.832000,230.038000,362.187000,224.725000,362.088000C219.412000,361.989000,214.081000,362.435000,209.717000,363.478000C207.534000,364,205.588000,364.672000,204.005000,365.504000C202.423000,366.336000,201.190000,367.333000,200.453000,368.511000C199.005000,370.825000,198.474000,373.509000,197.909000,377.147000C197.833000,377.640000,197.756000,378.151000,197.676000,378.681000C197.165000,382.072000,196.533000,386.262000,195.176000,391.663000C192.041000,404.151000,185.031000,423.123000,166.679000,453.574000C148.303000,484.067000,138.248000,520.096000,134.178000,548.501000C132.143000,562.704000,131.603000,575.008000,132.271000,583.768000C132.605000,588.146000,133.241000,591.651000,134.149000,594.068000C134.603000,595.276000,135.130000,596.224000,135.731000,596.874000C136.335000,597.526000,137.023000,597.885000,137.787000,597.885000L332,597.885000L331.977000,597.666000L331.782000,597.687000Z" clip-rule="evenodd" fill="rgb(0,0,0)" fill-rule="evenodd" stroke="none" stroke-width="1"/><path id="ej5q9x3fijyl25" d="M243.761000,354.602000C241.160000,354.190000,236.054000,358.708000,236.602000,363.394000C237.306000,364.080000,239.381000,365.927000,242.051000,367.826000C244.721000,369.726000,247.980000,369.871000,249.276000,369.706000C251.995000,369.074000,255.008000,362.921000,253.712000,360.661000C251.941000,357.572000,247.013000,355.118000,243.761000,354.602000Z" fill="rgb(181,122,41)" stroke="none" stroke-width="1"/><path id="ej5q9x3fijyl26" d="M243.801000,358.725000C241.916000,359.042000,239.416000,362.352000,239.285000,363.868000C240.699000,363.868000,245.765000,366.638000,248.121000,368.023000C248.841000,367.297000,249.967000,365.688000,250.281000,363.473000C250.674000,360.703000,246.157000,358.330000,243.801000,358.725000Z" fill="rgb(251,171,126)" stroke="none" stroke-width="1"/><path id="ej5q9x3fijyl27" d="M207.244000,353.005000C210.495000,352.488000,214.908000,358.195000,214.358000,362.883000C213.655000,363.570000,211.620000,364.333000,208.950000,366.234000C206.281000,368.135000,203.023000,368.281000,201.728000,368.116000C199.010000,367.485000,196,361.331000,197.296000,359.069000C199.067000,355.979000,203.994000,353.522000,207.244000,353.005000Z" fill="rgb(181,122,41)" stroke="none" stroke-width="1"/><path id="ej5q9x3fijyl28" d="M208.458000,357.934000C210.343000,358.251000,211.469000,362.154000,211.600000,363.671000C210.186000,363.671000,205.928000,365.099000,203.571000,366.484000C202.851000,365.758000,202.489000,363.315000,202.175000,361.099000C201.782000,358.330000,206.102000,357.538000,208.458000,357.934000Z" fill="rgb(251,171,126)" stroke="none" stroke-width="1"/><path id="ej5q9x3fijyl29" d="M200.620000,368.616000C194.926000,377.716000,203.565000,392.750000,166.848000,453.677000C130.130000,514.604000,126.654000,597.687000,137.788000,597.687000L331.783000,597.687000C331.783000,597.687000,321.769000,501.153000,284.266000,446.951000C246.763000,392.750000,253.831000,377.320000,248.530000,369.012000C243.228000,360.704000,206.314000,359.517000,200.620000,368.616000Z" fill="url(#ej5q9x3fijyl29-fill)" stroke="none" stroke-width="1"/><path id="ej5q9x3fijyl30" d="M230.979000,443.259000C229.540000,443.714000,228.321000,444.010000,229.402000,441.226000C229.664000,440.548000,230.900000,438.639000,233.741000,436.421000C236.581000,434.203000,239.920000,433.525000,241.235000,433.464000C245.787000,432.547000,246.697000,436.421000,241.235000,435.756000C238.307000,435.400000,242.692000,437.541000,240.325000,439.425000C237.958000,441.308000,236.684000,438.508000,234.408000,439.932000C232.089000,441.384000,234.408000,442.176000,230.979000,443.259000Z" fill="rgb(251,171,46)" stroke="none" stroke-width="1"/><path id="ej5q9x3fijyl31" d="M221.664000,444.468000C222.575000,447.678000,224.552000,446.303000,223.485000,443.551000C223.222000,442.874000,221.452000,439.494000,218.691000,437.338000C215.851000,435.120000,213.897000,434.373000,212.106000,433.922000C208.465000,433.005000,210.650000,435.831000,214.382000,436.673000C215.776000,436.988000,213.017000,438.966000,214.837000,440.800000C217.113000,443.093000,218.337000,440.753000,219.844000,441.259000C221.209000,441.717000,221.146000,442.642000,221.664000,444.468000Z" fill="rgb(251,171,46)" stroke="none" stroke-width="1"/><path id="ej5q9x3fijyl32" d="M294.934000,491.031000C291.658000,492.014000,287.142000,491.354000,282.418000,489.668000L282.549000,489.295000C287.249000,490.972000,291.668000,491.598000,294.822000,490.652000C296.393000,490.181000,297.645000,489.322000,298.471000,488.012000C299.298000,486.700000,299.712000,484.915000,299.566000,482.570000L299.958000,482.546000C300.107000,484.948000,299.687000,486.823000,298.802000,488.224000C297.916000,489.629000,296.579000,490.538000,294.934000,491.031000Z" clip-rule="evenodd" fill="rgb(0,0,0)" fill-rule="evenodd" stroke="none" stroke-width="1"/><path id="ej5q9x3fijyl33" d="M168.625000,493.285000C171.716000,492.876000,175.085000,491.641000,178.352000,489.651000L178.148000,489.312000C174.921000,491.279000,171.603000,492.492000,168.574000,492.893000C165.544000,493.294000,162.816000,492.880000,160.753000,491.612000C158.697000,490.349000,157.277000,488.222000,156.879000,485.144000C156.479000,482.059000,157.106000,478.016000,159.160000,472.940000L158.797000,472.790000C156.728000,477.902000,156.078000,482.018000,156.489000,485.196000C156.902000,488.380000,158.380000,490.618000,160.549000,491.950000C162.711000,493.279000,165.536000,493.694000,168.625000,493.285000Z" clip-rule="evenodd" fill="rgb(0,0,0)" fill-rule="evenodd" stroke="none" stroke-width="1"/><path id="ej5q9x3fijyl34" d="M214.349000,399.475000C215.316000,397.497000,216.020000,395.915000,217.883000,395.915000C220.435000,395.915000,221.432000,393.739000,223.395000,395.123000C225.359000,396.508000,227.486000,396.209000,228.486000,394.530000C230.253000,391.563000,233.591000,392.156000,234.376000,394.530000C235.162000,396.903000,237.657000,394.965000,239.693000,398.684000C241.641000,402.245000,240.071000,404.420000,237.125000,404.420000C234.180000,404.420000,232.933000,403.573000,230.253000,405.607000C227.126000,407.981000,225.752000,406.596000,223.395000,405.607000C221.039000,404.618000,219.129000,403.878000,216.705000,404.420000C214.938000,404.816000,211.600000,403.685000,211.600000,402.245000C211.600000,400.805000,213.116000,401.997000,214.349000,399.475000Z" fill="url(#ej5q9x3fijyl34-fill)" stroke="none" stroke-width="1"/><path id="ej5q9x3fijyl35" d="M231.824000,392.132000C233.131000,392.216000,234.304000,393.059000,234.749000,394.405000C234.916000,394.908000,235.156000,395.151000,235.443000,395.311000C235.701000,395.456000,235.996000,395.536000,236.372000,395.638000C236.467000,395.664000,236.566000,395.691000,236.672000,395.721000C237.176000,395.864000,237.754000,396.060000,238.340000,396.476000C238.928000,396.894000,239.503000,397.519000,240.037000,398.493000C241.042000,400.329000,241.197000,401.915000,240.592000,403.072000C239.983000,404.237000,238.684000,404.816000,237.125000,404.816000C236.379000,404.816000,235.740000,404.763000,235.173000,404.716000L235.154000,404.714000C234.576000,404.666000,234.085000,404.626000,233.606000,404.646000C232.681000,404.685000,231.774000,404.948000,230.489000,405.923000C228.869000,407.153000,227.637000,407.455000,226.471000,407.259000C225.905000,407.164000,225.378000,406.955000,224.860000,406.719000C224.659000,406.628000,224.465000,406.535000,224.269000,406.441000C223.942000,406.285000,223.611000,406.127000,223.245000,405.973000C220.883000,404.981000,219.080000,404.294000,216.790000,404.807000C215.805000,405.027000,214.446000,404.820000,213.347000,404.390000C212.793000,404.172000,212.275000,403.887000,211.889000,403.545000C211.508000,403.206000,211.207000,402.766000,211.207000,402.245000C211.207000,401.806000,211.328000,401.478000,211.611000,401.250000C211.735000,401.150000,211.873000,401.084000,211.998000,401.034000C212.074000,401.003000,212.165000,400.970000,212.251000,400.940000C212.295000,400.924000,212.338000,400.909000,212.377000,400.895000C212.624000,400.803000,212.881000,400.690000,213.147000,400.466000C213.414000,400.242000,213.708000,399.890000,213.996000,399.301000C214.032000,399.228000,214.067000,399.155000,214.103000,399.083000C214.537000,398.191000,214.953000,397.337000,215.478000,396.700000C216.067000,395.985000,216.813000,395.519000,217.883000,395.519000C218.861000,395.519000,219.573000,395.177000,220.282000,394.836000C220.420000,394.770000,220.558000,394.703000,220.698000,394.639000C221.116000,394.449000,221.564000,394.279000,222.056000,394.267000C222.562000,394.256000,223.073000,394.413000,223.621000,394.799000C224.538000,395.446000,225.466000,395.680000,226.254000,395.583000C227.036000,395.486000,227.711000,395.061000,228.149000,394.326000C229.099000,392.731000,230.507000,392.047000,231.824000,392.132000ZM231.774000,392.922000C230.784000,392.858000,229.640000,393.361000,228.823000,394.733000C228.260000,395.678000,227.372000,396.242000,226.350000,396.368000C225.334000,396.494000,224.216000,396.185000,223.170000,395.448000C222.737000,395.142000,222.387000,395.051000,222.074000,395.058000C221.747000,395.066000,221.418000,395.180000,221.022000,395.360000C220.904000,395.414000,220.781000,395.474000,220.652000,395.536000C219.941000,395.881000,219.054000,396.310000,217.883000,396.310000C217.090000,396.310000,216.553000,396.635000,216.082000,397.206000C215.620000,397.766000,215.244000,398.537000,214.793000,399.461000C214.763000,399.524000,214.732000,399.586000,214.701000,399.650000C214.373000,400.322000,214.015000,400.767000,213.651000,401.073000C213.286000,401.380000,212.933000,401.532000,212.647000,401.637000C212.587000,401.660000,212.535000,401.678000,212.487000,401.695000C212.415000,401.721000,212.354000,401.742000,212.291000,401.768000C212.194000,401.807000,212.138000,401.839000,212.101000,401.868000C212.061000,401.901000,211.992000,401.963000,211.992000,402.245000C211.992000,402.443000,212.109000,402.685000,212.409000,402.951000C212.703000,403.213000,213.131000,403.456000,213.632000,403.652000C214.644000,404.048000,215.837000,404.209000,216.620000,404.034000C219.179000,403.462000,221.195000,404.255000,223.547000,405.242000C223.926000,405.402000,224.294000,405.577000,224.636000,405.740000C224.827000,405.832000,225.010000,405.919000,225.183000,405.998000C225.683000,406.226000,226.136000,406.400000,226.600000,406.478000C227.492000,406.628000,228.510000,406.435000,230.017000,405.291000C231.412000,404.233000,232.468000,403.902000,233.573000,403.856000C234.109000,403.833000,234.650000,403.878000,235.218000,403.926000L235.229000,403.926000C235.800000,403.974000,236.412000,404.025000,237.125000,404.025000C238.512000,404.025000,239.472000,403.516000,239.897000,402.703000C240.326000,401.882000,240.293000,400.600000,239.349000,398.875000C238.864000,397.990000,238.364000,397.462000,237.887000,397.123000C237.409000,396.783000,236.932000,396.617000,236.459000,396.483000C236.378000,396.460000,236.294000,396.437000,236.209000,396.414000C235.824000,396.310000,235.413000,396.199000,235.062000,396.003000C234.596000,395.743000,234.230000,395.338000,234.004000,394.655000C233.664000,393.627000,232.775000,392.986000,231.774000,392.922000Z" clip-rule="evenodd" fill="rgb(255,209,45)" fill-rule="evenodd" stroke="none" stroke-width="1"/><path id="ej5q9x3fijyl36" d="M236.356000,386.024000L215.543000,386.024000L222.510000,394.447000C224.023000,396.276000,226.786000,396.354000,228.398000,394.614000L236.356000,386.024000Z" fill="rgb(0,0,0)" stroke="none" stroke-width="1"/><path id="ej5q9x3fijyl37" d="M215.346000,385.826000C216.851000,381.936000,219.076000,372.770000,225.163000,372.770000C232.232000,372.770000,235.112000,381.540000,236.159000,385.826000L215.346000,385.826000Z" fill="rgb(198,135,49)" stroke="none" stroke-width="1"/><path id="ej5q9x3fijyl38" d="M216.312000,374.551000C216.312000,376.080000,215.082000,377.320000,213.563000,377.320000C212.045000,377.320000,210.814000,376.080000,210.814000,374.551000C210.814000,373.021000,212.045000,371.781000,213.563000,371.781000C215.082000,371.781000,216.312000,373.021000,216.312000,374.551000Z" fill="rgb(0,0,0)" stroke="none" stroke-width="1"/><path id="ej5q9x3fijyl39" d="M215.528000,373.759000C215.528000,374.197000,215.176000,374.551000,214.742000,374.551000C214.309000,374.551000,213.957000,374.197000,213.957000,373.759000C213.957000,373.322000,214.309000,372.968000,214.742000,372.968000C215.176000,372.968000,215.528000,373.322000,215.528000,373.759000Z" fill="rgb(255,255,255)" stroke="none" stroke-width="1"/><path id="ej5q9x3fijyl40" d="M240.661000,374.551000C240.661000,376.080000,239.430000,377.320000,237.912000,377.320000C236.394000,377.320000,235.163000,376.080000,235.163000,374.551000C235.163000,373.021000,236.394000,371.781000,237.912000,371.781000C239.430000,371.781000,240.661000,373.021000,240.661000,374.551000Z" fill="rgb(0,0,0)" stroke="none" stroke-width="1"/><path id="ej5q9x3fijyl41" d="M239.483000,373.759000C239.483000,374.197000,239.131000,374.551000,238.698000,374.551000C238.264000,374.551000,237.912000,374.197000,237.912000,373.759000C237.912000,373.322000,238.264000,372.968000,238.698000,372.968000C239.131000,372.968000,239.483000,373.322000,239.483000,373.759000Z" fill="rgb(255,255,255)" stroke="none" stroke-width="1"/><path id="ej5q9x3fijyl42" d="M222.494000,401.308000C220.475000,402.213000,217.867000,402.208000,215.469000,401.242000L215.615000,400.874000C217.929000,401.807000,220.426000,401.802000,222.334000,400.946000C224.233000,400.095000,225.556000,398.401000,225.556000,395.915000L225.948000,395.915000C225.948000,398.404000,227.224000,400.018000,228.976000,400.829000C230.738000,401.645000,232.989000,401.647000,234.908000,400.874000L235.053000,401.242000C233.045000,402.051000,230.682000,402.054000,228.812000,401.188000C227.348000,400.511000,226.191000,399.302000,225.749000,397.549000C225.291000,399.332000,224.075000,400.599000,222.494000,401.308000Z" clip-rule="evenodd" fill="rgb(0,0,0)" fill-rule="evenodd" stroke="none" stroke-width="1"/><path id="ej5q9x3fijyl43" d="M202.458000,354.835000C204.391000,353.957000,206.472000,353.416000,208.086000,353.313000C208.683000,353.275000,209.425000,353.530000,210.200000,354.034000C210.970000,354.536000,211.753000,355.270000,212.427000,356.155000C213.778000,357.928000,214.667000,360.268000,214.194000,362.499000L214.578000,362.582000C215.084000,360.197000,214.131000,357.740000,212.738000,355.913000C212.040000,354.997000,211.225000,354.231000,210.413000,353.702000C209.605000,353.176000,208.778000,352.872000,208.062000,352.918000C206.392000,353.025000,204.265000,353.580000,202.297000,354.474000C200.333000,355.367000,198.502000,356.609000,197.449000,358.105000C197.035000,358.692000,196.908000,359.547000,196.967000,360.479000C197.027000,361.417000,197.278000,362.465000,197.659000,363.469000C198.040000,364.473000,198.553000,365.441000,199.144000,366.217000C199.731000,366.989000,200.409000,367.591000,201.125000,367.830000L201.248000,367.454000C200.640000,367.252000,200.021000,366.721000,199.455000,365.976000C198.892000,365.236000,198.396000,364.303000,198.026000,363.328000C197.656000,362.352000,197.415000,361.344000,197.359000,360.453000C197.302000,359.557000,197.432000,358.812000,197.769000,358.334000C198.764000,356.920000,200.523000,355.714000,202.458000,354.835000Z" clip-rule="evenodd" fill="rgb(0,0,0)" fill-rule="evenodd" stroke="none" stroke-width="1"/><path id="ej5q9x3fijyl44" d="M209.016000,481.959000C200.065000,479.803000,188.540000,483.523000,174.802000,491.827000L174.600000,491.488000C188.351000,483.176000,199.995000,479.379000,209.108000,481.575000C218.248000,483.776000,224.759000,491.980000,228.300000,507.438000C231.140000,519.840000,227.916000,535.249000,222.756000,549.448000C217.794000,563.098000,211.032000,575.661000,206.091000,583.419000C211.132000,579.732000,215.435000,578.247000,218.873000,578.128000C222.512000,578.002000,225.176000,579.410000,226.692000,581.343000C227.458000,582.322000,227.973000,583.656000,228.284000,585.139000C228.596000,586.624000,228.706000,588.271000,228.656000,589.889000C228.605000,591.507000,228.393000,593.101000,228.056000,594.480000C227.721000,595.855000,227.258000,597.032000,226.696000,597.804000L226.379000,597.570000C226.897000,596.858000,227.345000,595.739000,227.675000,594.386000C228.004000,593.036000,228.213000,591.470000,228.263000,589.876000C228.313000,588.283000,228.204000,586.668000,227.900000,585.221000C227.596000,583.771000,227.099000,582.502000,226.383000,581.589000C224.953000,579.764000,222.414000,578.402000,218.886000,578.523000C215.356000,578.645000,210.829000,580.255000,205.451000,584.393000L205.167000,584.127000C210.134000,576.489000,217.235000,563.486000,222.387000,549.312000C227.541000,535.131000,230.731000,519.813000,227.917000,507.527000C224.389000,492.127000,217.941000,484.109000,209.016000,481.959000Z" clip-rule="evenodd" fill="rgb(0,0,0)" fill-rule="evenodd" stroke="none" stroke-width="1"/><path id="ej5q9x3fijyl45" d="M251.384000,481.959000C260.335000,479.803000,271.860000,483.523000,285.599000,491.827000L285.801000,491.488000C272.050000,483.176000,260.405000,479.379000,251.293000,481.575000C242.153000,483.776000,235.642000,491.980000,232.101000,507.438000C229.260000,519.840000,232.484000,535.249000,237.645000,549.448000C242.650000,563.219000,249.489000,575.885000,254.441000,583.625000C250.467000,581.280000,246.154000,579.653000,242.213000,578.996000C238.037000,578.300000,234.242000,578.689000,231.726000,580.514000C230.704000,581.255000,230.005000,582.537000,229.536000,584.054000C229.065000,585.576000,228.817000,587.360000,228.715000,589.138000C228.513000,592.690000,228.895000,596.262000,229.295000,597.739000L229.674000,597.635000C229.288000,596.211000,228.907000,592.685000,229.108000,589.161000C229.208000,587.400000,229.453000,585.651000,229.911000,584.172000C230.370000,582.689000,231.035000,581.503000,231.955000,580.835000C234.347000,579.100000,238.014000,578.697000,242.149000,579.386000C246.276000,580.074000,250.832000,581.844000,254.966000,584.404000L255.233000,584.127000C250.266000,576.489000,243.165000,563.486000,238.014000,549.312000C232.859000,535.131000,229.669000,519.813000,232.483000,507.527000C236.011000,492.127000,242.459000,484.109000,251.384000,481.959000Z" clip-rule="evenodd" fill="rgb(0,0,0)" fill-rule="evenodd" stroke="none" stroke-width="1"/><path id="ej5q9x3fijyl46" d="M192.254000,442.811000C186.066000,448.531000,180.322000,455.645000,177.222000,460.510000L176.892000,460.296000C180.010000,455.402000,185.776000,448.262000,191.988000,442.520000C195.094000,439.649000,198.317000,437.121000,201.382000,435.398000C204.441000,433.679000,207.369000,432.746000,209.875000,433.106000C217.523000,434.207000,222.484000,439.563000,224.565000,446.100000C226.643000,452.631000,225.853000,460.359000,221.989000,466.249000C215.840000,475.620000,208.765000,479.758000,206.576000,480.760000L206.414000,480.400000C208.545000,479.424000,215.558000,475.332000,221.661000,466.030000C225.455000,460.249000,226.236000,452.646000,224.191000,446.221000C222.147000,439.800000,217.291000,434.573000,209.820000,433.498000C207.442000,433.156000,204.606000,434.039000,201.573000,435.744000C198.545000,437.446000,195.347000,439.952000,192.254000,442.811000Z" clip-rule="evenodd" fill="rgb(0,0,0)" fill-rule="evenodd" stroke="none" stroke-width="1"/><path id="ej5q9x3fijyl47" d="M259.378000,442.811000C265.566000,448.531000,271.310000,455.645000,274.410000,460.510000L274.740000,460.296000C271.622000,455.402000,265.855000,448.262000,259.644000,442.520000C256.538000,439.649000,253.315000,437.121000,250.250000,435.398000C247.191000,433.679000,244.262000,432.746000,241.757000,433.106000C234.109000,434.207000,229.147000,439.563000,227.067000,446.100000C224.989000,452.631000,225.779000,460.359000,229.643000,466.249000C232.719000,470.937000,236.478000,474.710000,239.737000,477.434000C242.993000,480.155000,245.760000,481.838000,246.861000,482.343000L247.024000,481.983000C245.965000,481.498000,243.228000,479.838000,239.987000,477.129000C236.750000,474.423000,233.020000,470.679000,229.971000,466.030000C226.177000,460.249000,225.396000,452.646000,227.441000,446.221000C229.484000,439.800000,234.341000,434.573000,241.812000,433.498000C244.190000,433.156000,247.026000,434.039000,250.059000,435.744000C253.087000,437.446000,256.285000,439.952000,259.378000,442.811000Z" clip-rule="evenodd" fill="rgb(0,0,0)" fill-rule="evenodd" stroke="none" stroke-width="1"/><path id="ej5q9x3fijyl48" d="M230.866000,411.543000L221.695000,411.543000C220.592000,411.543000,219.570000,412.125000,219.002000,413.077000L213.198000,422.806000C212.644000,423.734000,212.600000,424.883000,213.080000,425.852000L218.068000,435.904000C218.600000,436.977000,219.688000,437.654000,220.878000,437.654000L230.825000,437.654000C231.984000,437.654000,233.049000,437.011000,233.595000,435.982000L238.987000,425.824000C239.492000,424.872000,239.481000,423.727000,238.958000,422.785000L233.607000,413.161000C233.052000,412.162000,232.003000,411.543000,230.866000,411.543000Z" fill="url(#ej5q9x3fijyl48-fill)" stroke="none" stroke-width="1"/><path id="ej5q9x3fijyl49" d="M218.833000,412.975000C219.436000,411.963000,220.522000,411.344000,221.694000,411.344000L230.866000,411.344000C232.074000,411.344000,233.187000,412.002000,233.778000,413.064000L239.128000,422.688000C239.685000,423.688000,239.696000,424.906000,239.159000,425.917000L233.768000,436.075000C233.187000,437.169000,232.056000,437.852000,230.824000,437.852000L220.877000,437.852000C219.612000,437.852000,218.456000,437.132000,217.891000,435.992000L212.904000,425.940000C212.393000,424.911000,212.440000,423.690000,213.029000,422.704000L218.833000,412.975000ZM221.694000,411.740000C220.660000,411.740000,219.702000,412.286000,219.169000,413.179000L213.365000,422.908000C212.846000,423.778000,212.805000,424.855000,213.255000,425.763000L218.242000,435.815000C218.741000,436.821000,219.761000,437.456000,220.877000,437.456000L230.824000,437.456000C231.911000,437.456000,232.909000,436.853000,233.421000,435.888000L238.813000,425.730000C239.287000,424.838000,239.276000,423.764000,238.786000,422.881000L233.435000,413.257000C232.914000,412.320000,231.931000,411.740000,230.866000,411.740000L221.694000,411.740000Z" clip-rule="evenodd" fill="rgb(255,255,255)" fill-rule="evenodd" stroke="none" stroke-width="1"/><path id="ej5q9x3fijyl50" d="M228.890000,415.735000L223.571000,419.843000C223.394000,419.980000,223.203000,420.097000,223.001000,420.193000L217.190000,422.955000C215.592000,423.715000,214.930000,425.654000,215.727000,427.244000L219.081000,433.938000C219.616000,435.004000,220.700000,435.676000,221.886000,435.676000L229.883000,435.676000C231.038000,435.676000,232.099000,435.039000,232.648000,434.016000L237.009000,425.882000C237.523000,424.924000,237.511000,423.767000,236.979000,422.819000L233.536000,416.688000C232.596000,415.015000,230.405000,414.565000,228.890000,415.735000Z" fill="url(#ej5q9x3fijyl50-fill)" stroke="none" stroke-width="1"/><path id="ej5q9x3fijyl51" d="M233.023000,416.980000C232.259000,415.621000,230.478000,415.256000,229.248000,416.206000L223.929000,420.314000C223.718000,420.476000,223.491000,420.616000,223.251000,420.730000L217.441000,423.492000C216.142000,424.109000,215.604000,425.685000,216.252000,426.977000L219.606000,433.670000C220.041000,434.537000,220.922000,435.083000,221.885000,435.083000L229.883000,435.083000C230.821000,435.083000,231.683000,434.565000,232.129000,433.733000L236.490000,425.600000C236.907000,424.822000,236.898000,423.882000,236.466000,423.111000L233.023000,416.980000ZM228.531000,415.264000C230.330000,413.875000,232.932000,414.409000,234.048000,416.396000L237.491000,422.527000C238.123000,423.652000,238.137000,425.026000,237.526000,426.164000L233.165000,434.298000C232.514000,435.513000,231.253000,436.270000,229.883000,436.270000L221.885000,436.270000C220.477000,436.270000,219.189000,435.471000,218.555000,434.205000L215.200000,427.512000C214.254000,425.624000,215.040000,423.321000,216.938000,422.418000L222.749000,419.657000C222.913000,419.579000,223.068000,419.483000,223.212000,419.372000L228.531000,415.264000Z" clip-rule="evenodd" fill="url(#ej5q9x3fijyl51-fill)" fill-rule="evenodd" stroke="none" stroke-width="1"/><path id="ej5q9x3fijyl52" d="M233.318000,436.467000L215.058000,419.850000L216.825000,416.685000L235.478000,432.511000L233.318000,436.467000Z" fill="rgb(249,246,241)" fill-opacity="0.4" stroke="none" stroke-width="1"/><path id="ej5q9x3fijyl53" d="M236.264000,430.929000L217.610000,415.499000L218.003000,414.708000L236.656000,430.137000L236.264000,430.929000Z" fill="rgb(249,246,241)" fill-opacity="0.4" stroke="none" stroke-width="1"/><path id="ej5q9x3fijyl54" d="M239.209000,424.203000L223.894000,411.543000L232.533000,411.938000L239.209000,423.214000L239.209000,424.203000Z" fill="rgb(249,246,241)" fill-opacity="0.4" stroke="none" stroke-width="1"/><path id="ej5q9x3fijyl55" d="M253.052000,437.705000L250.893000,429.595000L251.272000,429.492000L253.432000,437.603000L253.052000,437.705000Z" clip-rule="evenodd" fill="rgb(0,0,0)" fill-rule="evenodd" stroke="none" stroke-width="1"/><path id="ej5q9x3fijyl56" d="M197.276000,438.496000L199.436000,430.386000L199.056000,430.283000L196.896000,438.394000L197.276000,438.496000Z" clip-rule="evenodd" fill="rgb(0,0,0)" fill-rule="evenodd" stroke="none" stroke-width="1"/><path id="ej5q9x3fijyl57" d="M249.192000,356.845000C247.349000,355.789000,245.327000,355.055000,243.730000,354.801000C243.139000,354.707000,242.377000,354.892000,241.559000,355.321000C240.746000,355.748000,239.899000,356.406000,239.146000,357.223000C237.637000,358.863000,236.536000,361.109000,236.801000,363.375000L236.412000,363.422000C236.127000,360.999000,237.303000,358.643000,238.858000,356.954000C239.638000,356.108000,240.520000,355.420000,241.377000,354.970000C242.231000,354.522000,243.082000,354.297000,243.791000,354.410000C245.443000,354.673000,247.510000,355.426000,249.386000,356.500000C251.259000,357.574000,252.968000,358.982000,253.878000,360.570000C254.235000,361.194000,254.284000,362.057000,254.139000,362.979000C253.992000,363.908000,253.645000,364.928000,253.174000,365.892000C252.702000,366.856000,252.101000,367.772000,251.442000,368.489000C250.786000,369.203000,250.056000,369.739000,249.321000,369.909000L249.233000,369.523000C249.857000,369.379000,250.522000,368.908000,251.154000,368.220000C251.783000,367.535000,252.363000,366.653000,252.822000,365.717000C253.280000,364.780000,253.612000,363.798000,253.751000,362.917000C253.891000,362.030000,253.829000,361.276000,253.538000,360.768000C252.678000,359.267000,251.038000,357.902000,249.192000,356.845000Z" clip-rule="evenodd" fill="rgb(0,0,0)" fill-rule="evenodd" stroke="none" stroke-width="1"/><path id="ej5q9x3fijyl58" d="M54.228600,480.099000L86.914300,599.874000L0,599.874000L0,381.285000L0,193.388000L0,1L98.800000,1L104,60.887400L54.228600,111.792000L54.228600,480.099000Z" fill="url(#ej5q9x3fijyl58-fill)" stroke="none" stroke-width="1"/><path id="ej5q9x3fijyl59" d="M417.494000,344.062000L351.560000,599.874000L480,599.874000L480,384.204000L480,198.817000L480,8.998110L320,18.599800L349.358000,73.994500L432.294000,90.243600L417.494000,344.062000Z" fill="url(#ej5q9x3fijyl59-fill)" stroke="none" stroke-width="1"/><path id="ej5q9x3fijyl60" d="M480,487.990000L0,99.036200L0,50.989300L480,409.914000L480,487.990000Z" fill="rgb(255,239,156)" fill-opacity="0.14" stroke="none" stroke-width="1"/><path id="ej5q9x3fijyl61" d="M480,290.940000L88,8.248900L111.802000,3L480,257.947000L480,290.940000Z" fill="rgb(255,239,156)" fill-opacity="0.14" stroke="none" stroke-width="1"/><path id="ej5q9x3fijyl62" d="M480,128.474000L233,3L255.320000,3L480,95.480600L480,128.474000Z" fill="rgb(255,239,156)" fill-opacity="0.14" stroke="none" stroke-width="1"/><path id="ej5q9x3fijyl63" d="M330,599.874000L0,231.113000L0,159.966000L480,564.881000L480,599.874000L330,599.874000Z" fill="rgb(255,239,156)" fill-opacity="0.14" stroke="none" stroke-width="1"/><path id="ej5q9x3fijyl64" d="M337.161000,74.984300C415.005000,74.984300,459.594000,42.083000,480,22.954400L480,0L152,0C190.040000,25.249800,259.318000,74.984300,337.161000,74.984300Z" fill="rgb(67,96,108)" stroke="none" stroke-width="1"/><path id="ej5q9x3fijyl65" d="M133.174000,68.418600C64.844000,71.909300,22.312000,58.644500,0,46.077800L0,0L304,0C268.905000,23.038900,201.505000,64.927800,133.174000,68.418600Z" fill="rgb(67,96,108)" stroke="none" stroke-width="1"/></svg>