<svg id="ezgcnt0p5vb1" xmlns="http://www.w3.org/2000/svg" xmlns:xlink="http://www.w3.org/1999/xlink" viewBox="0 0 280 400" shape-rendering="geometricPrecision" text-rendering="geometricPrecision"><style><![CDATA[#ezgcnt0p5vb8 {animation: ezgcnt0p5vb8_c_o 3000ms linear infinite normal forwards}@keyframes ezgcnt0p5vb8_c_o { 0% {opacity: 0.200000;animation-timing-function: cubic-bezier(0.420000,0,0.580000,1)} 66.666667% {opacity: 1;animation-timing-function: cubic-bezier(0.420000,0,0.580000,1)} 100% {opacity: 0.200000} }#ezgcnt0p5vb12 {animation: ezgcnt0p5vb12_c_o 3000ms linear infinite normal forwards}@keyframes ezgcnt0p5vb12_c_o { 0% {opacity: 1;animation-timing-function: cubic-bezier(0.420000,0,0.580000,1)} 66.666667% {opacity: 0.200000;animation-timing-function: cubic-bezier(0.420000,0,0.580000,1)} 100% {opacity: 1} }#ezgcnt0p5vb13 {animation: ezgcnt0p5vb13_c_o 3000ms linear infinite normal forwards}@keyframes ezgcnt0p5vb13_c_o { 0% {opacity: 1;animation-timing-function: cubic-bezier(0.420000,0,0.580000,1)} 33.333333% {opacity: 0.200000;animation-timing-function: cubic-bezier(0.420000,0,0.580000,1)} 100% {opacity: 1} }#ezgcnt0p5vb19 {animation: ezgcnt0p5vb19_c_o 3000ms linear infinite normal forwards}@keyframes ezgcnt0p5vb19_c_o { 0% {opacity: 0.200000;animation-timing-function: cubic-bezier(0.420000,0,0.580000,1)} 33.333333% {opacity: 1;animation-timing-function: cubic-bezier(0.420000,0,0.580000,1)} 100% {opacity: 0.200000} }#ezgcnt0p5vb61 {
           animation-name: ezgcnt0p5vb61__m, ezgcnt0p5vb61_c_o;
           animation-duration: 3000ms;
           animation-fill-mode: forwards;
           animation-timing-function: linear;
           animation-direction: normal;
           animation-iteration-count: infinite;  
        }@keyframes ezgcnt0p5vb61__m { 0% {d: path('M279.425000,313.608000L0.495605,64.919000L0.495605,32.958900L279.425000,261.673000C279.425000,261.673000,279.425000,313.608000,279.425000,313.608000Z');animation-timing-function: cubic-bezier(0.420000,0,0.580000,1)} 33.333333% {d: path('M279.425000,313.608000L0.495605,60.919000L0.495605,37.958900L279.425000,261.673000C279.425000,261.673000,279.425000,313.608000,279.425000,313.608000Z');animation-timing-function: cubic-bezier(0.420000,0,0.580000,1)} 100% {d: path('M279.425000,313.608000L0.495605,64.919000L0.495605,32.958900L279.425000,261.673000C279.425000,261.673000,279.425000,313.608000,279.425000,313.608000Z')} }@keyframes ezgcnt0p5vb61_c_o { 0% {opacity: 1;animation-timing-function: cubic-bezier(0.420000,0,0.580000,1)} 33.333333% {opacity: 0.400000;animation-timing-function: cubic-bezier(0.420000,0,0.580000,1)} 100% {opacity: 1} }#ezgcnt0p5vb62 {animation: ezgcnt0p5vb62_c_o 3000ms linear infinite normal forwards}@keyframes ezgcnt0p5vb62_c_o { 0% {opacity: 1;animation-timing-function: cubic-bezier(0.420000,0,0.580000,1)} 66.666667% {opacity: 0.400000;animation-timing-function: cubic-bezier(0.420000,0,0.580000,1)} 100% {opacity: 1} }#ezgcnt0p5vb63 {animation: ezgcnt0p5vb63_c_o 3000ms linear infinite normal forwards}@keyframes ezgcnt0p5vb63_c_o { 0% {opacity: 1;animation-timing-function: cubic-bezier(0.420000,0,0.580000,1)} 50% {opacity: 0.400000;animation-timing-function: cubic-bezier(0.420000,0,0.580000,1)} 100% {opacity: 1} }#ezgcnt0p5vb64 {
           animation-name: ezgcnt0p5vb64__m, ezgcnt0p5vb64_c_o;
           animation-duration: 3000ms;
           animation-fill-mode: forwards;
           animation-timing-function: linear;
           animation-direction: normal;
           animation-iteration-count: infinite;  
        }@keyframes ezgcnt0p5vb64__m { 0% {d: path('M213.037000,400L0.495605,180.774000L0.495605,133.333000C0.495605,133.333000,279.921000,385.019000,279.921000,385.019000L279.921000,400L213.037000,400Z');animation-timing-function: cubic-bezier(0.420000,0,0.580000,1)} 50% {d: path('M221.037000,400L0.495605,175.774000L0.495605,140.437882C0.495605,140.437882,279.921000,385.019000,279.921000,385.019000L279.921000,400L221.037000,400Z');animation-timing-function: cubic-bezier(0.420000,0,0.580000,1)} 100% {d: path('M213.037000,400L0.495605,180.774000L0.495605,133.333000C0.495605,133.333000,279.921000,385.019000,279.921000,385.019000L279.921000,400L213.037000,400Z')} }@keyframes ezgcnt0p5vb64_c_o { 0% {opacity: 1;animation-timing-function: cubic-bezier(0.420000,0,0.580000,1)} 50% {opacity: 0.400000;animation-timing-function: cubic-bezier(0.420000,0,0.580000,1)} 100% {opacity: 1} }]]></style><defs><linearGradient id="ezgcnt0p5vb29-fill" x1="135.743000" y1="259.433000" x2="135.743000" y2="399.461000" spreadMethod="pad" gradientUnits="userSpaceOnUse"><stop id="ezgcnt0p5vb29-fill-0" offset="0%" stop-color="rgb(181,122,41)"/><stop id="ezgcnt0p5vb29-fill-1" offset="58.645800%" stop-color="rgb(128,78,10)"/><stop id="ezgcnt0p5vb29-fill-2" offset="100%" stop-color="rgb(125,38,10)"/></linearGradient><linearGradient id="ezgcnt0p5vb34-fill" x1="132.228000" y1="277.425000" x2="132.228000" y2="285.989000" spreadMethod="pad" gradientUnits="userSpaceOnUse"><stop id="ezgcnt0p5vb34-fill-0" offset="0%" stop-color="rgb(253,182,70)"/><stop id="ezgcnt0p5vb34-fill-1" offset="100%" stop-color="rgb(250,169,41)"/></linearGradient><linearGradient id="ezgcnt0p5vb48-fill" x1="130.112000" y1="288.740000" x2="132.246000" y2="301.677000" spreadMethod="pad" gradientUnits="userSpaceOnUse"><stop id="ezgcnt0p5vb48-fill-0" offset="0%" stop-color="rgb(255,255,255)"/><stop id="ezgcnt0p5vb48-fill-1" offset="0.010000%" stop-color="rgba(220,233,235,0.88)"/><stop id="ezgcnt0p5vb48-fill-2" offset="100%" stop-color="rgba(196,210,211,0.73)"/></linearGradient><linearGradient id="ezgcnt0p5vb50-fill" x1="133.498000" y1="289.092000" x2="132.193000" y2="303.092000" spreadMethod="pad" gradientUnits="userSpaceOnUse"><stop id="ezgcnt0p5vb50-fill-0" offset="38.333300%" stop-color="rgb(254,191,90)"/><stop id="ezgcnt0p5vb50-fill-1" offset="100%" stop-color="rgb(230,115,21)"/></linearGradient><linearGradient id="ezgcnt0p5vb51-fill" x1="132.213000" y1="289.916000" x2="132.213000" y2="303.094000" spreadMethod="pad" gradientUnits="userSpaceOnUse"><stop id="ezgcnt0p5vb51-fill-0" offset="0%" stop-color="rgb(255,238,176)"/><stop id="ezgcnt0p5vb51-fill-1" offset="100%" stop-color="rgb(255,209,45)"/></linearGradient><linearGradient id="ezgcnt0p5vb58-fill" x1="191.104000" y1="-48.919600" x2="322.525000" y2="409.866000" spreadMethod="pad" gradientUnits="userSpaceOnUse"><stop id="ezgcnt0p5vb58-fill-0" offset="0%" stop-color="rgb(110,49,84)"/><stop id="ezgcnt0p5vb58-fill-1" offset="99.228600%" stop-color="rgb(48,46,92)"/></linearGradient><linearGradient id="ezgcnt0p5vb60-fill" x1="88.816500" y1="-48.919500" x2="-42.604600" y2="409.866000" spreadMethod="pad" gradientUnits="userSpaceOnUse"><stop id="ezgcnt0p5vb60-fill-0" offset="0%" stop-color="rgb(110,49,84)"/><stop id="ezgcnt0p5vb60-fill-1" offset="99.228600%" stop-color="rgb(48,46,92)"/></linearGradient></defs><rect id="ezgcnt0p5vb2" width="277.443000" height="399.500000" rx="0" ry="0" transform="matrix(1 0 0 1 0 0.00012207000000)" fill="rgb(255,215,172)" stroke="none" stroke-width="1"/><path id="ezgcnt0p5vb3" d="M211.176000,12.983900L222.075000,398.003000L176.869000,398.003000L167.456000,12.983900L211.176000,12.983900Z" fill="rgb(221,117,110)" stroke="none" stroke-width="1"/><path id="ezgcnt0p5vb4" d="M195.268000,201.748000L172.542000,211.693000L170.504000,287.468000L167.952000,395.763000L279.920000,395.763000L279.920000,334.082000L279.920000,287.468000L195.268000,201.748000Z" fill="rgb(28,14,77)" stroke="none" stroke-width="1"/><path id="ezgcnt0p5vb5" d="M174.900000,206.710000C176.963000,207.200000,178.147000,211.297000,178.147000,211.297000L173.309000,216.030000C173.309000,216.030000,169.603000,214.619000,169.219000,212.810000C168.836000,211.002000,169.033000,209.699000,170.414000,208.528000C171.795000,207.358000,172.836000,206.220000,174.900000,206.710000Z" fill="rgb(28,14,76)" stroke="none" stroke-width="1"/><path id="ezgcnt0p5vb6" d="M191.171000,218.110000L195.825000,219.989000L183.910000,224.447000L185.506000,220.497000L191.171000,218.110000Z" fill="rgb(48,29,112)" stroke="none" stroke-width="1"/><path id="ezgcnt0p5vb7" d="M190.024000,200.931000C189.161000,202.425000,191.018000,206.742000,191.018000,206.742000L197.125000,206.410000C197.125000,206.410000,198.109000,201.927000,197.551000,200.931000C196.994000,199.935000,196.404000,198.939000,194.001000,198.773000C191.597000,198.607000,190.887000,199.437000,190.024000,200.931000Z" fill="rgb(28,14,76)" stroke="none" stroke-width="1"/><g id="ezgcnt0p5vb8" opacity="0.2"><ellipse id="ezgcnt0p5vb9" rx="0.991150" ry="1.498130" transform="matrix(1 0 0 1 179.88700000000000 218.22700000000000)" fill="rgb(0,243,243)" stroke="none" stroke-width="1"/><ellipse id="ezgcnt0p5vb10" rx="1.486730" ry="0.998751" transform="matrix(1 0 0 1 193.26400000000001 212.73400000000001)" fill="rgb(0,243,243)" stroke="none" stroke-width="1"/></g><path id="ezgcnt0p5vb11" d="M85.215000,15.980100L51.030000,398.003000L90.169300,398.003000L115.436000,15.980100L85.215000,15.980100Z" fill="rgb(221,117,110)" stroke="none" stroke-width="1"/><path id="ezgcnt0p5vb12" d="M279.425000,352.060000L0.495605,114.857000L0.495605,100.874000L279.425000,332.085000L279.425000,352.060000Z" fill="rgb(255,239,156)" fill-opacity="0.14" stroke="none" stroke-width="1"/><path id="ezgcnt0p5vb13" d="M279.425000,244.195000L0.495605,6.992010L0.495605,0.500122L279.425000,224.220000L279.425000,244.195000Z" fill="rgb(255,239,156)" fill-opacity="0.14" stroke="none" stroke-width="1"/><path id="ezgcnt0p5vb14" d="M50.038900,31.765400L33.194100,399.001000L53.011500,399.001000L70.847100,31.765400L50.038900,31.765400Z" fill="rgb(242,148,108)" stroke="none" stroke-width="1"/><path id="ezgcnt0p5vb15" d="M54.553700,216.326000L22.219600,282.369000L14.863000,399.501000L140.472000,399.501000L102.874000,269.635000L76.296500,217.066000L54.553700,216.326000Z" fill="rgb(28,14,76)" stroke="none" stroke-width="1"/><path id="ezgcnt0p5vb16" d="M64.103000,231.430000L60.430200,234.392000L72.330000,235.132000L69.832500,232.022000L64.103000,231.430000Z" fill="rgb(48,29,112)" stroke="none" stroke-width="1"/><path id="ezgcnt0p5vb17" d="M72.035900,213.513000L70.419900,220.177000L74.680300,222.990000L80.997500,216.919000L77.765500,212.328000L72.035900,213.513000Z" fill="rgb(28,14,76)" stroke="none" stroke-width="1"/><path id="ezgcnt0p5vb18" d="M58.520200,212.920000L60.136200,219.584000L55.875800,222.397000L49.558600,216.326000L52.790700,211.735000L58.520200,212.920000Z" fill="rgb(28,14,76)" stroke="none" stroke-width="1"/><g id="ezgcnt0p5vb19" opacity="0.2"><ellipse id="ezgcnt0p5vb20" rx="1.176860" ry="1.183410" transform="matrix(0.92799400000000 0.37259600000000 -0.36753500000000 0.93001000000000 59.11760000000000 227.62799999999999)" fill="rgb(0,243,243)" stroke="none" stroke-width="1"/><ellipse id="ezgcnt0p5vb21" rx="1.176860" ry="1.183410" transform="matrix(0.92799400000000 0.37259600000000 -0.36753500000000 0.93001000000000 72.32120000000000 227.82900000000001)" fill="rgb(0,243,243)" stroke="none" stroke-width="1"/></g><path id="ezgcnt0p5vb22" d="M223.936000,31.765400L207.092000,399.001000L234.836000,399.001000L252.672000,31.765400L223.936000,31.765400Z" fill="rgb(242,148,108)" stroke="none" stroke-width="1"/><path id="ezgcnt0p5vb23" d="M101.561000,293.702000C100.103000,307.991000,81.507600,379.347000,67.378900,399.499000L194.706000,399.499000C178.298000,350.493000,163.493000,265.644000,163.493000,232.210000C163.493000,215.985000,161.974000,19.541500,163.493000,0.000102L137.731000,0.000102L104.638000,0C103.270000,36.334800,103.020000,279.412000,101.561000,293.702000Z" fill="rgb(138,65,82)" stroke="none" stroke-width="1"/><path id="ezgcnt0p5vb24" d="M119.213000,261.564000C118.293000,262.048000,117.599000,262.616000,117.191000,263.269000C116.359000,264.599000,116.048000,266.150000,115.712000,268.317000C115.667000,268.609000,115.621000,268.913000,115.573000,269.228000C115.269000,271.245000,114.892000,273.748000,114.083000,276.972000C112.211000,284.429000,108.033000,295.735000,97.113500,313.863000C86.209100,331.966000,80.239000,353.364000,77.822600,370.238000C76.614400,378.675000,76.295400,385.976000,76.690600,391.164000C76.888200,393.759000,77.264100,395.818000,77.792700,397.225000C78.057000,397.929000,78.356900,398.462000,78.685700,398.817000C79.012800,399.170000,79.363600,399.343000,79.737000,399.343000L194.941000,399.343000C194.940000,399.332000,194.939000,399.321000,194.937000,399.308000C194.926000,399.199000,194.908000,399.036000,194.883000,398.822000C194.834000,398.394000,194.759000,397.762000,194.656000,396.946000C194.450000,395.314000,194.130000,392.946000,193.677000,390.003000C192.771000,384.119000,191.331000,375.937000,189.194000,366.748000C184.919000,348.367000,177.861000,325.970000,166.726000,309.868000C155.572000,293.741000,151.043000,283.376000,148.908000,276.419000C147.926000,273.220000,147.451000,270.743000,147.072000,268.764000C147.039000,268.592000,147.007000,268.424000,146.975000,268.259000C146.577000,266.196000,146.251000,264.719000,145.477000,263.505000C145.099000,262.912000,144.431000,262.372000,143.531000,261.895000C142.633000,261.419000,141.513000,261.009000,140.242000,260.673000C137.699000,259.999000,134.564000,259.617000,131.419000,259.559000C128.274000,259.500000,125.125000,259.764000,122.555000,260.379000C121.269000,260.687000,120.132000,261.081000,119.213000,261.564000ZM195.071000,399.461000C195.187000,399.449000,195.187000,399.449000,195.187000,399.448000L195.187000,399.446000L195.183000,399.407000C195.180000,399.379000,195.176000,399.337000,195.170000,399.282000C195.158000,399.173000,195.140000,399.009000,195.115000,398.795000C195.066000,398.366000,194.991000,397.733000,194.888000,396.916000C194.681000,395.282000,194.361000,392.912000,193.908000,389.967000C193.001000,384.078000,191.560000,375.890000,189.421000,366.694000C185.145000,348.306000,178.078000,325.873000,166.917000,309.734000C155.774000,293.621000,151.257000,283.278000,149.131000,276.350000C148.153000,273.163000,147.680000,270.697000,147.301000,268.719000C147.268000,268.547000,147.236000,268.379000,147.204000,268.214000C146.807000,266.159000,146.476000,264.636000,145.674000,263.378000C145.264000,262.736000,144.557000,262.173000,143.640000,261.687000C142.721000,261.199000,141.583000,260.785000,140.301000,260.445000C137.736000,259.766000,134.582000,259.382000,131.424000,259.323000C128.265000,259.264000,125.096000,259.530000,122.501000,260.150000C121.203000,260.461000,120.046000,260.860000,119.105000,261.355000C118.164000,261.850000,117.432000,262.443000,116.993000,263.144000C116.133000,264.520000,115.817000,266.117000,115.481000,268.281000C115.436000,268.574000,115.390000,268.878000,115.342000,269.193000C115.038000,271.210000,114.663000,273.702000,113.856000,276.915000C111.992000,284.343000,107.824000,295.628000,96.914000,313.741000C85.988900,331.878000,80.011000,353.309000,77.591500,370.205000C76.381800,378.653000,76.060900,385.972000,76.457800,391.182000C76.656100,393.786000,77.034200,395.871000,77.574300,397.308000C77.844300,398.027000,78.157500,398.591000,78.515000,398.977000C78.874100,399.365000,79.282900,399.579000,79.737000,399.579000L195.201000,399.579000L195.187000,399.449000L195.071000,399.461000Z" clip-rule="evenodd" fill="rgb(0,0,0)" fill-rule="evenodd" stroke="none" stroke-width="1"/><path id="ezgcnt0p5vb25" d="M142.741000,254.870000C141.195000,254.625000,138.158000,257.312000,138.484000,260.100000C138.903000,260.508000,140.136000,261.606000,141.724000,262.736000C143.311000,263.865000,145.249000,263.951000,146.019000,263.853000C147.636000,263.477000,149.427000,259.818000,148.657000,258.473000C147.604000,256.637000,144.674000,255.177000,142.741000,254.870000Z" fill="rgb(181,122,41)" stroke="none" stroke-width="1"/><path id="ezgcnt0p5vb26" d="M142.765000,257.323000C141.645000,257.511000,140.158000,259.480000,140.080000,260.382000C140.921000,260.382000,143.933000,262.030000,145.333000,262.853000C145.761000,262.422000,146.431000,261.465000,146.617000,260.147000C146.851000,258.500000,144.166000,257.088000,142.765000,257.323000Z" fill="rgb(251,171,126)" stroke="none" stroke-width="1"/><path id="ezgcnt0p5vb27" d="M121.031000,253.921000C122.963000,253.613000,125.587000,257.007000,125.260000,259.796000C124.842000,260.204000,123.633000,260.658000,122.045000,261.789000C120.458000,262.919000,118.521000,263.006000,117.751000,262.908000C116.135000,262.532000,114.345000,258.872000,115.116000,257.527000C116.169000,255.689000,119.098000,254.228000,121.031000,253.921000Z" fill="rgb(181,122,41)" stroke="none" stroke-width="1"/><path id="ezgcnt0p5vb28" d="M121.753000,256.853000C122.874000,257.041000,123.543000,259.363000,123.621000,260.265000C122.780000,260.265000,120.249000,261.114000,118.848000,261.938000C118.420000,261.507000,118.204000,260.053000,118.017000,258.735000C117.784000,257.088000,120.352000,256.617000,121.753000,256.853000Z" fill="rgb(251,171,126)" stroke="none" stroke-width="1"/><path id="ezgcnt0p5vb29" d="M117.093000,263.206000C113.708000,268.619000,118.844000,277.561000,97.014700,313.802000C75.185200,350.042000,73.118500,399.461000,79.737900,399.461000L195.072000,399.461000C195.072000,399.461000,189.119000,342.041000,166.822000,309.801000C144.526000,277.561000,148.728000,268.384000,145.577000,263.442000C142.425000,258.500000,120.479000,257.794000,117.093000,263.206000Z" fill="url(#ezgcnt0p5vb29-fill)" stroke="none" stroke-width="1"/><path id="ezgcnt0p5vb30" d="M135.142000,307.605000C134.287000,307.875000,133.562000,308.052000,134.204000,306.396000C134.361000,305.993000,135.095000,304.857000,136.784000,303.538000C138.472000,302.218000,140.458000,301.815000,141.240000,301.779000C143.946000,301.233000,144.487000,303.538000,141.240000,303.142000C139.499000,302.930000,142.106000,304.204000,140.698000,305.324000C139.291000,306.444000,138.534000,304.779000,137.181000,305.626000C135.802000,306.490000,137.181000,306.961000,135.142000,307.605000Z" fill="rgb(251,171,46)" stroke="none" stroke-width="1"/><path id="ezgcnt0p5vb31" d="M129.604000,308.325000C130.145000,310.234000,131.321000,309.416000,130.686000,307.779000C130.530000,307.376000,129.478000,305.366000,127.836000,304.083000C126.148000,302.764000,124.986000,302.320000,123.922000,302.051000C121.757000,301.506000,123.056000,303.187000,125.275000,303.688000C126.103000,303.875000,124.463000,305.052000,125.545000,306.143000C126.898000,307.506000,127.626000,306.114000,128.522000,306.415000C129.334000,306.688000,129.296000,307.238000,129.604000,308.325000Z" fill="rgb(251,171,46)" stroke="none" stroke-width="1"/><path id="ezgcnt0p5vb32" d="M173.164000,336.021000C171.217000,336.605000,168.532000,336.213000,165.723000,335.210000L165.801000,334.988000C168.595000,335.986000,171.222000,336.358000,173.097000,335.795000C174.031000,335.515000,174.775000,335.004000,175.267000,334.225000C175.759000,333.445000,176.005000,332.383000,175.918000,330.988000L176.151000,330.973000C176.240000,332.402000,175.989000,333.517000,175.464000,334.351000C174.937000,335.186000,174.142000,335.727000,173.164000,336.021000Z" clip-rule="evenodd" fill="rgb(0,0,0)" fill-rule="evenodd" stroke="none" stroke-width="1"/><path id="ezgcnt0p5vb33" d="M98.071200,337.361000C99.908800,337.118000,101.912000,336.383000,103.854000,335.200000L103.733000,334.998000C101.814000,336.168000,99.841500,336.889000,98.040800,337.128000C96.239300,337.366000,94.617800,337.120000,93.391200,336.366000C92.168400,335.615000,91.324600,334.350000,91.087700,332.519000C90.850200,330.684000,91.222700,328.279000,92.444100,325.260000L92.227900,325.171000C90.997900,328.211000,90.611600,330.660000,90.856200,332.549000C91.101300,334.444000,91.980400,335.775000,93.269600,336.567000C94.555000,337.357000,96.234500,337.604000,98.071200,337.361000Z" clip-rule="evenodd" fill="rgb(0,0,0)" fill-rule="evenodd" stroke="none" stroke-width="1"/><path id="ezgcnt0p5vb34" d="M125.255000,281.562000C125.830000,280.385000,126.249000,279.444000,127.356000,279.444000C128.874000,279.444000,129.466000,278.150000,130.633000,278.973000C131.801000,279.797000,133.065000,279.619000,133.660000,278.620000C134.710000,276.855000,136.695000,277.208000,137.162000,278.620000C137.629000,280.032000,139.112000,278.879000,140.322000,281.091000C141.481000,283.209000,140.547000,284.503000,138.796000,284.503000C137.045000,284.503000,136.304000,283.999000,134.710000,285.209000C132.851000,286.621000,132.034000,285.798000,130.633000,285.209000C129.233000,284.621000,128.097000,284.181000,126.656000,284.503000C125.605000,284.739000,123.621000,284.066000,123.621000,283.209000C123.621000,282.353000,124.522000,283.062000,125.255000,281.562000Z" fill="url(#ezgcnt0p5vb34-fill)" stroke="none" stroke-width="1"/><path id="ezgcnt0p5vb35" d="M135.645000,277.194000C136.422000,277.244000,137.119000,277.745000,137.383000,278.546000C137.482000,278.845000,137.625000,278.990000,137.796000,279.085000C137.950000,279.171000,138.125000,279.219000,138.348000,279.280000C138.405000,279.295000,138.464000,279.311000,138.527000,279.329000C138.826000,279.414000,139.170000,279.530000,139.518000,279.778000C139.868000,280.027000,140.210000,280.398000,140.527000,280.978000C141.125000,282.070000,141.217000,283.013000,140.857000,283.701000C140.495000,284.394000,139.723000,284.739000,138.796000,284.739000C138.353000,284.739000,137.973000,284.707000,137.635000,284.679000L137.624000,284.678000C137.281000,284.649000,136.989000,284.626000,136.704000,284.638000C136.154000,284.661000,135.615000,284.817000,134.851000,285.397000C133.888000,286.129000,133.155000,286.308000,132.462000,286.191000C132.126000,286.135000,131.812000,286.011000,131.504000,285.870000C131.385000,285.816000,131.269000,285.761000,131.153000,285.705000C130.958000,285.612000,130.762000,285.518000,130.544000,285.426000C129.140000,284.837000,128.068000,284.428000,126.706000,284.733000C126.121000,284.864000,125.313000,284.741000,124.660000,284.485000C124.330000,284.356000,124.022000,284.186000,123.793000,283.982000C123.566000,283.781000,123.387000,283.519000,123.387000,283.209000C123.387000,282.948000,123.459000,282.753000,123.627000,282.618000C123.701000,282.558000,123.783000,282.519000,123.857000,282.489000C123.903000,282.470000,123.957000,282.451000,124.008000,282.433000C124.034000,282.424000,124.059000,282.414000,124.082000,282.406000C124.230000,282.352000,124.383000,282.284000,124.541000,282.151000C124.699000,282.018000,124.874000,281.809000,125.046000,281.458000C125.067000,281.415000,125.088000,281.371000,125.109000,281.328000C125.367000,280.798000,125.615000,280.290000,125.926000,279.911000C126.277000,279.486000,126.720000,279.209000,127.356000,279.209000C127.938000,279.209000,128.361000,279.005000,128.782000,278.802000C128.865000,278.763000,128.947000,278.723000,129.030000,278.685000C129.278000,278.572000,129.545000,278.471000,129.837000,278.464000C130.138000,278.457000,130.442000,278.551000,130.767000,278.780000C131.313000,279.165000,131.864000,279.305000,132.333000,279.247000C132.798000,279.189000,133.199000,278.936000,133.460000,278.499000C134.025000,277.550000,134.862000,277.144000,135.645000,277.194000ZM135.615000,277.664000C135.026000,277.626000,134.346000,277.925000,133.860000,278.741000C133.526000,279.303000,132.998000,279.638000,132.390000,279.714000C131.786000,279.788000,131.121000,279.605000,130.500000,279.166000C130.242000,278.984000,130.034000,278.930000,129.848000,278.935000C129.653000,278.939000,129.458000,279.007000,129.222000,279.114000C129.152000,279.146000,129.079000,279.182000,129.002000,279.219000C128.579000,279.424000,128.053000,279.679000,127.356000,279.679000C126.885000,279.679000,126.565000,279.872000,126.286000,280.212000C126.011000,280.545000,125.787000,281.004000,125.519000,281.553000C125.501000,281.590000,125.483000,281.628000,125.464000,281.666000C125.269000,282.065000,125.057000,282.330000,124.840000,282.512000C124.623000,282.695000,124.413000,282.785000,124.243000,282.848000C124.207000,282.861000,124.176000,282.872000,124.148000,282.882000C124.106000,282.897000,124.069000,282.910000,124.032000,282.925000C123.974000,282.949000,123.941000,282.968000,123.919000,282.985000C123.895000,283.004000,123.854000,283.042000,123.854000,283.209000C123.854000,283.327000,123.923000,283.471000,124.102000,283.629000C124.277000,283.785000,124.531000,283.930000,124.829000,284.046000C125.430000,284.282000,126.140000,284.378000,126.605000,284.274000C128.127000,283.933000,129.326000,284.405000,130.723000,284.992000C130.949000,285.087000,131.167000,285.191000,131.371000,285.288000C131.484000,285.343000,131.593000,285.395000,131.696000,285.442000C131.994000,285.577000,132.263000,285.681000,132.539000,285.727000C133.069000,285.816000,133.674000,285.702000,134.570000,285.021000C135.399000,284.392000,136.028000,284.195000,136.685000,284.167000C137.003000,284.154000,137.325000,284.181000,137.662000,284.209000L137.669000,284.209000C138.008000,284.238000,138.372000,284.268000,138.796000,284.268000C139.621000,284.268000,140.191000,283.966000,140.444000,283.482000C140.699000,282.993000,140.679000,282.231000,140.118000,281.205000C139.830000,280.678000,139.533000,280.364000,139.249000,280.163000C138.965000,279.960000,138.681000,279.862000,138.400000,279.782000C138.352000,279.768000,138.302000,279.755000,138.251000,279.741000C138.023000,279.679000,137.778000,279.613000,137.569000,279.497000C137.293000,279.342000,137.075000,279.101000,136.940000,278.695000C136.738000,278.083000,136.210000,277.702000,135.615000,277.664000Z" clip-rule="evenodd" fill="rgb(255,209,45)" fill-rule="evenodd" stroke="none" stroke-width="1"/><path id="ezgcnt0p5vb36" d="M138.338000,273.561000L125.964000,273.561000L130.106000,278.571000C131.006000,279.659000,132.648000,279.706000,133.607000,278.670000L138.338000,273.561000Z" fill="rgb(0,0,0)" stroke="none" stroke-width="1"/><path id="ezgcnt0p5vb37" d="M125.847000,273.443000C126.742000,271.129000,128.065000,265.677000,131.684000,265.677000C135.887000,265.677000,137.599000,270.894000,138.221000,273.443000L125.847000,273.443000Z" fill="rgb(198,135,49)" stroke="none" stroke-width="1"/><path id="ezgcnt0p5vb38" d="M126.423000,266.736000C126.423000,267.646000,125.691000,268.384000,124.788000,268.384000C123.885000,268.384000,123.153000,267.646000,123.153000,266.736000C123.153000,265.827000,123.885000,265.089000,124.788000,265.089000C125.691000,265.089000,126.423000,265.827000,126.423000,266.736000Z" fill="rgb(0,0,0)" stroke="none" stroke-width="1"/><path id="ezgcnt0p5vb39" d="M125.956000,266.266000C125.956000,266.526000,125.747000,266.736000,125.489000,266.736000C125.231000,266.736000,125.022000,266.526000,125.022000,266.266000C125.022000,266.006000,125.231000,265.795000,125.489000,265.795000C125.747000,265.795000,125.956000,266.006000,125.956000,266.266000Z" fill="rgb(255,255,255)" stroke="none" stroke-width="1"/><path id="ezgcnt0p5vb40" d="M140.899000,266.736000C140.899000,267.646000,140.167000,268.384000,139.264000,268.384000C138.361000,268.384000,137.629000,267.646000,137.629000,266.736000C137.629000,265.827000,138.361000,265.089000,139.264000,265.089000C140.167000,265.089000,140.899000,265.827000,140.899000,266.736000Z" fill="rgb(0,0,0)" stroke="none" stroke-width="1"/><path id="ezgcnt0p5vb41" d="M140.198000,266.266000C140.198000,266.526000,139.989000,266.736000,139.731000,266.736000C139.473000,266.736000,139.264000,266.526000,139.264000,266.266000C139.264000,266.006000,139.473000,265.795000,139.731000,265.795000C139.989000,265.795000,140.198000,266.006000,140.198000,266.266000Z" fill="rgb(255,255,255)" stroke="none" stroke-width="1"/><path id="ezgcnt0p5vb42" d="M130.097000,282.652000C128.897000,283.190000,127.346000,283.187000,125.921000,282.612000L126.007000,282.394000C127.383000,282.949000,128.868000,282.946000,130.002000,282.437000C131.131000,281.931000,131.918000,280.923000,131.918000,279.444000L132.151000,279.444000C132.151000,280.925000,132.910000,281.885000,133.951000,282.367000C134.999000,282.852000,136.337000,282.854000,137.477000,282.394000L137.564000,282.612000C136.370000,283.094000,134.965000,283.096000,133.853000,282.581000C132.983000,282.178000,132.295000,281.459000,132.033000,280.416000C131.760000,281.477000,131.037000,282.230000,130.097000,282.652000Z" clip-rule="evenodd" fill="rgb(0,0,0)" fill-rule="evenodd" stroke="none" stroke-width="1"/><path id="ezgcnt0p5vb43" d="M118.186000,255.009000C119.335000,254.487000,120.572000,254.165000,121.532000,254.104000C121.887000,254.081000,122.328000,254.233000,122.788000,254.533000C123.246000,254.831000,123.712000,255.268000,124.113000,255.794000C124.916000,256.849000,125.445000,258.241000,125.163000,259.568000L125.392000,259.617000C125.693000,258.198000,125.126000,256.737000,124.298000,255.650000C123.883000,255.106000,123.398000,254.650000,122.915000,254.335000C122.435000,254.022000,121.943000,253.841000,121.517000,253.869000C120.525000,253.932000,119.260000,254.263000,118.090000,254.794000C116.922000,255.325000,115.833000,256.064000,115.207000,256.954000C114.962000,257.303000,114.886000,257.811000,114.921000,258.366000C114.957000,258.924000,115.106000,259.547000,115.333000,260.144000C115.559000,260.741000,115.864000,261.317000,116.215000,261.779000C116.564000,262.238000,116.968000,262.596000,117.393000,262.738000L117.467000,262.515000C117.105000,262.394000,116.737000,262.078000,116.401000,261.635000C116.066000,261.195000,115.771000,260.640000,115.551000,260.060000C115.331000,259.480000,115.188000,258.880000,115.154000,258.350000C115.120000,257.817000,115.198000,257.374000,115.398000,257.090000C115.989000,256.249000,117.035000,255.532000,118.186000,255.009000Z" clip-rule="evenodd" fill="rgb(0,0,0)" fill-rule="evenodd" stroke="none" stroke-width="1"/><path id="ezgcnt0p5vb44" d="M122.085000,330.624000C116.763000,329.342000,109.911000,331.555000,101.743000,336.494000L101.623000,336.292000C109.798000,331.348000,116.721000,329.090000,122.139000,330.396000C127.573000,331.705000,131.444000,336.585000,133.549000,345.780000C135.238000,353.157000,133.321000,362.322000,130.253000,370.768000C127.303000,378.887000,123.283000,386.360000,120.345000,390.974000C123.342000,388.781000,125.900000,387.898000,127.945000,387.827000C130.108000,387.752000,131.692000,388.590000,132.593000,389.740000C133.049000,390.322000,133.355000,391.115000,133.540000,391.997000C133.725000,392.880000,133.791000,393.860000,133.760000,394.823000C133.730000,395.785000,133.604000,396.733000,133.404000,397.553000C133.205000,398.371000,132.929000,399.071000,132.595000,399.531000L132.407000,399.391000C132.715000,398.968000,132.981000,398.302000,133.177000,397.497000C133.373000,396.695000,133.497000,395.763000,133.527000,394.815000C133.557000,393.867000,133.492000,392.907000,133.311000,392.046000C133.130000,391.183000,132.835000,390.429000,132.410000,389.885000C131.559000,388.800000,130.050000,387.990000,127.953000,388.062000C125.854000,388.135000,123.162000,389.092000,119.965000,391.553000L119.796000,391.395000C122.749000,386.852000,126.971000,379.118000,130.034000,370.687000C133.098000,362.252000,134.994000,353.141000,133.321000,345.833000C131.224000,336.672000,127.390000,331.903000,122.085000,330.624000Z" clip-rule="evenodd" fill="rgb(0,0,0)" fill-rule="evenodd" stroke="none" stroke-width="1"/><path id="ezgcnt0p5vb45" d="M147.273000,330.624000C152.594000,329.342000,159.446000,331.555000,167.614000,336.494000L167.734000,336.292000C159.559000,331.348000,152.636000,329.090000,147.218000,330.396000C141.785000,331.705000,137.914000,336.585000,135.808000,345.780000C134.119000,353.157000,136.036000,362.322000,139.104000,370.768000C142.080000,378.959000,146.146000,386.493000,149.090000,391.097000C146.728000,389.702000,144.163000,388.734000,141.820000,388.343000C139.337000,387.929000,137.082000,388.161000,135.585000,389.246000C134.978000,389.687000,134.563000,390.450000,134.284000,391.352000C134.004000,392.257000,133.856000,393.318000,133.796000,394.376000C133.675000,396.489000,133.902000,398.613000,134.140000,399.492000L134.365000,399.430000C134.136000,398.583000,133.909000,396.486000,134.029000,394.389000C134.088000,393.342000,134.234000,392.302000,134.506000,391.422000C134.779000,390.540000,135.175000,389.834000,135.722000,389.437000C137.144000,388.405000,139.324000,388.166000,141.782000,388.576000C144.236000,388.985000,146.944000,390.037000,149.402000,391.560000L149.561000,391.395000C146.608000,386.852000,142.386000,379.118000,139.324000,370.687000C136.259000,362.252000,134.363000,353.141000,136.036000,345.833000C138.133000,336.672000,141.967000,331.903000,147.273000,330.624000Z" clip-rule="evenodd" fill="rgb(0,0,0)" fill-rule="evenodd" stroke="none" stroke-width="1"/><path id="ezgcnt0p5vb46" d="M112.119000,307.339000C108.440000,310.741000,105.025000,314.972000,103.182000,317.866000L102.986000,317.739000C104.840000,314.828000,108.268000,310.581000,111.961000,307.165000C113.808000,305.457000,115.724000,303.954000,117.546000,302.929000C119.365000,301.906000,121.106000,301.351000,122.595000,301.566000C127.142000,302.221000,130.092000,305.407000,131.328000,309.295000C132.564000,313.179000,132.094000,317.776000,129.797000,321.279000C126.141000,326.854000,121.935000,329.315000,120.634000,329.911000L120.537000,329.697000C121.804000,329.117000,125.974000,326.683000,129.602000,321.150000C131.858000,317.711000,132.322000,313.189000,131.106000,309.366000C129.891000,305.547000,127.004000,302.438000,122.562000,301.799000C121.148000,301.595000,119.463000,302.121000,117.660000,303.135000C115.859000,304.147000,113.958000,305.638000,112.119000,307.339000Z" clip-rule="evenodd" fill="rgb(0,0,0)" fill-rule="evenodd" stroke="none" stroke-width="1"/><path id="ezgcnt0p5vb47" d="M152.026000,307.339000C155.705000,310.741000,159.120000,314.972000,160.963000,317.866000L161.159000,317.739000C159.305000,314.828000,155.877000,310.581000,152.184000,307.165000C150.337000,305.457000,148.421000,303.954000,146.599000,302.929000C144.780000,301.906000,143.039000,301.351000,141.550000,301.566000C137.003000,302.221000,134.053000,305.407000,132.817000,309.295000C131.581000,313.179000,132.051000,317.776000,134.348000,321.279000C136.177000,324.068000,138.411000,326.312000,140.349000,327.933000C142.285000,329.551000,143.930000,330.553000,144.584000,330.852000L144.681000,330.638000C144.052000,330.350000,142.424000,329.362000,140.498000,327.751000C138.573000,326.142000,136.356000,323.915000,134.543000,321.150000C132.287000,317.711000,131.823000,313.189000,133.039000,309.366000C134.254000,305.547000,137.141000,302.438000,141.583000,301.799000C142.997000,301.595000,144.682000,302.121000,146.486000,303.135000C148.286000,304.147000,150.187000,305.638000,152.026000,307.339000Z" clip-rule="evenodd" fill="rgb(0,0,0)" fill-rule="evenodd" stroke="none" stroke-width="1"/><path id="ezgcnt0p5vb48" d="M135.075000,288.740000L129.622000,288.740000C128.967000,288.740000,128.359000,289.086000,128.021000,289.652000L124.571000,295.439000C124.241000,295.991000,124.215000,296.675000,124.501000,297.251000L127.466000,303.230000C127.782000,303.868000,128.429000,304.271000,129.136000,304.271000L135.050000,304.271000C135.739000,304.271000,136.372000,303.889000,136.697000,303.276000L139.903000,297.235000C140.203000,296.668000,140.197000,295.987000,139.885000,295.427000L136.704000,289.702000C136.374000,289.108000,135.751000,288.740000,135.075000,288.740000Z" fill="url(#ezgcnt0p5vb48-fill)" stroke="none" stroke-width="1"/><path id="ezgcnt0p5vb49" d="M127.921000,289.592000C128.279000,288.990000,128.925000,288.622000,129.621000,288.622000L135.074000,288.622000C135.792000,288.622000,136.455000,289.013000,136.806000,289.645000L139.987000,295.369000C140.317000,295.964000,140.324000,296.688000,140.005000,297.290000L136.800000,303.332000C136.454000,303.982000,135.782000,304.389000,135.050000,304.389000L129.136000,304.389000C128.384000,304.389000,127.697000,303.961000,127.361000,303.283000L124.396000,297.303000C124.092000,296.691000,124.120000,295.965000,124.470000,295.379000L127.921000,289.592000ZM129.621000,288.857000C129.007000,288.857000,128.437000,289.182000,128.121000,289.713000L124.670000,295.500000C124.361000,296.017000,124.337000,296.658000,124.604000,297.198000L127.569000,303.177000C127.866000,303.776000,128.472000,304.153000,129.136000,304.153000L135.050000,304.153000C135.696000,304.153000,136.289000,303.795000,136.594000,303.221000L139.799000,297.179000C140.081000,296.648000,140.075000,296.009000,139.783000,295.484000L136.602000,289.760000C136.292000,289.202000,135.708000,288.857000,135.074000,288.857000L129.621000,288.857000Z" clip-rule="evenodd" fill="rgb(255,255,255)" fill-rule="evenodd" stroke="none" stroke-width="1"/><path id="ezgcnt0p5vb50" d="M133.900000,291.233000L130.738000,293.676000C130.633000,293.758000,130.519000,293.828000,130.399000,293.885000L126.944000,295.528000C125.994000,295.980000,125.600000,297.133000,126.074000,298.079000L128.069000,302.060000C128.386000,302.694000,129.031000,303.094000,129.736000,303.094000L134.491000,303.094000C135.177000,303.094000,135.808000,302.715000,136.134000,302.107000L138.727000,297.269000C139.032000,296.699000,139.026000,296.011000,138.709000,295.447000L136.662000,291.800000C136.103000,290.805000,134.801000,290.537000,133.900000,291.233000Z" fill="url(#ezgcnt0p5vb50-fill)" stroke="none" stroke-width="1"/><path id="ezgcnt0p5vb51" d="M136.357000,291.974000C135.903000,291.165000,134.845000,290.948000,134.113000,291.513000L130.951000,293.956000C130.826000,294.053000,130.691000,294.136000,130.548000,294.204000L127.094000,295.847000C126.321000,296.214000,126.002000,297.151000,126.387000,297.920000L128.381000,301.901000C128.639000,302.416000,129.163000,302.741000,129.736000,302.741000L134.490000,302.741000C135.048000,302.741000,135.561000,302.433000,135.826000,301.939000L138.419000,297.101000C138.667000,296.638000,138.661000,296.079000,138.404000,295.621000L136.357000,291.974000ZM133.687000,290.953000C134.756000,290.127000,136.303000,290.444000,136.967000,291.626000L139.014000,295.273000C139.390000,295.942000,139.398000,296.760000,139.035000,297.436000L136.442000,302.274000C136.055000,302.997000,135.305000,303.447000,134.490000,303.447000L129.736000,303.447000C128.899000,303.447000,128.133000,302.972000,127.756000,302.219000L125.761000,298.238000C125.199000,297.115000,125.666000,295.745000,126.795000,295.208000L130.249000,293.566000C130.347000,293.519000,130.439000,293.462000,130.525000,293.396000L133.687000,290.953000Z" clip-rule="evenodd" fill="url(#ezgcnt0p5vb51-fill)" fill-rule="evenodd" stroke="none" stroke-width="1"/><path id="ezgcnt0p5vb52" d="M136.533000,303.565000L125.677000,293.681000L126.727000,291.799000L137.817000,301.212000L136.533000,303.565000Z" fill="rgb(249,246,241)" fill-opacity="0.4" stroke="none" stroke-width="1"/><path id="ezgcnt0p5vb53" d="M138.284000,300.270000L127.195000,291.093000L127.428000,290.622000L138.518000,299.800000L138.284000,300.270000Z" fill="rgb(249,246,241)" fill-opacity="0.4" stroke="none" stroke-width="1"/><path id="ezgcnt0p5vb54" d="M140.035000,296.270000L130.929000,288.740000L136.066000,288.975000L140.035000,295.682000L140.035000,296.270000Z" fill="rgb(249,246,241)" fill-opacity="0.4" stroke="none" stroke-width="1"/><path id="ezgcnt0p5vb55" d="M148.265000,304.301000L146.981000,299.477000L147.206000,299.416000L148.491000,304.240000L148.265000,304.301000Z" clip-rule="evenodd" fill="rgb(0,0,0)" fill-rule="evenodd" stroke="none" stroke-width="1"/><path id="ezgcnt0p5vb56" d="M115.104000,304.772000L116.388000,299.948000L116.163000,299.887000L114.878000,304.711000L115.104000,304.772000Z" clip-rule="evenodd" fill="rgb(0,0,0)" fill-rule="evenodd" stroke="none" stroke-width="1"/><path id="ezgcnt0p5vb57" d="M145.970000,256.204000C144.874000,255.576000,143.672000,255.140000,142.722000,254.989000C142.371000,254.933000,141.918000,255.043000,141.432000,255.298000C140.948000,255.552000,140.445000,255.943000,139.997000,256.429000C139.100000,257.404000,138.445000,258.741000,138.603000,260.089000L138.371000,260.116000C138.202000,258.675000,138.901000,257.274000,139.826000,256.269000C140.289000,255.766000,140.814000,255.357000,141.324000,255.089000C141.831000,254.823000,142.337000,254.689000,142.759000,254.756000C143.741000,254.912000,144.970000,255.360000,146.085000,255.999000C147.199000,256.637000,148.215000,257.475000,148.756000,258.420000C148.969000,258.791000,148.997000,259.304000,148.911000,259.853000C148.824000,260.405000,148.618000,261.012000,148.337000,261.585000C148.056000,262.158000,147.699000,262.703000,147.307000,263.130000C146.917000,263.554000,146.483000,263.873000,146.046000,263.974000L145.994000,263.745000C146.365000,263.659000,146.760000,263.379000,147.136000,262.970000C147.510000,262.562000,147.855000,262.037000,148.128000,261.481000C148.400000,260.924000,148.598000,260.340000,148.680000,259.816000C148.763000,259.288000,148.727000,258.839000,148.554000,258.537000C148.043000,257.644000,147.067000,256.833000,145.970000,256.204000Z" clip-rule="evenodd" fill="rgb(0,0,0)" fill-rule="evenodd" stroke="none" stroke-width="1"/><path id="ezgcnt0p5vb58" d="M237.727000,226.542000L193.219000,399.501000L279.920000,399.501000L279.920000,253.683000L279.920000,128.340000L279.920000,0.000122L171.916000,6.492000L191.733000,43.945200L247.717000,54.931400L237.727000,226.542000Z" fill="url(#ezgcnt0p5vb58-fill)" stroke="none" stroke-width="1"/><path id="ezgcnt0p5vb59" d="M242.630000,218.364000L255.867000,206.730000L273.763000,217.667000L272.638000,235.591000L252.923000,247.699000L241.150000,236.938000L242.630000,218.364000Z" fill="rgb(47,30,58)" stroke="none" stroke-width="1"/><path id="ezgcnt0p5vb60" d="M36.166700,319.601000L57.965900,399.501000L0.000038,399.501000L0.000038,253.683000L0.000038,128.340000L0.000038,0.000122L65.892800,0.000122L69.360800,39.950200L36.166700,73.907700L36.166700,319.601000Z" fill="url(#ezgcnt0p5vb60-fill)" stroke="none" stroke-width="1"/><path id="ezgcnt0p5vb61" d="M279.425000,313.608000L0.495605,64.919000L0.495605,32.958900L279.425000,261.673000C279.425000,261.673000,279.425000,313.608000,279.425000,313.608000Z" fill="rgb(255,239,156)" fill-opacity="0.14" stroke="none" stroke-width="1"/><path id="ezgcnt0p5vb62" d="M279.425000,168.789000L58.956800,4.494500L74.810700,0.998871L279.425000,146.817000L279.425000,168.789000Z" fill="rgb(255,239,156)" fill-opacity="0.14" stroke="none" stroke-width="1"/><path id="ezgcnt0p5vb63" d="M279.425000,78.901500L155.567000,0.998871L170.430000,0.998871L279.425000,56.928900L279.425000,78.901500Z" fill="rgb(255,239,156)" fill-opacity="0.14" stroke="none" stroke-width="1"/><path id="ezgcnt0p5vb64" d="M213.037000,400L0.495605,180.774000L0.495605,133.333000C0.495605,133.333000,279.921000,385.019000,279.921000,385.019000L279.921000,400L213.037000,400Z" fill="rgb(255,239,156)" fill-opacity="0.14" stroke="none" stroke-width="1"/><path id="ezgcnt0p5vb65" d="M186.363000,48.938900C237.393000,48.938900,266.623000,27.465800,280,14.981400L280,0.000122L64.981400,0.000122C89.918300,16.479500,135.333000,48.938900,186.363000,48.938900Z" fill="rgb(67,96,108)" stroke="none" stroke-width="1"/><path id="ezgcnt0p5vb66" d="M94.627900,48.938900C46.075300,51.435800,15.853800,41.947700,-0.000076,32.958900L-0.000076,0.000122L216.009000,0.000122C191.072000,16.479500,143.180000,46.442100,94.627900,48.938900Z" fill="rgb(67,96,108)" stroke="none" stroke-width="1"/></svg>