<svg id="eqbrljynmmp1" xmlns="http://www.w3.org/2000/svg" xmlns:xlink="http://www.w3.org/1999/xlink" viewBox="0 0 280 400" shape-rendering="geometricPrecision" text-rendering="geometricPrecision"><style><![CDATA[#eqbrljynmmp8 {animation: eqbrljynmmp8_c_o 3000ms linear infinite normal forwards}@keyframes eqbrljynmmp8_c_o { 0% {opacity: 0.200000;animation-timing-function: cubic-bezier(0.420000,0,0.580000,1)} 50% {opacity: 1;animation-timing-function: cubic-bezier(0.420000,0,0.580000,1)} 100% {opacity: 0.200000} }#eqbrljynmmp12 {animation: eqbrljynmmp12_c_o 3000ms linear infinite normal forwards}@keyframes eqbrljynmmp12_c_o { 0% {opacity: 1;animation-timing-function: cubic-bezier(0.420000,0,0.580000,1)} 66.666667% {opacity: 0.200000;animation-timing-function: cubic-bezier(0.420000,0,0.580000,1)} 100% {opacity: 1} }#eqbrljynmmp13 {animation: eqbrljynmmp13_c_o 3000ms linear infinite normal forwards}@keyframes eqbrljynmmp13_c_o { 0% {opacity: 1;animation-timing-function: cubic-bezier(0.420000,0,0.580000,1)} 33.333333% {opacity: 0.200000;animation-timing-function: cubic-bezier(0.420000,0,0.580000,1)} 100% {opacity: 1} }#eqbrljynmmp19 {animation: eqbrljynmmp19_c_o 3000ms linear infinite normal forwards}@keyframes eqbrljynmmp19_c_o { 0% {opacity: 0.200000;animation-timing-function: cubic-bezier(0.420000,0,0.580000,1)} 50% {opacity: 1;animation-timing-function: cubic-bezier(0.420000,0,0.580000,1)} 100% {opacity: 0.200000} }#eqbrljynmmp61 {animation: eqbrljynmmp61_c_o 3000ms linear infinite normal forwards}@keyframes eqbrljynmmp61_c_o { 0% {opacity: 1;animation-timing-function: cubic-bezier(0.420000,0,0.580000,1)} 66.666667% {opacity: 0.400000;animation-timing-function: cubic-bezier(0.420000,0,0.580000,1)} 100% {opacity: 1} }#eqbrljynmmp62 {animation: eqbrljynmmp62_c_o 3000ms linear infinite normal forwards}@keyframes eqbrljynmmp62_c_o { 0% {opacity: 1;animation-timing-function: cubic-bezier(0.420000,0,0.580000,1)} 33.333333% {opacity: 0.400000;animation-timing-function: cubic-bezier(0.420000,0,0.580000,1)} 100% {opacity: 1} }#eqbrljynmmp63 {animation: eqbrljynmmp63_c_o 3000ms linear infinite normal forwards}@keyframes eqbrljynmmp63_c_o { 0% {opacity: 1;animation-timing-function: cubic-bezier(0.420000,0,0.580000,1)} 50% {opacity: 0.400000;animation-timing-function: cubic-bezier(0.420000,0,0.580000,1)} 100% {opacity: 1} }]]></style><defs><radialGradient id="eqbrljynmmp2-fill" cx="0" cy="0" r="1" spreadMethod="pad" gradientUnits="userSpaceOnUse" gradientTransform="matrix(0.00000000000001 119 -82.66610000000000 0.00000000000001 138.76100000000000 19.49990000000000)"><stop id="eqbrljynmmp2-fill-0" offset="0%" stop-color="rgb(37,108,118)"/><stop id="eqbrljynmmp2-fill-1" offset="100%" stop-color="rgb(31,51,103)"/></radialGradient><linearGradient id="eqbrljynmmp29-fill" x1="135.782000" y1="259.433000" x2="135.782000" y2="399.461000" spreadMethod="pad" gradientUnits="userSpaceOnUse"><stop id="eqbrljynmmp29-fill-0" offset="0%" stop-color="rgb(181,122,41)"/><stop id="eqbrljynmmp29-fill-1" offset="58.645800%" stop-color="rgb(128,78,10)"/><stop id="eqbrljynmmp29-fill-2" offset="100%" stop-color="rgb(125,38,10)"/></linearGradient><linearGradient id="eqbrljynmmp34-fill" x1="132.265000" y1="277.425000" x2="132.265000" y2="285.989000" spreadMethod="pad" gradientUnits="userSpaceOnUse"><stop id="eqbrljynmmp34-fill-0" offset="0%" stop-color="rgb(253,182,70)"/><stop id="eqbrljynmmp34-fill-1" offset="100%" stop-color="rgb(250,169,41)"/></linearGradient><linearGradient id="eqbrljynmmp48-fill" x1="130.149000" y1="288.740000" x2="132.283000" y2="301.677000" spreadMethod="pad" gradientUnits="userSpaceOnUse"><stop id="eqbrljynmmp48-fill-0" offset="0%" stop-color="rgb(255,255,255)"/><stop id="eqbrljynmmp48-fill-1" offset="0.010000%" stop-color="rgba(220,233,235,0.88)"/><stop id="eqbrljynmmp48-fill-2" offset="100%" stop-color="rgba(196,210,211,0.73)"/></linearGradient><linearGradient id="eqbrljynmmp50-fill" x1="133.535000" y1="289.092000" x2="132.231000" y2="303.092000" spreadMethod="pad" gradientUnits="userSpaceOnUse"><stop id="eqbrljynmmp50-fill-0" offset="38.333300%" stop-color="rgb(254,191,90)"/><stop id="eqbrljynmmp50-fill-1" offset="100%" stop-color="rgb(230,115,21)"/></linearGradient><linearGradient id="eqbrljynmmp51-fill" x1="132.251000" y1="289.916000" x2="132.251000" y2="303.094000" spreadMethod="pad" gradientUnits="userSpaceOnUse"><stop id="eqbrljynmmp51-fill-0" offset="0%" stop-color="rgb(255,238,176)"/><stop id="eqbrljynmmp51-fill-1" offset="100%" stop-color="rgb(255,209,45)"/></linearGradient><linearGradient id="eqbrljynmmp58-fill" x1="191.158000" y1="-48.919700" x2="322.548000" y2="409.886000" spreadMethod="pad" gradientUnits="userSpaceOnUse"><stop id="eqbrljynmmp58-fill-0" offset="0%" stop-color="rgb(110,49,84)"/><stop id="eqbrljynmmp58-fill-1" offset="99.228600%" stop-color="rgb(48,46,92)"/></linearGradient><linearGradient id="eqbrljynmmp60-fill" x1="88.841900" y1="-48.919700" x2="-42.547600" y2="409.886000" spreadMethod="pad" gradientUnits="userSpaceOnUse"><stop id="eqbrljynmmp60-fill-0" offset="0%" stop-color="rgb(110,49,84)"/><stop id="eqbrljynmmp60-fill-1" offset="99.228600%" stop-color="rgb(48,46,92)"/></linearGradient></defs><rect id="eqbrljynmmp2" width="277.522000" height="399.500000" rx="0" ry="0" fill="url(#eqbrljynmmp2-fill)" stroke="none" stroke-width="1"/><path id="eqbrljynmmp3" d="M211.237000,12.983900L222.139000,398.003000L176.920000,398.003000L167.504000,12.983900L211.237000,12.983900Z" fill="rgb(59,64,176)" stroke="none" stroke-width="1"/><path id="eqbrljynmmp4" d="M195.323000,201.748000L172.590000,211.694000L170.552000,287.469000L168,395.764000L279.999000,395.764000L279.999000,334.083000L279.999000,287.469000L195.323000,201.748000Z" fill="rgb(28,14,77)" stroke="none" stroke-width="1"/><path id="eqbrljynmmp5" d="M174.950000,206.710000C177.014000,207.200000,178.197000,211.297000,178.197000,211.297000L173.359000,216.030000C173.359000,216.030000,169.651000,214.619000,169.267000,212.811000C168.884000,211.002000,169.082000,209.699000,170.463000,208.528000C171.844000,207.358000,172.885000,206.220000,174.950000,206.710000Z" fill="rgb(28,14,76)" stroke="none" stroke-width="1"/><path id="eqbrljynmmp6" d="M191.225000,218.110000L195.881000,219.989000L183.962000,224.447000L185.558000,220.497000L191.225000,218.110000Z" fill="rgb(48,29,112)" stroke="none" stroke-width="1"/><path id="eqbrljynmmp7" d="M190.078000,200.931000C189.215000,202.425000,191.073000,206.742000,191.073000,206.742000L197.181000,206.410000C197.181000,206.410000,198.165000,201.927000,197.607000,200.931000C197.050000,199.935000,196.460000,198.939000,194.056000,198.773000C191.651000,198.607000,190.941000,199.437000,190.078000,200.931000Z" fill="rgb(28,14,76)" stroke="none" stroke-width="1"/><g id="eqbrljynmmp8" opacity="0.2"><ellipse id="eqbrljynmmp9" rx="0.991150" ry="1.498130" transform="matrix(1 0 0 1 179.93799999999999 218.22700000000000)" fill="rgb(0,243,243)" stroke="none" stroke-width="1"/><ellipse id="eqbrljynmmp10" rx="1.486730" ry="0.998751" transform="matrix(1 0 0 1 193.31800000000001 212.73400000000001)" fill="rgb(0,243,243)" stroke="none" stroke-width="1"/></g><path id="eqbrljynmmp11" d="M85.239100,15.980200L51.044400,398.003000L90.194900,398.003000L115.469000,15.980200L85.239100,15.980200Z" fill="rgb(59,64,176)" stroke="none" stroke-width="1"/><path id="eqbrljynmmp12" d="M279.504000,352.060000L0.495605,114.857000L0.495605,100.874000L279.504000,332.085000L279.504000,352.060000Z" fill="rgb(156,231,255)" fill-opacity="0.14" stroke="none" stroke-width="1"/><path id="eqbrljynmmp13" d="M279.504000,244.195000L0.495605,6.991880L0.495605,0.500000L279.504000,224.220000L279.504000,244.195000Z" fill="rgb(156,231,255)" fill-opacity="0.14" stroke="none" stroke-width="1"/><path id="eqbrljynmmp14" d="M50.053200,31.765400L33.203600,399.001000L53.026600,399.001000L70.867300,31.765400L50.053200,31.765400Z" fill="rgb(119,108,242)" stroke="none" stroke-width="1"/><path id="eqbrljynmmp15" d="M54.569100,216.326000L22.225800,282.370000L14.867200,399.501000L140.512000,399.501000L102.903000,269.635000L76.318200,217.066000L54.569100,216.326000Z" fill="rgb(28,14,76)" stroke="none" stroke-width="1"/><path id="eqbrljynmmp16" d="M64.121100,231.430000L60.447300,234.392000L72.350500,235.132000L69.852300,232.022000L64.121100,231.430000Z" fill="rgb(48,29,112)" stroke="none" stroke-width="1"/><path id="eqbrljynmmp17" d="M72.056400,213.513000L70.439900,220.177000L74.701600,222.990000L81.020500,216.919000L77.787600,212.328000L72.056400,213.513000Z" fill="rgb(28,14,76)" stroke="none" stroke-width="1"/><path id="eqbrljynmmp18" d="M58.536800,212.920000L60.153300,219.584000L55.891700,222.397000L49.572700,216.326000L52.805700,211.735000L58.536800,212.920000Z" fill="rgb(28,14,76)" stroke="none" stroke-width="1"/><g id="eqbrljynmmp19" opacity="0.2"><ellipse id="eqbrljynmmp20" rx="1.176860" ry="1.183410" transform="matrix(0.92803000000000 0.37250500000000 -0.36762500000000 0.92997400000000 59.13420000000000 227.62799999999999)" fill="rgb(0,243,243)" stroke="none" stroke-width="1"/><ellipse id="eqbrljynmmp21" rx="1.176860" ry="1.183410" transform="matrix(0.92803000000000 0.37250500000000 -0.36762500000000 0.92997400000000 72.34170000000000 227.82800000000000)" fill="rgb(0,243,243)" stroke="none" stroke-width="1"/></g><path id="eqbrljynmmp22" d="M224,31.765400L207.150000,399.001000L234.903000,399.001000L252.743000,31.765400L224,31.765400Z" fill="rgb(119,108,242)" stroke="none" stroke-width="1"/><path id="eqbrljynmmp23" d="M101.590000,293.702000C100.131000,307.991000,81.531000,379.347000,67.398200,399.499000L194.761000,399.499000C178.349000,350.493000,163.540000,265.644000,163.540000,232.210000C163.540000,215.985000,162.020000,19.541500,163.540000,0.000102L137.770000,0.000102L104.668000,0C103.300000,36.334800,103.049000,279.412000,101.590000,293.702000Z" fill="rgb(93,65,138)" stroke="none" stroke-width="1"/><path id="eqbrljynmmp24" d="M119.247000,261.564000C118.327000,262.047000,117.633000,262.616000,117.224000,263.269000C116.392000,264.599000,116.081000,266.149000,115.745000,268.317000C115.700000,268.609000,115.654000,268.912000,115.606000,269.227000C115.302000,271.245000,114.925000,273.748000,114.115000,276.972000C112.243000,284.429000,108.063000,295.735000,97.141200,313.863000C86.233700,331.966000,80.261800,353.364000,77.844800,370.238000C76.636200,378.675000,76.317100,385.976000,76.712400,391.164000C76.910100,393.759000,77.286100,395.818000,77.814800,397.225000C78.079300,397.928000,78.379200,398.461000,78.708100,398.817000C79.035300,399.170000,79.386200,399.343000,79.759700,399.343000L194.997000,399.343000C194.996000,399.332000,194.994000,399.320000,194.993000,399.308000C194.981000,399.199000,194.963000,399.036000,194.938000,398.822000C194.889000,398.394000,194.815000,397.761000,194.712000,396.945000C194.505000,395.313000,194.186000,392.946000,193.732000,390.003000C192.826000,384.119000,191.385000,375.937000,189.248000,366.748000C184.972000,348.366000,177.911000,325.969000,166.773000,309.868000C155.617000,293.741000,151.086000,283.376000,148.950000,276.419000C147.968000,273.219000,147.493000,270.743000,147.114000,268.764000C147.081000,268.592000,147.049000,268.423000,147.017000,268.259000C146.618000,266.196000,146.293000,264.718000,145.519000,263.505000C145.140000,262.911000,144.472000,262.372000,143.572000,261.895000C142.674000,261.418000,141.553000,261.009000,140.282000,260.672000C137.738000,259.999000,134.603000,259.617000,131.457000,259.558000C128.311000,259.500000,125.161000,259.764000,122.590000,260.379000C121.304000,260.686000,120.166000,261.081000,119.247000,261.564000ZM195.127000,399.461000C195.243000,399.449000,195.243000,399.448000,195.243000,399.448000L195.243000,399.446000L195.239000,399.407000C195.236000,399.379000,195.231000,399.337000,195.225000,399.282000C195.213000,399.172000,195.195000,399.009000,195.170000,398.795000C195.121000,398.366000,195.046000,397.733000,194.943000,396.916000C194.737000,395.282000,194.417000,392.912000,193.963000,389.967000C193.056000,384.078000,191.614000,375.890000,189.475000,366.694000C185.198000,348.305000,178.129000,325.873000,166.965000,309.734000C155.818000,293.621000,151.300000,283.277000,149.173000,276.350000C148.195000,273.163000,147.722000,270.697000,147.343000,268.719000C147.310000,268.547000,147.278000,268.378000,147.246000,268.214000C146.849000,266.159000,146.518000,264.635000,145.715000,263.378000C145.306000,262.736000,144.598000,262.173000,143.681000,261.686000C142.762000,261.199000,141.624000,260.785000,140.341000,260.445000C137.776000,259.765000,134.621000,259.382000,131.461000,259.323000C128.301000,259.264000,125.131000,259.529000,122.536000,260.150000C121.238000,260.460000,120.080000,260.860000,119.139000,261.355000C118.198000,261.850000,117.465000,262.443000,117.027000,263.143000C116.166000,264.520000,115.850000,266.117000,115.514000,268.281000C115.469000,268.574000,115.423000,268.877000,115.375000,269.193000C115.071000,271.210000,114.695000,273.702000,113.889000,276.915000C112.024000,284.343000,107.855000,295.627000,96.941600,313.740000C86.013400,331.878000,80.033800,353.309000,77.613600,370.205000C76.403500,378.652000,76.082600,385.971000,76.479500,391.182000C76.677900,393.786000,77.056200,395.871000,77.596400,397.308000C77.866500,398.027000,78.179700,398.591000,78.537300,398.977000C78.896600,399.365000,79.305500,399.578000,79.759700,399.578000L195.256000,399.578000L195.243000,399.449000L195.127000,399.461000Z" clip-rule="evenodd" fill="rgb(0,0,0)" fill-rule="evenodd" stroke="none" stroke-width="1"/><path id="eqbrljynmmp25" d="M142.782000,254.870000C141.235000,254.625000,138.197000,257.312000,138.524000,260.100000C138.942000,260.508000,140.176000,261.606000,141.764000,262.736000C143.352000,263.865000,145.290000,263.951000,146.061000,263.853000C147.678000,263.477000,149.470000,259.818000,148.699000,258.473000C147.646000,256.636000,144.715000,255.177000,142.782000,254.870000Z" fill="rgb(181,122,41)" stroke="none" stroke-width="1"/><path id="eqbrljynmmp26" d="M142.806000,257.323000C141.685000,257.511000,140.198000,259.480000,140.120000,260.382000C140.961000,260.382000,143.973000,262.029000,145.375000,262.853000C145.803000,262.422000,146.472000,261.465000,146.659000,260.147000C146.893000,258.499000,144.207000,257.088000,142.806000,257.323000Z" fill="rgb(251,171,126)" stroke="none" stroke-width="1"/><path id="eqbrljynmmp27" d="M121.065000,253.920000C122.998000,253.613000,125.623000,257.007000,125.296000,259.796000C124.878000,260.204000,123.668000,260.658000,122.080000,261.789000C120.492000,262.919000,118.555000,263.006000,117.785000,262.908000C116.168000,262.532000,114.378000,258.872000,115.149000,257.527000C116.202000,255.689000,119.132000,254.228000,121.065000,253.920000Z" fill="rgb(181,122,41)" stroke="none" stroke-width="1"/><path id="eqbrljynmmp28" d="M121.787000,256.852000C122.908000,257.041000,123.578000,259.363000,123.656000,260.265000C122.815000,260.265000,120.283000,261.114000,118.881000,261.938000C118.453000,261.507000,118.238000,260.053000,118.051000,258.735000C117.817000,257.088000,120.386000,256.617000,121.787000,256.852000Z" fill="rgb(251,171,126)" stroke="none" stroke-width="1"/><path id="eqbrljynmmp29" d="M117.126000,263.206000C113.740000,268.619000,118.878000,277.561000,97.042300,313.802000C75.206600,350.042000,73.139300,399.461000,79.760600,399.461000L195.128000,399.461000C195.128000,399.461000,189.173000,342.041000,166.870000,309.801000C144.567000,277.561000,148.771000,268.383000,145.618000,263.441000C142.465000,258.500000,120.513000,257.794000,117.126000,263.206000Z" fill="url(#eqbrljynmmp29-fill)" stroke="none" stroke-width="1"/><path id="eqbrljynmmp30" d="M135.181000,307.605000C134.325000,307.875000,133.600000,308.052000,134.242000,306.396000C134.399000,305.992000,135.134000,304.856000,136.823000,303.537000C138.512000,302.218000,140.498000,301.815000,141.280000,301.778000C143.986000,301.233000,144.528000,303.537000,141.280000,303.142000C139.538000,302.930000,142.146000,304.204000,140.738000,305.324000C139.331000,306.444000,138.573000,304.779000,137.220000,305.626000C135.840000,306.490000,137.220000,306.961000,135.181000,307.605000Z" fill="rgb(251,171,46)" stroke="none" stroke-width="1"/><path id="eqbrljynmmp31" d="M129.641000,308.324000C130.182000,310.234000,131.358000,309.415000,130.724000,307.779000C130.567000,307.376000,129.515000,305.365000,127.872000,304.083000C126.183000,302.764000,125.022000,302.319000,123.957000,302.051000C121.791000,301.506000,123.091000,303.187000,125.310000,303.688000C126.139000,303.875000,124.498000,305.051000,125.581000,306.142000C126.934000,307.506000,127.662000,306.114000,128.558000,306.415000C129.370000,306.688000,129.333000,307.238000,129.641000,308.324000Z" fill="rgb(251,171,46)" stroke="none" stroke-width="1"/><path id="eqbrljynmmp32" d="M173.213000,336.020000C171.265000,336.605000,168.580000,336.212000,165.770000,335.210000L165.848000,334.988000C168.643000,335.985000,171.271000,336.358000,173.147000,335.795000C174.081000,335.515000,174.825000,335.004000,175.316000,334.225000C175.809000,333.444000,176.055000,332.383000,175.968000,330.988000L176.201000,330.973000C176.290000,332.402000,176.039000,333.517000,175.514000,334.351000C174.987000,335.186000,174.191000,335.727000,173.213000,336.020000Z" clip-rule="evenodd" fill="rgb(0,0,0)" fill-rule="evenodd" stroke="none" stroke-width="1"/><path id="eqbrljynmmp33" d="M98.099100,337.361000C99.937300,337.118000,101.941000,336.383000,103.883000,335.200000L103.762000,334.998000C101.843000,336.168000,99.869900,336.889000,98.068700,337.128000C96.266600,337.366000,94.644700,337.120000,93.417800,336.366000C92.194700,335.614000,91.350600,334.350000,91.113600,332.519000C90.876000,330.684000,91.248700,328.279000,92.470400,325.260000L92.254100,325.171000C91.023700,328.211000,90.637400,330.660000,90.882000,332.549000C91.127200,334.443000,92.006600,335.775000,93.296200,336.567000C94.581900,337.357000,96.261900,337.604000,98.099100,337.361000Z" clip-rule="evenodd" fill="rgb(0,0,0)" fill-rule="evenodd" stroke="none" stroke-width="1"/><path id="eqbrljynmmp34" d="M125.291000,281.562000C125.866000,280.385000,126.285000,279.444000,127.392000,279.444000C128.910000,279.444000,129.503000,278.150000,130.671000,278.973000C131.838000,279.797000,133.103000,279.619000,133.698000,278.620000C134.749000,276.855000,136.734000,277.208000,137.201000,278.620000C137.668000,280.032000,139.152000,278.879000,140.362000,281.091000C141.521000,283.209000,140.587000,284.503000,138.836000,284.503000C137.084000,284.503000,136.342000,283.999000,134.749000,285.209000C132.889000,286.621000,132.072000,285.797000,130.671000,285.209000C129.269000,284.621000,128.134000,284.180000,126.692000,284.503000C125.641000,284.738000,123.656000,284.065000,123.656000,283.209000C123.656000,282.353000,124.557000,283.062000,125.291000,281.562000Z" fill="url(#eqbrljynmmp34-fill)" stroke="none" stroke-width="1"/><path id="eqbrljynmmp35" d="M135.683000,277.194000C136.461000,277.244000,137.158000,277.745000,137.423000,278.546000C137.522000,278.845000,137.665000,278.990000,137.835000,279.085000C137.989000,279.171000,138.164000,279.219000,138.388000,279.279000C138.444000,279.295000,138.503000,279.311000,138.566000,279.329000C138.866000,279.414000,139.209000,279.530000,139.558000,279.778000C139.908000,280.026000,140.250000,280.398000,140.567000,280.977000C141.165000,282.070000,141.257000,283.013000,140.897000,283.701000C140.535000,284.394000,139.763000,284.738000,138.836000,284.738000C138.392000,284.738000,138.012000,284.707000,137.675000,284.679000L137.663000,284.678000C137.320000,284.649000,137.028000,284.626000,136.743000,284.638000C136.193000,284.661000,135.654000,284.817000,134.889000,285.397000C133.926000,286.129000,133.193000,286.308000,132.499000,286.191000C132.163000,286.135000,131.850000,286.011000,131.541000,285.870000C131.422000,285.816000,131.307000,285.761000,131.190000,285.705000C130.996000,285.612000,130.799000,285.518000,130.581000,285.426000C129.177000,284.837000,128.104000,284.428000,126.743000,284.733000C126.157000,284.864000,125.349000,284.741000,124.695000,284.485000C124.365000,284.356000,124.058000,284.186000,123.828000,283.982000C123.601000,283.781000,123.422000,283.519000,123.422000,283.209000C123.422000,282.948000,123.494000,282.753000,123.662000,282.618000C123.736000,282.558000,123.819000,282.519000,123.893000,282.489000C123.938000,282.470000,123.992000,282.451000,124.043000,282.433000C124.069000,282.423000,124.095000,282.414000,124.118000,282.406000C124.265000,282.351000,124.418000,282.284000,124.576000,282.151000C124.735000,282.018000,124.910000,281.808000,125.081000,281.458000C125.102000,281.414000,125.123000,281.371000,125.144000,281.328000C125.403000,280.798000,125.650000,280.290000,125.962000,279.911000C126.313000,279.486000,126.756000,279.208000,127.392000,279.208000C127.974000,279.208000,128.398000,279.005000,128.819000,278.802000C128.901000,278.763000,128.983000,278.723000,129.067000,278.685000C129.315000,278.572000,129.582000,278.471000,129.874000,278.464000C130.175000,278.457000,130.479000,278.550000,130.805000,278.780000C131.350000,279.165000,131.902000,279.304000,132.371000,279.246000C132.836000,279.189000,133.237000,278.936000,133.498000,278.499000C134.063000,277.550000,134.900000,277.143000,135.683000,277.194000ZM135.654000,277.664000C135.065000,277.626000,134.384000,277.925000,133.898000,278.741000C133.564000,279.303000,133.035000,279.638000,132.428000,279.714000C131.824000,279.788000,131.159000,279.605000,130.537000,279.166000C130.279000,278.984000,130.071000,278.930000,129.885000,278.934000C129.690000,278.939000,129.495000,279.007000,129.259000,279.114000C129.189000,279.146000,129.116000,279.182000,129.039000,279.219000C128.616000,279.424000,128.089000,279.679000,127.392000,279.679000C126.921000,279.679000,126.601000,279.872000,126.321000,280.212000C126.047000,280.545000,125.823000,281.003000,125.555000,281.553000C125.537000,281.590000,125.519000,281.628000,125.500000,281.666000C125.305000,282.065000,125.092000,282.330000,124.876000,282.512000C124.658000,282.695000,124.449000,282.785000,124.279000,282.848000C124.243000,282.861000,124.212000,282.872000,124.184000,282.882000C124.141000,282.897000,124.105000,282.910000,124.067000,282.925000C124.010000,282.949000,123.976000,282.967000,123.954000,282.985000C123.930000,283.004000,123.889000,283.042000,123.889000,283.209000C123.889000,283.327000,123.959000,283.471000,124.137000,283.629000C124.312000,283.785000,124.567000,283.929000,124.864000,284.046000C125.466000,284.282000,126.176000,284.378000,126.641000,284.273000C128.163000,283.933000,129.362000,284.405000,130.761000,284.992000C130.986000,285.087000,131.205000,285.191000,131.408000,285.288000C131.522000,285.343000,131.631000,285.395000,131.734000,285.441000C132.031000,285.577000,132.301000,285.681000,132.576000,285.727000C133.107000,285.816000,133.712000,285.701000,134.608000,285.021000C135.438000,284.391000,136.066000,284.195000,136.723000,284.167000C137.042000,284.154000,137.364000,284.181000,137.702000,284.209000L137.708000,284.209000C138.047000,284.238000,138.411000,284.268000,138.836000,284.268000C139.660000,284.268000,140.231000,283.965000,140.484000,283.482000C140.739000,282.993000,140.719000,282.230000,140.158000,281.205000C139.870000,280.678000,139.573000,280.364000,139.289000,280.162000C139.004000,279.960000,138.721000,279.862000,138.440000,279.782000C138.391000,279.768000,138.341000,279.755000,138.291000,279.741000C138.062000,279.679000,137.817000,279.613000,137.609000,279.496000C137.332000,279.342000,137.114000,279.101000,136.979000,278.694000C136.777000,278.083000,136.248000,277.702000,135.654000,277.664000Z" clip-rule="evenodd" fill="rgb(255,209,45)" fill-rule="evenodd" stroke="none" stroke-width="1"/><path id="eqbrljynmmp36" d="M138.377000,273.561000L126,273.561000L130.144000,278.571000C131.043000,279.659000,132.686000,279.705000,133.645000,278.670000L138.377000,273.561000Z" fill="rgb(0,0,0)" stroke="none" stroke-width="1"/><path id="eqbrljynmmp37" d="M125.883000,273.443000C126.779000,271.129000,128.102000,265.677000,131.722000,265.677000C135.925000,265.677000,137.638000,270.894000,138.261000,273.443000L125.883000,273.443000Z" fill="rgb(198,135,49)" stroke="none" stroke-width="1"/><path id="eqbrljynmmp38" d="M126.458000,266.736000C126.458000,267.646000,125.726000,268.383000,124.823000,268.383000C123.920000,268.383000,123.188000,267.646000,123.188000,266.736000C123.188000,265.826000,123.920000,265.089000,124.823000,265.089000C125.726000,265.089000,126.458000,265.826000,126.458000,266.736000Z" fill="rgb(0,0,0)" stroke="none" stroke-width="1"/><path id="eqbrljynmmp39" d="M125.992000,266.266000C125.992000,266.526000,125.783000,266.736000,125.525000,266.736000C125.267000,266.736000,125.058000,266.526000,125.058000,266.266000C125.058000,266.006000,125.267000,265.795000,125.525000,265.795000C125.783000,265.795000,125.992000,266.006000,125.992000,266.266000Z" fill="rgb(255,255,255)" stroke="none" stroke-width="1"/><path id="eqbrljynmmp40" d="M140.938000,266.736000C140.938000,267.646000,140.206000,268.383000,139.303000,268.383000C138.400000,268.383000,137.668000,267.646000,137.668000,266.736000C137.668000,265.826000,138.400000,265.089000,139.303000,265.089000C140.206000,265.089000,140.938000,265.826000,140.938000,266.736000Z" fill="rgb(0,0,0)" stroke="none" stroke-width="1"/><path id="eqbrljynmmp41" d="M140.237000,266.266000C140.237000,266.526000,140.028000,266.736000,139.770000,266.736000C139.512000,266.736000,139.303000,266.526000,139.303000,266.266000C139.303000,266.006000,139.512000,265.795000,139.770000,265.795000C140.028000,265.795000,140.237000,266.006000,140.237000,266.266000Z" fill="rgb(255,255,255)" stroke="none" stroke-width="1"/><path id="eqbrljynmmp42" d="M130.134000,282.652000C128.934000,283.190000,127.383000,283.187000,125.957000,282.612000L126.043000,282.394000C127.419000,282.949000,128.904000,282.946000,130.039000,282.437000C131.169000,281.930000,131.955000,280.923000,131.955000,279.444000L132.189000,279.444000C132.189000,280.925000,132.947000,281.885000,133.989000,282.367000C135.037000,282.852000,136.376000,282.854000,137.517000,282.394000L137.603000,282.612000C136.409000,283.094000,135.004000,283.095000,133.891000,282.581000C133.021000,282.178000,132.333000,281.459000,132.070000,280.416000C131.797000,281.476000,131.075000,282.230000,130.134000,282.652000Z" clip-rule="evenodd" fill="rgb(0,0,0)" fill-rule="evenodd" stroke="none" stroke-width="1"/><path id="eqbrljynmmp43" d="M118.220000,255.009000C119.369000,254.486000,120.606000,254.165000,121.566000,254.103000C121.922000,254.081000,122.363000,254.233000,122.823000,254.532000C123.282000,254.831000,123.747000,255.268000,124.148000,255.794000C124.952000,256.849000,125.481000,258.240000,125.199000,259.568000L125.427000,259.617000C125.728000,258.198000,125.161000,256.737000,124.333000,255.650000C123.918000,255.105000,123.433000,254.649000,122.950000,254.335000C122.469000,254.022000,121.978000,253.841000,121.552000,253.868000C120.559000,253.932000,119.294000,254.262000,118.124000,254.794000C116.955000,255.325000,115.866000,256.063000,115.240000,256.953000C114.994000,257.303000,114.918000,257.811000,114.954000,258.365000C114.989000,258.923000,115.139000,259.547000,115.365000,260.144000C115.592000,260.741000,115.897000,261.317000,116.248000,261.778000C116.598000,262.238000,117.001000,262.596000,117.427000,262.738000L117.500000,262.514000C117.138000,262.394000,116.771000,262.078000,116.434000,261.635000C116.099000,261.195000,115.804000,260.640000,115.584000,260.060000C115.363000,259.480000,115.221000,258.880000,115.187000,258.350000C115.153000,257.817000,115.231000,257.374000,115.431000,257.089000C116.022000,256.248000,117.069000,255.532000,118.220000,255.009000Z" clip-rule="evenodd" fill="rgb(0,0,0)" fill-rule="evenodd" stroke="none" stroke-width="1"/><path id="eqbrljynmmp44" d="M122.119000,330.624000C116.796000,329.342000,109.942000,331.554000,101.772000,336.494000L101.652000,336.292000C109.829000,331.348000,116.754000,329.090000,122.174000,330.395000C127.609000,331.705000,131.481000,336.584000,133.587000,345.780000C135.276000,353.156000,133.359000,362.322000,130.290000,370.768000C127.339000,378.887000,123.318000,386.360000,120.379000,390.974000C123.377000,388.781000,125.936000,387.897000,127.981000,387.827000C130.145000,387.752000,131.729000,388.589000,132.630000,389.739000C133.087000,390.322000,133.392000,391.115000,133.578000,391.997000C133.763000,392.880000,133.829000,393.860000,133.798000,394.822000C133.768000,395.785000,133.642000,396.733000,133.442000,397.553000C133.243000,398.371000,132.967000,399.071000,132.633000,399.530000L132.445000,399.391000C132.753000,398.968000,133.019000,398.302000,133.215000,397.497000C133.411000,396.694000,133.535000,395.763000,133.565000,394.815000C133.595000,393.867000,133.530000,392.907000,133.349000,392.046000C133.168000,391.183000,132.873000,390.429000,132.447000,389.885000C131.597000,388.800000,130.087000,387.990000,127.989000,388.062000C125.889000,388.135000,123.197000,389.092000,119.999000,391.553000L119.830000,391.395000C122.784000,386.852000,127.007000,379.118000,130.070000,370.687000C133.136000,362.252000,135.033000,353.140000,133.359000,345.833000C131.261000,336.672000,127.427000,331.903000,122.119000,330.624000Z" clip-rule="evenodd" fill="rgb(0,0,0)" fill-rule="evenodd" stroke="none" stroke-width="1"/><path id="eqbrljynmmp45" d="M147.314000,330.624000C152.638000,329.342000,159.492000,331.554000,167.662000,336.494000L167.782000,336.292000C159.604000,331.348000,152.679000,329.090000,147.260000,330.395000C141.825000,331.705000,137.953000,336.584000,135.847000,345.780000C134.158000,353.156000,136.075000,362.322000,139.144000,370.768000C142.120000,378.959000,146.188000,386.493000,149.132000,391.097000C146.769000,389.701000,144.204000,388.734000,141.860000,388.343000C139.377000,387.929000,137.120000,388.160000,135.624000,389.246000C135.016000,389.687000,134.601000,390.450000,134.322000,391.352000C134.042000,392.257000,133.894000,393.318000,133.834000,394.376000C133.713000,396.489000,133.940000,398.613000,134.178000,399.492000L134.403000,399.430000C134.174000,398.583000,133.947000,396.485000,134.067000,394.389000C134.127000,393.342000,134.272000,392.302000,134.545000,391.422000C134.818000,390.540000,135.213000,389.834000,135.760000,389.437000C137.183000,388.405000,139.364000,388.166000,141.822000,388.575000C144.277000,388.984000,146.986000,390.037000,149.445000,391.560000L149.603000,391.395000C146.650000,386.852000,142.427000,379.118000,139.363000,370.687000C136.298000,362.252000,134.401000,353.140000,136.074000,345.833000C138.172000,336.672000,142.007000,331.903000,147.314000,330.624000Z" clip-rule="evenodd" fill="rgb(0,0,0)" fill-rule="evenodd" stroke="none" stroke-width="1"/><path id="eqbrljynmmp46" d="M112.151000,307.339000C108.471000,310.741000,105.055000,314.972000,103.212000,317.866000L103.015000,317.739000C104.870000,314.828000,108.299000,310.581000,111.993000,307.165000C113.840000,305.457000,115.757000,303.954000,117.579000,302.929000C119.399000,301.906000,121.140000,301.351000,122.630000,301.566000C127.178000,302.220000,130.129000,305.406000,131.366000,309.294000C132.602000,313.179000,132.132000,317.776000,129.834000,321.279000C126.177000,326.854000,121.970000,329.315000,120.668000,329.911000L120.572000,329.697000C121.839000,329.116000,126.010000,326.682000,129.639000,321.150000C131.895000,317.710000,132.359000,313.188000,131.143000,309.366000C129.928000,305.547000,127.040000,302.438000,122.597000,301.799000C121.183000,301.595000,119.497000,302.120000,117.693000,303.135000C115.892000,304.147000,113.990000,305.637000,112.151000,307.339000Z" clip-rule="evenodd" fill="rgb(0,0,0)" fill-rule="evenodd" stroke="none" stroke-width="1"/><path id="eqbrljynmmp47" d="M152.069000,307.339000C155.749000,310.741000,159.165000,314.972000,161.009000,317.866000L161.205000,317.739000C159.351000,314.828000,155.921000,310.581000,152.227000,307.165000C150.380000,305.457000,148.463000,303.954000,146.641000,302.929000C144.822000,301.906000,143.080000,301.351000,141.590000,301.566000C137.042000,302.220000,134.091000,305.406000,132.854000,309.294000C131.618000,313.179000,132.088000,317.776000,134.386000,321.279000C136.216000,324.068000,138.451000,326.312000,140.389000,327.932000C142.325000,329.551000,143.971000,330.552000,144.626000,330.852000L144.722000,330.638000C144.093000,330.350000,142.465000,329.362000,140.538000,327.751000C138.613000,326.142000,136.395000,323.914000,134.581000,321.150000C132.325000,317.710000,131.861000,313.188000,133.077000,309.366000C134.292000,305.547000,137.180000,302.438000,141.623000,301.799000C143.037000,301.595000,144.723000,302.120000,146.527000,303.135000C148.328000,304.147000,150.230000,305.637000,152.069000,307.339000Z" clip-rule="evenodd" fill="rgb(0,0,0)" fill-rule="evenodd" stroke="none" stroke-width="1"/><path id="eqbrljynmmp48" d="M135.113000,288.740000L129.659000,288.740000C129.003000,288.740000,128.396000,289.086000,128.058000,289.652000L124.606000,295.439000C124.277000,295.991000,124.250000,296.675000,124.536000,297.251000L127.502000,303.230000C127.818000,303.868000,128.465000,304.271000,129.173000,304.271000L135.089000,304.271000C135.778000,304.271000,136.411000,303.889000,136.736000,303.276000L139.943000,297.234000C140.243000,296.668000,140.237000,295.987000,139.925000,295.427000L136.743000,289.702000C136.413000,289.108000,135.790000,288.740000,135.113000,288.740000Z" fill="url(#eqbrljynmmp48-fill)" stroke="none" stroke-width="1"/><path id="eqbrljynmmp49" d="M127.957000,289.591000C128.316000,288.990000,128.962000,288.622000,129.658000,288.622000L135.113000,288.622000C135.831000,288.622000,136.494000,289.013000,136.845000,289.644000L140.026000,295.369000C140.357000,295.964000,140.364000,296.688000,140.045000,297.290000L136.839000,303.332000C136.493000,303.982000,135.820000,304.389000,135.088000,304.389000L129.173000,304.389000C128.421000,304.389000,127.733000,303.960000,127.397000,303.283000L124.431000,297.303000C124.127000,296.691000,124.155000,295.965000,124.505000,295.378000L127.957000,289.591000ZM129.658000,288.857000C129.044000,288.857000,128.474000,289.182000,128.157000,289.713000L124.706000,295.500000C124.397000,296.017000,124.372000,296.658000,124.640000,297.198000L127.606000,303.177000C127.902000,303.775000,128.509000,304.153000,129.173000,304.153000L135.088000,304.153000C135.734000,304.153000,136.328000,303.795000,136.633000,303.221000L139.839000,297.179000C140.121000,296.648000,140.115000,296.009000,139.823000,295.484000L136.641000,289.759000C136.331000,289.202000,135.747000,288.857000,135.113000,288.857000L129.658000,288.857000Z" clip-rule="evenodd" fill="rgb(255,255,255)" fill-rule="evenodd" stroke="none" stroke-width="1"/><path id="eqbrljynmmp50" d="M133.938000,291.233000L130.775000,293.676000C130.669000,293.758000,130.556000,293.828000,130.435000,293.885000L126.980000,295.528000C126.029000,295.980000,125.636000,297.133000,126.110000,298.079000L128.105000,302.060000C128.422000,302.694000,129.067000,303.094000,129.772000,303.094000L134.529000,303.094000C135.215000,303.094000,135.846000,302.715000,136.172000,302.106000L138.766000,297.269000C139.072000,296.699000,139.065000,296.010000,138.748000,295.447000L136.701000,291.800000C136.142000,290.805000,134.839000,290.537000,133.938000,291.233000Z" fill="url(#eqbrljynmmp50-fill)" stroke="none" stroke-width="1"/><path id="eqbrljynmmp51" d="M136.396000,291.974000C135.941000,291.165000,134.883000,290.948000,134.151000,291.513000L130.988000,293.956000C130.863000,294.053000,130.727000,294.136000,130.585000,294.204000L127.129000,295.847000C126.357000,296.214000,126.037000,297.151000,126.422000,297.920000L128.417000,301.901000C128.675000,302.416000,129.199000,302.741000,129.772000,302.741000L134.528000,302.741000C135.086000,302.741000,135.599000,302.433000,135.864000,301.939000L138.458000,297.101000C138.706000,296.638000,138.700000,296.079000,138.443000,295.620000L136.396000,291.974000ZM133.725000,290.953000C134.794000,290.126000,136.342000,290.444000,137.005000,291.626000L139.053000,295.273000C139.429000,295.942000,139.437000,296.760000,139.074000,297.436000L136.480000,302.274000C136.093000,302.997000,135.343000,303.447000,134.528000,303.447000L129.772000,303.447000C128.935000,303.447000,128.169000,302.972000,127.792000,302.219000L125.797000,298.238000C125.234000,297.115000,125.701000,295.745000,126.831000,295.208000L130.286000,293.565000C130.383000,293.519000,130.476000,293.462000,130.561000,293.396000L133.725000,290.953000Z" clip-rule="evenodd" fill="url(#eqbrljynmmp51-fill)" fill-rule="evenodd" stroke="none" stroke-width="1"/><path id="eqbrljynmmp52" d="M136.571000,303.565000L125.712000,293.681000L126.763000,291.799000L137.856000,301.212000L136.571000,303.565000Z" fill="rgb(249,246,241)" fill-opacity="0.4" stroke="none" stroke-width="1"/><path id="eqbrljynmmp53" d="M138.323000,300.270000L127.230000,291.092000L127.464000,290.622000L138.557000,299.800000L138.323000,300.270000Z" fill="rgb(249,246,241)" fill-opacity="0.4" stroke="none" stroke-width="1"/><path id="eqbrljynmmp54" d="M140.075000,296.270000L130.967000,288.740000L136.105000,288.975000L140.075000,295.682000L140.075000,296.270000Z" fill="rgb(249,246,241)" fill-opacity="0.4" stroke="none" stroke-width="1"/><path id="eqbrljynmmp55" d="M148.307000,304.301000L147.022000,299.477000L147.248000,299.416000L148.532000,304.240000L148.307000,304.301000Z" clip-rule="evenodd" fill="rgb(0,0,0)" fill-rule="evenodd" stroke="none" stroke-width="1"/><path id="eqbrljynmmp56" d="M115.137000,304.772000L116.421000,299.948000L116.196000,299.887000L114.911000,304.711000L115.137000,304.772000Z" clip-rule="evenodd" fill="rgb(0,0,0)" fill-rule="evenodd" stroke="none" stroke-width="1"/><path id="eqbrljynmmp57" d="M146.012000,256.204000C144.916000,255.576000,143.713000,255.139000,142.763000,254.988000C142.411000,254.932000,141.958000,255.042000,141.472000,255.298000C140.988000,255.552000,140.484000,255.943000,140.037000,256.429000C139.139000,257.404000,138.484000,258.741000,138.642000,260.089000L138.410000,260.116000C138.241000,258.675000,138.941000,257.274000,139.866000,256.269000C140.329000,255.766000,140.854000,255.357000,141.364000,255.089000C141.871000,254.823000,142.377000,254.689000,142.799000,254.756000C143.782000,254.912000,145.011000,255.360000,146.127000,255.999000C147.241000,256.637000,148.257000,257.475000,148.798000,258.420000C149.011000,258.790000,149.040000,259.304000,148.953000,259.852000C148.866000,260.405000,148.660000,261.012000,148.379000,261.585000C148.099000,262.158000,147.741000,262.703000,147.349000,263.129000C146.959000,263.554000,146.525000,263.873000,146.088000,263.974000L146.035000,263.745000C146.406000,263.659000,146.802000,263.379000,147.178000,262.969000C147.552000,262.562000,147.897000,262.037000,148.170000,261.480000C148.443000,260.923000,148.640000,260.339000,148.723000,259.815000C148.806000,259.288000,148.769000,258.839000,148.596000,258.537000C148.085000,257.644000,147.109000,256.832000,146.012000,256.204000Z" clip-rule="evenodd" fill="rgb(0,0,0)" fill-rule="evenodd" stroke="none" stroke-width="1"/><path id="eqbrljynmmp58" d="M237.794000,226.542000L193.274000,399.500000L280,399.500000L280,253.683000L280,128.340000L280,0L171.965000,6.491880L191.788000,43.945100L247.788000,54.931300L237.794000,226.542000Z" fill="url(#eqbrljynmmp58-fill)" stroke="none" stroke-width="1"/><path id="eqbrljynmmp59" d="M242.699000,218.364000L255.940000,206.730000L273.841000,217.667000L272.716000,235.591000L252.995000,247.699000L241.218000,236.938000L242.699000,218.364000Z" fill="rgb(47,30,58)" stroke="none" stroke-width="1"/><path id="eqbrljynmmp60" d="M36.177100,319.600000L57.982400,399.500000L0.000084,399.500000L0.000084,253.683000L0.000084,128.340000L0.000084,0L65.911600,0L69.380600,39.950100L36.177100,73.907600L36.177100,319.600000Z" fill="url(#eqbrljynmmp60-fill)" stroke="none" stroke-width="1"/><path id="eqbrljynmmp61" d="M280,168.789000L58.973600,4.494410L74.832000,0.998779L280,146.816000L280,168.789000Z" fill="rgb(156,231,255)" fill-opacity="0.14" stroke="none" stroke-width="1"/><path id="eqbrljynmmp62" d="M280,78.901400L155.611000,0.998779L170.478000,0.998779L280,56.928800L280,78.901400Z" fill="rgb(156,231,255)" fill-opacity="0.14" stroke="none" stroke-width="1"/><path id="eqbrljynmmp63" d="M213.097000,400L0.495605,180.774000L0.495605,133.333000L280,385.019000L280,400L213.097000,400Z" fill="rgb(156,231,255)" fill-opacity="0.14" stroke="none" stroke-width="1"/><path id="eqbrljynmmp64" d="M185.841000,48.938800C236.885000,48.938800,266.619000,27.465700,280,14.981300L280,0L64.424800,0C89.368800,16.479400,134.796000,48.938800,185.841000,48.938800Z" fill="rgb(67,96,108)" stroke="none" stroke-width="1"/><path id="eqbrljynmmp65" d="M94.654900,48.938800C46.088500,51.435700,15.858400,41.947600,0,32.958800L0,0L216.071000,0C191.127000,16.479400,143.221000,46.441900,94.654900,48.938800Z" fill="rgb(67,96,108)" stroke="none" stroke-width="1"/></svg>