<svg id="campaign_desktop_night" xmlns="http://www.w3.org/2000/svg" xmlns:xlink="http://www.w3.org/1999/xlink" viewBox="0 0 480 600" shape-rendering="geometricPrecision" text-rendering="geometricPrecision" width="480" height="600"><style><![CDATA[#campaign_desktop_night-ray_back {animation: campaign_desktop_night-ray_back_c_o 3000ms linear infinite normal forwards}@keyframes campaign_desktop_night-ray_back_c_o { 0% {opacity: 1;animation-timing-function: cubic-bezier(0.420000,0,0.580000,1)} 50% {opacity: 0.400000;animation-timing-function: cubic-bezier(0.420000,0,0.580000,1)} 100% {opacity: 1} }#campaign_desktop_night-ray_back02 {animation: campaign_desktop_night-ray_back02_c_o 3000ms linear infinite normal forwards}@keyframes campaign_desktop_night-ray_back02_c_o { 0% {opacity: 1;animation-timing-function: cubic-bezier(0.420000,0,0.580000,1)} 50% {opacity: 0.500000;animation-timing-function: cubic-bezier(0.420000,0,0.580000,1)} 100% {opacity: 1} }#campaign_desktop_night-ray_front03 {animation: campaign_desktop_night-ray_front03_c_o 3000ms linear infinite normal forwards}@keyframes campaign_desktop_night-ray_front03_c_o { 0% {opacity: 1;animation-timing-function: cubic-bezier(0.420000,0,1,1)} 16.666667% {opacity: 0.500000;animation-timing-function: cubic-bezier(0.420000,0,1,1)} 66.666667% {opacity: 0.600000;animation-timing-function: cubic-bezier(0.420000,0,1,1)} 100% {opacity: 1} }#campaign_desktop_night-ray_front02 {animation: campaign_desktop_night-ray_front02_c_o 3000ms linear infinite normal forwards}@keyframes campaign_desktop_night-ray_front02_c_o { 0% {opacity: 1;animation-timing-function: cubic-bezier(0.420000,0,1,1)} 43.333333% {opacity: 0.700000;animation-timing-function: cubic-bezier(0.420000,0,1,1)} 73.333333% {opacity: 0.900000;animation-timing-function: cubic-bezier(0.420000,0,1,1)} 100% {opacity: 1} }#campaign_desktop_night-ray_front {animation: campaign_desktop_night-ray_front_c_o 3000ms linear infinite normal forwards}@keyframes campaign_desktop_night-ray_front_c_o { 0% {opacity: 1;animation-timing-function: cubic-bezier(0.420000,0,1,1)} 33.333333% {opacity: 0.600000;animation-timing-function: cubic-bezier(0.420000,0,1,1)} 66.666667% {opacity: 0.700000;animation-timing-function: cubic-bezier(0.420000,0,1,1)} 100% {opacity: 1} }]]></style><defs><radialGradient id="campaign_desktop_night-rect1-fill" cx="0" cy="0" r="1" spreadMethod="pad" gradientUnits="userSpaceOnUse" gradientTransform="matrix(0.00000000000002 245 -245 0.00000000000002 240 0)"><stop id="campaign_desktop_night-rect1-fill-0" offset="0%" stop-color="rgb(37,108,118)"/><stop id="campaign_desktop_night-rect1-fill-1" offset="100%" stop-color="rgb(31,51,103)"/></radialGradient><linearGradient id="campaign_desktop_night-path8-fill" x1="383.379000" y1="0" x2="383.379000" y2="600" spreadMethod="pad" gradientUnits="userSpaceOnUse"><stop id="campaign_desktop_night-path8-fill-0" offset="0%" stop-color="rgb(96,49,86)"/><stop id="campaign_desktop_night-path8-fill-1" offset="100%" stop-color="rgb(53,47,92)"/></linearGradient><linearGradient id="campaign_desktop_night-path10-fill" x1="365.476000" y1="400.613000" x2="365.476000" y2="600.109000" spreadMethod="pad" gradientUnits="userSpaceOnUse"><stop id="campaign_desktop_night-path10-fill-0" offset="0%" stop-color="rgb(154,103,33)"/><stop id="campaign_desktop_night-path10-fill-1" offset="100%" stop-color="rgb(111,19,79)"/></linearGradient><linearGradient id="campaign_desktop_night-path26-fill" x1="94.500000" y1="1" x2="94.500000" y2="600" spreadMethod="pad" gradientUnits="userSpaceOnUse"><stop id="campaign_desktop_night-path26-fill-0" offset="0%" stop-color="rgb(96,49,86)"/><stop id="campaign_desktop_night-path26-fill-1" offset="100%" stop-color="rgb(53,47,92)"/></linearGradient></defs><rect id="campaign_desktop_night-rect1" width="480" height="600" rx="0" ry="0" fill="url(#campaign_desktop_night-rect1-fill)" stroke="none" stroke-width="1"/><path id="campaign_desktop_night-path1" d="M479,0L479,65.600000C461.716000,95.418200,436.917000,123,364.775000,123C248.616000,123,230.761000,35.036400,225,0L479,0Z" fill="rgb(71,85,159)" stroke="none" stroke-width="1"/><path id="campaign_desktop_night-path2" d="M254,0L254,65.600000C236.716000,95.418200,211.917000,123,139.775000,123C23.616300,123,5.761340,35.036400,0,0L254,0Z" fill="rgb(71,85,159)" stroke="none" stroke-width="1"/><path id="campaign_desktop_night-path3" d="M311.750000,600L258,600L285.500000,0L338,0L311.750000,600Z" fill="rgb(119,108,242)" stroke="none" stroke-width="1"/><path id="campaign_desktop_night-ray_back" d="M480,253L84,0L104,0L480,231L480,253Z" fill="rgb(156,231,255)" fill-opacity="0.14" stroke="none" stroke-width="1"/><path id="campaign_desktop_night-path4" d="M99.372100,600L52,600L99.372100,0L149,0L99.372100,600Z" fill="rgb(119,108,242)" stroke="none" stroke-width="1"/><path id="campaign_desktop_night-ray_back02" d="M480,436L0,81L0,59L480,415L480,436Z" fill="rgb(156,231,255)" fill-opacity="0.14" stroke="none" stroke-width="1"/><path id="campaign_desktop_night-path5" d="M245,600L206,600L239,0L269,0L245,600Z" fill="rgb(59,64,176)" stroke="none" stroke-width="1"/><path id="campaign_desktop_night-path6" d="M204,1L147.209000,1L136,600L204,600L204,1Z" fill="rgb(93,65,138)" stroke="none" stroke-width="1"/><path id="campaign_desktop_night-path7" d="M378.871000,1L325,1L362.410000,599L429,599L378.871000,1Z" fill="rgb(93,65,138)" stroke="none" stroke-width="1"/><path id="campaign_desktop_night-path8" d="M480,600L352.678000,600C367.907000,582.507000,400.461000,537.376000,408.849000,500.791000C417.238000,464.206000,415.840000,365.098000,414.092000,320.116000L325.716000,236.901000L286.757000,175.745000L292,163L337.699000,209.163000L414.092000,254.144000L398.364000,0L480,0L480,600Z" fill="url(#campaign_desktop_night-path8-fill)" stroke="none" stroke-width="1"/><path id="campaign_desktop_night-path9" d="M312.023000,398.101000C315.603000,396.055000,318.672000,398.101000,320.718000,402.193000C318.672000,401.784000,313.557000,404.751000,309.977000,408.331000C308.442000,403.728000,307.283000,400.810000,312.023000,398.101000Z" fill="rgb(154,103,33)" stroke="none" stroke-width="1"/><path id="campaign_desktop_night-path10" d="M465.476000,600L265.476000,600C266,596.767000,266.468000,593.596000,266.945000,590.255000C269.504000,572.321000,272.309000,552.663000,285.342000,529.513000C281.658000,527.690000,278.647000,523.934000,276.729000,517.794000C274.171000,509.610000,281.235000,501.472000,288.493000,494.265000C295.474000,487.333000,301.801000,479.584000,310.920000,465.352000C308.780000,450.784000,301.474000,439.790000,298.212000,435.441000C287.087000,420.607000,322.765000,389.405000,337.087000,404.751000C338.335000,406.088000,340.364000,408.604000,343.061000,411.949000C353.853000,425.333000,375.359000,452.003000,400.514000,469.712000C464.453000,514.725000,465.476000,563.171000,465.476000,600Z" clip-rule="evenodd" fill="url(#campaign_desktop_night-path10-fill)" fill-rule="evenodd" stroke="none" stroke-width="1"/><path id="campaign_desktop_night-path11" d="M365.792000,477.664000C360.320000,476.325000,354.056000,475.849000,348.279000,477.706000C341.024000,480.038000,335.616000,488.043000,334.714000,496.282000C334.263000,500.409000,334.939000,504.609000,337.091000,508.203000C339.245000,511.799000,342.868000,514.771000,348.281000,516.451000C352.638000,517.803000,363.132000,520.362000,374.002000,522.646000C384.869000,524.930000,396.138000,526.944000,402.040000,527.201000C413.604000,527.704000,422.503000,523.218000,426.962000,516.190000C431.422000,509.158000,431.407000,499.627000,425.234000,490.110000L424.898000,490.328000C431.002000,499.737000,430.986000,509.098000,426.624000,515.976000C422.258000,522.857000,413.511000,527.299000,402.057000,526.801000C396.194000,526.547000,384.957000,524.540000,374.085000,522.255000C363.216000,519.971000,352.738000,517.415000,348.399000,516.069000C343.071000,514.415000,339.532000,511.500000,337.434000,507.997000C335.335000,504.492000,334.668000,500.382000,335.112000,496.326000C336.001000,488.201000,341.334000,480.359000,348.401000,478.087000C354.082000,476.261000,360.265000,476.723000,365.697000,478.052000C371.127000,479.381000,375.789000,481.573000,378.415000,483.182000L378.624000,482.841000C375.964000,481.211000,371.265000,479.003000,365.792000,477.664000Z" clip-rule="evenodd" fill="rgb(0,0,0)" fill-rule="evenodd" stroke="none" stroke-width="1"/><path id="campaign_desktop_night-path12" d="M342.202000,398.613000C342.202000,407.096000,340.667000,403.216000,339.133000,411.400000C336.575000,405.774000,328.391000,402.705000,326.345000,404.239000C323.276000,401.170000,322.764000,397.385000,324.810000,392.475000C327.368000,386.337000,342.202000,390.130000,342.202000,398.613000Z" fill="rgb(154,103,33)" stroke="none" stroke-width="1"/><path id="campaign_desktop_night-path13" d="M309.465000,416.515000L300.769000,416.515000L297.189000,422.142000L300.769000,425.211000L309.465000,416.515000Z" fill="rgb(0,0,0)" stroke="none" stroke-width="1"/><path id="campaign_desktop_night-path14" d="M301.740000,428.288000C302.027000,429.061000,302.336000,429.815000,302.637000,430.416000C303.245000,431.631000,304.356000,432.364000,305.718000,432.718000C307.078000,433.071000,308.699000,433.052000,310.363000,432.761000C313.687000,432.180000,317.244000,430.502000,319.325000,428.421000L319.042000,428.139000C317.031000,430.150000,313.555000,431.797000,310.294000,432.367000C308.665000,432.652000,307.105000,432.665000,305.819000,432.330000C304.536000,431.997000,303.537000,431.323000,302.994000,430.237000C302.185000,428.618000,301.303000,425.837000,300.962000,424.645000L300.575000,424.745000C300.605000,424.872000,300.638000,425.011000,300.673000,425.158000C301.044000,426.709000,301.669000,429.321000,301.593000,431.470000C301.550000,432.650000,301.297000,433.642000,300.720000,434.248000C300.159000,434.838000,299.243000,435.109000,297.749000,434.736000L297.652000,435.124000C299.227000,435.517000,300.314000,435.256000,301.010000,434.524000C301.691000,433.809000,301.949000,432.691000,301.992000,431.484000C302.029000,430.465000,301.912000,429.348000,301.740000,428.288000Z" clip-rule="evenodd" fill="rgb(0,0,0)" fill-rule="evenodd" stroke="none" stroke-width="1"/><path id="campaign_desktop_night-path15" d="M308.953000,416.515000L314.580000,404.797000C314.580000,404.797000,311,406.291000,307.419000,409.912000C303.838000,413.533000,301.281000,416.515000,301.281000,416.515000L308.953000,416.515000Z" fill="rgb(198,135,49)" stroke="none" stroke-width="1"/><path id="campaign_desktop_night-path16" d="M316.115000,406.797000C316.115000,407.644000,316.802000,408.331000,317.649000,408.331000C318.497000,408.331000,319.184000,407.644000,319.184000,406.797000C319.184000,405.949000,318.497000,405.262000,317.649000,405.262000C316.802000,405.262000,316.115000,405.949000,316.115000,406.797000Z" fill="rgb(0,0,0)" stroke="none" stroke-width="1"/><path id="campaign_desktop_night-path17" d="M283.509000,500.042000C292.790000,491.959000,303.494000,477.541000,311.172000,464.232000L310.826000,464.032000C303.159000,477.322000,292.480000,491.698000,283.246000,499.741000C275.241000,506.713000,274.978000,515.897000,278.534000,522.619000C282.081000,529.326000,289.464000,533.631000,296.750000,530.768000C311.104000,525.129000,321.867000,516.927000,331.086000,508.221000C333.598000,505.848000,334.640000,502.002000,334.354000,498.003000C334.069000,494,332.451000,489.807000,329.598000,486.711000C326.740000,483.610000,322.644000,481.613000,317.424000,482.011000C312.211000,482.408000,305.899000,485.193000,298.591000,491.603000L298.855000,491.904000C306.125000,485.527000,312.358000,482.798000,317.454000,482.410000C322.544000,482.022000,326.523000,483.965000,329.304000,486.982000C332.089000,490.005000,333.675000,494.108000,333.955000,498.031000C334.236000,501.958000,333.207000,505.667000,330.811000,507.930000C321.615000,516.615000,310.895000,524.781000,296.604000,530.396000C289.568000,533.160000,282.373000,529.024000,278.887000,522.432000C275.409000,515.855000,275.658000,506.880000,283.509000,500.042000Z" clip-rule="evenodd" fill="rgb(0,0,0)" fill-rule="evenodd" stroke="none" stroke-width="1"/><path id="campaign_desktop_night-path18" d="M439.566000,599.543000C434.952000,590.657000,421.122000,570.646000,402.676000,557.529000L402.444000,557.855000C420.626000,570.785000,434.318000,590.449000,439.058000,599.436000L334.729000,599.436000L334.729000,579.687000C334.729000,577.072000,336.068000,574.403000,338.527000,572.063000C340.985000,569.724000,344.552000,567.723000,348.971000,566.452000C357.807000,563.909000,370.033000,564.285000,383.549000,570.660000L383.719000,570.299000C370.125000,563.886000,357.799000,563.495000,348.860000,566.067000C344.392000,567.353000,340.765000,569.381000,338.252000,571.773000C335.739000,574.164000,334.329000,576.931000,334.329000,579.687000L334.329000,599.836000L439.718000,599.836000L439.566000,599.543000Z" clip-rule="evenodd" fill="rgb(0,0,0)" fill-rule="evenodd" stroke="none" stroke-width="1"/><path id="campaign_desktop_night-path19" d="M333.933000,526.487000C335.461000,522.416000,338.996000,518.644000,345.361000,515.462000L345.182000,515.104000C338.759000,518.316000,335.133000,522.153000,333.559000,526.346000C331.986000,530.539000,332.478000,535.052000,334.215000,539.587000C337.685000,548.648000,346.156000,557.883000,353.314000,565.041000L353.597000,564.758000C346.433000,557.594000,338.024000,548.415000,334.588000,539.444000C332.873000,534.965000,332.406000,530.558000,333.933000,526.487000Z" clip-rule="evenodd" fill="rgb(0,0,0)" fill-rule="evenodd" stroke="none" stroke-width="1"/><path id="campaign_desktop_night-path20" d="M331.271000,516.469000C329.272000,514.733000,326.925000,513.549000,324.810000,513.549000L324.810000,513.949000C326.788000,513.949000,329.045000,515.066000,331.009000,516.771000C332.970000,518.473000,334.609000,520.735000,335.363000,522.973000L335.742000,522.846000C334.961000,520.527000,333.275000,518.208000,331.271000,516.469000Z" clip-rule="evenodd" fill="rgb(0,0,0)" fill-rule="evenodd" stroke="none" stroke-width="1"/><path id="campaign_desktop_night-path21" d="M325.275000,561.385000C333.229000,560.742000,341.385000,562.257000,351.346000,565.554000L351.472000,565.175000C341.485000,561.869000,333.272000,560.338000,325.242000,560.986000C317.211000,561.634000,309.381000,564.461000,300.158000,569.842000C292.684000,574.201000,290.349000,576.556000,288.673000,578.246000C288.564000,578.356000,288.457000,578.464000,288.352000,578.569000L288.635000,578.852000C288.741000,578.746000,288.848000,578.638000,288.958000,578.527000C290.616000,576.855000,292.928000,574.522000,300.359000,570.187000C309.550000,564.826000,317.321000,562.027000,325.275000,561.385000Z" clip-rule="evenodd" fill="rgb(0,0,0)" fill-rule="evenodd" stroke="none" stroke-width="1"/><path id="campaign_desktop_night-path22" d="M341.523000,551.491000L334.873000,561.721000L335.209000,561.939000L341.858000,551.709000L341.523000,551.491000Z" clip-rule="evenodd" fill="rgb(0,0,0)" fill-rule="evenodd" stroke="none" stroke-width="1"/><path id="campaign_desktop_night-path23" d="M329.926000,400.658000C331.873000,401.288000,334.870000,403.728000,336.064000,405.262000C336.064000,402.193000,339.133000,398.659000,333.506000,395.078000C327.257000,391.101000,325.322000,399.170000,329.926000,400.658000Z" fill="rgb(251,171,126)" stroke="none" stroke-width="1"/><path id="campaign_desktop_night-path24" d="M336.590000,390.961000C340.008000,392.859000,342.746000,396.252000,342.498000,399.980000C342.282000,403.210000,340.807000,407.077000,339.965000,408.591000L340.315000,408.786000C341.178000,407.231000,342.677000,403.308000,342.897000,400.006000C343.160000,396.061000,340.272000,392.548000,336.784000,390.611000C335.035000,389.639000,333.118000,389.052000,331.338000,389.003000C329.557000,388.954000,327.899000,389.444000,326.699000,390.644000C322.948000,394.396000,323.238000,399.448000,324.115000,401.553000L324.484000,401.399000C323.656000,399.412000,323.368000,394.541000,326.982000,390.927000C328.084000,389.825000,329.623000,389.356000,331.327000,389.403000C333.031000,389.450000,334.886000,390.014000,336.590000,390.961000Z" clip-rule="evenodd" fill="rgb(17,17,17)" fill-rule="evenodd" stroke="none" stroke-width="1"/><path id="campaign_desktop_night-path25" d="M316.177000,398.027000C317.652000,398.492000,319.051000,399.612000,320.028000,401.566000L320.386000,401.387000C319.365000,399.346000,317.887000,398.146000,316.297000,397.645000C314.711000,397.145000,313.030000,397.345000,311.610000,398.076000C310.191000,398.807000,309.028000,400.070000,308.481000,401.700000C307.932000,403.332000,308.005000,405.318000,309.030000,407.484000L309.392000,407.313000C308.406000,405.229000,308.348000,403.351000,308.860000,401.827000C309.372000,400.302000,310.461000,399.118000,311.793000,398.432000C313.126000,397.746000,314.699000,397.560000,316.177000,398.027000Z" clip-rule="evenodd" fill="rgb(0,0,0)" fill-rule="evenodd" stroke="none" stroke-width="1"/><path id="campaign_desktop_night-path26" d="M138.202000,1L0,1L0,600L189,600C178.791000,582.757000,110.254000,527.813000,103.838000,500.292000C49.304300,266.389000,52.292500,75.968700,138.202000,1Z" fill="url(#campaign_desktop_night-path26-fill)" stroke="none" stroke-width="1"/><path id="campaign_desktop_night-ray_front03" d="M480,169L209,1L241,1L480,128L480,169Z" fill="rgb(156,231,255)" fill-opacity="0.14" stroke="none" stroke-width="1"/><path id="campaign_desktop_night-ray_front02" d="M480,361.500000L1,31L1,3L480,320L480,361.500000Z" fill="rgb(156,231,255)" fill-opacity="0.14" stroke="none" stroke-width="1"/><path id="campaign_desktop_night-ray_front" d="M412.283000,600L0,170L0,125L480,482L480,600L412.283000,600Z" fill="rgb(156,231,255)" fill-opacity="0.14" stroke="none" stroke-width="1"/><path id="campaign_desktop_night-path27" d="M0,74.370800L0,0L236,0C236,69.112300,104.471000,136.722000,0,74.370800Z" fill="rgb(67,96,108)" stroke="none" stroke-width="1"/><path id="campaign_desktop_night-path28" d="M480,47.411800L480,0L210,0C210,47.411800,365.788000,117.401000,480,47.411800Z" fill="rgb(67,96,108)" stroke="none" stroke-width="1"/></svg>