<svg id="ebd3p3l3lvl1" xmlns="http://www.w3.org/2000/svg" xmlns:xlink="http://www.w3.org/1999/xlink" viewBox="0 0 280 400" shape-rendering="geometricPrecision" text-rendering="geometricPrecision"><style><![CDATA[#ebd3p3l3lvl33 {animation: ebd3p3l3lvl33_c_o 3000ms linear infinite normal forwards}@keyframes ebd3p3l3lvl33_c_o { 0% {opacity: 1;animation-timing-function: cubic-bezier(0.420000,0,0.580000,1)} 50% {opacity: 0.600000;animation-timing-function: cubic-bezier(0.420000,0,0.580000,1)} 100% {opacity: 1} }]]></style><defs><linearGradient id="ebd3p3l3lvl14-fill" x1="219.750000" y1="0" x2="219.750000" y2="399.888000" spreadMethod="pad" gradientUnits="userSpaceOnUse"><stop id="ebd3p3l3lvl14-fill-0" offset="0%" stop-color="rgb(96,49,86)"/><stop id="ebd3p3l3lvl14-fill-1" offset="100%" stop-color="rgb(53,47,92)"/></linearGradient><linearGradient id="ebd3p3l3lvl16-fill" x1="214.493000" y1="280.859000" x2="214.493000" y2="400" spreadMethod="pad" gradientUnits="userSpaceOnUse"><stop id="ebd3p3l3lvl16-fill-0" offset="0%" stop-color="rgb(154,103,33)"/><stop id="ebd3p3l3lvl16-fill-1" offset="100%" stop-color="rgb(126,39,11)"/></linearGradient><linearGradient id="ebd3p3l3lvl32-fill" x1="63.178000" y1="0.500000" x2="63.178000" y2="399.888000" spreadMethod="pad" gradientUnits="userSpaceOnUse"><stop id="ebd3p3l3lvl32-fill-0" offset="0%" stop-color="rgb(96,49,86)"/><stop id="ebd3p3l3lvl32-fill-1" offset="100%" stop-color="rgb(53,47,92)"/></linearGradient></defs><rect id="ebd3p3l3lvl2" width="279.681000" height="399.888000" rx="0" ry="0" fill="rgb(255,215,172)" stroke="none" stroke-width="1"/><g id="ebd3p3l3lvl3"><path id="ebd3p3l3lvl4" d="M279.681000,0L279.681000,43.987700C268.194000,63.982100,251.713000,82.476900,203.768000,82.476900C126.569000,82.476900,114.703000,23.493400,110.874000,0L279.681000,0Z" fill="rgb(181,105,73)" stroke="none" stroke-width="1"/><path id="ebd3p3l3lvl5" d="M168.808000,0L168.808000,43.987700C157.321000,63.982100,140.839000,82.476900,92.894100,82.476900C15.695300,82.476900,3.828970,23.493400,0,0L168.808000,0Z" fill="rgb(181,105,73)" stroke="none" stroke-width="1"/></g><path id="ebd3p3l3lvl6" d="M179.296000,399.888000L148.830000,399.888000L161.816000,0L196.776000,0L179.296000,399.888000Z" fill="rgb(242,148,108)" stroke="none" stroke-width="1"/><path id="ebd3p3l3lvl7" d="M279.681000,180.949000L50.941900,0L60.930500,0L279.681000,168.953000L279.681000,180.949000Z" fill="rgb(255,239,156)" fill-opacity="0.14" stroke="none" stroke-width="1"/><path id="ebd3p3l3lvl8" d="M62.428700,399.888000L30.964600,399.888000L62.428700,0L95.391200,0L62.428700,399.888000Z" fill="rgb(242,148,108)" stroke="none" stroke-width="1"/><path id="ebd3p3l3lvl9" d="M280,291.418000L0,68.980700L0,58.983500L280,280.921000L280,291.418000Z" fill="rgb(255,239,156)" fill-opacity="0.14" stroke="none" stroke-width="1"/><path id="ebd3p3l3lvl10" d="M137.343000,399.888000L119.863000,399.888000L138.342000,0L154.823000,0L137.343000,399.888000Z" fill="rgb(221,117,110)" stroke="none" stroke-width="1"/><path id="ebd3p3l3lvl11" d="M151.328000,398.888000L0,214.440000L0,195.445000L197.775000,398.888000L151.328000,398.888000Z" fill="rgb(255,239,156)" fill-opacity="0.14" stroke="none" stroke-width="1"/><path id="ebd3p3l3lvl12" d="M123.359000,0.500000L85.402600,0.500000L77.911100,399.388000L123.359000,399.388000L123.359000,0.500000Z" fill="rgb(138,65,82)" stroke="none" stroke-width="1"/><path id="ebd3p3l3lvl13" d="M216.753000,0.500000L180.794000,0.500000L205.765000,399.388000L250.215000,399.388000L216.753000,0.500000Z" fill="rgb(138,65,82)" stroke="none" stroke-width="1"/><path id="ebd3p3l3lvl14" d="M279.681000,399.888000L194.279000,399.388000C204.434000,387.725000,226.142000,358.300000,231.736000,333.907000C237.330000,309.513000,236.397000,243.432000,235.232000,213.440000L176.299000,157.956000L159.818000,122.966000L163.314000,114.468000L184.290000,139.461000L235.232000,169.453000L224.744000,0L279.681000,0L279.681000,399.888000Z" fill="url(#ebd3p3l3lvl14-fill)" stroke="none" stroke-width="1"/><path id="ebd3p3l3lvl15" d="M182.598000,279.359000C184.735000,278.137000,186.566000,279.359000,187.787000,281.802000C186.566000,281.558000,183.514000,283.330000,181.377000,285.468000C180.462000,282.719000,179.770000,280.976000,182.598000,279.359000Z" fill="rgb(154,103,33)" stroke="none" stroke-width="1"/><path id="ebd3p3l3lvl16" d="M274.163000,400L154.824000,400C155.136000,398.069000,155.416000,396.110000,155.700000,394.115000C157.227000,383.404000,158.901000,371.664000,166.678000,357.839000C164.479000,356.751000,162.683000,354.507000,161.538000,350.841000C160.012000,345.953000,164.227000,341.093000,168.558000,336.789000C172.723000,332.649000,176.499000,328.021000,181.940000,319.522000C180.663000,310.821000,176.304000,304.256000,174.357000,301.658000C167.719000,292.800000,189.008000,274.165000,197.554000,283.330000C198.299000,284.129000,199.509000,285.631000,201.119000,287.629000C207.558000,295.622000,220.391000,311.549000,235.401000,322.125000C273.553000,349.008000,274.163000,378.006000,274.163000,400Z" clip-rule="evenodd" fill="url(#ebd3p3l3lvl16-fill)" fill-rule="evenodd" stroke="none" stroke-width="1"/><path id="ebd3p3l3lvl17" d="M214.682000,326.874000C211.417000,326.075000,207.679000,325.791000,204.232000,326.900000C199.903000,328.292000,196.676000,333.073000,196.138000,337.994000C195.869000,340.458000,196.272000,342.967000,197.556000,345.113000C198.842000,347.260000,201.003000,349.035000,204.233000,350.038000C206.833000,350.846000,213.095000,352.374000,219.581000,353.738000C226.066000,355.102000,232.790000,356.305000,236.311000,356.459000C243.211000,356.759000,248.522000,354.080000,251.182000,349.882000C253.844000,345.683000,253.834000,339.991000,250.151000,334.307000L249.951000,334.437000C253.593000,340.057000,253.584000,345.647000,250.980000,349.754000C248.376000,353.864000,243.156000,356.517000,236.322000,356.220000C232.823000,356.068000,226.118000,354.869000,219.630000,353.505000C213.145000,352.141000,206.893000,350.614000,204.304000,349.810000C201.124000,348.822000,199.013000,347.082000,197.761000,344.990000C196.508000,342.896000,196.111000,340.442000,196.375000,338.020000C196.906000,333.167000,200.088000,328.484000,204.305000,327.127000C207.695000,326.036000,211.384000,326.312000,214.625000,327.106000C217.866000,327.900000,220.647000,329.209000,222.214000,330.170000L222.339000,329.966000C220.752000,328.993000,217.948000,327.674000,214.682000,326.874000Z" clip-rule="evenodd" fill="rgb(0,0,0)" fill-rule="evenodd" stroke="none" stroke-width="1"/><path id="ebd3p3l3lvl18" d="M200.606000,279.664000C200.606000,284.730000,199.690000,282.414000,198.775000,287.301000C197.249000,283.941000,192.365000,282.108000,191.144000,283.024000C189.313000,281.192000,189.008000,278.931000,190.229000,275.999000C191.755000,272.333000,200.606000,274.598000,200.606000,279.664000Z" fill="rgb(154,103,33)" stroke="none" stroke-width="1"/><path id="ebd3p3l3lvl19" d="M181.072000,290.356000L175.883000,290.356000L173.747000,293.716000L175.883000,295.549000L181.072000,290.356000Z" fill="rgb(0,0,0)" stroke="none" stroke-width="1"/><path id="ebd3p3l3lvl20" d="M176.462000,297.387000C176.634000,297.848000,176.818000,298.298000,176.997000,298.657000C177.360000,299.383000,178.023000,299.821000,178.836000,300.032000C179.647000,300.243000,180.615000,300.231000,181.607000,300.058000C183.591000,299.711000,185.714000,298.709000,186.955000,297.466000L186.787000,297.297000C185.587000,298.498000,183.512000,299.482000,181.566000,299.823000C180.594000,299.993000,179.664000,300,178.896000,299.801000C178.131000,299.602000,177.535000,299.199000,177.211000,298.550000C176.728000,297.584000,176.201000,295.923000,175.998000,295.211000L175.767000,295.271000C175.785000,295.347000,175.805000,295.429000,175.826000,295.518000C176.047000,296.443000,176.420000,298.003000,176.374000,299.287000C176.349000,299.991000,176.198000,300.584000,175.854000,300.946000C175.519000,301.298000,174.972000,301.460000,174.081000,301.237000L174.023000,301.469000C174.963000,301.704000,175.611000,301.548000,176.027000,301.111000C176.433000,300.684000,176.587000,300.016000,176.613000,299.295000C176.635000,298.687000,176.565000,298.019000,176.462000,297.387000Z" clip-rule="evenodd" fill="rgb(0,0,0)" fill-rule="evenodd" stroke="none" stroke-width="1"/><path id="ebd3p3l3lvl21" d="M180.767000,290.356000L184.124000,283.357000C184.124000,283.357000,181.988000,284.250000,179.851000,286.412000C177.715000,288.575000,176.189000,290.356000,176.189000,290.356000L180.767000,290.356000Z" fill="rgb(198,135,49)" stroke="none" stroke-width="1"/><path id="ebd3p3l3lvl22" d="M185.040000,284.552000C185.040000,285.058000,185.450000,285.469000,185.955000,285.469000C186.461000,285.469000,186.871000,285.058000,186.871000,284.552000C186.871000,284.046000,186.461000,283.635000,185.955000,283.635000C185.450000,283.635000,185.040000,284.046000,185.040000,284.552000Z" fill="rgb(0,0,0)" stroke="none" stroke-width="1"/><path id="ebd3p3l3lvl23" d="M165.585000,340.239000C171.122000,335.412000,177.509000,326.801000,182.091000,318.853000L181.884000,318.733000C177.309000,326.670000,170.938000,335.256000,165.428000,340.059000C160.651000,344.223000,160.494000,349.707000,162.616000,353.722000C164.732000,357.728000,169.138000,360.298000,173.485000,358.589000C182.050000,355.221000,188.472000,350.323000,193.973000,345.123000C195.473000,343.706000,196.094000,341.409000,195.924000,339.021000C195.753000,336.630000,194.788000,334.126000,193.086000,332.277000C191.380000,330.426000,188.936000,329.233000,185.821000,329.470000C182.711000,329.708000,178.944000,331.371000,174.584000,335.199000L174.741000,335.379000C179.079000,331.570000,182.798000,329.941000,185.839000,329.709000C188.876000,329.477000,191.250000,330.637000,192.910000,332.439000C194.572000,334.244000,195.518000,336.695000,195.686000,339.038000C195.853000,341.383000,195.239000,343.598000,193.809000,344.950000C188.322000,350.136000,181.925000,355.014000,173.398000,358.366000C169.200000,360.017000,164.907000,357.547000,162.827000,353.610000C160.751000,349.683000,160.900000,344.323000,165.585000,340.239000Z" clip-rule="evenodd" fill="rgb(0,0,0)" fill-rule="evenodd" stroke="none" stroke-width="1"/><path id="ebd3p3l3lvl24" d="M258.703000,399.662000C255.950000,394.355000,247.698000,382.404000,236.691000,374.571000L236.552000,374.765000C247.402000,382.487000,255.571000,394.231000,258.400000,399.598000L196.147000,399.598000L196.147000,387.803000C196.147000,386.242000,196.946000,384.648000,198.413000,383.251000C199.880000,381.853000,202.008000,380.659000,204.645000,379.899000C209.917000,378.381000,217.213000,378.605000,225.278000,382.413000L225.379000,382.197000C217.268000,378.367000,209.913000,378.134000,204.579000,379.670000C201.913000,380.438000,199.748000,381.649000,198.249000,383.078000C196.750000,384.505000,195.908000,386.158000,195.908000,387.803000L195.908000,399.837000L258.793000,399.837000L258.703000,399.662000Z" clip-rule="evenodd" fill="rgb(0,0,0)" fill-rule="evenodd" stroke="none" stroke-width="1"/><path id="ebd3p3l3lvl25" d="M195.672000,356.032000C196.584000,353.601000,198.693000,351.348000,202.491000,349.448000L202.384000,349.234000C198.551000,351.152000,196.388000,353.443000,195.449000,355.948000C194.510000,358.452000,194.804000,361.147000,195.840000,363.856000C197.911000,369.267000,202.965000,374.782000,207.237000,379.057000L207.405000,378.888000C203.131000,374.610000,198.113000,369.127000,196.063000,363.770000C195.039000,361.095000,194.761000,358.463000,195.672000,356.032000Z" clip-rule="evenodd" fill="rgb(0,0,0)" fill-rule="evenodd" stroke="none" stroke-width="1"/><path id="ebd3p3l3lvl26" d="M194.084000,350.049000C192.891000,349.012000,191.490000,348.305000,190.229000,348.305000L190.229000,348.544000C191.409000,348.544000,192.756000,349.211000,193.928000,350.230000C195.098000,351.246000,196.076000,352.597000,196.525000,353.934000L196.751000,353.857000C196.286000,352.473000,195.280000,351.088000,194.084000,350.049000Z" clip-rule="evenodd" fill="rgb(0,0,0)" fill-rule="evenodd" stroke="none" stroke-width="1"/><path id="ebd3p3l3lvl27" d="M190.505000,376.873000C195.252000,376.490000,200.118000,377.394000,206.062000,379.363000L206.137000,379.137000C200.178000,377.163000,195.278000,376.248000,190.486000,376.635000C185.694000,377.022000,181.022000,378.711000,175.518000,381.924000C171.059000,384.527000,169.666000,385.934000,168.666000,386.943000C168.600000,387.009000,168.537000,387.073000,168.474000,387.136000L168.643000,387.305000C168.706000,387.242000,168.770000,387.177000,168.835000,387.111000C169.825000,386.112000,171.204000,384.719000,175.638000,382.130000C181.123000,378.929000,185.760000,377.257000,190.505000,376.873000Z" clip-rule="evenodd" fill="rgb(0,0,0)" fill-rule="evenodd" stroke="none" stroke-width="1"/><path id="ebd3p3l3lvl28" d="M200.201000,370.965000L196.233000,377.074000L196.433000,377.205000L200.401000,371.095000L200.201000,370.965000Z" clip-rule="evenodd" fill="rgb(0,0,0)" fill-rule="evenodd" stroke="none" stroke-width="1"/><path id="ebd3p3l3lvl29" d="M193.281000,280.887000C194.442000,281.263000,196.231000,282.720000,196.943000,283.636000C196.943000,281.803000,198.775000,279.693000,195.417000,277.554000C191.688000,275.179000,190.534000,279.998000,193.281000,280.887000Z" fill="rgb(251,171,126)" stroke="none" stroke-width="1"/><path id="ebd3p3l3lvl30" d="M197.257000,275.094000C199.297000,276.228000,200.931000,278.254000,200.783000,280.480000C200.654000,282.410000,199.774000,284.719000,199.271000,285.624000L199.480000,285.740000C199.995000,284.811000,200.889000,282.468000,201.021000,280.496000C201.178000,278.140000,199.454000,276.042000,197.373000,274.885000C196.330000,274.305000,195.186000,273.955000,194.124000,273.925000C193.061000,273.896000,192.072000,274.189000,191.356000,274.905000C189.117000,277.146000,189.290000,280.163000,189.813000,281.420000L190.034000,281.328000C189.540000,280.141000,189.368000,277.233000,191.524000,275.074000C192.182000,274.416000,193.100000,274.136000,194.117000,274.164000C195.134000,274.192000,196.241000,274.529000,197.257000,275.094000Z" clip-rule="evenodd" fill="rgb(17,17,17)" fill-rule="evenodd" stroke="none" stroke-width="1"/><path id="ebd3p3l3lvl31" d="M185.077000,279.314000C185.957000,279.592000,186.792000,280.261000,187.375000,281.428000L187.588000,281.321000C186.979000,280.102000,186.097000,279.386000,185.149000,279.086000C184.202000,278.787000,183.199000,278.907000,182.352000,279.344000C181.505000,279.780000,180.811000,280.534000,180.485000,281.508000C180.157000,282.483000,180.201000,283.669000,180.813000,284.962000L181.028000,284.860000C180.440000,283.616000,180.406000,282.494000,180.711000,281.584000C181.017000,280.673000,181.666000,279.966000,182.461000,279.556000C183.257000,279.146000,184.195000,279.036000,185.077000,279.314000Z" clip-rule="evenodd" fill="rgb(0,0,0)" fill-rule="evenodd" stroke="none" stroke-width="1"/><path id="ebd3p3l3lvl32" d="M92.394700,0.500000L0,0.500000L0,399.888000L126.356000,399.888000C119.530000,388.391000,73.710600,351.757000,69.420900,333.407000C32.962400,177.450000,34.960200,50.486000,92.394700,0.500000Z" fill="url(#ebd3p3l3lvl32-fill)" stroke="none" stroke-width="1"/><g id="ebd3p3l3lvl33"><path id="ebd3p3l3lvl34" d="M212.360000,399.888000L0,127.964000L0,94.973400L279.681000,343.404000L279.681000,399.888000L212.360000,399.888000Z" fill="rgb(255,239,156)" fill-opacity="0.14" stroke="none" stroke-width="1"/><path id="ebd3p3l3lvl35" d="M279.681000,247.431000L0,30.991300L0,9.997190L279.681000,221.938000L279.681000,247.431000Z" fill="rgb(255,239,156)" fill-opacity="0.14" stroke="none" stroke-width="1"/><path id="ebd3p3l3lvl36" d="M279.681000,125.965000L113.371000,0.500000L127.355000,0.500000L279.681000,102.971000L279.681000,125.965000Z" fill="rgb(255,239,156)" fill-opacity="0.14" stroke="none" stroke-width="1"/></g><g id="ebd3p3l3lvl37"><path id="ebd3p3l3lvl38" d="M0,49.486100L0,0L156.821000,0C156.821000,45.987100,69.420900,90.974500,0,49.486100Z" fill="rgb(67,96,108)" stroke="none" stroke-width="1"/><path id="ebd3p3l3lvl39" d="M279.681000,31.491200L279.681000,0L100.885000,0C100.885000,31.491200,203.768000,77.978200,279.681000,31.491200Z" fill="rgb(67,96,108)" stroke="none" stroke-width="1"/></g></svg>