<svg width="480" height="601" viewBox="0 0 480 601" fill="none" xmlns="http://www.w3.org/2000/svg">
<rect width="480" height="600" fill="#FFD7AC"/>
<path d="M479 0V65.6C461.716 95.4182 436.917 123 364.775 123C248.616 123 230.761 35.0364 225 0H479Z" fill="#B56949"/>
<path d="M254 0V65.6C236.716 95.4182 211.917 123 139.775 123C23.6163 123 5.76134 35.0364 0 0H254Z" fill="#B56949"/>
<path d="M311.75 600H258L285.5 0H338L311.75 600Z" fill="#F2946C"/>
<path d="M280.555 354.646L179 600.615H416.584L324.345 354.646H280.555Z" fill="#1C0E4C"/>
<path d="M285.679 347.193L287.077 355.112L280.089 358.839L274.499 350.454L275.431 345.329L282.418 343L285.679 347.193Z" fill="#1C0E4C"/>
<path d="M319.221 347.193L317.823 355.112L324.811 358.839L330.401 350.454L329.47 345.329L322.482 343L319.221 347.193Z" fill="#1C0E4C"/>
<path d="M305.246 364.895H297.793L294.066 377.007H308.973L305.246 364.895Z" fill="#1A2E75"/>
<circle cx="313.165" cy="366.758" r="1.8634" fill="#00F3F3"/>
<circle cx="289.873" cy="366.758" r="1.8634" fill="#00F3F3"/>
<path d="M306.643 470.643C310.627 458.328 334.595 457.599 334.595 457.599C334.595 457.599 321.79 460.301 317.358 470.643C309.771 488.346 313.632 500.923 313.632 500.923C313.632 500.923 301.518 486.482 306.643 470.643Z" fill="#1A2E75"/>
<path d="M293.601 470.643C289.616 458.328 265.649 457.599 265.649 457.599C265.649 457.599 278.453 460.301 282.885 470.643C290.472 488.346 286.612 500.923 286.612 500.923C286.612 500.923 298.725 486.482 293.601 470.643Z" fill="#1A2E75"/>
<path d="M480 253L84 0H104L480 231V253Z" fill="#FFEF9C" fill-opacity="0.14"/>
<path d="M99.3721 600H52L99.3721 0H149L99.3721 600Z" fill="#F2946C"/>
<path d="M480 436L0 81V59L480 415V436Z" fill="#FFEF9C" fill-opacity="0.14"/>
<path d="M245 600H206L239 0H269L245 600Z" fill="#DD756E"/>
<path d="M204 1H147.209L136 600H204V1Z" fill="#8A4152"/>
<path d="M378.871 1H325L362.41 599H429L378.871 1Z" fill="#8A4152"/>
<path d="M480 600H352.678C367.907 582.507 400.461 537.376 408.849 500.791C417.238 464.206 415.84 365.098 414.092 320.116L325.716 236.901L286.757 175.745L292 163L337.699 209.163L414.092 254.144L398.364 0H480V600Z" fill="url(#paint0_linear)"/>
<path d="M138.202 1H0V600H189C178.791 582.757 110.254 527.813 103.838 500.292C49.3043 266.389 52.2925 75.9687 138.202 1Z" fill="url(#paint1_linear)"/>
<path d="M480 169L209 1H241L480 128V169Z" fill="#FFEF9C" fill-opacity="0.14"/>
<path d="M480 361.5L1 31V3L480 320V361.5Z" fill="#FFEF9C" fill-opacity="0.14"/>
<path d="M412.283 600L0 170V125L480 482V600H412.283Z" fill="#FFEF9C" fill-opacity="0.14"/>
<path d="M0 74.3708V0H236C236 69.1123 104.471 136.722 0 74.3708Z" fill="#43606C"/>
<path d="M480 47.4118V0H210C210 47.4118 365.788 117.401 480 47.4118Z" fill="#43606C"/>
<defs>
<linearGradient id="paint0_linear" x1="383.379" y1="0" x2="383.379" y2="600" gradientUnits="userSpaceOnUse">
<stop stop-color="#603156"/>
<stop offset="1" stop-color="#352F5C"/>
</linearGradient>
<linearGradient id="paint1_linear" x1="94.5" y1="1" x2="94.5" y2="600" gradientUnits="userSpaceOnUse">
<stop stop-color="#603156"/>
<stop offset="1" stop-color="#352F5C"/>
</linearGradient>
</defs>
</svg>
