<svg id="erbin2e7em5n1" xmlns="http://www.w3.org/2000/svg" xmlns:xlink="http://www.w3.org/1999/xlink" viewBox="0 0 480 600" shape-rendering="geometricPrecision" text-rendering="geometricPrecision"><style><![CDATA[#erbin2e7em5n24_to {animation: erbin2e7em5n24_to__to 3000ms linear infinite normal forwards}@keyframes erbin2e7em5n24_to__to { 0% {transform: translate(265.988716px,382.643982px);animation-timing-function: cubic-bezier(0.420000,0,0.580000,1)} 50% {transform: translate(265.988716px,373.213348px);animation-timing-function: cubic-bezier(0.420000,0,0.580000,1)} 100% {transform: translate(265.988716px,382.643982px)} }#erbin2e7em5n55_tr {animation: erbin2e7em5n55_tr__tr 3000ms linear infinite normal forwards}@keyframes erbin2e7em5n55_tr__tr { 0% {transform: translate(235.826000px,512.873907px) rotate(0deg);animation-timing-function: cubic-bezier(0.420000,0,0.580000,1)} 50% {transform: translate(235.826000px,512.873907px) rotate(5.687366deg);animation-timing-function: cubic-bezier(0.420000,0,0.580000,1)} 100% {transform: translate(235.826000px,512.873907px) rotate(0deg)} }#erbin2e7em5n56_tr {animation: erbin2e7em5n56_tr__tr 3000ms linear infinite normal forwards}@keyframes erbin2e7em5n56_tr__tr { 0% {transform: translate(314.826000px,511.537048px) rotate(0deg);animation-timing-function: cubic-bezier(0.420000,0,0.580000,1)} 50% {transform: translate(314.826000px,511.537048px) rotate(-5.004421deg);animation-timing-function: cubic-bezier(0.420000,0,0.580000,1)} 100% {transform: translate(314.826000px,511.537048px) rotate(0deg)} }#erbin2e7em5n57 {animation: erbin2e7em5n57_c_o 3000ms linear infinite normal forwards}@keyframes erbin2e7em5n57_c_o { 0% {opacity: 1} 50% {opacity: 0.600000;animation-timing-function: cubic-bezier(0.420000,0,0.580000,1)} 100% {opacity: 1} }]]></style><defs><linearGradient id="erbin2e7em5n14-fill" x1="258.213000" y1="0.749365" x2="258.213000" y2="599.492000" spreadMethod="pad" gradientUnits="userSpaceOnUse"><stop id="erbin2e7em5n14-fill-0" offset="0%" stop-color="rgb(91,49,87)"/><stop id="erbin2e7em5n14-fill-1" offset="100%" stop-color="rgb(54,48,93)"/></linearGradient><radialGradient id="erbin2e7em5n19-fill" cx="0" cy="0" r="1" spreadMethod="pad" gradientUnits="userSpaceOnUse" gradientTransform="matrix(0 66.94329999999999 -67.50000000000000 0 0 0)"><stop id="erbin2e7em5n19-fill-0" offset="0%" stop-color="rgba(67,96,108,0.65)"/><stop id="erbin2e7em5n19-fill-1" offset="100%" stop-color="rgba(67,96,108,0)"/></radialGradient><linearGradient id="erbin2e7em5n40-fill" x1="169.172000" y1="424.589000" x2="169.172000" y2="599.674000" spreadMethod="pad" gradientUnits="userSpaceOnUse"><stop id="erbin2e7em5n40-fill-0" offset="0%" stop-color="rgb(154,103,33)"/><stop id="erbin2e7em5n40-fill-1" offset="100%" stop-color="rgb(130,45,14)"/></linearGradient></defs><rect id="erbin2e7em5n2" width="480" height="599.492000" rx="0" ry="0" fill="rgb(255,215,172)" stroke="none" stroke-width="1"/><path id="erbin2e7em5n3" d="M419,0L419,47.876700C416.750000,77.799600,402.461000,105.440000,333.275000,92.761000C276.127000,82.288000,252.809000,20.946000,267.098000,0L419,0Z" fill="rgb(181,105,73)" stroke="none" stroke-width="1"/><path id="erbin2e7em5n4" d="M175,1L175,14.485800C171.234000,54.193800,133.889000,92.723900,71.051900,84.911400C10.792200,77.419300,1,36.962000,1,1L175,1Z" fill="rgb(181,105,73)" stroke="none" stroke-width="1"/><path id="erbin2e7em5n5" d="M411,0L354,0L361.500000,598.493000L411,598.493000L411,0Z" fill="rgb(242,148,108)" stroke="none" stroke-width="1"/><path id="erbin2e7em5n6" d="M478.987000,346.131000L72.943800,1L116.500000,1L478.987000,299.747000L478.987000,346.131000Z" fill="rgb(255,239,156)" fill-opacity="0.14" stroke="none" stroke-width="1"/><path id="erbin2e7em5n7" d="M478.991000,227.231000L229.444000,0.500000L273,0.500000L478.991000,180.847000L478.991000,227.231000Z" fill="rgb(255,239,156)" fill-opacity="0.14" stroke="none" stroke-width="1"/><path id="erbin2e7em5n8" d="M135,0L99,0L49,598.493000L113,598.493000L135,0Z" fill="rgb(242,148,108)" stroke="none" stroke-width="1"/><path id="erbin2e7em5n9" d="M165.394000,598.493000L0,279.046000L0,231.804000L232,598.493000L165.394000,598.493000Z" fill="rgb(255,239,156)" fill-opacity="0.14" stroke="none" stroke-width="1"/><path id="erbin2e7em5n10" d="M180.096000,598.493000L131,598.493000L146.862000,0L202,0L180.096000,598.493000Z" fill="rgb(221,117,110)" stroke="none" stroke-width="1"/><path id="erbin2e7em5n11" d="M43,598.493000L0,598.493000L0,0L66,0L43,598.493000Z" fill="rgb(138,65,82)" stroke="none" stroke-width="1"/><path id="erbin2e7em5n12" d="M480,598.493000L420,598.493000L431.400000,0L480,0L480,598.493000Z" fill="rgb(221,117,110)" stroke="none" stroke-width="1"/><path id="erbin2e7em5n13" d="M480,455.372000L0,40.473300L0,9L480,387.679000L480,455.372000Z" fill="rgb(255,239,156)" fill-opacity="0.14" stroke="none" stroke-width="1"/><path id="erbin2e7em5n14" d="M394.343000,599.492000L152.369000,599.492000C166.103000,533.374000,189.826000,384.760000,189.826000,318.866000C189.826000,273.312000,181.573000,217.863000,171.146000,162.039000L0.500000,50.931200L0.500000,28.475900L105.921000,98.803600L161.564000,113.059000C159.156000,101.164000,156.731000,89.380500,154.347000,77.804700C148.679000,50.270200,143.252000,23.908500,138.884000,0L196.381000,0L253.878000,0L311.375000,0L341.153000,0L341.052000,1.021870L341.052000,1.022360C337.875000,33.031900,334.706000,64.956400,332.339000,97.589000L356.885000,80.839900L401.085000,0.749146L422.061000,0.749146L377.112000,101.798000L328.830000,167.066000C327.861000,205.226000,328.598000,244.973000,332.164000,287.429000C337.482000,350.751000,373.616000,524.391000,394.343000,599.492000Z" clip-rule="evenodd" fill="url(#erbin2e7em5n14-fill)" fill-rule="evenodd" stroke="none" stroke-width="1"/><path id="erbin2e7em5n15" d="M419,66.943300L419,259.780000" fill="none" stroke="rgb(77,81,62)" stroke-width="2"/><path id="erbin2e7em5n16" d="M203,39.966200C203,130.766000,171.532000,171.766000,106.348000,169.788000C32.173000,167.537000,12.692500,79.738100,16.437700,39.966200" fill="none" stroke="rgb(77,86,59)" stroke-width="2"/><path id="erbin2e7em5n17" d="M255.456000,35.969500C250.227000,84.075600,290.566000,117.900000,343.604000,117.900000C396.642000,117.900000,416.097000,72.392500,413.823000,47.996100" fill="none" stroke="rgb(77,86,59)" stroke-width="2"/><path id="erbin2e7em5n18" d="M175,35.969500C175,60.795600,145,99.915400,109,99.915400C66.250000,99.915400,37.000300,68.318600,37,35.969500" fill="none" stroke="rgb(77,86,59)" stroke-width="2"/><ellipse id="erbin2e7em5n19" rx="67.500000" ry="66.943300" transform="matrix(1 0 0 1 269.50000000000000 377.68000000000001)" fill="url(#erbin2e7em5n19-fill)" stroke="none" stroke-width="1"/><path id="erbin2e7em5n20" d="M304.355000,227.111000L256.674000,201.799000C255.935000,201.407000,255.030000,201.517000,254.405000,202.076000L212.232000,239.768000C211.806000,240.148000,211.562000,240.692000,211.562000,241.263000L211.562000,288.994000C211.562000,289.738000,211.975000,290.419000,212.633000,290.763000L266.215000,318.773000C266.955000,319.160000,267.858000,319.044000,268.480000,318.484000L310.533000,280.586000C311.015000,280.152000,311.257000,279.511000,311.183000,278.867000L305.401000,228.645000C305.326000,227.992000,304.935000,227.418000,304.355000,227.111000Z" fill="rgb(47,30,58)" stroke="none" stroke-width="1"/><path id="erbin2e7em5n21" d="M480,73.843600L480,0L322,0C322,61.808700,413.790000,96.808800,480,73.843600Z" fill="rgb(67,96,108)" stroke="none" stroke-width="1"/><path id="erbin2e7em5n22" d="M0,37.285500L0,0L196,0C196,46.606900,53.687000,82.197600,0,37.285500Z" fill="rgb(67,96,108)" stroke="none" stroke-width="1"/><path id="erbin2e7em5n23" d="M159,0L346,0C346,18.738000,314.966000,52.955100,252.898000,52.955100C190.830000,52.955100,159,20.367400,159,0Z" fill="rgb(67,96,108)" stroke="none" stroke-width="1"/><g id="erbin2e7em5n24_to" transform="translate(265.988716,382.643982)"><path id="erbin2e7em5n24" d="M239.383000,386.357000L254.459000,341.790000C254.936000,340.379000,256.734000,339.967000,257.779000,341.028000L292.125000,375.923000C292.661000,376.466000,292.840000,377.268000,292.587000,377.988000L276.609000,423.519000C276.111000,424.938000,274.285000,425.320000,273.259000,424.221000L239.815000,388.362000C239.313000,387.824000,239.147000,387.054000,239.383000,386.357000Z" transform="translate(-265.988716,-382.643982)" fill="rgb(217,230,232)" stroke="none" stroke-width="1"/></g><path id="erbin2e7em5n25" d="M343.859000,418.680000L342.014000,424.431000L335.713000,424.430000L335.094000,416.676000L337.647000,413.572000L343.235000,414.628000L343.859000,418.680000Z" fill="rgb(28,14,76)" stroke="none" stroke-width="1"/><path id="erbin2e7em5n26" d="M363.446000,418.065000L364.265000,424.216000L370.278000,425.326000L372.436000,417.854000L370.555000,414.302000L364.868000,414.220000L363.446000,418.065000Z" fill="rgb(28,14,76)" stroke="none" stroke-width="1"/><path id="erbin2e7em5n27" d="M335.537000,423.872000L302.440000,600L442.022000,600L369.353000,423.872000L335.537000,423.872000Z" fill="rgb(28,14,76)" stroke="none" stroke-width="1"/><path id="erbin2e7em5n28" d="M346.689000,433.218000L343.451000,433.218000L339.134000,442.204000L346.689000,442.204000L346.689000,433.218000Z" fill="rgb(26,46,117)" stroke="none" stroke-width="1"/><path id="erbin2e7em5n29" d="M304.598000,495.042000L329.781000,459.457000L329.781000,510.498000L322.945000,529.908000L295.964000,533.862000L275.818000,510.498000L304.598000,495.042000Z" fill="rgb(28,14,76)" stroke="none" stroke-width="1"/><path id="erbin2e7em5n30" d="M365.036000,493.604000L365.036000,464.849000L374.389000,498.637000L337.695000,507.263000L348.487000,528.111000L337.695000,528.111000L329.061000,503.669000L365.036000,493.604000Z" fill="rgb(26,46,117)" stroke="none" stroke-width="1"/><ellipse id="erbin2e7em5n31" rx="1.079250" ry="1.078330" transform="matrix(1 0 0 1 351.72500000000002 432.13999999999999)" fill="rgb(0,243,243)" stroke="none" stroke-width="1"/><ellipse id="erbin2e7em5n32" rx="1.079250" ry="1.078330" transform="matrix(1 0 0 1 340.21400000000000 432.13999999999999)" fill="rgb(0,243,243)" stroke="none" stroke-width="1"/><path id="erbin2e7em5n33" d="M249.197000,559.023000L315.031000,538.535000L325.824000,600L269.343000,600L249.197000,559.023000Z" fill="rgb(28,14,76)" stroke="none" stroke-width="1"/><path id="erbin2e7em5n34" d="M353.165000,600L342.732000,600L332.299000,563.337000L363.597000,545.365000L339.135000,565.134000L353.165000,600Z" fill="rgb(26,46,117)" stroke="none" stroke-width="1"/><path id="erbin2e7em5n35" d="M265.075000,507.990000C262.597000,501.204000,255.607000,495.802000,246.641000,497.566000C236.369000,499.588000,221.539000,501.977000,204.709000,501.989000C200.744000,506.730000,196.068000,512.954000,194.467000,518.243000C193.662000,520.902000,193.652000,523.267000,194.831000,525.086000C196.010000,526.905000,198.431000,528.260000,202.679000,528.776000C212.899000,530.018000,222.972000,530.845000,232.177000,530.673000C241.385000,530.501000,249.706000,529.329000,256.433000,526.586000C260.991000,524.727000,263.761000,521.765000,265.090000,518.437000C266.420000,515.105000,266.314000,511.381000,265.075000,507.990000ZM265.603000,518.642000C264.214000,522.122000,261.326000,525.187000,256.641000,527.097000C249.826000,529.877000,241.427000,531.052000,232.187000,531.225000C222.945000,531.398000,212.843000,530.568000,202.612000,529.324000C198.292000,528.799000,195.676000,527.404000,194.367000,525.386000C193.060000,523.369000,193.112000,520.810000,193.938000,518.083000C195.587000,512.635000,200.391000,506.282000,204.368000,501.536000L204.451000,501.437000L204.580000,501.437000C221.413000,501.437000,236.253000,499.048000,246.534000,497.025000C255.809000,495.199000,263.037000,500.801000,265.595000,507.801000C266.874000,511.302000,266.991000,515.167000,265.603000,518.642000Z" clip-rule="evenodd" fill="rgb(17,17,17)" fill-rule="evenodd" stroke="none" stroke-width="1"/><path id="erbin2e7em5n36" d="M196.110000,424.881000C194.728000,416.321000,211.034000,420.187000,209.652000,434.546000C208.547000,440.069000,196.110000,430.956000,196.110000,424.881000Z" fill="rgb(154,103,33)" stroke="none" stroke-width="1"/><path id="erbin2e7em5n37" d="M198.101000,425.926000C197.154000,420.269000,208.331000,422.823000,207.384000,432.313000C206.626000,435.962000,198.101000,429.940000,198.101000,425.926000Z" fill="rgb(251,171,126)" stroke="none" stroke-width="1"/><path id="erbin2e7em5n38" d="M185.885000,425.158000C179.805000,409.418000,161.841000,427.643000,175.107000,434.270000C180.081000,436.203000,187.544000,430.405000,185.885000,425.158000Z" fill="rgb(154,103,33)" stroke="none" stroke-width="1"/><path id="erbin2e7em5n39" d="M182.972000,425.785000C179.140000,415.838000,167.818000,427.356000,176.179000,431.544000C179.314000,432.766000,184.017000,429.101000,182.972000,425.785000Z" fill="rgb(251,171,126)" stroke="none" stroke-width="1"/><path id="erbin2e7em5n40" d="M74.551800,599.674000L248.896000,599.674000C254.424000,575.927000,238.714000,554.315000,224.852000,535.335000C223.703000,533.761000,222.608000,532.236000,221.567000,530.756000C234.966000,531.430000,247.248000,530.630000,256.538000,526.842000C275.024000,519.303000,264.829000,493.706000,246.588000,497.296000C243.635000,497.877000,240.305000,498.488000,236.659000,499.065000C233.984000,488.814000,222.053000,481.579000,204.576000,488.532000C205.130000,485.845000,206.182000,483.369000,207.607000,480.937000C224.723000,451.726000,216.178000,441.413000,208.517000,432.167000L208.517000,432.166000C208.211000,431.798000,207.908000,431.431000,207.607000,431.065000C199.758000,421.510000,179.076000,423.401000,176.331000,431.065000C174.325000,436.666000,171.628000,441.081000,168.004000,447.011000C166.669000,449.197000,165.208000,451.589000,163.609000,454.322000C154.931000,467.682000,126.189000,506.065000,95.490800,529.377000C68.349600,551.153000,70.222700,585.315000,74.551800,599.674000Z" clip-rule="evenodd" fill="url(#erbin2e7em5n40-fill)" fill-rule="evenodd" stroke="none" stroke-width="1"/><path id="erbin2e7em5n41" d="M127.181000,503.416000C130.251000,496.662000,135.336000,489.311000,142.371000,481.852000L142.774000,482.231000C135.769000,489.657000,130.723000,496.958000,127.684000,503.644000C124.644000,510.333000,123.621000,516.385000,124.632000,521.325000C125.640000,526.251000,128.674000,530.100000,133.820000,532.400000C138.978000,534.705000,146.271000,535.456000,155.779000,534.131000C161.370000,533.352000,166.639000,533.081000,172.173000,532.796000C184.543000,532.160000,198.235000,531.457000,219.797000,524.854000C232.655000,520.918000,238.030000,509.797000,236.464000,500.505000C235.682000,495.859000,233.165000,491.673000,228.981000,489.053000C224.798000,486.433000,218.916000,485.360000,211.370000,487.005000C190.537000,491.547000,172.336000,498.725000,162.753000,502.504000C161.114000,503.150000,159.727000,503.697000,158.622000,504.114000L158.427000,503.598000C159.527000,503.182000,160.909000,502.637000,162.544000,501.992000C172.122000,498.215000,190.370000,491.018000,211.252000,486.466000C218.906000,484.797000,224.943000,485.872000,229.275000,488.585000C233.606000,491.297000,236.203000,495.629000,237.009000,500.413000C238.622000,509.981000,233.080000,521.365000,219.959000,525.382000C198.332000,532.004000,184.527000,532.716000,172.130000,533.354000C166.615000,533.638000,161.378000,533.908000,155.855000,534.678000C146.291000,536.011000,138.882000,535.267000,133.594000,532.904000C128.293000,530.535000,125.136000,526.543000,124.091000,521.435000C123.048000,516.341000,124.112000,510.166000,127.181000,503.416000Z" clip-rule="evenodd" fill="rgb(0,0,0)" fill-rule="evenodd" stroke="none" stroke-width="1"/><path id="erbin2e7em5n42" d="M181.847000,535.036000C168.038000,533.433000,137.781000,532.121000,110.883000,553.070000L110.543000,552.634000C137.615000,531.550000,168.055000,532.880000,181.910000,534.487000C192.337000,535.697000,200.951000,542.886000,204.656000,552.252000C208.366000,561.628000,207.155000,573.180000,197.955000,583.102000L197.549000,582.727000C206.604000,572.961000,207.774000,561.634000,204.142000,552.455000C200.506000,543.264000,192.056000,536.220000,181.847000,535.036000ZM167.510000,573.279000C162.033000,578.076000,146.957000,590.111000,130.431000,599.912000L130.149000,599.437000C146.640000,589.658000,161.688000,577.644000,167.146000,572.863000L167.510000,573.279000Z" clip-rule="evenodd" fill="rgb(0,0,0)" fill-rule="evenodd" stroke="none" stroke-width="1"/><path id="erbin2e7em5n43" d="M198.994000,582.569000C195.683000,583.934000,192.276000,585.339000,188.748000,586.683000L188.551000,586.167000C192.045000,584.836000,195.436000,583.438000,198.740000,582.076000C204.945000,579.517000,210.844000,577.084000,216.547000,575.461000C225.308000,572.967000,233.677000,572.357000,242.121000,576.103000C244.951000,577.359000,246.864000,579.032000,248.122000,580.954000C249.377000,582.874000,249.968000,585.026000,250.181000,587.227000C250.394000,589.426000,250.231000,591.682000,249.973000,593.816000C249.855000,594.790000,249.719000,595.728000,249.590000,596.625000C249.432000,597.714000,249.283000,598.743000,249.186000,599.703000L248.636000,599.647000C248.733000,598.688000,248.886000,597.631000,249.046000,596.523000C249.176000,595.623000,249.311000,594.690000,249.424000,593.750000C249.681000,591.630000,249.838000,589.420000,249.631000,587.280000C249.424000,585.141000,248.853000,583.082000,247.659000,581.256000C246.466000,579.432000,244.641000,577.826000,241.896000,576.608000C233.616000,572.934000,225.392000,573.517000,216.699000,575.992000C211.023000,577.607000,205.177000,580.019000,198.994000,582.569000Z" clip-rule="evenodd" fill="rgb(0,0,0)" fill-rule="evenodd" stroke="none" stroke-width="1"/><path id="erbin2e7em5n44" d="M163.013000,501.743000C164.655000,499.829000,167.130000,495.984000,169.623000,492.109000L170.088000,492.408000L170.073000,492.431000C167.596000,496.280000,165.103000,500.155000,163.432000,502.103000L163.013000,501.743000Z" clip-rule="evenodd" fill="rgb(0,0,0)" fill-rule="evenodd" stroke="none" stroke-width="1"/><path id="erbin2e7em5n45" d="M179.817000,418.737000C182.274000,419.160000,184.600000,421.064000,186.143000,425.058000L185.627000,425.257000C184.130000,421.382000,181.931000,419.661000,179.724000,419.282000C177.501000,418.899000,175.185000,419.859000,173.432000,421.526000C171.680000,423.193000,170.533000,425.528000,170.616000,427.827000C170.698000,430.106000,171.990000,432.404000,175.230000,434.023000L174.983000,434.517000C171.590000,432.822000,170.154000,430.357000,170.063000,427.847000C169.973000,425.357000,171.210000,422.877000,173.051000,421.126000C174.891000,419.376000,177.376000,418.317000,179.817000,418.737000Z" clip-rule="evenodd" fill="rgb(0,0,0)" fill-rule="evenodd" stroke="none" stroke-width="1"/><path id="erbin2e7em5n46" d="M197.822000,420.518000C196.369000,421.308000,195.551000,422.973000,195.836000,425.465000L196.385000,425.402000C196.117000,423.062000,196.888000,421.655000,198.086000,421.004000C199.309000,420.339000,201.068000,420.408000,202.870000,421.232000C206.456000,422.873000,210.057000,427.454000,209.377000,434.520000L209.927000,434.572000C210.629000,427.280000,206.907000,422.472000,203.100000,420.730000C201.205000,419.863000,199.251000,419.742000,197.822000,420.518000Z" clip-rule="evenodd" fill="rgb(0,0,0)" fill-rule="evenodd" stroke="none" stroke-width="1"/><path id="erbin2e7em5n47" d="M209.652000,444.487000L216.285000,442.554000C216.285000,442.554000,214.765000,438.412000,212.139000,435.098000C209.514000,431.785000,203.848000,427.643000,203.848000,427.643000L209.652000,444.487000Z" fill="rgb(198,135,49)" stroke="none" stroke-width="1"/><path id="erbin2e7em5n48" d="M199.150000,433.994000C199.150000,434.909000,198.408000,435.651000,197.492000,435.651000C196.576000,435.651000,195.833000,434.909000,195.833000,433.994000C195.833000,433.079000,196.576000,432.337000,197.492000,432.337000C198.408000,432.337000,199.150000,433.079000,199.150000,433.994000Z" fill="rgb(17,17,17)" stroke="none" stroke-width="1"/><path id="erbin2e7em5n49" d="M156.257000,465.364000C143.822000,481.746000,121.102000,509.479000,103.971000,522.576000C88.113400,534.701000,79.310700,547.014000,75.289900,559.718000C71.268500,572.425000,72.020200,585.556000,75.329800,599.334000L74.792300,599.463000C71.469100,585.628000,70.700600,572.388000,74.762900,559.552000C78.825900,546.714000,87.710800,534.313000,103.635000,522.138000C120.699000,509.091000,143.379000,481.416000,155.817000,465.030000L156.257000,465.364000Z" clip-rule="evenodd" fill="rgb(0,0,0)" fill-rule="evenodd" stroke="none" stroke-width="1"/><path id="erbin2e7em5n50" d="M197.688000,536.313000C196.765000,538.878000,197.330000,541.894000,200.454000,545.083000L200.059000,545.469000C196.826000,542.169000,196.156000,538.937000,197.168000,536.126000C198.171000,533.343000,200.797000,531.046000,203.997000,529.528000C207.203000,528.008000,211.028000,527.246000,214.495000,527.566000C217.961000,527.886000,221.106000,529.293000,222.877000,532.152000C223.836000,533.699000,225.322000,535.813000,227.122000,538.373000C227.728000,539.235000,228.370000,540.148000,229.039000,541.107000C231.691000,544.906000,234.764000,549.416000,237.729000,554.323000C243.654000,564.130000,249.167000,575.561000,250.002000,586.122000L249.451000,586.165000C248.627000,575.740000,243.172000,564.402000,237.256000,554.609000C234.301000,549.717000,231.235000,545.219000,228.586000,541.422000C227.922000,540.471000,227.283000,539.563000,226.679000,538.704000C224.875000,536.138000,223.375000,534.005000,222.407000,532.443000C220.757000,529.779000,217.803000,528.426000,214.444000,528.116000C211.086000,527.806000,207.359000,528.545000,204.234000,530.027000C201.104000,531.512000,198.622000,533.720000,197.688000,536.313000Z" clip-rule="evenodd" fill="rgb(0,0,0)" fill-rule="evenodd" stroke="none" stroke-width="1"/><path id="erbin2e7em5n51" d="M203.869000,575.955000C203.680000,575.536000,203.435000,575.228000,203.154000,575.059000L203.438000,574.586000C203.848000,574.832000,204.156000,575.248000,204.373000,575.727000C204.591000,576.209000,204.726000,576.775000,204.780000,577.351000C204.887000,578.490000,204.681000,579.748000,204.065000,580.518000L203.633000,580.173000C204.122000,579.562000,204.330000,578.473000,204.230000,577.403000C204.180000,576.875000,204.057000,576.370000,203.869000,575.955000Z" clip-rule="evenodd" fill="rgb(0,0,0)" fill-rule="evenodd" stroke="none" stroke-width="1"/><path id="erbin2e7em5n52" d="M215.731000,442.554000L209.099000,444.487000L215.731000,449.457000C217.113000,449.457000,218.606000,449.016000,217.942000,446.144000C217.279000,443.272000,216.192000,442.554000,215.731000,442.554000Z" fill="rgb(0,0,0)" stroke="none" stroke-width="1"/><path id="erbin2e7em5n53" d="M207.944000,457.445000C206.486000,456.920000,204.806000,455.973000,202.864000,454.656000L203.175000,454.199000C205.102000,455.506000,206.738000,456.423000,208.131000,456.925000C209.524000,457.427000,210.644000,457.503000,211.562000,457.171000C212.475000,456.841000,213.242000,456.086000,213.888000,454.808000C214.535000,453.528000,215.048000,451.746000,215.460000,449.409000L216.005000,449.505000C215.201000,454.057000,215.141000,456.979000,215.468000,458.441000C215.549000,458.804000,215.650000,459.057000,215.756000,459.220000C215.860000,459.380000,215.952000,459.426000,216.015000,459.436000C216.081000,459.446000,216.188000,459.429000,216.346000,459.309000C216.504000,459.191000,216.686000,458.990000,216.884000,458.693000L217.344000,458.999000C217.128000,459.324000,216.905000,459.580000,216.679000,459.750000C216.453000,459.920000,216.197000,460.023000,215.930000,459.982000C215.660000,459.940000,215.449000,459.761000,215.292000,459.521000C215.137000,459.282000,215.017000,458.957000,214.928000,458.561000C214.713000,457.598000,214.659000,456.096000,214.833000,454.033000C214.691000,454.401000,214.540000,454.743000,214.381000,455.057000C213.697000,456.411000,212.840000,457.296000,211.750000,457.690000C210.664000,458.083000,209.400000,457.970000,207.944000,457.445000Z" clip-rule="evenodd" fill="rgb(0,0,0)" fill-rule="evenodd" stroke="none" stroke-width="1"/><path id="erbin2e7em5n54" d="M314.746000,511.212000C328.997000,518.749000,347.750000,545.126000,355.250000,539.850000C362.749000,534.575000,366.498000,496.893000,340.997000,499.154000C315.496000,501.415000,308.746000,559.444000,225.489000,521.763000C200.736000,509.705000,195.701000,488.114000,208.987000,485.589000" fill="none" stroke="rgb(255,209,45)" stroke-width="1"/><g id="erbin2e7em5n55_tr" transform="translate(235.826000,512.873907) rotate(0)"><path id="erbin2e7em5n55" d="M235.826000,510.902000C286.903000,516.872000,319.999000,481.483000,324.460000,450.456000C326.714000,434.785000,318.451000,416.875000,302.677000,411.651000" transform="translate(-235.826000,-512.873907)" fill="none" stroke="rgb(255,209,45)" stroke-width="1"/></g><g id="erbin2e7em5n56_tr" transform="translate(314.826000,511.537048) rotate(0)"><path id="erbin2e7em5n56" d="M239.386000,423.641000C227.435000,435.665000,228.524000,458.898000,239.386000,474.743000C254.325000,496.537000,295.904000,501.046000,314.826000,511.567000" transform="translate(-314.826000,-511.537048)" fill="none" stroke="rgb(255,209,45)" stroke-width="1"/></g><path id="erbin2e7em5n57" d="M391.500000,598.493000L0,138.846000L0,102.913000L480,513.900000L480,598.493000L391.500000,598.493000Z" fill="rgb(255,239,156)" fill-opacity="0.14" stroke="none" stroke-width="1"/></svg>