<svg id="e23x9s0xsohnh1" xmlns="http://www.w3.org/2000/svg" xmlns:xlink="http://www.w3.org/1999/xlink" viewBox="0 0 480 600" shape-rendering="geometricPrecision" text-rendering="geometricPrecision"><style><![CDATA[#e23x9s0xsohnh8 {animation: e23x9s0xsohnh8_c_o 3000ms linear infinite normal forwards}@keyframes e23x9s0xsohnh8_c_o { 0% {opacity: 1;animation-timing-function: cubic-bezier(0.420000,0,0.580000,1)} 33.333333% {opacity: 0.200000;animation-timing-function: cubic-bezier(0.420000,0,0.580000,1)} 100% {opacity: 1} }#e23x9s0xsohnh13 {
           animation-name: e23x9s0xsohnh13__m, e23x9s0xsohnh13_c_o;
           animation-duration: 3000ms;
           animation-fill-mode: forwards;
           animation-timing-function: linear;
           animation-direction: normal;
           animation-iteration-count: infinite;  
        }@keyframes e23x9s0xsohnh13__m { 0% {d: path('M480,379.265000L0,14.997400L0,6.500000L480,344.928000L480,379.265000Z');animation-timing-function: cubic-bezier(0.420000,0,0.580000,1)} 16.666667% {d: path('M480,359.265000L0,9.997400L0,7.500000L480,348.928000L480,359.265000Z');animation-timing-function: cubic-bezier(0.420000,0,0.580000,1)} 100% {d: path('M480,379.265000L0,14.997400L0,6.500000L480,344.928000L480,379.265000Z')} }@keyframes e23x9s0xsohnh13_c_o { 0% {opacity: 1;animation-timing-function: cubic-bezier(0.420000,0,0.580000,1)} 16.666667% {opacity: 0.400000;animation-timing-function: cubic-bezier(0.420000,0,0.580000,1)} 100% {opacity: 1} }#e23x9s0xsohnh19 {animation: e23x9s0xsohnh19_c_o 3000ms linear infinite normal forwards}@keyframes e23x9s0xsohnh19_c_o { 0% {opacity: 1;animation-timing-function: cubic-bezier(0.420000,0,0.580000,1)} 66.666667% {opacity: 0.200000;animation-timing-function: cubic-bezier(0.420000,0,0.580000,1)} 100% {opacity: 1} }#e23x9s0xsohnh28 {animation: e23x9s0xsohnh28_c_o 3000ms linear infinite normal forwards}@keyframes e23x9s0xsohnh28_c_o { 0% {opacity: 1;animation-timing-function: cubic-bezier(0.420000,0,0.580000,1)} 50% {opacity: 0.180000;animation-timing-function: cubic-bezier(0.420000,0,0.580000,1)} 100% {opacity: 1} }#e23x9s0xsohnh36 {
           animation-name: e23x9s0xsohnh36__m, e23x9s0xsohnh36_c_o;
           animation-duration: 3000ms;
           animation-fill-mode: forwards;
           animation-timing-function: linear;
           animation-direction: normal;
           animation-iteration-count: infinite;  
        }@keyframes e23x9s0xsohnh36__m { 0% {d: path('M479.500000,487.990000C479.500000,487.990000,0,99.036100,0,99.036100C0,99.036100,0,50.989300,0,50.989300C0,50.989300,479.500000,409.914000,479.500000,409.914000L479.500000,487.990000Z');animation-timing-function: cubic-bezier(0.420000,0,0.580000,1)} 66.666667% {d: path('M479.500000,477.990000C479.500000,477.990000,0,89.036100,0,89.036100C0,89.036100,0,56.989300,0,56.989300C0,56.989300,479.500000,432.914000,479.500000,432.914000L479.500000,477.990000Z');animation-timing-function: cubic-bezier(0.420000,0,0.580000,1)} 100% {d: path('M479.500000,487.990000C479.500000,487.990000,0,99.036100,0,99.036100C0,99.036100,0,50.989300,0,50.989300C0,50.989300,479.500000,409.914000,479.500000,409.914000L479.500000,487.990000Z')} }@keyframes e23x9s0xsohnh36_c_o { 0% {opacity: 1;animation-timing-function: cubic-bezier(0.420000,0,0.580000,1)} 66.666667% {opacity: 0.400000;animation-timing-function: cubic-bezier(0.420000,0,0.580000,1)} 100% {opacity: 1} }#e23x9s0xsohnh37 {
           animation-name: e23x9s0xsohnh37__m, e23x9s0xsohnh37_c_o;
           animation-duration: 3000ms;
           animation-fill-mode: forwards;
           animation-timing-function: linear;
           animation-direction: normal;
           animation-iteration-count: infinite;  
        }@keyframes e23x9s0xsohnh37__m { 0% {d: path('M480,290.940000L88,8.248900L111.802000,3L480,257.947000L480,290.940000Z');animation-timing-function: cubic-bezier(0.420000,0,0.580000,1)} 33.333333% {d: path('M480,280.940000L88,-0.751100L107.802000,3L480,265.947000L480,280.940000Z');animation-timing-function: cubic-bezier(0.420000,0,0.580000,1)} 100% {d: path('M480,290.940000L88,8.248900L111.802000,3L480,257.947000L480,290.940000Z')} }@keyframes e23x9s0xsohnh37_c_o { 0% {opacity: 1;animation-timing-function: cubic-bezier(0.420000,0,0.580000,1)} 33.333333% {opacity: 0.400000;animation-timing-function: cubic-bezier(0.420000,0,0.580000,1)} 100% {opacity: 1} }#e23x9s0xsohnh38 {
           animation-name: e23x9s0xsohnh38__m, e23x9s0xsohnh38_c_o;
           animation-duration: 3000ms;
           animation-fill-mode: forwards;
           animation-timing-function: linear;
           animation-direction: normal;
           animation-iteration-count: infinite;  
        }@keyframes e23x9s0xsohnh38__m { 0% {d: path('M479,128.474000L233,3L255.320000,3L479,95.480600L479,128.474000Z')} 50% {d: path('M479,118.474000L238,3L251.079010,1.362525L479,110.480600L479,118.474000Z')} 100% {d: path('M479,128.474000L233,3L255.320000,3L479,95.480600L479,128.474000Z')} }@keyframes e23x9s0xsohnh38_c_o { 0% {opacity: 1;animation-timing-function: cubic-bezier(0.420000,0,0.580000,1)} 50% {opacity: 0.400000;animation-timing-function: cubic-bezier(0.420000,0,0.580000,1)} 100% {opacity: 1} }#e23x9s0xsohnh39 {
           animation-name: e23x9s0xsohnh39__m, e23x9s0xsohnh39_c_o;
           animation-duration: 3000ms;
           animation-fill-mode: forwards;
           animation-timing-function: linear;
           animation-direction: normal;
           animation-iteration-count: infinite;  
        }@keyframes e23x9s0xsohnh39__m { 0% {d: path('M330,599.874000L0,231.113000L0,159.966000L480,564.881000L480,599.874000L330,599.874000Z');animation-timing-function: cubic-bezier(0.420000,0,0.580000,1)} 50% {d: path('M349.358000,600L0,203.113000L0,174.966000L480,582.881000L480,599.874000L349.358000,600Z');animation-timing-function: cubic-bezier(0.420000,0,0.580000,1)} 100% {d: path('M330,599.874000L0,231.113000L0,159.966000L480,564.881000L480,599.874000L330,599.874000Z')} }@keyframes e23x9s0xsohnh39_c_o { 0% {opacity: 1;animation-timing-function: cubic-bezier(0.420000,0,0.580000,1)} 50% {opacity: 0.360000} 100% {opacity: 1} }]]></style><defs><linearGradient id="e23x9s0xsohnh33-fill" x1="133.172000" y1="-72.333400" x2="-63.797100" y2="615.437000" spreadMethod="pad" gradientUnits="userSpaceOnUse"><stop id="e23x9s0xsohnh33-fill-0" offset="0%" stop-color="rgb(110,49,84)"/><stop id="e23x9s0xsohnh33-fill-1" offset="99.228600%" stop-color="rgb(48,46,92)"/></linearGradient><linearGradient id="e23x9s0xsohnh34-fill" x1="348.426000" y1="-63.355900" x2="542.537000" y2="615.370000" spreadMethod="pad" gradientUnits="userSpaceOnUse"><stop id="e23x9s0xsohnh34-fill-0" offset="0%" stop-color="rgb(110,49,84)"/><stop id="e23x9s0xsohnh34-fill-1" offset="99.228600%" stop-color="rgb(48,46,92)"/></linearGradient></defs><rect id="e23x9s0xsohnh2" width="480" height="599.874000" rx="0" ry="0" fill="rgb(255,215,172)" stroke="none" stroke-width="1"/><path id="e23x9s0xsohnh3" d="M366,37.992100L388,599.874000L300.615000,599.874000L287,37.992100L366,37.992100Z" fill="rgb(221,117,110)" stroke="none" stroke-width="1"/><path id="e23x9s0xsohnh4" d="M331.017000,292.923000L295.047000,308.657000L291.823000,428.530000L287.783000,599.848000L465,599.848000L465,502.271000L465,428.530000L331.017000,292.923000Z" fill="rgb(28,14,77)" stroke="none" stroke-width="1"/><path id="e23x9s0xsohnh5" d="M298.780000,300.773000C302.046000,301.548000,303.919000,308.029000,303.919000,308.029000L296.263000,315.517000C296.263000,315.517000,290.396000,313.285000,289.790000,310.424000C289.183000,307.563000,289.495000,305.502000,291.681000,303.650000C293.866000,301.798000,295.514000,299.998000,298.780000,300.773000Z" fill="rgb(28,14,76)" stroke="none" stroke-width="1"/><path id="e23x9s0xsohnh6" d="M324.533000,318.807000L331.900000,321.780000L313.041000,328.832000L315.567000,322.583000L324.533000,318.807000Z" fill="rgb(48,29,112)" stroke="none" stroke-width="1"/><path id="e23x9s0xsohnh7" d="M322.717000,291.631000C321.352000,293.994000,324.291000,300.823000,324.291000,300.823000L333.957000,300.298000C333.957000,300.298000,335.513000,293.207000,334.631000,291.631000C333.749000,290.055000,332.816000,288.479000,329.011000,288.216000C325.207000,287.954000,324.083000,289.267000,322.717000,291.631000Z" fill="rgb(28,14,76)" stroke="none" stroke-width="1"/><g id="e23x9s0xsohnh8"><ellipse id="e23x9s0xsohnh9" rx="1.568290" ry="2.370480" transform="matrix(1 0 0 1 306.67399999999998 318.99400000000003)" fill="rgb(0,243,243)" stroke="none" stroke-width="1"/><ellipse id="e23x9s0xsohnh10" rx="2.352440" ry="1.580320" transform="matrix(1 0 0 1 327.84500000000003 310.30300000000000)" fill="rgb(0,243,243)" stroke="none" stroke-width="1"/></g><path id="e23x9s0xsohnh11" d="M140.892000,40.991500L91,597.875000L148.123000,597.875000L185,40.991500L140.892000,40.991500Z" fill="rgb(221,117,110)" stroke="none" stroke-width="1"/><path id="e23x9s0xsohnh12" d="M480,597.875000L0,190.008000L0,165.965000L480,563.528000L480,597.875000Z" fill="rgb(255,239,156)" fill-opacity="0.14" stroke="none" stroke-width="1"/><path id="e23x9s0xsohnh13" d="M480,379.265000L0,14.997400L0,6.500000L480,344.928000L480,379.265000Z" fill="rgb(255,239,156)" fill-opacity="0.14" stroke="none" stroke-width="1"/><path id="e23x9s0xsohnh14" d="M82.315800,64.986300L51,599.874000L87.842100,599.874000L121,64.986300L82.315800,64.986300Z" fill="rgb(242,148,108)" stroke="none" stroke-width="1"/><path id="e23x9s0xsohnh15" d="M101.291000,312.665000L50.545500,416.263000L39,600L236.133000,600L177.125000,396.287000L135.415000,313.826000L101.291000,312.665000Z" fill="rgb(28,14,76)" stroke="none" stroke-width="1"/><path id="e23x9s0xsohnh16" d="M116.278000,336.358000L110.514000,341.003000L129.189000,342.165000L125.270000,337.287000L116.278000,336.358000Z" fill="rgb(48,29,112)" stroke="none" stroke-width="1"/><path id="e23x9s0xsohnh17" d="M128.729000,308.252000L126.192000,318.705000L132.879000,323.119000L142.793000,313.595000L137.721000,306.394000L128.729000,308.252000Z" fill="rgb(28,14,76)" stroke="none" stroke-width="1"/><path id="e23x9s0xsohnh18" d="M107.517000,307.322000L110.053000,317.775000L103.366000,322.188000L93.452100,312.665000L98.524500,305.464000L107.517000,307.322000Z" fill="rgb(28,14,76)" stroke="none" stroke-width="1"/><g id="e23x9s0xsohnh19"><ellipse id="e23x9s0xsohnh20" rx="1.846460" ry="1.856730" transform="matrix(0.92805700000000 0.37243800000000 -0.36769200000000 0.92994800000000 108.45300000000000 330.39299999999997)" fill="rgb(0,243,243)" stroke="none" stroke-width="1"/><ellipse id="e23x9s0xsohnh21" rx="1.846460" ry="1.856730" transform="matrix(0.92805700000000 0.37243800000000 -0.36769200000000 0.92994800000000 129.17500000000001 330.70800000000003)" fill="rgb(0,243,243)" stroke="none" stroke-width="1"/></g><path id="e23x9s0xsohnh22" d="M390.761000,63.986600L366,599.874000L406.783000,599.874000L433,63.986600L390.761000,63.986600Z" fill="rgb(242,148,108)" stroke="none" stroke-width="1"/><path id="e23x9s0xsohnh23" d="M169.506000,445.513000C167.376000,466.362000,140.212000,570.472000,119.572000,599.874000L327.595000,599.874000C303.627000,528.373000,274,404.706000,274,355.925000C274,332.252000,279.780000,36.509600,282,7.998290L231.770000,7.998320L174,7.998170C172.003000,61.011400,171.637000,424.665000,169.506000,445.513000Z" fill="rgb(138,65,82)" stroke="none" stroke-width="1"/><path id="e23x9s0xsohnh24" d="M209.039000,371.851000L115,599.616000L335,599.616000L249.588000,371.851000L209.039000,371.851000Z" fill="rgb(28,14,76)" stroke="none" stroke-width="1"/><path id="e23x9s0xsohnh25" d="M213.785000,364.949000L215.079000,372.282000L208.608000,375.733000L203.432000,367.968000L204.294000,363.223000L210.765000,361.067000L213.785000,364.949000Z" fill="rgb(28,14,76)" stroke="none" stroke-width="1"/><path id="e23x9s0xsohnh26" d="M244.843000,364.949000L243.549000,372.282000L250.020000,375.733000L255.196000,367.968000L254.334000,363.223000L247.863000,361.067000L244.843000,364.949000Z" fill="rgb(28,14,76)" stroke="none" stroke-width="1"/><path id="e23x9s0xsohnh27" d="M231.903000,381.341000L225.001000,381.341000L221.550000,392.557000L235.354000,392.557000L231.903000,381.341000Z" fill="rgb(26,46,117)" stroke="none" stroke-width="1"/><g id="e23x9s0xsohnh28"><circle id="e23x9s0xsohnh29" r="1.725490" transform="matrix(1 0 0 1 239.23500000000001 383.06700000000001)" fill="rgb(0,243,243)" stroke="none" stroke-width="1"/><circle id="e23x9s0xsohnh30" r="1.725490" transform="matrix(1 0 0 1 217.66700000000000 383.06700000000001)" fill="rgb(0,243,243)" stroke="none" stroke-width="1"/></g><path id="e23x9s0xsohnh31" d="M233.196000,479.263000C236.885000,467.859000,259.079000,467.184000,259.079000,467.184000C259.079000,467.184000,247.222000,469.686000,243.118000,479.263000C236.093000,495.655000,239.667000,507.302000,239.667000,507.302000C239.667000,507.302000,228.451000,493.929000,233.196000,479.263000Z" fill="rgb(26,46,117)" stroke="none" stroke-width="1"/><path id="e23x9s0xsohnh32" d="M221.120000,479.263000C217.430000,467.859000,195.237000,467.184000,195.237000,467.184000C195.237000,467.184000,207.093000,469.686000,211.197000,479.263000C218.223000,495.655000,214.648000,507.302000,214.648000,507.302000C214.648000,507.302000,225.865000,493.929000,221.120000,479.263000Z" fill="rgb(26,46,117)" stroke="none" stroke-width="1"/><path id="e23x9s0xsohnh33" d="M54.228600,480.099000L86.914300,599.874000L0,599.874000L0,381.285000L0,193.388000L0,1L98.800000,1L104,60.887400L54.228600,111.792000L54.228600,480.099000Z" fill="url(#e23x9s0xsohnh33-fill)" stroke="none" stroke-width="1"/><path id="e23x9s0xsohnh34" d="M417.494000,344.062000L351.560000,599.874000L480,599.874000L480,384.204000L480,198.817000L480,8.998170L320,18.599900L349.358000,73.994500L432.294000,90.243600L417.494000,344.062000Z" fill="url(#e23x9s0xsohnh34-fill)" stroke="none" stroke-width="1"/><path id="e23x9s0xsohnh35" d="M423.772000,340.002000L445.108000,321.257000L473.953000,338.880000L472.140000,367.762000L440.363000,387.273000L421.386000,369.933000L423.772000,340.002000Z" fill="rgb(47,30,58)" stroke="none" stroke-width="1"/><path id="e23x9s0xsohnh36" d="M479.500000,487.990000C479.500000,487.990000,0,99.036100,0,99.036100C0,99.036100,0,50.989300,0,50.989300C0,50.989300,479.500000,409.914000,479.500000,409.914000L479.500000,487.990000Z" fill="rgb(255,239,156)" fill-opacity="0.14" stroke="none" stroke-width="1"/><path id="e23x9s0xsohnh37" d="M480,290.940000L88,8.248900L111.802000,3L480,257.947000L480,290.940000Z" fill="rgb(255,239,156)" fill-opacity="0.14" stroke="none" stroke-width="1"/><path id="e23x9s0xsohnh38" d="M479,128.474000L233,3L255.320000,3L479,95.480600L479,128.474000Z" fill="rgb(255,239,156)" fill-opacity="0.14" stroke="none" stroke-width="1"/><path id="e23x9s0xsohnh39" d="M330,599.874000L0,231.113000L0,159.966000L480,564.881000L480,599.874000L330,599.874000Z" fill="rgb(255,239,156)" fill-opacity="0.14" stroke="none" stroke-width="1"/><path id="e23x9s0xsohnh40" d="M337.161000,74.984300C415.005000,74.984300,459.594000,42.083000,480,22.954400L480,0L152,0C190.040000,25.249800,259.318000,74.984300,337.161000,74.984300Z" fill="rgb(67,96,108)" stroke="none" stroke-width="1"/><path id="e23x9s0xsohnh41" d="M133.174000,68.418600C64.844000,71.909300,22.312000,58.644500,0,46.077800L0,0L304,0C268.905000,23.038900,201.505000,64.927800,133.174000,68.418600Z" fill="rgb(67,96,108)" stroke="none" stroke-width="1"/></svg>