<svg width="280" height="400" viewBox="0 0 280 400" fill="none" xmlns="http://www.w3.org/2000/svg">
<rect y="0.00012207" width="277.522" height="400" fill="#FFD7AC"/>
<path d="M211.237 13.0001L222.139 398.5H176.92L167.504 13.0001H211.237Z" fill="#DD756E"/>
<path d="M195.323 202L172.59 211.958L170.552 287.828L168 396.258H279.999V334.5V287.828L195.323 202Z" fill="#1C0E4D"/>
<path d="M174.95 206.968C177.014 207.459 178.197 211.561 178.197 211.561L173.359 216.3C173.359 216.3 169.651 214.888 169.267 213.077C168.884 211.266 169.082 209.961 170.463 208.789C171.844 207.617 172.885 206.478 174.95 206.968Z" fill="#1C0E4C"/>
<path d="M191.225 218.382L195.881 220.264L183.962 224.727L185.558 220.772L191.225 218.382Z" fill="#301D70"/>
<path d="M190.078 201.182C189.215 202.678 191.073 207 191.073 207L197.181 206.668C197.181 206.668 198.165 202.179 197.607 201.182C197.05 200.185 196.46 199.187 194.056 199.021C191.651 198.855 190.941 199.686 190.078 201.182Z" fill="#1C0E4C"/>
<ellipse cx="179.938" cy="218.5" rx="0.99115" ry="1.5" fill="#00F3F3"/>
<ellipse cx="193.318" cy="213" rx="1.48673" ry="1" fill="#00F3F3"/>
<path d="M85.2391 16.0001L51.0444 398.5H90.1949L115.469 16.0001H85.2391Z" fill="#DD756E"/>
<path d="M279.504 352.5L0.495605 115V101L279.504 332.5V352.5Z" fill="#FFEF9C" fill-opacity="0.14"/>
<path d="M279.504 244.5L0.495605 7.00012V0.500122L279.504 224.5V244.5Z" fill="#FFEF9C" fill-opacity="0.14"/>
<path d="M50.0532 31.8051L33.2036 399.5H53.0266L70.8673 31.8051H50.0532Z" fill="#F2946C"/>
<path d="M54.5691 216.596L22.2258 282.722L14.8672 400H140.512L102.903 269.972L76.3182 217.338L54.5691 216.596Z" fill="#1C0E4C"/>
<path d="M64.1211 231.719L60.4473 234.685L72.3505 235.426L69.8523 232.312L64.1211 231.719Z" fill="#301D70"/>
<path d="M72.0564 213.779L70.4399 220.451L74.7016 223.268L81.0205 217.189L77.7876 212.593L72.0564 213.779Z" fill="#1C0E4C"/>
<path d="M58.5368 213.186L60.1533 219.858L55.8917 222.675L49.5727 216.596L52.8057 212L58.5368 213.186Z" fill="#1C0E4C"/>
<ellipse rx="1.17707" ry="1.18469" transform="matrix(0.927869 0.372906 -0.367228 0.930131 59.1342 227.912)" fill="#00F3F3"/>
<ellipse rx="1.17707" ry="1.18469" transform="matrix(0.927869 0.372906 -0.367228 0.930131 72.3417 228.113)" fill="#00F3F3"/>
<path d="M224 31.8051L207.15 399.5H234.903L252.743 31.8051H224Z" fill="#F2946C"/>
<path d="M101.59 294.069C100.131 308.376 81.531 379.822 67.3982 399.999H194.761C178.349 350.931 163.54 265.976 163.54 232.5C163.54 216.255 162.02 19.5659 163.54 0.000102282H137.77L104.668 0C103.3 36.3802 103.049 279.761 101.59 294.069Z" fill="#8A4152"/>
<path d="M122.996 264L67 399.793H198L147.141 264H122.996Z" fill="#1C0E4C"/>
<path d="M125.821 260.315L126.592 264.687L122.739 266.744L119.657 262.115L120.17 259.286L124.023 258L125.821 260.315Z" fill="#1C0E4C"/>
<path d="M144.316 260.315L143.545 264.687L147.398 266.744L150.48 262.115L149.967 259.286L146.114 258L144.316 260.315Z" fill="#1C0E4C"/>
<path d="M136.61 270.088H132.5L130.445 276.774H138.665L136.61 270.088Z" fill="#1A2E75"/>
<ellipse cx="140.976" cy="271.116" rx="1.02745" ry="1.02874" fill="#00F3F3"/>
<ellipse cx="128.133" cy="271.116" rx="1.02745" ry="1.02874" fill="#00F3F3"/>
<path d="M137.381 328.468C139.578 321.67 152.793 321.267 152.793 321.267C152.793 321.267 145.733 322.759 143.289 328.468C139.106 338.241 141.234 345.185 141.234 345.185C141.234 345.185 134.555 337.213 137.381 328.468Z" fill="#1A2E75"/>
<path d="M130.189 328.468C127.992 321.67 114.777 321.267 114.777 321.267C114.777 321.267 121.837 322.759 124.281 328.468C128.464 338.241 126.335 345.185 126.335 345.185C126.335 345.185 133.014 337.213 130.189 328.468Z" fill="#1A2E75"/>
<path d="M237.794 226.825L193.274 400H280V254V128.5V0.00012207L171.965 6.50012L191.788 44.0001L247.788 55.0001L237.794 226.825Z" fill="url(#paint0_linear)"/>
<path d="M242.699 218.637L255.94 206.989L273.841 217.939L272.716 235.886L252.995 248.009L241.218 237.234L242.699 218.637Z" fill="#2F1E3A"/>
<path d="M36.1771 320L57.9824 400H8.39233e-05V254V128.5V0.00012207H65.9116L69.3806 40.0001L36.1771 74.0001V320Z" fill="url(#paint1_linear)"/>
<path d="M280 314L0 65V33L280 262V314Z" fill="#FFEF9C" fill-opacity="0.14"/>
<path d="M280 169L58.9736 4.50012L74.832 1.00012L280 147V169Z" fill="#FFEF9C" fill-opacity="0.14"/>
<path d="M280 79.0001L155.611 1.00012H170.478L280 57.0001V79.0001Z" fill="#FFEF9C" fill-opacity="0.14"/>
<path d="M213.097 400L0 181V133.5L280 385.5V400H213.097Z" fill="#FFEF9C" fill-opacity="0.14"/>
<path d="M185.841 49.0001C236.885 49.0001 266.619 27.5001 280 15.0001V0.00012207H64.4248C89.3688 16.5001 134.796 49.0001 185.841 49.0001Z" fill="#43606C"/>
<path d="M94.6549 49.0001C46.0885 51.5001 15.8584 42.0001 0 33.0001V0.00012207H216.071C191.127 16.5001 143.221 46.5001 94.6549 49.0001Z" fill="#43606C"/>
<defs>
<linearGradient id="paint0_linear" x1="191.158" y1="-48.9807" x2="322.851" y2="410.311" gradientUnits="userSpaceOnUse">
<stop stop-color="#6E3154"/>
<stop offset="0.992286" stop-color="#302E5C"/>
</linearGradient>
<linearGradient id="paint1_linear" x1="88.8419" y1="-48.9807" x2="-42.8513" y2="410.311" gradientUnits="userSpaceOnUse">
<stop stop-color="#6E3154"/>
<stop offset="0.992286" stop-color="#302E5C"/>
</linearGradient>
</defs>
</svg>
