<svg id="e5wh2n8elvsh1" xmlns="http://www.w3.org/2000/svg" xmlns:xlink="http://www.w3.org/1999/xlink" viewBox="0 0 480 600" shape-rendering="geometricPrecision" text-rendering="geometricPrecision"><style><![CDATA[#e5wh2n8elvsh8 {animation: e5wh2n8elvsh8_c_o 3000ms linear infinite normal forwards}@keyframes e5wh2n8elvsh8_c_o { 0% {opacity: 0.200000;animation-timing-function: cubic-bezier(0.420000,0,0.580000,1)} 66.666667% {opacity: 1;animation-timing-function: cubic-bezier(0.420000,0,0.580000,1)} 100% {opacity: 0.200000} }#e5wh2n8elvsh12 {
           animation-name: e5wh2n8elvsh12__m, e5wh2n8elvsh12_c_o;
           animation-duration: 3000ms;
           animation-fill-mode: forwards;
           animation-timing-function: linear;
           animation-direction: normal;
           animation-iteration-count: infinite;  
        }@keyframes e5wh2n8elvsh12__m { 0% {d: path('M480,511L0,158.500000L0,140.500000L480,485L480,511Z');animation-timing-function: cubic-bezier(0.420000,0,0.580000,1)} 50% {d: path('M480,506L0,155.500000L0,144.500000L480,489L480,506Z');animation-timing-function: cubic-bezier(0.420000,0,0.580000,1)} 100% {d: path('M480,511L0,158.500000L0,140.500000L480,485L480,511Z')} }@keyframes e5wh2n8elvsh12_c_o { 0% {opacity: 1;animation-timing-function: cubic-bezier(0.420000,0,0.580000,1)} 50% {opacity: 0.400000;animation-timing-function: cubic-bezier(0.420000,0,0.580000,1)} 100% {opacity: 1} }#e5wh2n8elvsh13 {
           animation-name: e5wh2n8elvsh13__m, e5wh2n8elvsh13_c_o;
           animation-duration: 3000ms;
           animation-fill-mode: forwards;
           animation-timing-function: linear;
           animation-direction: normal;
           animation-iteration-count: infinite;  
        }@keyframes e5wh2n8elvsh13__m { 0% {d: path('M480,379.265000L0,14.997400L0,2.500000L480,344.928000L480,379.265000Z');animation-timing-function: cubic-bezier(0.420000,0,0.580000,1)} 33.333333% {d: path('M480,375.265000L0,12.997400L0,4.500000L480,351.928000L480,375.265000Z');animation-timing-function: cubic-bezier(0.420000,0,0.580000,1)} 100% {d: path('M480,379.265000L0,14.997400L0,2.500000L480,344.928000L480,379.265000Z')} }@keyframes e5wh2n8elvsh13_c_o { 0% {opacity: 1;animation-timing-function: cubic-bezier(0.420000,0,0.580000,1)} 33.333333% {opacity: 0.400000;animation-timing-function: cubic-bezier(0.420000,0,0.580000,1)} 100% {opacity: 1} }#e5wh2n8elvsh19 {animation: e5wh2n8elvsh19_c_o 3000ms linear infinite normal forwards}@keyframes e5wh2n8elvsh19_c_o { 0% {opacity: 1;animation-timing-function: cubic-bezier(0.420000,0,0.580000,1)} 33.333333% {opacity: 0.200000;animation-timing-function: cubic-bezier(0.420000,0,0.580000,1)} 100% {opacity: 1} }#e5wh2n8elvsh60 {
           animation-name: e5wh2n8elvsh60__m, e5wh2n8elvsh60_c_o;
           animation-duration: 3000ms;
           animation-fill-mode: forwards;
           animation-timing-function: linear;
           animation-direction: normal;
           animation-iteration-count: infinite;  
        }@keyframes e5wh2n8elvsh60__m { 0% {d: path('M480,287.940000L94,3.248900L109.802000,3L480,265.947000L480,287.940000Z');animation-timing-function: cubic-bezier(0.420000,0,0.580000,1)} 33.333333% {d: path('M480,293.185944L89,3.248900L114.802000,3L480,260.947000L480,293.185944Z');animation-timing-function: cubic-bezier(0.420000,0,0.580000,1)} 100% {d: path('M480,287.940000L94,3.248900L109.802000,3L480,265.947000L480,287.940000Z')} }@keyframes e5wh2n8elvsh60_c_o { 0% {opacity: 1;animation-timing-function: cubic-bezier(0.420000,0,0.580000,1)} 33.333333% {opacity: 0.400000;animation-timing-function: cubic-bezier(0.420000,0,0.580000,1)} 100% {opacity: 1} }#e5wh2n8elvsh61 {
           animation-name: e5wh2n8elvsh61__m, e5wh2n8elvsh61_c_o;
           animation-duration: 3000ms;
           animation-fill-mode: forwards;
           animation-timing-function: linear;
           animation-direction: normal;
           animation-iteration-count: infinite;  
        }@keyframes e5wh2n8elvsh61__m { 0% {d: path('M479,128.474000L233,3L255.320000,3L479,95.480600L479,128.474000Z');animation-timing-function: cubic-bezier(0.420000,0,0.580000,1)} 66.666667% {d: path('M479,123.474000L233,3L251.320000,3L479,104.480600L479,123.474000Z');animation-timing-function: cubic-bezier(0.420000,0,0.580000,1)} 100% {d: path('M479,128.474000L233,3L255.320000,3L479,95.480600L479,128.474000Z')} }@keyframes e5wh2n8elvsh61_c_o { 0% {opacity: 1;animation-timing-function: cubic-bezier(0.420000,0,0.580000,1)} 66.666667% {opacity: 0.400000;animation-timing-function: cubic-bezier(0.420000,0,0.580000,1)} 100% {opacity: 1} }#e5wh2n8elvsh62 {
           animation-name: e5wh2n8elvsh62__m, e5wh2n8elvsh62_c_o;
           animation-duration: 3000ms;
           animation-fill-mode: forwards;
           animation-timing-function: linear;
           animation-direction: normal;
           animation-iteration-count: infinite;  
        }@keyframes e5wh2n8elvsh62__m { 0% {d: path('M348,599.874000L0,244L0,188.119000L480,544L480,599.874000L348,599.874000Z');animation-timing-function: cubic-bezier(0.420000,0,0.580000,1)} 50% {d: path('M374,599.874000L0,238L0,203.817000L479,552.369744L480,599.874000L374,599.874000Z');animation-timing-function: cubic-bezier(0.420000,0,0.580000,1)} 100% {d: path('M348,599.874000L0,244L0,188.119000L480,544L480,599.874000L348,599.874000Z')} }@keyframes e5wh2n8elvsh62_c_o { 0% {opacity: 1;animation-timing-function: cubic-bezier(0.420000,0,0.580000,1)} 50% {opacity: 0.400000;animation-timing-function: cubic-bezier(0.420000,0,0.580000,1)} 100% {opacity: 1} }]]></style><defs><radialGradient id="e5wh2n8elvsh2-fill" cx="0" cy="0" r="1" spreadMethod="pad" gradientUnits="userSpaceOnUse" gradientTransform="matrix(0.00000000000001 229.50000000000000 -229.50000000000000 0.00000000000001 240 30.50000000000000)"><stop id="e5wh2n8elvsh2-fill-0" offset="0%" stop-color="rgb(37,108,118)"/><stop id="e5wh2n8elvsh2-fill-1" offset="99.270800%" stop-color="rgb(31,51,103)"/></radialGradient><linearGradient id="e5wh2n8elvsh29-fill" x1="231.990000" y1="364.272000" x2="231.990000" y2="599.687000" spreadMethod="pad" gradientUnits="userSpaceOnUse"><stop id="e5wh2n8elvsh29-fill-0" offset="0%" stop-color="rgb(181,122,41)"/><stop id="e5wh2n8elvsh29-fill-1" offset="58.645800%" stop-color="rgb(128,78,10)"/><stop id="e5wh2n8elvsh29-fill-2" offset="100%" stop-color="rgb(111,48,48)"/></linearGradient><linearGradient id="e5wh2n8elvsh34-fill" x1="226.077000" y1="394.521000" x2="226.077000" y2="408.918000" spreadMethod="pad" gradientUnits="userSpaceOnUse"><stop id="e5wh2n8elvsh34-fill-0" offset="0%" stop-color="rgb(253,182,70)"/><stop id="e5wh2n8elvsh34-fill-1" offset="100%" stop-color="rgb(250,169,41)"/></linearGradient><linearGradient id="e5wh2n8elvsh48-fill" x1="222.519000" y1="413.542000" x2="226.105000" y2="435.294000" spreadMethod="pad" gradientUnits="userSpaceOnUse"><stop id="e5wh2n8elvsh48-fill-0" offset="0%" stop-color="rgb(255,255,255)"/><stop id="e5wh2n8elvsh48-fill-1" offset="0.010000%" stop-color="rgba(220,233,235,0.88)"/><stop id="e5wh2n8elvsh48-fill-2" offset="100%" stop-color="rgba(196,210,211,0.73)"/></linearGradient><linearGradient id="e5wh2n8elvsh50-fill" x1="228.213000" y1="414.136000" x2="226.021000" y2="437.673000" spreadMethod="pad" gradientUnits="userSpaceOnUse"><stop id="e5wh2n8elvsh50-fill-0" offset="38.333300%" stop-color="rgb(254,191,90)"/><stop id="e5wh2n8elvsh50-fill-1" offset="100%" stop-color="rgb(230,115,21)"/></linearGradient><linearGradient id="e5wh2n8elvsh51-fill" x1="226.053000" y1="415.521000" x2="226.053000" y2="437.676000" spreadMethod="pad" gradientUnits="userSpaceOnUse"><stop id="e5wh2n8elvsh51-fill-0" offset="0%" stop-color="rgb(255,238,176)"/><stop id="e5wh2n8elvsh51-fill-1" offset="100%" stop-color="rgb(255,209,45)"/></linearGradient><linearGradient id="e5wh2n8elvsh58-fill" x1="133.172000" y1="-72.333400" x2="-63.797100" y2="615.437000" spreadMethod="pad" gradientUnits="userSpaceOnUse"><stop id="e5wh2n8elvsh58-fill-0" offset="0%" stop-color="rgb(110,49,84)"/><stop id="e5wh2n8elvsh58-fill-1" offset="99.228600%" stop-color="rgb(48,46,92)"/></linearGradient><linearGradient id="e5wh2n8elvsh59-fill" x1="348.426000" y1="-63.356000" x2="542.537000" y2="615.370000" spreadMethod="pad" gradientUnits="userSpaceOnUse"><stop id="e5wh2n8elvsh59-fill-0" offset="0%" stop-color="rgb(110,49,84)"/><stop id="e5wh2n8elvsh59-fill-1" offset="99.228600%" stop-color="rgb(48,46,92)"/></linearGradient></defs><rect id="e5wh2n8elvsh2" width="480" height="599.874000" rx="0" ry="0" fill="url(#e5wh2n8elvsh2-fill)" stroke="none" stroke-width="1"/><path id="e5wh2n8elvsh3" d="M366,37.991900L388,599.874000L300.615000,599.874000L287,37.991900L366,37.991900Z" fill="rgb(59,64,176)" stroke="none" stroke-width="1"/><path id="e5wh2n8elvsh4" d="M331.017000,292.923000L295.047000,308.656000L291.823000,428.530000L287.783000,599.848000L465,599.848000L465,502.271000L465,428.530000L331.017000,292.923000Z" fill="rgb(28,14,77)" stroke="none" stroke-width="1"/><path id="e5wh2n8elvsh5" d="M298.780000,300.773000C302.046000,301.548000,303.919000,308.029000,303.919000,308.029000L296.263000,315.517000C296.263000,315.517000,290.396000,313.285000,289.790000,310.424000C289.183000,307.562000,289.495000,305.502000,291.681000,303.650000C293.866000,301.797000,295.514000,299.998000,298.780000,300.773000Z" fill="rgb(28,14,76)" stroke="none" stroke-width="1"/><path id="e5wh2n8elvsh6" d="M324.533000,318.807000L331.900000,321.779000L313.041000,328.832000L315.567000,322.583000L324.533000,318.807000Z" fill="rgb(48,29,112)" stroke="none" stroke-width="1"/><path id="e5wh2n8elvsh7" d="M322.717000,291.631000C321.352000,293.994000,324.291000,300.823000,324.291000,300.823000L333.957000,300.298000C333.957000,300.298000,335.513000,293.206000,334.631000,291.631000C333.749000,290.055000,332.816000,288.479000,329.011000,288.216000C325.207000,287.954000,324.083000,289.267000,322.717000,291.631000Z" fill="rgb(28,14,76)" stroke="none" stroke-width="1"/><g id="e5wh2n8elvsh8" opacity="0.2"><ellipse id="e5wh2n8elvsh9" rx="1.568290" ry="2.370480" transform="matrix(1 0 0 1 306.67399999999998 318.99299999999999)" fill="rgb(0,243,243)" stroke="none" stroke-width="1"/><ellipse id="e5wh2n8elvsh10" rx="2.352440" ry="1.580320" transform="matrix(1 0 0 1 327.84500000000003 310.30300000000000)" fill="rgb(0,243,243)" stroke="none" stroke-width="1"/></g><path id="e5wh2n8elvsh11" d="M140.892000,40.991500L91,597.875000L148.123000,597.875000L185,40.991500L140.892000,40.991500Z" fill="rgb(59,64,176)" stroke="none" stroke-width="1"/><path id="e5wh2n8elvsh12" d="M480,511L0,158.500000L0,140.500000L480,485L480,511Z" fill="rgb(156,231,255)" fill-opacity="0.14" stroke="none" stroke-width="1"/><path id="e5wh2n8elvsh13" d="M480,379.265000L0,14.997400L0,2.500000L480,344.928000L480,379.265000Z" fill="rgb(156,231,255)" fill-opacity="0.14" stroke="none" stroke-width="1"/><path id="e5wh2n8elvsh14" d="M82.315800,64.986300L51,599.874000L87.842100,599.874000L121,64.986300L82.315800,64.986300Z" fill="rgb(119,108,242)" stroke="none" stroke-width="1"/><path id="e5wh2n8elvsh15" d="M101.291000,312.665000L50.545500,416.263000L39,600L236.133000,600L177.125000,396.287000L135.415000,313.826000L101.291000,312.665000Z" fill="rgb(28,14,76)" stroke="none" stroke-width="1"/><path id="e5wh2n8elvsh16" d="M116.278000,336.358000L110.514000,341.004000L129.189000,342.165000L125.270000,337.287000L116.278000,336.358000Z" fill="rgb(48,29,112)" stroke="none" stroke-width="1"/><path id="e5wh2n8elvsh17" d="M128.729000,308.253000L126.192000,318.705000L132.879000,323.119000L142.793000,313.595000L137.721000,306.394000L128.729000,308.253000Z" fill="rgb(28,14,76)" stroke="none" stroke-width="1"/><path id="e5wh2n8elvsh18" d="M107.517000,307.322000L110.053000,317.775000L103.366000,322.188000L93.452100,312.665000L98.524500,305.464000L107.517000,307.322000Z" fill="rgb(28,14,76)" stroke="none" stroke-width="1"/><g id="e5wh2n8elvsh19"><ellipse id="e5wh2n8elvsh20" rx="1.846460" ry="1.856730" transform="matrix(0.92805700000000 0.37243800000000 -0.36769200000000 0.92994800000000 108.45300000000000 330.39299999999997)" fill="rgb(0,243,243)" stroke="none" stroke-width="1"/><ellipse id="e5wh2n8elvsh21" rx="1.846460" ry="1.856730" transform="matrix(0.92805700000000 0.37243800000000 -0.36769200000000 0.92994800000000 129.17500000000001 330.70900000000000)" fill="rgb(0,243,243)" stroke="none" stroke-width="1"/></g><path id="e5wh2n8elvsh22" d="M390.761000,63.986600L366,599.874000L406.783000,599.874000L433,63.986600L390.761000,63.986600Z" fill="rgb(119,108,242)" stroke="none" stroke-width="1"/><path id="e5wh2n8elvsh23" d="M179.506000,445.514000C177.376000,466.362000,150.212000,570.472000,129.572000,599.874000L337.595000,599.874000C313.627000,528.373000,284,404.706000,284,355.925000C284,332.252000,289.780000,36.509700,292,7.998410L241.770000,7.998440L184,7.998290C182.003000,61.011500,181.637000,424.665000,179.506000,445.514000Z" fill="rgb(93,65,138)" stroke="none" stroke-width="1"/><path id="e5wh2n8elvsh24" d="M204.186000,367.855000C202.639000,368.668000,201.472000,369.624000,200.785000,370.721000C199.386000,372.957000,198.862000,375.564000,198.297000,379.208000C198.221000,379.699000,198.144000,380.209000,198.065000,380.739000C197.553000,384.131000,196.918000,388.339000,195.557000,393.759000C192.410000,406.295000,185.381000,425.304000,167.015000,455.779000C148.673000,486.214000,138.631000,522.189000,134.567000,550.558000C132.535000,564.742000,131.998000,577.016000,132.663000,585.738000C132.995000,590.101000,133.627000,593.563000,134.516000,595.928000C134.961000,597.110000,135.465000,598.006000,136.018000,598.604000C136.569000,599.198000,137.159000,599.489000,137.787000,599.489000L331.563000,599.489000C331.561000,599.470000,331.559000,599.451000,331.557000,599.430000C331.537000,599.246000,331.507000,598.972000,331.465000,598.612000C331.383000,597.892000,331.257000,596.830000,331.084000,595.458000C330.737000,592.714000,330.199000,588.733000,329.437000,583.787000C327.913000,573.893000,325.490000,560.138000,321.896000,544.689000C314.706000,513.787000,302.834000,476.133000,284.104000,449.064000C265.344000,421.951000,257.725000,404.525000,254.134000,392.830000C252.482000,387.450000,251.684000,383.286000,251.046000,379.959000C250.990000,379.670000,250.936000,379.387000,250.883000,379.110000C250.213000,375.642000,249.665000,373.158000,248.364000,371.118000C247.727000,370.120000,246.603000,369.213000,245.090000,368.411000C243.580000,367.610000,241.696000,366.923000,239.557000,366.356000C235.281000,365.224000,230.008000,364.582000,224.718000,364.484000C219.428000,364.385000,214.131000,364.829000,209.807000,365.863000C207.645000,366.380000,205.732000,367.043000,204.186000,367.855000ZM331.782000,599.687000C331.977000,599.666000,331.977000,599.666000,331.977000,599.665000L331.977000,599.661000L331.970000,599.595000C331.965000,599.549000,331.957000,599.479000,331.947000,599.386000C331.927000,599.202000,331.897000,598.927000,331.856000,598.567000C331.773000,597.846000,331.647000,596.781000,331.473000,595.408000C331.126000,592.661000,330.588000,588.676000,329.825000,583.726000C328.300000,573.825000,325.875000,560.060000,322.278000,544.599000C315.086000,513.684000,303.200000,475.970000,284.426000,448.838000C265.683000,421.749000,258.085000,404.360000,254.509000,392.713000C252.864000,387.355000,252.069000,383.209000,251.431000,379.883000C251.376000,379.594000,251.322000,379.312000,251.268000,379.035000C250.601000,375.579000,250.043000,373.019000,248.694000,370.905000C248.006000,369.826000,246.816000,368.878000,245.273000,368.061000C243.728000,367.242000,241.814000,366.545000,239.657000,365.974000C235.343000,364.831000,230.038000,364.187000,224.725000,364.088000C219.412000,363.989000,214.081000,364.435000,209.717000,365.478000C207.534000,366,205.588000,366.672000,204.005000,367.504000C202.423000,368.335000,201.190000,369.333000,200.453000,370.510000C199.005000,372.824000,198.474000,375.509000,197.909000,379.147000C197.833000,379.640000,197.756000,380.151000,197.676000,380.681000C197.165000,384.072000,196.533000,388.262000,195.176000,393.662000C192.041000,406.150000,185.031000,425.122000,166.679000,455.574000C148.303000,486.066000,138.248000,522.096000,134.178000,550.501000C132.143000,564.704000,131.603000,577.008000,132.271000,585.768000C132.605000,590.146000,133.241000,593.651000,134.149000,596.068000C134.603000,597.276000,135.130000,598.224000,135.731000,598.874000C136.335000,599.526000,137.023000,599.884000,137.787000,599.884000L332,599.884000L331.977000,599.666000L331.782000,599.687000Z" clip-rule="evenodd" fill="rgb(0,0,0)" fill-rule="evenodd" stroke="none" stroke-width="1"/><path id="e5wh2n8elvsh25" d="M243.761000,356.602000C241.160000,356.189000,236.054000,360.707000,236.602000,365.394000C237.306000,366.080000,239.381000,367.927000,242.051000,369.826000C244.721000,371.725000,247.980000,371.870000,249.276000,371.705000C251.995000,371.073000,255.008000,364.921000,253.712000,362.661000C251.941000,359.572000,247.013000,357.118000,243.761000,356.602000Z" fill="rgb(181,122,41)" stroke="none" stroke-width="1"/><path id="e5wh2n8elvsh26" d="M243.801000,360.725000C241.916000,361.042000,239.416000,364.352000,239.285000,365.868000C240.699000,365.868000,245.765000,368.638000,248.121000,370.022000C248.841000,369.297000,249.967000,367.688000,250.281000,365.473000C250.674000,362.703000,246.157000,360.330000,243.801000,360.725000Z" fill="rgb(251,171,126)" stroke="none" stroke-width="1"/><path id="e5wh2n8elvsh27" d="M207.244000,355.005000C210.495000,354.488000,214.908000,360.195000,214.358000,364.883000C213.655000,365.570000,211.620000,366.333000,208.950000,368.234000C206.281000,370.135000,203.023000,370.281000,201.728000,370.116000C199.010000,369.485000,196,363.331000,197.296000,361.069000C199.067000,357.979000,203.994000,355.522000,207.244000,355.005000Z" fill="rgb(181,122,41)" stroke="none" stroke-width="1"/><path id="e5wh2n8elvsh28" d="M208.458000,359.934000C210.343000,360.250000,211.469000,364.154000,211.600000,365.671000C210.186000,365.671000,205.928000,367.099000,203.571000,368.484000C202.851000,367.758000,202.489000,365.314000,202.175000,363.099000C201.782000,360.329000,206.102000,359.538000,208.458000,359.934000Z" fill="rgb(251,171,126)" stroke="none" stroke-width="1"/><path id="e5wh2n8elvsh29" d="M200.620000,370.616000C194.926000,379.716000,203.565000,394.750000,166.848000,455.677000C130.130000,516.604000,126.654000,599.687000,137.788000,599.687000L331.783000,599.687000C331.783000,599.687000,321.769000,503.153000,284.266000,448.951000C246.763000,394.750000,253.831000,379.320000,248.530000,371.012000C243.228000,362.703000,206.314000,361.516000,200.620000,370.616000Z" fill="url(#e5wh2n8elvsh29-fill)" stroke="none" stroke-width="1"/><path id="e5wh2n8elvsh30" d="M230.979000,445.259000C229.540000,445.714000,228.321000,446.010000,229.402000,443.226000C229.664000,442.548000,230.900000,440.638000,233.741000,438.421000C236.581000,436.203000,239.920000,435.525000,241.235000,435.464000C245.787000,434.546000,246.697000,438.421000,241.235000,437.756000C238.307000,437.400000,242.692000,439.541000,240.325000,441.425000C237.958000,443.308000,236.684000,440.507000,234.408000,441.932000C232.089000,443.384000,234.408000,444.176000,230.979000,445.259000Z" fill="rgb(251,171,46)" stroke="none" stroke-width="1"/><path id="e5wh2n8elvsh31" d="M221.664000,446.468000C222.575000,449.678000,224.552000,448.302000,223.485000,445.551000C223.222000,444.874000,221.452000,441.494000,218.691000,439.337000C215.851000,437.120000,213.897000,436.373000,212.106000,435.922000C208.465000,435.005000,210.650000,437.831000,214.382000,438.673000C215.776000,438.988000,213.017000,440.966000,214.837000,442.800000C217.113000,445.093000,218.337000,442.752000,219.844000,443.258000C221.209000,443.717000,221.146000,444.642000,221.664000,446.468000Z" fill="rgb(251,171,46)" stroke="none" stroke-width="1"/><path id="e5wh2n8elvsh32" d="M294.934000,493.031000C291.658000,494.013000,287.142000,493.353000,282.418000,491.668000L282.549000,491.295000C287.249000,492.972000,291.668000,493.598000,294.822000,492.652000C296.393000,492.181000,297.645000,491.322000,298.471000,490.012000C299.298000,488.700000,299.712000,486.915000,299.566000,484.570000L299.958000,484.545000C300.107000,486.948000,299.687000,488.822000,298.802000,490.224000C297.916000,491.628000,296.579000,492.538000,294.934000,493.031000Z" clip-rule="evenodd" fill="rgb(0,0,0)" fill-rule="evenodd" stroke="none" stroke-width="1"/><path id="e5wh2n8elvsh33" d="M168.625000,495.285000C171.716000,494.876000,175.085000,493.641000,178.352000,491.651000L178.148000,491.312000C174.921000,493.279000,171.603000,494.492000,168.574000,494.892000C165.544000,495.293000,162.816000,494.880000,160.753000,493.612000C158.697000,492.348000,157.277000,490.222000,156.879000,487.144000C156.479000,484.059000,157.106000,480.015000,159.160000,474.940000L158.797000,474.790000C156.728000,479.902000,156.078000,484.018000,156.489000,487.195000C156.902000,490.380000,158.380000,492.618000,160.549000,493.950000C162.711000,495.279000,165.536000,495.693000,168.625000,495.285000Z" clip-rule="evenodd" fill="rgb(0,0,0)" fill-rule="evenodd" stroke="none" stroke-width="1"/><path id="e5wh2n8elvsh34" d="M214.349000,401.475000C215.316000,399.497000,216.020000,397.914000,217.883000,397.914000C220.435000,397.914000,221.432000,395.739000,223.395000,397.123000C225.359000,398.508000,227.486000,398.209000,228.486000,396.529000C230.253000,393.562000,233.591000,394.156000,234.376000,396.529000C235.162000,398.903000,237.657000,396.964000,239.693000,400.684000C241.641000,404.244000,240.071000,406.420000,237.125000,406.420000C234.180000,406.420000,232.933000,405.573000,230.253000,407.607000C227.126000,409.981000,225.752000,408.596000,223.395000,407.607000C221.039000,406.618000,219.129000,405.878000,216.705000,406.420000C214.938000,406.816000,211.600000,405.684000,211.600000,404.244000C211.600000,402.805000,213.116000,403.997000,214.349000,401.475000Z" fill="url(#e5wh2n8elvsh34-fill)" stroke="none" stroke-width="1"/><path id="e5wh2n8elvsh35" d="M231.824000,394.132000C233.131000,394.216000,234.304000,395.059000,234.749000,396.404000C234.916000,396.908000,235.156000,397.151000,235.443000,397.311000C235.701000,397.456000,235.996000,397.536000,236.372000,397.638000C236.467000,397.664000,236.566000,397.691000,236.672000,397.721000C237.176000,397.864000,237.754000,398.060000,238.340000,398.476000C238.928000,398.894000,239.503000,399.519000,240.037000,400.493000C241.042000,402.329000,241.197000,403.915000,240.592000,405.072000C239.983000,406.237000,238.684000,406.816000,237.125000,406.816000C236.379000,406.816000,235.740000,406.763000,235.173000,406.716000L235.154000,406.714000C234.576000,406.666000,234.085000,406.626000,233.606000,406.646000C232.681000,406.685000,231.774000,406.948000,230.489000,407.923000C228.869000,409.153000,227.637000,409.455000,226.471000,409.259000C225.905000,409.163000,225.378000,408.955000,224.860000,408.719000C224.659000,408.628000,224.465000,408.535000,224.269000,408.441000C223.942000,408.284000,223.611000,408.126000,223.245000,407.972000C220.883000,406.981000,219.080000,406.294000,216.790000,406.807000C215.805000,407.027000,214.446000,406.820000,213.347000,406.389000C212.793000,406.172000,212.275000,405.887000,211.889000,405.544000C211.508000,405.206000,211.207000,404.766000,211.207000,404.245000C211.207000,403.806000,211.328000,403.478000,211.611000,403.250000C211.735000,403.150000,211.873000,403.084000,211.998000,403.034000C212.074000,403.003000,212.165000,402.970000,212.251000,402.940000C212.295000,402.924000,212.338000,402.909000,212.377000,402.894000C212.624000,402.803000,212.881000,402.690000,213.147000,402.466000C213.414000,402.241000,213.708000,401.890000,213.996000,401.300000C214.032000,401.228000,214.067000,401.155000,214.103000,401.083000C214.537000,400.191000,214.953000,399.337000,215.478000,398.700000C216.067000,397.985000,216.813000,397.519000,217.883000,397.519000C218.861000,397.519000,219.573000,397.177000,220.282000,396.836000C220.420000,396.769000,220.558000,396.703000,220.698000,396.639000C221.116000,396.449000,221.564000,396.278000,222.056000,396.267000C222.562000,396.256000,223.073000,396.413000,223.621000,396.799000C224.538000,397.446000,225.466000,397.680000,226.254000,397.583000C227.036000,397.486000,227.711000,397.061000,228.149000,396.326000C229.099000,394.731000,230.507000,394.047000,231.824000,394.132000ZM231.774000,394.922000C230.784000,394.858000,229.640000,395.361000,228.823000,396.733000C228.260000,397.677000,227.372000,398.242000,226.350000,398.368000C225.334000,398.494000,224.216000,398.185000,223.170000,397.447000C222.737000,397.142000,222.387000,397.051000,222.074000,397.058000C221.747000,397.066000,221.418000,397.180000,221.022000,397.360000C220.904000,397.414000,220.781000,397.474000,220.652000,397.536000C219.941000,397.881000,219.054000,398.310000,217.883000,398.310000C217.090000,398.310000,216.553000,398.635000,216.082000,399.206000C215.620000,399.766000,215.244000,400.537000,214.793000,401.461000C214.763000,401.523000,214.732000,401.586000,214.701000,401.650000C214.373000,402.322000,214.015000,402.767000,213.651000,403.073000C213.286000,403.380000,212.933000,403.532000,212.647000,403.637000C212.587000,403.660000,212.535000,403.678000,212.487000,403.695000C212.415000,403.720000,212.354000,403.742000,212.291000,403.768000C212.194000,403.807000,212.138000,403.838000,212.101000,403.868000C212.061000,403.900000,211.992000,403.963000,211.992000,404.245000C211.992000,404.443000,212.109000,404.685000,212.409000,404.951000C212.703000,405.213000,213.131000,405.456000,213.632000,405.652000C214.644000,406.048000,215.837000,406.209000,216.620000,406.034000C219.179000,405.462000,221.195000,406.255000,223.547000,407.242000C223.926000,407.401000,224.294000,407.577000,224.636000,407.740000C224.827000,407.831000,225.010000,407.919000,225.183000,407.998000C225.683000,408.225000,226.136000,408.400000,226.600000,408.478000C227.492000,408.628000,228.510000,408.435000,230.017000,407.291000C231.412000,406.233000,232.468000,405.902000,233.573000,405.856000C234.109000,405.833000,234.650000,405.878000,235.218000,405.925000L235.229000,405.926000C235.800000,405.974000,236.412000,406.025000,237.125000,406.025000C238.512000,406.025000,239.472000,405.516000,239.897000,404.703000C240.326000,403.882000,240.293000,402.599000,239.349000,400.875000C238.864000,399.990000,238.364000,399.462000,237.887000,399.123000C237.409000,398.783000,236.932000,398.617000,236.459000,398.483000C236.378000,398.460000,236.294000,398.437000,236.209000,398.414000C235.824000,398.310000,235.413000,398.199000,235.062000,398.003000C234.596000,397.743000,234.230000,397.338000,234.004000,396.655000C233.664000,395.626000,232.775000,394.986000,231.774000,394.922000Z" clip-rule="evenodd" fill="rgb(255,209,45)" fill-rule="evenodd" stroke="none" stroke-width="1"/><path id="e5wh2n8elvsh36" d="M236.356000,388.024000L215.543000,388.024000L222.510000,396.447000C224.023000,398.276000,226.786000,398.354000,228.398000,396.614000L236.356000,388.024000Z" fill="rgb(0,0,0)" stroke="none" stroke-width="1"/><path id="e5wh2n8elvsh37" d="M215.346000,387.826000C216.851000,383.935000,219.076000,374.770000,225.163000,374.770000C232.232000,374.770000,235.112000,383.540000,236.159000,387.826000L215.346000,387.826000Z" fill="rgb(198,135,49)" stroke="none" stroke-width="1"/><path id="e5wh2n8elvsh38" d="M216.312000,376.551000C216.312000,378.080000,215.082000,379.320000,213.563000,379.320000C212.045000,379.320000,210.814000,378.080000,210.814000,376.551000C210.814000,375.021000,212.045000,373.781000,213.563000,373.781000C215.082000,373.781000,216.312000,375.021000,216.312000,376.551000Z" fill="rgb(0,0,0)" stroke="none" stroke-width="1"/><path id="e5wh2n8elvsh39" d="M215.528000,375.759000C215.528000,376.197000,215.176000,376.551000,214.742000,376.551000C214.309000,376.551000,213.957000,376.197000,213.957000,375.759000C213.957000,375.322000,214.309000,374.968000,214.742000,374.968000C215.176000,374.968000,215.528000,375.322000,215.528000,375.759000Z" fill="rgb(255,255,255)" stroke="none" stroke-width="1"/><path id="e5wh2n8elvsh40" d="M240.661000,376.551000C240.661000,378.080000,239.430000,379.320000,237.912000,379.320000C236.394000,379.320000,235.163000,378.080000,235.163000,376.551000C235.163000,375.021000,236.394000,373.781000,237.912000,373.781000C239.430000,373.781000,240.661000,375.021000,240.661000,376.551000Z" fill="rgb(0,0,0)" stroke="none" stroke-width="1"/><path id="e5wh2n8elvsh41" d="M239.483000,375.759000C239.483000,376.197000,239.131000,376.551000,238.698000,376.551000C238.264000,376.551000,237.912000,376.197000,237.912000,375.759000C237.912000,375.322000,238.264000,374.968000,238.698000,374.968000C239.131000,374.968000,239.483000,375.322000,239.483000,375.759000Z" fill="rgb(255,255,255)" stroke="none" stroke-width="1"/><path id="e5wh2n8elvsh42" d="M222.494000,403.308000C220.475000,404.213000,217.867000,404.208000,215.469000,403.241000L215.615000,402.874000C217.929000,403.807000,220.426000,403.802000,222.334000,402.946000C224.233000,402.095000,225.556000,400.401000,225.556000,397.915000L225.948000,397.915000C225.948000,400.404000,227.224000,402.018000,228.976000,402.829000C230.738000,403.644000,232.989000,403.647000,234.908000,402.874000L235.053000,403.241000C233.045000,404.051000,230.682000,404.054000,228.812000,403.188000C227.348000,402.511000,226.191000,401.302000,225.749000,399.549000C225.291000,401.332000,224.075000,402.599000,222.494000,403.308000Z" clip-rule="evenodd" fill="rgb(0,0,0)" fill-rule="evenodd" stroke="none" stroke-width="1"/><path id="e5wh2n8elvsh43" d="M202.458000,356.835000C204.391000,355.957000,206.472000,355.416000,208.086000,355.313000C208.683000,355.274000,209.425000,355.530000,210.200000,356.034000C210.970000,356.535000,211.753000,357.270000,212.427000,358.154000C213.778000,359.928000,214.667000,362.268000,214.194000,364.499000L214.578000,364.582000C215.084000,362.197000,214.131000,359.740000,212.738000,357.913000C212.040000,356.997000,211.225000,356.230000,210.413000,355.702000C209.605000,355.176000,208.778000,354.872000,208.062000,354.918000C206.392000,355.024000,204.265000,355.580000,202.297000,356.474000C200.333000,357.367000,198.502000,358.609000,197.449000,360.105000C197.035000,360.692000,196.908000,361.547000,196.967000,362.479000C197.027000,363.417000,197.278000,364.465000,197.659000,365.469000C198.040000,366.473000,198.553000,367.441000,199.144000,368.217000C199.731000,368.989000,200.409000,369.591000,201.125000,369.830000L201.248000,369.454000C200.640000,369.251000,200.021000,368.721000,199.455000,367.976000C198.892000,367.236000,198.396000,366.302000,198.026000,365.327000C197.656000,364.352000,197.415000,363.343000,197.359000,362.453000C197.302000,361.557000,197.432000,360.812000,197.769000,360.334000C198.764000,358.920000,200.523000,357.714000,202.458000,356.835000Z" clip-rule="evenodd" fill="rgb(0,0,0)" fill-rule="evenodd" stroke="none" stroke-width="1"/><path id="e5wh2n8elvsh44" d="M209.016000,483.959000C200.065000,481.803000,188.540000,485.523000,174.802000,493.827000L174.600000,493.488000C188.351000,485.176000,199.995000,481.379000,209.108000,483.574000C218.248000,485.776000,224.759000,493.979000,228.300000,509.438000C231.140000,521.840000,227.916000,537.249000,222.756000,551.448000C217.794000,565.098000,211.032000,577.661000,206.091000,585.419000C211.132000,581.732000,215.435000,580.246000,218.873000,580.128000C222.512000,580.002000,225.176000,581.410000,226.692000,583.343000C227.458000,584.322000,227.973000,585.656000,228.284000,587.138000C228.596000,588.623000,228.706000,590.271000,228.656000,591.889000C228.605000,593.507000,228.393000,595.101000,228.056000,596.480000C227.721000,597.855000,227.258000,599.032000,226.696000,599.804000L226.379000,599.570000C226.897000,598.858000,227.345000,597.739000,227.675000,596.385000C228.004000,595.036000,228.213000,593.469000,228.263000,591.876000C228.313000,590.283000,228.204000,588.668000,227.900000,587.220000C227.596000,585.771000,227.099000,584.502000,226.383000,583.588000C224.953000,581.763000,222.414000,580.402000,218.886000,580.523000C215.356000,580.645000,210.829000,582.255000,205.451000,586.393000L205.167000,586.127000C210.134000,578.489000,217.235000,565.486000,222.387000,551.312000C227.541000,537.131000,230.731000,521.813000,227.917000,509.527000C224.389000,494.127000,217.941000,486.109000,209.016000,483.959000Z" clip-rule="evenodd" fill="rgb(0,0,0)" fill-rule="evenodd" stroke="none" stroke-width="1"/><path id="e5wh2n8elvsh45" d="M251.384000,483.959000C260.335000,481.803000,271.860000,485.523000,285.599000,493.827000L285.801000,493.488000C272.050000,485.176000,260.405000,481.379000,251.293000,483.574000C242.153000,485.776000,235.642000,493.979000,232.101000,509.438000C229.260000,521.840000,232.484000,537.249000,237.645000,551.448000C242.650000,565.219000,249.489000,577.885000,254.441000,585.625000C250.467000,583.279000,246.154000,581.652000,242.213000,580.996000C238.037000,580.300000,234.242000,580.689000,231.726000,582.514000C230.704000,583.255000,230.005000,584.537000,229.536000,586.054000C229.065000,587.575000,228.817000,589.359000,228.715000,591.138000C228.513000,594.690000,228.895000,598.262000,229.295000,599.739000L229.674000,599.635000C229.288000,598.211000,228.907000,594.685000,229.108000,591.160000C229.208000,589.400000,229.453000,587.651000,229.911000,586.172000C230.370000,584.688000,231.035000,583.503000,231.955000,582.835000C234.347000,581.100000,238.014000,580.697000,242.149000,581.386000C246.276000,582.074000,250.832000,583.844000,254.966000,586.404000L255.233000,586.127000C250.266000,578.489000,243.165000,565.486000,238.014000,551.312000C232.859000,537.131000,229.669000,521.813000,232.483000,509.527000C236.011000,494.127000,242.459000,486.109000,251.384000,483.959000Z" clip-rule="evenodd" fill="rgb(0,0,0)" fill-rule="evenodd" stroke="none" stroke-width="1"/><path id="e5wh2n8elvsh46" d="M192.254000,444.811000C186.066000,450.531000,180.322000,457.645000,177.222000,462.510000L176.892000,462.296000C180.010000,457.402000,185.776000,450.262000,191.988000,444.520000C195.094000,441.649000,198.317000,439.121000,201.382000,437.398000C204.441000,435.679000,207.369000,434.745000,209.875000,435.106000C217.523000,436.207000,222.484000,441.563000,224.565000,448.100000C226.643000,454.631000,225.853000,462.359000,221.989000,468.248000C215.840000,477.620000,208.765000,481.758000,206.576000,482.760000L206.414000,482.400000C208.545000,481.424000,215.558000,477.332000,221.661000,468.030000C225.455000,462.249000,226.236000,454.646000,224.191000,448.220000C222.147000,441.800000,217.291000,436.573000,209.820000,435.498000C207.442000,435.156000,204.606000,436.039000,201.573000,437.744000C198.545000,439.446000,195.347000,441.952000,192.254000,444.811000Z" clip-rule="evenodd" fill="rgb(0,0,0)" fill-rule="evenodd" stroke="none" stroke-width="1"/><path id="e5wh2n8elvsh47" d="M259.378000,444.811000C265.566000,450.531000,271.310000,457.645000,274.410000,462.510000L274.740000,462.296000C271.622000,457.402000,265.855000,450.262000,259.644000,444.520000C256.538000,441.649000,253.315000,439.121000,250.250000,437.398000C247.191000,435.679000,244.262000,434.745000,241.757000,435.106000C234.109000,436.207000,229.147000,441.563000,227.067000,448.100000C224.989000,454.631000,225.779000,462.359000,229.643000,468.248000C232.719000,472.937000,236.478000,476.710000,239.737000,479.434000C242.993000,482.155000,245.760000,483.838000,246.861000,484.343000L247.024000,483.982000C245.965000,483.498000,243.228000,481.838000,239.987000,479.129000C236.750000,476.423000,233.020000,472.678000,229.971000,468.030000C226.177000,462.249000,225.396000,454.646000,227.441000,448.220000C229.484000,441.800000,234.341000,436.573000,241.812000,435.498000C244.190000,435.156000,247.026000,436.039000,250.059000,437.744000C253.087000,439.446000,256.285000,441.952000,259.378000,444.811000Z" clip-rule="evenodd" fill="rgb(0,0,0)" fill-rule="evenodd" stroke="none" stroke-width="1"/><path id="e5wh2n8elvsh48" d="M230.866000,413.542000L221.695000,413.542000C220.592000,413.542000,219.570000,414.125000,219.002000,415.077000L213.198000,424.806000C212.644000,425.734000,212.600000,426.883000,213.080000,427.852000L218.068000,437.904000C218.600000,438.977000,219.688000,439.654000,220.878000,439.654000L230.825000,439.654000C231.984000,439.654000,233.049000,439.011000,233.595000,437.982000L238.987000,427.824000C239.492000,426.872000,239.481000,425.727000,238.958000,424.785000L233.607000,415.161000C233.052000,414.161000,232.003000,413.542000,230.866000,413.542000Z" fill="url(#e5wh2n8elvsh48-fill)" stroke="none" stroke-width="1"/><path id="e5wh2n8elvsh49" d="M218.833000,414.975000C219.436000,413.963000,220.522000,413.344000,221.694000,413.344000L230.866000,413.344000C232.074000,413.344000,233.187000,414.002000,233.778000,415.064000L239.128000,424.688000C239.685000,425.688000,239.696000,426.906000,239.159000,427.917000L233.768000,438.075000C233.187000,439.169000,232.056000,439.852000,230.824000,439.852000L220.877000,439.852000C219.612000,439.852000,218.456000,439.132000,217.891000,437.992000L212.904000,427.940000C212.393000,426.911000,212.440000,425.690000,213.029000,424.704000L218.833000,414.975000ZM221.694000,413.740000C220.660000,413.740000,219.702000,414.286000,219.169000,415.179000L213.365000,424.908000C212.846000,425.778000,212.805000,426.855000,213.255000,427.763000L218.242000,437.815000C218.741000,438.821000,219.761000,439.456000,220.877000,439.456000L230.824000,439.456000C231.911000,439.456000,232.909000,438.853000,233.421000,437.888000L238.813000,427.730000C239.287000,426.838000,239.276000,425.764000,238.786000,424.881000L233.435000,415.257000C232.914000,414.320000,231.931000,413.740000,230.866000,413.740000L221.694000,413.740000Z" clip-rule="evenodd" fill="rgb(255,255,255)" fill-rule="evenodd" stroke="none" stroke-width="1"/><path id="e5wh2n8elvsh50" d="M228.890000,417.735000L223.571000,421.843000C223.394000,421.980000,223.203000,422.097000,223.001000,422.193000L217.190000,424.955000C215.592000,425.715000,214.930000,427.654000,215.727000,429.244000L219.081000,435.938000C219.616000,437.004000,220.700000,437.676000,221.886000,437.676000L229.883000,437.676000C231.038000,437.676000,232.099000,437.039000,232.648000,436.016000L237.009000,427.882000C237.523000,426.924000,237.511000,425.767000,236.979000,424.819000L233.536000,418.688000C232.596000,417.015000,230.405000,416.565000,228.890000,417.735000Z" fill="url(#e5wh2n8elvsh50-fill)" stroke="none" stroke-width="1"/><path id="e5wh2n8elvsh51" d="M233.023000,418.980000C232.259000,417.621000,230.478000,417.255000,229.248000,418.206000L223.929000,422.314000C223.718000,422.476000,223.491000,422.616000,223.251000,422.730000L217.441000,425.492000C216.142000,426.109000,215.604000,427.685000,216.252000,428.976000L219.606000,435.670000C220.041000,436.536000,220.922000,437.083000,221.885000,437.083000L229.883000,437.083000C230.821000,437.083000,231.683000,436.565000,232.129000,435.733000L236.490000,427.600000C236.907000,426.821000,236.898000,425.881000,236.466000,425.111000L233.023000,418.980000ZM228.531000,417.264000C230.330000,415.875000,232.932000,416.409000,234.048000,418.396000L237.491000,424.527000C238.123000,425.652000,238.137000,427.026000,237.526000,428.164000L233.165000,436.297000C232.514000,437.512000,231.253000,438.270000,229.883000,438.270000L221.885000,438.270000C220.477000,438.270000,219.189000,437.471000,218.555000,436.205000L215.200000,429.511000C214.254000,427.623000,215.040000,425.321000,216.938000,424.418000L222.749000,421.656000C222.913000,421.578000,223.068000,421.483000,223.212000,421.372000L228.531000,417.264000Z" clip-rule="evenodd" fill="url(#e5wh2n8elvsh51-fill)" fill-rule="evenodd" stroke="none" stroke-width="1"/><path id="e5wh2n8elvsh52" d="M233.318000,438.467000L215.058000,421.850000L216.825000,418.685000L235.478000,434.510000L233.318000,438.467000Z" fill="rgb(249,246,241)" fill-opacity="0.4" stroke="none" stroke-width="1"/><path id="e5wh2n8elvsh53" d="M236.264000,432.929000L217.610000,417.499000L218.003000,416.708000L236.656000,432.137000L236.264000,432.929000Z" fill="rgb(249,246,241)" fill-opacity="0.4" stroke="none" stroke-width="1"/><path id="e5wh2n8elvsh54" d="M239.209000,426.203000L223.894000,413.542000L232.533000,413.938000L239.209000,425.214000L239.209000,426.203000Z" fill="rgb(249,246,241)" fill-opacity="0.4" stroke="none" stroke-width="1"/><path id="e5wh2n8elvsh55" d="M253.052000,439.705000L250.893000,431.594000L251.272000,431.492000L253.432000,439.602000L253.052000,439.705000Z" clip-rule="evenodd" fill="rgb(0,0,0)" fill-rule="evenodd" stroke="none" stroke-width="1"/><path id="e5wh2n8elvsh56" d="M197.276000,440.496000L199.436000,432.386000L199.056000,432.283000L196.896000,440.394000L197.276000,440.496000Z" clip-rule="evenodd" fill="rgb(0,0,0)" fill-rule="evenodd" stroke="none" stroke-width="1"/><path id="e5wh2n8elvsh57" d="M249.192000,358.844000C247.349000,357.789000,245.327000,357.055000,243.730000,356.801000C243.139000,356.707000,242.377000,356.891000,241.559000,357.321000C240.746000,357.748000,239.899000,358.406000,239.146000,359.223000C237.637000,360.862000,236.536000,363.109000,236.801000,365.375000L236.412000,365.421000C236.127000,362.999000,237.303000,360.642000,238.858000,358.954000C239.638000,358.107000,240.520000,357.420000,241.377000,356.970000C242.231000,356.522000,243.082000,356.297000,243.791000,356.410000C245.443000,356.673000,247.510000,357.426000,249.386000,358.500000C251.259000,359.573000,252.968000,360.982000,253.878000,362.570000C254.235000,363.194000,254.284000,364.057000,254.139000,364.979000C253.992000,365.908000,253.645000,366.928000,253.174000,367.892000C252.702000,368.856000,252.101000,369.771000,251.442000,370.489000C250.786000,371.203000,250.056000,371.738000,249.321000,371.909000L249.233000,371.523000C249.857000,371.378000,250.522000,370.908000,251.154000,370.220000C251.783000,369.535000,252.363000,368.652000,252.822000,367.716000C253.280000,366.780000,253.612000,365.798000,253.751000,364.917000C253.891000,364.029000,253.829000,363.275000,253.538000,362.768000C252.678000,361.267000,251.038000,359.901000,249.192000,358.844000Z" clip-rule="evenodd" fill="rgb(0,0,0)" fill-rule="evenodd" stroke="none" stroke-width="1"/><path id="e5wh2n8elvsh58" d="M54.228600,480.099000L86.914300,599.874000L0,599.874000L0,381.285000L0,193.388000L0,1L98.800000,1L104,60.887400L54.228600,111.792000L54.228600,480.099000Z" fill="url(#e5wh2n8elvsh58-fill)" stroke="none" stroke-width="1"/><path id="e5wh2n8elvsh59" d="M417.494000,344.062000L351.560000,599.874000L480,599.874000L480,384.204000L480,198.817000L480,8.998050L320,18.599800L349.358000,73.994400L432.294000,90.243500L417.494000,344.062000Z" fill="url(#e5wh2n8elvsh59-fill)" stroke="none" stroke-width="1"/><path id="e5wh2n8elvsh60" d="M480,287.940000L94,3.248900L109.802000,3L480,265.947000L480,287.940000Z" fill="rgb(156,231,255)" fill-opacity="0.14" stroke="none" stroke-width="1"/><path id="e5wh2n8elvsh61" d="M479,128.474000L233,3L255.320000,3L479,95.480600L479,128.474000Z" fill="rgb(156,231,255)" fill-opacity="0.14" stroke="none" stroke-width="1"/><path id="e5wh2n8elvsh62" d="M348,599.874000L0,244L0,188.119000L480,544L480,599.874000L348,599.874000Z" fill="rgb(156,231,255)" fill-opacity="0.14" stroke="none" stroke-width="1"/><path id="e5wh2n8elvsh63" d="M337.161000,74.984300C415.005000,74.984300,459.594000,42.083000,480,22.954400L480,0L152,0C190.040000,25.249800,259.318000,74.984300,337.161000,74.984300Z" fill="rgb(67,96,108)" stroke="none" stroke-width="1"/><path id="e5wh2n8elvsh64" d="M133.174000,68.418600C64.844000,71.909300,22.312000,58.644500,0,46.077800L0,0L304,0C268.905000,23.038900,201.505000,64.927800,133.174000,68.418600Z" fill="rgb(67,96,108)" stroke="none" stroke-width="1"/></svg>