<svg width="213" height="40" viewBox="0 0 213 40" fill="none" xmlns="http://www.w3.org/2000/svg">
<rect x="0.5" width="212" height="40" rx="4" fill="url(#paint0_linear)"/>
<path d="M25.0369 22.296C24.7062 23.2027 24.1622 23.9067 23.4049 24.408C22.6475 24.9093 21.7729 25.16 20.7809 25.16C19.7782 25.16 18.9089 24.9413 18.1729 24.504C17.4475 24.056 16.8822 23.4267 16.4769 22.616C16.0822 21.8053 15.8849 20.84 15.8849 19.72C15.8849 18.6 16.0822 17.6347 16.4769 16.824C16.8822 16.0133 17.4475 15.3893 18.1729 14.952C18.9089 14.504 19.7675 14.28 20.7489 14.28C21.7729 14.28 22.6262 14.4933 23.3089 14.92C24.0022 15.336 24.5142 15.944 24.8449 16.744L23.5809 17.336C23.3462 16.728 23.0049 16.2693 22.5569 15.96C22.1195 15.64 21.5489 15.48 20.8449 15.48C20.1302 15.48 19.5009 15.6507 18.9569 15.992C18.4129 16.3227 17.9862 16.8027 17.6769 17.432C17.3782 18.0613 17.2289 18.824 17.2289 19.72C17.2289 21.0427 17.5435 22.0827 18.1729 22.84C18.8129 23.5867 19.6822 23.96 20.7809 23.96C21.4849 23.96 22.0982 23.784 22.6209 23.432C23.1435 23.0693 23.5222 22.5307 23.7569 21.816L25.0369 22.296ZM31.7496 14.28C32.7523 14.28 33.6163 14.504 34.3416 14.952C35.0776 15.3893 35.643 16.0133 36.0376 16.824C36.443 17.6347 36.6456 18.6 36.6456 19.72C36.6456 20.84 36.443 21.8053 36.0376 22.616C35.643 23.4267 35.0776 24.056 34.3416 24.504C33.6163 24.9413 32.7523 25.16 31.7496 25.16C30.747 25.16 29.8776 24.9413 29.1416 24.504C28.4163 24.056 27.851 23.4267 27.4456 22.616C27.051 21.8053 26.8536 20.84 26.8536 19.72C26.8536 18.6 27.051 17.6347 27.4456 16.824C27.851 16.0133 28.4163 15.3893 29.1416 14.952C29.8776 14.504 30.747 14.28 31.7496 14.28ZM31.7496 15.48C30.651 15.48 29.7816 15.8533 29.1416 16.6C28.5123 17.3467 28.1976 18.3867 28.1976 19.72C28.1976 21.0427 28.5123 22.0827 29.1416 22.84C29.7816 23.5867 30.651 23.96 31.7496 23.96C32.8483 23.96 33.7123 23.5867 34.3416 22.84C34.9816 22.0827 35.3016 21.0427 35.3016 19.72C35.3016 18.3867 34.9816 17.3467 34.3416 16.6C33.7123 15.8533 32.8483 15.48 31.7496 15.48ZM47.7504 14.44V25H46.1664L41.7504 17.928L40.6304 15.944H40.6144L40.6784 17.544V25H39.4624V14.44H41.0464L45.4464 21.48L46.5824 23.512H46.5984L46.5344 21.896V14.44H47.7504ZM59.5004 14.44V25H57.9164L53.5004 17.928L52.3804 15.944H52.3644L52.4284 17.544V25H51.2124V14.44H52.7964L57.1964 21.48L58.3324 23.512H58.3484L58.2844 21.896V14.44H59.5004ZM62.9624 25V14.44H70.3704V15.64H64.2424V19.048H69.0104V20.248H64.2424V23.8H70.6104V25H62.9624ZM81.4431 22.296C81.1125 23.2027 80.5685 23.9067 79.8111 24.408C79.0538 24.9093 78.1791 25.16 77.1871 25.16C76.1845 25.16 75.3151 24.9413 74.5791 24.504C73.8538 24.056 73.2885 23.4267 72.8831 22.616C72.4885 21.8053 72.2911 20.84 72.2911 19.72C72.2911 18.6 72.4885 17.6347 72.8831 16.824C73.2885 16.0133 73.8538 15.3893 74.5791 14.952C75.3151 14.504 76.1738 14.28 77.1551 14.28C78.1791 14.28 79.0325 14.4933 79.7151 14.92C80.4085 15.336 80.9205 15.944 81.2511 16.744L79.9871 17.336C79.7525 16.728 79.4111 16.2693 78.9631 15.96C78.5258 15.64 77.9551 15.48 77.2511 15.48C76.5365 15.48 75.9071 15.6507 75.3631 15.992C74.8191 16.3227 74.3925 16.8027 74.0831 17.432C73.7845 18.0613 73.6351 18.824 73.6351 19.72C73.6351 21.0427 73.9498 22.0827 74.5791 22.84C75.2191 23.5867 76.0885 23.96 77.1871 23.96C77.8911 23.96 78.5045 23.784 79.0271 23.432C79.5498 23.0693 79.9285 22.5307 80.1631 21.816L81.4431 22.296ZM91.3239 14.44V15.64H87.6439V25H86.3639V15.64H82.6839V14.44H91.3239ZM105.558 14.44V15.64H101.878V25H100.598V15.64H96.9183V14.44H105.558ZM111.687 14.28C112.69 14.28 113.554 14.504 114.279 14.952C115.015 15.3893 115.58 16.0133 115.975 16.824C116.38 17.6347 116.583 18.6 116.583 19.72C116.583 20.84 116.38 21.8053 115.975 22.616C115.58 23.4267 115.015 24.056 114.279 24.504C113.554 24.9413 112.69 25.16 111.687 25.16C110.684 25.16 109.815 24.9413 109.079 24.504C108.354 24.056 107.788 23.4267 107.383 22.616C106.988 21.8053 106.791 20.84 106.791 19.72C106.791 18.6 106.988 17.6347 107.383 16.824C107.788 16.0133 108.354 15.3893 109.079 14.952C109.815 14.504 110.684 14.28 111.687 14.28ZM111.687 15.48C110.588 15.48 109.719 15.8533 109.079 16.6C108.45 17.3467 108.135 18.3867 108.135 19.72C108.135 21.0427 108.45 22.0827 109.079 22.84C109.719 23.5867 110.588 23.96 111.687 23.96C112.786 23.96 113.65 23.5867 114.279 22.84C114.919 22.0827 115.239 21.0427 115.239 19.72C115.239 18.3867 114.919 17.3467 114.279 16.6C113.65 15.8533 112.786 15.48 111.687 15.48ZM124.853 25V14.44H128.613C129.861 14.44 130.773 14.7013 131.349 15.224C131.925 15.7467 132.213 16.456 132.213 17.352C132.213 17.8853 132.058 18.3707 131.749 18.808C131.44 19.2347 131.002 19.5067 130.437 19.624V19.64C131.066 19.7573 131.562 20.0453 131.925 20.504C132.298 20.952 132.485 21.464 132.485 22.04C132.485 22.936 132.149 23.656 131.477 24.2C130.805 24.7333 129.845 25 128.597 25H124.853ZM126.133 19.08H128.629C130.122 19.08 130.869 18.504 130.869 17.352C130.869 16.2107 130.122 15.64 128.629 15.64H126.133V19.08ZM126.133 23.8H128.901C129.658 23.8 130.218 23.6453 130.581 23.336C130.954 23.0267 131.141 22.5947 131.141 22.04C131.141 21.4747 130.954 21.0427 130.581 20.744C130.218 20.4347 129.658 20.28 128.901 20.28H126.133V23.8ZM139.306 14.44C140.383 14.44 141.247 14.7173 141.898 15.272C142.549 15.8267 142.874 16.5787 142.874 17.528C142.874 18.2853 142.661 18.9093 142.234 19.4C141.807 19.8907 141.231 20.2267 140.506 20.408L143.514 25H141.994L139.114 20.616H136.586V25H135.306V14.44H139.306ZM139.29 19.416C140.783 19.416 141.53 18.7867 141.53 17.528C141.53 16.2693 140.783 15.64 139.29 15.64H136.586V19.416H139.29ZM147.227 14.44V25H145.947V14.44H147.227ZM154.937 25.16C153.934 25.16 153.065 24.9413 152.329 24.504C151.604 24.056 151.038 23.4267 150.633 22.616C150.238 21.8053 150.041 20.84 150.041 19.72C150.041 18.6 150.249 17.6347 150.665 16.824C151.092 16.0133 151.684 15.3893 152.441 14.952C153.198 14.504 154.068 14.28 155.049 14.28C156.094 14.28 156.942 14.4773 157.593 14.872C158.254 15.2667 158.788 15.8747 159.193 16.696L158.025 17.336C157.79 16.728 157.417 16.2693 156.905 15.96C156.404 15.64 155.785 15.48 155.049 15.48C154.334 15.48 153.7 15.6507 153.145 15.992C152.601 16.3227 152.169 16.808 151.849 17.448C151.54 18.0773 151.385 18.8347 151.385 19.72C151.385 21.0427 151.689 22.0827 152.297 22.84C152.916 23.5867 153.812 23.96 154.985 23.96C155.572 23.96 156.1 23.864 156.569 23.672C157.038 23.4693 157.412 23.1653 157.689 22.76C157.966 22.3547 158.105 21.848 158.105 21.24V20.872H154.745V19.672H159.273V25H158.265L158.217 23.576C157.897 24.088 157.46 24.4827 156.905 24.76C156.361 25.0267 155.705 25.16 154.937 25.16ZM163.539 14.44V19.048H169.267V14.44H170.547V25H169.267V20.248H163.539V25H162.259V14.44H163.539ZM181.433 14.44V15.64H177.753V25H176.473V15.64H172.793V14.44H181.433ZM184.946 14.44V25H183.666V14.44H184.946ZM191.808 14.44C193.461 14.44 194.757 14.8987 195.696 15.816C196.645 16.7227 197.12 18.024 197.12 19.72C197.12 21.416 196.645 22.7227 195.696 23.64C194.757 24.5467 193.461 25 191.808 25H188.4V14.44H191.808ZM191.936 23.8C193.141 23.8 194.08 23.4427 194.752 22.728C195.435 22.0027 195.776 21 195.776 19.72C195.776 18.44 195.435 17.4427 194.752 16.728C194.08 16.0027 193.141 15.64 191.936 15.64H189.68V23.8H191.936Z" fill="white"/>
<defs>
<linearGradient id="paint0_linear" x1="106.5" y1="0" x2="106.5" y2="40" gradientUnits="userSpaceOnUse">
<stop stop-color="#FFBF5B"/>
<stop offset="1" stop-color="#E97A1C"/>
</linearGradient>
</defs>
</svg>
