<svg width="181" height="40" viewBox="0 0 181 40" fill="none" xmlns="http://www.w3.org/2000/svg">
<path d="M0 4C0 1.79086 1.79086 0 4 0H177C179.209 0 181 1.79086 181 4V36C181 38.2091 179.209 40 177 40H4C1.79086 40 0 38.2091 0 36V4Z" fill="url(#paint0_linear)"/>
<path d="M19.4873 14.44C20.2019 14.44 20.8206 14.5733 21.3433 14.84C21.8766 15.096 22.2926 15.464 22.5913 15.944C22.8899 16.424 23.0393 16.9947 23.0393 17.656C23.0393 18.3173 22.8899 18.888 22.5913 19.368C22.2926 19.848 21.8766 20.2213 21.3433 20.488C20.8206 20.744 20.2019 20.872 19.4873 20.872H17.0393V25H15.7593V14.44H19.4873ZM19.2953 19.672C20.1273 19.672 20.7353 19.5013 21.1193 19.16C21.5033 18.808 21.6953 18.3067 21.6953 17.656C21.6953 16.9947 21.5033 16.4933 21.1193 16.152C20.7353 15.8107 20.1273 15.64 19.2953 15.64H17.0393V19.672H19.2953ZM26.8049 14.44V25H25.5249V14.44H26.8049ZM38.7713 22.296C38.4406 23.2027 37.8966 23.9067 37.1393 24.408C36.3819 24.9093 35.5073 25.16 34.5153 25.16C33.5126 25.16 32.6433 24.9413 31.9073 24.504C31.1819 24.056 30.6166 23.4267 30.2113 22.616C29.8166 21.8053 29.6193 20.84 29.6193 19.72C29.6193 18.6 29.8166 17.6347 30.2113 16.824C30.6166 16.0133 31.1819 15.3893 31.9073 14.952C32.6433 14.504 33.5019 14.28 34.4833 14.28C35.5073 14.28 36.3606 14.4933 37.0433 14.92C37.7366 15.336 38.2486 15.944 38.5793 16.744L37.3153 17.336C37.0806 16.728 36.7393 16.2693 36.2913 15.96C35.8539 15.64 35.2833 15.48 34.5793 15.48C33.8646 15.48 33.2353 15.6507 32.6913 15.992C32.1473 16.3227 31.7206 16.8027 31.4113 17.432C31.1126 18.0613 30.9633 18.824 30.9633 19.72C30.9633 21.0427 31.2779 22.0827 31.9073 22.84C32.5473 23.5867 33.4166 23.96 34.5153 23.96C35.2193 23.96 35.8326 23.784 36.3553 23.432C36.8779 23.0693 37.2566 22.5307 37.4913 21.816L38.7713 22.296ZM42.508 14.44V19.88L47.82 14.44H49.5L45.292 18.744L49.548 25H48.012L44.396 19.688L42.508 21.608V25H41.228V14.44H42.508ZM65.058 14.44V21.064C65.058 22.4187 64.7007 23.4427 63.986 24.136C63.2713 24.8187 62.2473 25.16 60.914 25.16C59.5913 25.16 58.5673 24.8187 57.842 24.136C57.1273 23.4427 56.77 22.4187 56.77 21.064V14.44H58.05V20.744C58.05 21.8427 58.2793 22.6533 58.738 23.176C59.2073 23.6987 59.9327 23.96 60.914 23.96C61.8953 23.96 62.6153 23.6987 63.074 23.176C63.5433 22.6533 63.778 21.8427 63.778 20.744V14.44H65.058ZM72.0341 14.44C72.7488 14.44 73.3675 14.5733 73.8901 14.84C74.4235 15.096 74.8395 15.464 75.1381 15.944C75.4368 16.424 75.5861 16.9947 75.5861 17.656C75.5861 18.3173 75.4368 18.888 75.1381 19.368C74.8395 19.848 74.4235 20.2213 73.8901 20.488C73.3675 20.744 72.7488 20.872 72.0341 20.872H69.5861V25H68.3061V14.44H72.0341ZM71.8421 19.672C72.6741 19.672 73.2821 19.5013 73.6661 19.16C74.0501 18.808 74.2421 18.3067 74.2421 17.656C74.2421 16.9947 74.0501 16.4933 73.6661 16.152C73.2821 15.8107 72.6741 15.64 71.8421 15.64H69.5861V19.672H71.8421ZM84.4299 14.44V19.048H90.1579V14.44H91.4379V25H90.1579V20.248H84.4299V25H83.1499V14.44H84.4299ZM99.1559 14.28C100.159 14.28 101.023 14.504 101.748 14.952C102.484 15.3893 103.049 16.0133 103.444 16.824C103.849 17.6347 104.052 18.6 104.052 19.72C104.052 20.84 103.849 21.8053 103.444 22.616C103.049 23.4267 102.484 24.056 101.748 24.504C101.023 24.9413 100.159 25.16 99.1559 25.16C98.1532 25.16 97.2839 24.9413 96.5479 24.504C95.8225 24.056 95.2572 23.4267 94.8519 22.616C94.4572 21.8053 94.2599 20.84 94.2599 19.72C94.2599 18.6 94.4572 17.6347 94.8519 16.824C95.2572 16.0133 95.8225 15.3893 96.5479 14.952C97.2839 14.504 98.1532 14.28 99.1559 14.28ZM99.1559 15.48C98.0572 15.48 97.1879 15.8533 96.5479 16.6C95.9185 17.3467 95.6039 18.3867 95.6039 19.72C95.6039 21.0427 95.9185 22.0827 96.5479 22.84C97.1879 23.5867 98.0572 23.96 99.1559 23.96C100.255 23.96 101.119 23.5867 101.748 22.84C102.388 22.0827 102.708 21.0427 102.708 19.72C102.708 18.3867 102.388 17.3467 101.748 16.6C101.119 15.8533 100.255 15.48 99.1559 15.48ZM115.157 14.44V25H113.573L109.157 17.928L108.037 15.944H108.021L108.085 17.544V25H106.869V14.44H108.453L112.853 21.48L113.989 23.512H114.005L113.941 21.896V14.44H115.157ZM118.619 25V14.44H126.027V15.64H119.899V19.048H124.667V20.248H119.899V23.8H126.267V25H118.619ZM136.086 14.44L132.31 20.872V25H131.03V20.872L127.254 14.44H128.774L130.822 18.056L131.67 19.56L132.518 18.056L134.566 14.44H136.086ZM141.394 14.44C142.108 14.44 142.727 14.5733 143.25 14.84C143.783 15.096 144.199 15.464 144.498 15.944C144.796 16.424 144.946 16.9947 144.946 17.656C144.946 18.3173 144.796 18.888 144.498 19.368C144.199 19.848 143.783 20.2213 143.25 20.488C142.727 20.744 142.108 20.872 141.394 20.872H138.946V25H137.666V14.44H141.394ZM141.202 19.672C142.034 19.672 142.642 19.5013 143.026 19.16C143.41 18.808 143.602 18.3067 143.602 17.656C143.602 16.9947 143.41 16.4933 143.026 16.152C142.642 15.8107 142.034 15.64 141.202 15.64H138.946V19.672H141.202ZM151.687 14.28C152.69 14.28 153.554 14.504 154.279 14.952C155.015 15.3893 155.58 16.0133 155.975 16.824C156.38 17.6347 156.583 18.6 156.583 19.72C156.583 20.84 156.38 21.8053 155.975 22.616C155.58 23.4267 155.015 24.056 154.279 24.504C153.554 24.9413 152.69 25.16 151.687 25.16C150.684 25.16 149.815 24.9413 149.079 24.504C148.354 24.056 147.788 23.4267 147.383 22.616C146.988 21.8053 146.791 20.84 146.791 19.72C146.791 18.6 146.988 17.6347 147.383 16.824C147.788 16.0133 148.354 15.3893 149.079 14.952C149.815 14.504 150.684 14.28 151.687 14.28ZM151.687 15.48C150.588 15.48 149.719 15.8533 149.079 16.6C148.45 17.3467 148.135 18.3867 148.135 19.72C148.135 21.0427 148.45 22.0827 149.079 22.84C149.719 23.5867 150.588 23.96 151.687 23.96C152.786 23.96 153.65 23.5867 154.279 22.84C154.919 22.0827 155.239 21.0427 155.239 19.72C155.239 18.3867 154.919 17.3467 154.279 16.6C153.65 15.8533 152.786 15.48 151.687 15.48ZM166.465 14.44V15.64H162.785V25H161.505V15.64H157.825V14.44H166.465Z" fill="white"/>
<defs>
<linearGradient id="paint0_linear" x1="90.5" y1="0" x2="90.5" y2="40" gradientUnits="userSpaceOnUse">
<stop stop-color="#FFBF5B"/>
<stop offset="1" stop-color="#E97A1C"/>
</linearGradient>
</defs>
</svg>
