<svg id="eaqgs8h3bedk1" xmlns="http://www.w3.org/2000/svg" xmlns:xlink="http://www.w3.org/1999/xlink" viewBox="0 0 148 148" shape-rendering="geometricPrecision" text-rendering="geometricPrecision"><style><![CDATA[#eaqgs8h3bedk2 {animation: eaqgs8h3bedk2_c_o 3000ms linear infinite normal forwards}@keyframes eaqgs8h3bedk2_c_o { 0% {opacity: 1;animation-timing-function: cubic-bezier(0,0,0.580000,1)} 50% {opacity: 0.500000;animation-timing-function: cubic-bezier(0.420000,0,1,1)} 100% {opacity: 1} }#eaqgs8h3bedk3_to {animation: eaqgs8h3bedk3_to__to 3000ms linear infinite normal forwards}@keyframes eaqgs8h3bedk3_to__to { 0% {transform: translate(74.152042px,73.143002px);animation-timing-function: cubic-bezier(0.420000,0,1,1)} 50% {transform: translate(74.152042px,71.143002px);animation-timing-function: cubic-bezier(0,0,0.580000,1)} 100% {transform: translate(74.152042px,73.143002px)} }#eaqgs8h3bedk4_to {animation: eaqgs8h3bedk4_to__to 3000ms linear infinite normal forwards}@keyframes eaqgs8h3bedk4_to__to { 0% {transform: translate(75.002325px,75.114843px)} 50% {transform: translate(75.002325px,74.149031px)} 100% {transform: translate(75.002325px,75.114843px)} }#eaqgs8h3bedk5_to {animation: eaqgs8h3bedk5_to__to 3000ms linear infinite normal forwards}@keyframes eaqgs8h3bedk5_to__to { 0% {transform: translate(72.142851px,78.164652px)} 50% {transform: translate(72.142851px,76.108352px)} 100% {transform: translate(72.142851px,78.164652px)} }#eaqgs8h3bedk6_to {animation: eaqgs8h3bedk6_to__to 3000ms linear infinite normal forwards}@keyframes eaqgs8h3bedk6_to__to { 0% {transform: translate(76.913198px,68.623447px)} 50% {transform: translate(76.913198px,66.588747px)} 100% {transform: translate(76.913198px,68.623447px)} }#eaqgs8h3bedk7_to {animation: eaqgs8h3bedk7_to__to 3000ms linear infinite normal forwards}@keyframes eaqgs8h3bedk7_to__to { 0% {transform: translate(88.212349px,56.069248px)} 50% {transform: translate(88.212349px,54.069248px)} 100% {transform: translate(88.212349px,56.069248px)} }]]></style><defs><radialGradient id="eaqgs8h3bedk2-fill" cx="0" cy="0" r="1" spreadMethod="pad" gradientUnits="userSpaceOnUse" gradientTransform="matrix(0 80 -80 0 0 0)"><stop id="eaqgs8h3bedk2-fill-0" offset="0%" stop-color="rgb(232,197,154)"/><stop id="eaqgs8h3bedk2-fill-1" offset="81.562500%" stop-color="rgba(255,246,235,0)"/></radialGradient><linearGradient id="eaqgs8h3bedk3-fill" x1="65.112600" y1="40" x2="74.151500" y2="95.238100" spreadMethod="pad" gradientUnits="userSpaceOnUse"><stop id="eaqgs8h3bedk3-fill-0" offset="0%" stop-color="rgb(255,255,255)"/><stop id="eaqgs8h3bedk3-fill-1" offset="0.010000%" stop-color="rgba(220,233,235,0.88)"/><stop id="eaqgs8h3bedk3-fill-2" offset="100%" stop-color="rgba(196,210,211,0.73)"/></linearGradient><linearGradient id="eaqgs8h3bedk4-fill" x1="79.675300" y1="41.506500" x2="74.151500" y2="101.264000" spreadMethod="pad" gradientUnits="userSpaceOnUse"><stop id="eaqgs8h3bedk4-fill-0" offset="38.333300%" stop-color="rgb(254,191,90)"/><stop id="eaqgs8h3bedk4-fill-1" offset="100%" stop-color="rgb(230,115,21)"/></linearGradient><linearGradient id="eaqgs8h3bedk4-stroke" x1="74.151500" y1="45.021600" x2="74.151500" y2="101.264000" spreadMethod="pad" gradientUnits="userSpaceOnUse"><stop id="eaqgs8h3bedk4-stroke-0" offset="0%" stop-color="rgb(255,238,176)"/><stop id="eaqgs8h3bedk4-stroke-1" offset="100%" stop-color="rgb(255,209,45)"/></linearGradient></defs><ellipse id="eaqgs8h3bedk2" rx="74" ry="74" transform="matrix(1 0 0 1 74 74)" fill="url(#eaqgs8h3bedk2-fill)" stroke="none" stroke-width="1"/><g id="eaqgs8h3bedk3_to" transform="translate(74.152042,73.143002)"><path id="eaqgs8h3bedk3" d="M86.480700,40L62.984400,40C60.176500,40,57.574100,41.472200,56.127600,43.878900L41.263900,68.609600C39.854000,70.955400,39.741100,73.859200,40.964700,76.307300L53.737200,101.862000C55.092100,104.573000,57.862600,106.286000,60.893200,106.286000L86.375400,106.286000C89.326700,106.286000,92.038200,104.661000,93.430000,102.058000L107.238000,76.237700C108.525000,73.831900,108.496000,70.936200,107.163000,68.555800L93.460500,44.090700C92.045600,41.564500,89.376100,40,86.480700,40Z" transform="translate(-74.152042,-73.143002)" fill="url(#eaqgs8h3bedk3-fill)" stroke="rgb(255,255,255)" stroke-width="1"/></g><g id="eaqgs8h3bedk4_to" transform="translate(75.002325,75.114843)"><path id="eaqgs8h3bedk4" d="M81.438000,50.617900L67.800500,61.072300C67.348900,61.418500,66.861700,61.715500,66.347100,61.958300L51.452400,68.986200C47.381000,70.907300,45.695800,75.808300,47.724900,79.827000L56.329800,96.869700C57.690500,99.564600,60.452300,101.264000,63.471200,101.264000L83.967300,101.264000C86.906400,101.264000,89.608900,99.652400,91.005800,97.066500L102.179000,76.384400C103.487000,73.962500,103.459000,71.038100,102.103000,68.642400L93.267900,53.027400C90.874900,48.797900,85.294700,47.661400,81.438000,50.617900Z" transform="translate(-75.002325,-75.114843)" fill="url(#eaqgs8h3bedk4-fill)" stroke="url(#eaqgs8h3bedk4-stroke)" stroke-width="3"/></g><g id="eaqgs8h3bedk5_to" transform="translate(72.142851,78.164652)"><path id="eaqgs8h3bedk5" d="M92.731600,103.273000L46.030300,61.090900L50.549800,53.056300L98.255400,93.229400L92.731600,103.273000Z" transform="translate(-72.142851,-78.164652)" fill="rgb(249,246,241)" fill-opacity="0.4" stroke="none" stroke-width="1"/></g><g id="eaqgs8h3bedk6_to" transform="translate(76.913198,68.623447)"><path id="eaqgs8h3bedk6" d="M100.264000,89.212200L52.558400,50.043300L53.562800,48.034700L101.268000,87.203500L100.264000,89.212200Z" transform="translate(-76.913198,-68.623447)" fill="rgb(249,246,241)" fill-opacity="0.4" stroke="none" stroke-width="1"/></g><g id="eaqgs8h3bedk7_to" transform="translate(88.212349,56.069248)"><path id="eaqgs8h3bedk7" d="M107.797000,72.138500L68.627700,40L90.723000,41.004300L107.797000,69.627700L107.797000,72.138500Z" transform="translate(-88.212349,-56.069248)" fill="rgb(249,246,241)" fill-opacity="0.4" stroke="none" stroke-width="1"/></g></svg>